<?xml version="1.0" standalone="no"?><!-- Generator: Gravit.io --><svg xmlns="http://www.w3.org/2000/svg" xmlns:xlink="http://www.w3.org/1999/xlink" style="isolation:isolate" viewBox="0 0 48 48" width="48" height="48"><defs><clipPath id="_clipPath_eYiVL9z5tEM6TMj6Lxh5wOSWnG0YrLuF"><rect width="48" height="48"/></clipPath></defs><g clip-path="url(#_clipPath_eYiVL9z5tEM6TMj6Lxh5wOSWnG0YrLuF)"><g style="isolation:isolate" id="Design"><defs><filter id="wkNoT2KANz4XCvUfCBL4x2faRc1FeNx0" x="-200%" y="-200%" width="400%" height="400%"><feOffset xmlns="http://www.w3.org/2000/svg" in="SourceAlpha" result="offOut" dx="0" dy="1"/><feGaussianBlur xmlns="http://www.w3.org/2000/svg" in="offOut" result="blurOut" stdDeviation="0.5"/><feComponentTransfer xmlns="http://www.w3.org/2000/svg" in="blurOut" result="opacOut"><feFuncA xmlns="http://www.w3.org/2000/svg" type="table" tableValues="0 0.5"/></feComponentTransfer><feBlend xmlns="http://www.w3.org/2000/svg" in="SourceGraphic" in2="opacOut" mode="normal"/></filter></defs><g filter="url(#wkNoT2KANz4XCvUfCBL4x2faRc1FeNx0)"><path d=" M 2 24 C 2 11.858 11.858 2 24 2 C 36.142 2 46 11.858 46 24 C 46 36.142 36.142 46 24 46 C 11.858 46 2 36.142 2 24 Z " fill="rgb(144,202,249)"/></g><g id="Group"><g id="Group Ellipse"><path d=" M 9.878 24.183 C 9.786 26.339 10.199 28.548 11.174 30.637 L 11.174 30.637 C 14.441 37.644 22.782 40.679 29.788 37.412 C 35.027 34.97 38.045 29.69 37.859 24.253 C 37.666 29.329 34.704 34.12 29.788 36.412 C 22.782 39.679 14.441 36.644 11.174 29.637 C 10.35 27.87 9.927 26.017 9.878 24.183 Z " fill="rgb(0,0,0)" fill-opacity="0.15"/><path d=" M 9.878 23.183 C 9.692 17.745 12.71 12.466 17.949 10.023 C 24.955 6.756 33.296 9.792 36.563 16.798 C 37.537 18.888 37.951 21.097 37.859 23.253 L 37.859 23.253 C 37.81 21.419 37.387 19.566 36.563 17.798 C 33.296 10.792 24.955 7.756 17.949 11.023 C 13.032 13.316 10.071 18.107 9.878 23.183 Z " fill="rgb(255,255,255)"/><path d=" M 11.174 29.637 C 7.907 22.631 10.943 14.29 17.949 11.023 C 24.955 7.756 33.296 10.792 36.563 17.798 C 39.83 24.805 36.794 33.145 29.788 36.412 C 22.782 39.679 14.441 36.644 11.174 29.637 Z  M 13.525 28.541 C 10.863 22.832 13.336 16.036 19.045 13.374 C 24.754 10.712 31.55 13.186 34.212 18.895 C 36.874 24.603 34.401 31.399 28.692 34.062 C 22.983 36.724 16.187 34.25 13.525 28.541 Z " fill-rule="evenodd" fill="rgb(247,247,247)"/></g><g id="Rocket"><path d=" M 26.347 31.387 C 27.756 29.754 27.999 28.066 27.954 26.937 C 27.949 26.807 27.94 26.682 27.928 26.561 C 30.114 24.375 30.856 22.24 31.093 20.833 C 31.352 19.301 31.091 18.297 31.08 18.255 C 31.065 18.201 31.023 18.159 30.969 18.145 C 30.927 18.133 29.924 17.873 28.391 18.131 C 26.985 18.368 24.85 19.11 22.663 21.296 C 22.543 21.284 22.417 21.275 22.287 21.27 C 21.158 21.225 19.47 21.468 17.837 22.877 C 17.784 22.923 17.752 22.989 17.75 23.06 C 17.747 23.13 17.774 23.198 17.824 23.248 L 20.073 25.497 C 19.957 25.87 19.893 26.199 19.891 26.46 C 19.891 26.502 19.908 26.542 19.937 26.572 L 19.992 26.626 C 18.898 27.886 18.935 29.727 18.937 29.808 C 18.941 29.939 18.995 30.057 19.081 30.143 C 19.167 30.229 19.285 30.284 19.416 30.287 C 19.497 30.289 21.338 30.326 22.598 29.232 L 22.653 29.287 C 22.682 29.317 22.722 29.333 22.764 29.333 C 23.025 29.331 23.355 29.267 23.727 29.151 L 25.976 31.4 C 26.026 31.45 26.094 31.477 26.164 31.474 C 26.235 31.472 26.301 31.44 26.347 31.387 Z  M 27.975 21.249 C 28.517 21.792 28.517 22.671 27.975 23.214 C 27.432 23.756 26.553 23.756 26.011 23.214 C 25.468 22.671 25.468 21.792 26.011 21.249 C 26.553 20.707 27.432 20.707 27.975 21.249 Z  M 19.954 29.27 C 20.014 28.75 20.189 27.937 20.691 27.325 L 21.899 28.533 C 21.287 29.035 20.474 29.21 19.954 29.27 Z " fill="rgb(0,0,0)" fill-opacity="0.15"/><path d=" M 26.347 29.387 C 27.756 27.754 27.999 26.066 27.954 24.937 C 27.949 24.807 27.94 24.682 27.928 24.561 C 30.114 22.375 30.856 20.24 31.093 18.833 C 31.352 17.301 31.091 16.297 31.08 16.255 C 31.065 16.201 31.023 16.159 30.969 16.145 C 30.927 16.133 29.924 15.873 28.391 16.131 C 26.985 16.368 24.85 17.11 22.663 19.296 C 22.543 19.284 22.417 19.275 22.287 19.27 C 21.158 19.225 19.47 19.468 17.837 20.877 C 17.784 20.923 17.752 20.989 17.75 21.06 C 17.747 21.13 17.774 21.198 17.824 21.248 L 20.073 23.497 C 19.957 23.87 19.893 24.199 19.891 24.46 C 19.891 24.502 19.908 24.542 19.937 24.572 L 19.992 24.626 C 18.898 25.886 18.935 27.727 18.937 27.808 C 18.941 27.939 18.995 28.057 19.081 28.143 C 19.167 28.229 19.285 28.284 19.416 28.287 C 19.497 28.289 21.338 28.326 22.598 27.232 L 22.653 27.287 C 22.682 27.317 22.722 27.333 22.764 27.333 C 23.025 27.331 23.355 27.267 23.727 27.151 L 25.976 29.4 C 26.026 29.45 26.094 29.477 26.164 29.474 C 26.235 29.472 26.301 29.44 26.347 29.387 Z  M 28.271 20.734 C 28.483 20.241 28.379 19.653 27.976 19.251 C 27.434 18.708 26.554 18.708 26.012 19.251 C 25.61 19.652 25.506 20.238 25.716 20.73 C 25.504 21.223 25.608 21.811 26.011 22.214 C 26.553 22.756 27.432 22.756 27.975 22.214 C 28.376 21.812 28.481 21.226 28.271 20.734 Z " fill-rule="evenodd" fill="rgb(255,255,255)"/><path d=" M 26.347 30.387 C 27.756 28.754 27.999 27.066 27.954 25.937 C 27.949 25.807 27.94 25.682 27.928 25.561 C 30.114 23.375 30.856 21.24 31.093 19.833 C 31.352 18.301 31.091 17.297 31.08 17.255 C 31.065 17.201 31.023 17.159 30.969 17.145 C 30.927 17.133 29.924 16.873 28.391 17.131 C 26.985 17.368 24.85 18.11 22.663 20.296 C 22.543 20.284 22.417 20.275 22.287 20.27 C 21.158 20.225 19.47 20.468 17.837 21.877 C 17.784 21.923 17.752 21.989 17.75 22.06 C 17.747 22.13 17.774 22.198 17.824 22.248 L 20.073 24.497 C 19.957 24.87 19.893 25.199 19.891 25.46 C 19.891 25.502 19.908 25.542 19.937 25.572 L 19.992 25.626 C 18.898 26.886 18.935 28.727 18.937 28.808 C 18.941 28.939 18.995 29.057 19.081 29.143 C 19.167 29.229 19.285 29.284 19.416 29.287 C 19.497 29.289 21.338 29.326 22.598 28.232 L 22.653 28.287 C 22.682 28.317 22.722 28.333 22.764 28.333 C 23.025 28.331 23.355 28.267 23.727 28.151 L 25.976 30.4 C 26.026 30.45 26.094 30.477 26.164 30.474 C 26.235 30.472 26.301 30.44 26.347 30.387 Z  M 27.975 20.249 C 28.517 20.792 28.517 21.671 27.975 22.214 C 27.432 22.756 26.553 22.756 26.011 22.214 C 25.468 21.671 25.468 20.792 26.011 20.249 C 26.553 19.707 27.432 19.707 27.975 20.249 Z  M 19.954 28.27 C 20.014 27.75 20.189 26.937 20.691 26.325 L 21.899 27.533 C 21.287 28.035 20.474 28.21 19.954 28.27 Z " fill="rgb(247,247,247)"/></g></g></g></g></svg>