<?xml version="1.0" standalone="no"?><!-- Generator: Gravit.io --><svg xmlns="http://www.w3.org/2000/svg" xmlns:xlink="http://www.w3.org/1999/xlink" style="isolation:isolate" viewBox="0 0 48 48" width="48" height="48"><defs><clipPath id="_clipPath_J4wnRRzIBwtndREAmHzQCxioFaUGrTOA"><rect width="48" height="48"/></clipPath></defs><g clip-path="url(#_clipPath_J4wnRRzIBwtndREAmHzQCxioFaUGrTOA)"><g style="isolation:isolate" id="Design"><defs><filter id="RsdDdQK8KsADJ8ravPbK9fSvOl3xmUsM" x="-200%" y="-200%" width="400%" height="400%"><feOffset xmlns="http://www.w3.org/2000/svg" in="SourceAlpha" result="offOut" dx="0" dy="1"/><feGaussianBlur xmlns="http://www.w3.org/2000/svg" in="offOut" result="blurOut" stdDeviation="0.5"/><feComponentTransfer xmlns="http://www.w3.org/2000/svg" in="blurOut" result="opacOut"><feFuncA xmlns="http://www.w3.org/2000/svg" type="table" tableValues="0 0.5"/></feComponentTransfer><feBlend xmlns="http://www.w3.org/2000/svg" in="SourceGraphic" in2="opacOut" mode="normal"/></filter></defs><g filter="url(#RsdDdQK8KsADJ8ravPbK9fSvOl3xmUsM)"><linearGradient id="_lgradient_7" x1="50.289621882542235%" y1="15.148833467417532%" x2="50.289621882542235%" y2="99.52534191472245%"><stop offset="0%" stop-opacity="1" style="stop-color:rgb(129,212,250)"/><stop offset="100%" stop-opacity="1" style="stop-color:rgb(3,169,244)"/></linearGradient><path d=" M 2 24 C 2 11.858 11.858 2 24 2 C 36.142 2 46 11.858 46 24 C 46 36.142 36.142 46 24 46 C 11.858 46 2 36.142 2 24 Z " fill="url(#_lgradient_7)"/></g><g id="Group"><g id="Group Ellipse"><path d=" M 9.878 24.183 C 9.786 26.339 10.199 28.548 11.174 30.637 L 11.174 30.637 C 14.441 37.644 22.782 40.679 29.788 37.412 C 35.027 34.97 38.045 29.69 37.859 24.253 C 37.666 29.329 34.704 34.12 29.788 36.412 C 22.782 39.679 14.441 36.644 11.174 29.637 C 10.35 27.87 9.927 26.017 9.878 24.183 Z " fill="rgb(0,0,0)" fill-opacity="0.15"/><path d=" M 9.878 23.183 C 9.692 17.745 12.71 12.466 17.949 10.023 C 24.955 6.756 33.296 9.792 36.563 16.798 C 37.537 18.888 37.951 21.097 37.859 23.253 L 37.859 23.253 C 37.81 21.419 37.387 19.566 36.563 17.798 C 33.296 10.792 24.955 7.756 17.949 11.023 C 13.032 13.316 10.071 18.107 9.878 23.183 Z " fill="rgb(255,255,255)"/><path d=" M 11.174 29.637 C 7.907 22.631 10.943 14.29 17.949 11.023 C 24.955 7.756 33.296 10.792 36.563 17.798 C 39.83 24.805 36.794 33.145 29.788 36.412 C 22.782 39.679 14.441 36.644 11.174 29.637 Z  M 13.525 28.541 C 10.863 22.832 13.336 16.036 19.045 13.374 C 24.754 10.712 31.55 13.186 34.212 18.895 C 36.874 24.603 34.401 31.399 28.692 34.062 C 22.983 36.724 16.187 34.25 13.525 28.541 Z " fill-rule="evenodd" fill="rgb(247,247,247)"/></g><g id="Rocket"><path d=" M 25.737 31.359 C 27.146 29.726 27.389 28.038 27.344 26.909 C 27.339 26.779 27.33 26.654 27.318 26.533 C 29.504 24.347 30.246 22.212 30.483 20.805 C 30.742 19.273 30.481 18.269 30.47 18.227 C 30.455 18.173 30.413 18.131 30.359 18.117 C 30.317 18.105 29.314 17.845 27.781 18.103 C 26.375 18.34 24.24 19.082 22.054 21.268 C 21.933 21.256 21.808 21.247 21.677 21.242 C 20.548 21.197 18.86 21.44 17.228 22.849 C 17.174 22.895 17.143 22.961 17.14 23.032 C 17.137 23.102 17.164 23.17 17.214 23.22 L 19.463 25.469 C 19.347 25.842 19.283 26.171 19.282 26.432 C 19.281 26.474 19.298 26.514 19.327 26.544 L 19.382 26.598 C 18.288 27.858 18.325 29.699 18.327 29.78 C 18.331 29.911 18.385 30.029 18.471 30.115 C 18.557 30.201 18.675 30.256 18.806 30.259 C 18.887 30.261 20.728 30.298 21.988 29.204 L 22.043 29.259 C 22.072 29.289 22.113 29.305 22.154 29.305 C 22.415 29.303 22.745 29.239 23.117 29.123 L 25.366 31.372 C 25.416 31.422 25.484 31.449 25.555 31.446 C 25.625 31.444 25.691 31.412 25.737 31.359 Z  M 27.365 21.221 C 27.908 21.764 27.908 22.643 27.365 23.186 C 26.823 23.728 25.943 23.728 25.401 23.186 C 24.858 22.643 24.858 21.764 25.401 21.221 C 25.943 20.679 26.823 20.679 27.365 21.221 Z  M 19.344 29.242 C 19.405 28.722 19.579 27.909 20.081 27.297 L 21.289 28.505 C 20.678 29.007 19.864 29.182 19.344 29.242 Z " fill="rgb(0,0,0)" fill-opacity="0.15"/><path d=" M 20.064 28.096 C 20.645 27.994 21.383 27.729 21.988 27.204 L 22.043 27.259 C 22.072 27.289 22.113 27.305 22.154 27.305 C 22.415 27.303 22.745 27.239 23.117 27.123 L 25.366 29.372 C 25.416 29.422 25.484 29.449 25.555 29.446 C 25.625 29.444 25.691 29.412 25.737 29.359 C 27.146 27.726 27.389 26.038 27.344 24.909 C 27.339 24.779 27.33 24.654 27.318 24.533 C 29.504 22.347 30.246 20.212 30.483 18.805 C 30.742 17.273 30.481 16.269 30.47 16.227 C 30.455 16.173 30.413 16.131 30.359 16.117 C 30.317 16.105 29.314 15.845 27.781 16.103 C 26.375 16.34 24.24 17.082 22.054 19.268 C 21.933 19.256 21.808 19.247 21.677 19.242 C 20.548 19.197 18.86 19.44 17.228 20.849 C 17.174 20.895 17.143 20.961 17.14 21.032 C 17.137 21.102 17.164 21.17 17.214 21.22 L 19.463 23.469 C 19.347 23.842 19.283 24.171 19.282 24.432 C 19.281 24.474 19.298 24.514 19.327 24.544 L 19.382 24.598 C 18.288 25.858 18.325 27.699 18.327 27.78 C 18.331 27.911 18.385 28.029 18.471 28.115 C 18.557 28.201 18.675 28.256 18.806 28.259 C 18.832 28.26 19.041 28.264 19.347 28.22 L 19.347 28.22 C 19.346 28.229 19.345 28.236 19.344 28.242 C 19.485 28.226 19.649 28.201 19.824 28.159 C 19.643 28.2 19.488 28.218 19.348 28.221 C 19.411 27.703 19.587 26.902 20.082 26.299 L 21.29 27.507 C 20.919 27.811 20.472 27.996 20.064 28.096 Z  M 27.661 20.706 C 27.873 20.213 27.769 19.625 27.366 19.223 C 26.824 18.68 25.944 18.68 25.402 19.223 C 25 19.624 24.896 20.21 25.106 20.703 C 24.894 21.195 24.998 21.783 25.401 22.186 C 25.943 22.728 26.823 22.728 27.365 22.186 C 27.767 21.784 27.871 21.198 27.661 20.706 L 27.661 20.706 Z " fill-rule="evenodd" fill="rgb(255,255,255)"/><path d=" M 25.737 30.359 C 27.146 28.726 27.389 27.038 27.344 25.909 C 27.339 25.779 27.33 25.654 27.318 25.533 C 29.504 23.347 30.246 21.212 30.483 19.805 C 30.742 18.273 30.481 17.269 30.47 17.227 C 30.455 17.173 30.413 17.131 30.359 17.117 C 30.317 17.105 29.314 16.845 27.781 17.103 C 26.375 17.34 24.24 18.082 22.054 20.268 C 21.933 20.256 21.808 20.247 21.677 20.242 C 20.548 20.197 18.86 20.44 17.228 21.849 C 17.174 21.895 17.143 21.961 17.14 22.032 C 17.137 22.102 17.164 22.17 17.214 22.22 L 19.463 24.469 C 19.347 24.842 19.283 25.171 19.282 25.432 C 19.281 25.474 19.298 25.514 19.327 25.544 L 19.382 25.598 C 18.288 26.858 18.325 28.699 18.327 28.78 C 18.331 28.911 18.385 29.029 18.471 29.115 C 18.557 29.201 18.675 29.256 18.806 29.259 C 18.887 29.261 20.728 29.298 21.988 28.204 L 22.043 28.259 C 22.072 28.289 22.113 28.305 22.154 28.305 C 22.415 28.303 22.745 28.239 23.117 28.123 L 25.366 30.372 C 25.416 30.422 25.484 30.449 25.555 30.446 C 25.625 30.444 25.691 30.412 25.737 30.359 Z  M 27.365 20.221 C 27.908 20.764 27.908 21.643 27.365 22.186 C 26.823 22.728 25.943 22.728 25.401 22.186 C 24.858 21.643 24.858 20.764 25.401 20.221 C 25.943 19.679 26.823 19.679 27.365 20.221 Z  M 19.344 28.242 C 19.405 27.722 19.579 26.909 20.081 26.297 L 21.289 27.505 C 20.678 28.007 19.864 28.182 19.344 28.242 Z " fill="rgb(247,247,247)"/></g></g></g></g></svg>