<?xml version="1.0" standalone="no"?><!-- Generator: Gravit.io --><svg xmlns="http://www.w3.org/2000/svg" xmlns:xlink="http://www.w3.org/1999/xlink" style="isolation:isolate" viewBox="0 0 48 48" width="48" height="48"><defs><clipPath id="_clipPath_54aUZO0qgkvOxwGV9VwS6guXYxUqKUft"><rect width="48" height="48"/></clipPath></defs><g clip-path="url(#_clipPath_54aUZO0qgkvOxwGV9VwS6guXYxUqKUft)"><g style="isolation:isolate" id="Design"><defs><filter id="h6DHHp7lA57qO1S6lB6KJC0jFSczvQ4p" x="-200%" y="-200%" width="400%" height="400%"><feOffset xmlns="http://www.w3.org/2000/svg" in="SourceAlpha" result="offOut" dx="0" dy="1"/><feGaussianBlur xmlns="http://www.w3.org/2000/svg" in="offOut" result="blurOut" stdDeviation="0.5"/><feComponentTransfer xmlns="http://www.w3.org/2000/svg" in="blurOut" result="opacOut"><feFuncA xmlns="http://www.w3.org/2000/svg" type="table" tableValues="0 0.5"/></feComponentTransfer><feBlend xmlns="http://www.w3.org/2000/svg" in="SourceGraphic" in2="opacOut" mode="normal"/></filter></defs><g filter="url(#h6DHHp7lA57qO1S6lB6KJC0jFSczvQ4p)"><linearGradient id="_lgradient_96" x1="50.21141649048629%" y1="15.961945031712476%" x2="50.211416490486315%" y2="100.10570824524314%"><stop offset="0%" stop-opacity="1" style="stop-color:rgb(79,195,247)"/><stop offset="100%" stop-opacity="1" style="stop-color:rgb(3,169,244)"/></linearGradient><path d=" M 2 24 C 2 11.858 11.858 2 24 2 C 36.142 2 46 11.858 46 24 C 46 36.142 36.142 46 24 46 C 11.858 46 2 36.142 2 24 Z " fill="url(#_lgradient_96)"/></g><g id="Group"><linearGradient id="_lgradient_97" x1="50.23799864469831%" y1="-8.650794464295075%" x2="50.23799864469832%" y2="109.18705445475129%"><stop offset="0%" stop-opacity="1" style="stop-color:rgb(79,195,247)"/><stop offset="100%" stop-opacity="1" style="stop-color:rgb(3,155,229)"/></linearGradient><path d=" M 32.4 13.893 L 43.543 13.893 C 39.88 6.83 32.499 2 24 2 C 15.501 2 8.12 6.83 4.457 13.893 L 16.4 13.893 L 20.4 21.893 L 28.4 21.893 L 32.4 13.893 Z " fill="url(#_lgradient_97)"/><path d=" M 39 13.893 L 32.4 13.893 L 28.4 21.893 L 20.4 21.893 L 16.4 13.893 L 9 13.893 L 9 9 L 39 9 L 39 13.893 Z " fill="rgb(255,255,255)"/><path d=" M 39 13.893 L 32.4 13.893 L 28.4 21.893 L 20.4 21.893 L 16.4 13.893 L 9 13.893 L 9 10 L 39 10 L 39 13.893 Z " fill="rgb(247,247,247)"/></g><g id="Group Home"><path d=" M 24.5 27.317 L 16.5 35.317 L 18 36.817 L 19.5 35.317 L 19.5 41.817 L 23.5 41.817 L 23.5 38.817 L 25.5 38.817 L 25.5 41.817 L 29.5 41.817 L 29.5 35.317 L 31 36.817 L 32.5 35.317 L 24.5 27.317 Z  M 24.5 33.817 C 23.948 33.817 23.5 33.369 23.5 32.817 C 23.5 32.264 23.948 31.817 24.5 31.817 C 25.052 31.817 25.5 32.264 25.5 32.817 C 25.5 33.369 25.052 33.817 24.5 33.817 Z " fill="rgb(0,0,0)" fill-opacity="0.15"/><path d=" M 24.5 25.183 L 16.5 33.183 L 18 34.683 L 19.5 33.183 L 19.5 39.683 L 23.5 39.683 L 23.5 36.683 L 25.5 36.683 L 25.5 39.683 L 29.5 39.683 L 29.5 33.183 L 31 34.683 L 32.5 33.183 L 24.5 25.183 Z  M 24.501 32.751 C 23.949 32.751 23.501 32.304 23.501 31.751 C 23.501 31.199 23.949 30.751 24.501 30.751 C 25.054 30.751 25.501 31.199 25.501 31.751 C 25.501 32.304 25.054 32.751 24.501 32.751 Z " fill="rgb(255,255,255)"/><path d=" M 24.5 26.25 L 16.5 34.25 L 18 35.75 L 19.5 34.25 L 19.5 40.75 L 23.5 40.75 L 23.5 37.75 L 25.5 37.75 L 25.5 40.75 L 29.5 40.75 L 29.5 34.25 L 31 35.75 L 32.5 34.25 L 24.5 26.25 Z  M 24.5 32.75 C 23.948 32.75 23.5 32.302 23.5 31.75 C 23.5 31.198 23.948 30.75 24.5 30.75 C 25.052 30.75 25.5 31.198 25.5 31.75 C 25.5 32.302 25.052 32.75 24.5 32.75 Z " fill="rgb(247,247,247)"/></g></g></g></svg>