<?xml version="1.0" standalone="no"?><!-- Generator: Gravit.io --><svg xmlns="http://www.w3.org/2000/svg" xmlns:xlink="http://www.w3.org/1999/xlink" style="isolation:isolate" viewBox="0 0 48 48" width="48" height="48"><defs><clipPath id="_clipPath_ucCHCsjKWIWkuSjIVEqTV9QWdV0PCDJH"><rect width="48" height="48"/></clipPath></defs><g clip-path="url(#_clipPath_ucCHCsjKWIWkuSjIVEqTV9QWdV0PCDJH)"><g style="isolation:isolate" id="Design"><defs><filter id="cWfOWuOzi64rS2mRoqakBxnrBp02uZSC" x="-200%" y="-200%" width="400%" height="400%"><feOffset xmlns="http://www.w3.org/2000/svg" in="SourceAlpha" result="offOut" dx="0" dy="1"/><feGaussianBlur xmlns="http://www.w3.org/2000/svg" in="offOut" result="blurOut" stdDeviation="0.5"/><feComponentTransfer xmlns="http://www.w3.org/2000/svg" in="blurOut" result="opacOut"><feFuncA xmlns="http://www.w3.org/2000/svg" type="table" tableValues="0 0.5"/></feComponentTransfer><feBlend xmlns="http://www.w3.org/2000/svg" in="SourceGraphic" in2="opacOut" mode="normal"/></filter></defs><g filter="url(#cWfOWuOzi64rS2mRoqakBxnrBp02uZSC)"><linearGradient id="_lgradient_92" x1="50.21141649048629%" y1="15.961945031712476%" x2="50.211416490486315%" y2="100.10570824524314%"><stop offset="0%" stop-opacity="1" style="stop-color:rgb(79,195,247)"/><stop offset="100%" stop-opacity="1" style="stop-color:rgb(3,169,244)"/></linearGradient><path d=" M 2 24 C 2 11.858 11.858 2 24 2 C 36.142 2 46 11.858 46 24 C 46 36.142 36.142 46 24 46 C 11.858 46 2 36.142 2 24 Z " fill="url(#_lgradient_92)"/></g><g id="Group"><linearGradient id="_lgradient_93" x1="50.23799864469831%" y1="-8.650794464295075%" x2="50.23799864469832%" y2="109.18705445475129%"><stop offset="0%" stop-opacity="1" style="stop-color:rgb(79,195,247)"/><stop offset="100%" stop-opacity="1" style="stop-color:rgb(3,155,229)"/></linearGradient><path d=" M 32.4 13.893 L 43.543 13.893 C 39.88 6.83 32.499 2 24 2 C 15.501 2 8.12 6.83 4.457 13.893 L 16.4 13.893 L 20.4 21.893 L 28.4 21.893 L 32.4 13.893 Z " fill="url(#_lgradient_93)"/><path d=" M 39 13.893 L 32.4 13.893 L 28.4 21.893 L 20.4 21.893 L 16.4 13.893 L 9 13.893 L 9 9 L 39 9 L 39 13.893 Z " fill="rgb(255,255,255)"/><path d=" M 39 13.893 L 32.4 13.893 L 28.4 21.893 L 20.4 21.893 L 16.4 13.893 L 9 13.893 L 9 10 L 39 10 L 39 13.893 Z " fill="rgb(247,247,247)"/></g><g id="Group Music"><path d=" M 30.125 27 L 31 27 L 31 37.063 C 31 38.27 29.629 39.25 27.937 39.25 C 26.246 39.25 24.875 38.27 24.875 37.063 C 24.875 35.855 26.246 34.875 27.937 34.875 C 28.795 34.875 29.569 35.127 30.125 35.532 L 30.125 30.5 L 23.125 32.056 L 23.125 38.813 C 23.125 40.02 21.754 41 20.062 41 C 18.371 41 17 40.02 17 38.813 C 17 37.605 18.371 36.625 20.062 36.625 C 20.92 36.625 21.694 36.877 22.25 37.282 L 22.25 28.75 L 30.125 27 Z " fill="rgb(0,0,0)" fill-opacity="0.15"/><path d=" M 30.125 26 L 31 26 L 31 36.063 C 31 37.27 29.629 38.25 27.937 38.25 C 26.246 38.25 24.875 37.27 24.875 36.063 C 24.875 34.855 26.246 33.875 27.937 33.875 C 28.795 33.875 29.569 34.127 30.125 34.532 L 30.125 29.5 L 23.125 31.056 L 23.125 37.813 C 23.125 39.02 21.754 40 20.062 40 C 18.371 40 17 39.02 17 37.813 C 17 36.605 18.371 35.625 20.062 35.625 C 20.92 35.625 21.694 35.877 22.25 36.282 L 22.25 27.75 L 30.125 26 Z " fill="rgb(247,247,247)"/></g></g></g></svg>