<?xml version="1.0" standalone="no"?><!-- Generator: Gravit.io --><svg xmlns="http://www.w3.org/2000/svg" xmlns:xlink="http://www.w3.org/1999/xlink" style="isolation:isolate" viewBox="0 0 48 48" width="48" height="48"><defs><clipPath id="_clipPath_QG7f9dzCR1VYDJ2h2dUzv1JUMgPtv4d8"><rect width="48" height="48"/></clipPath></defs><g clip-path="url(#_clipPath_QG7f9dzCR1VYDJ2h2dUzv1JUMgPtv4d8)"><g style="isolation:isolate" id="Design"><defs><filter id="FTdaubTiaDCSAsHsUVCKr5UFQt0IGkiq" x="-200%" y="-200%" width="400%" height="400%"><feOffset xmlns="http://www.w3.org/2000/svg" in="SourceAlpha" result="offOut" dx="0" dy="1"/><feGaussianBlur xmlns="http://www.w3.org/2000/svg" in="offOut" result="blurOut" stdDeviation="0.5"/><feComponentTransfer xmlns="http://www.w3.org/2000/svg" in="blurOut" result="opacOut"><feFuncA xmlns="http://www.w3.org/2000/svg" type="table" tableValues="0 0.5"/></feComponentTransfer><feBlend xmlns="http://www.w3.org/2000/svg" in="SourceGraphic" in2="opacOut" mode="normal"/></filter></defs><g filter="url(#FTdaubTiaDCSAsHsUVCKr5UFQt0IGkiq)"><linearGradient id="_lgradient_94" x1="50.21141649048629%" y1="15.961945031712476%" x2="50.211416490486315%" y2="100.10570824524314%"><stop offset="0%" stop-opacity="1" style="stop-color:rgb(79,195,247)"/><stop offset="100%" stop-opacity="1" style="stop-color:rgb(3,169,244)"/></linearGradient><path d=" M 2 24 C 2 11.858 11.858 2 24 2 C 36.142 2 46 11.858 46 24 C 46 36.142 36.142 46 24 46 C 11.858 46 2 36.142 2 24 Z " fill="url(#_lgradient_94)"/></g><g id="Group"><linearGradient id="_lgradient_95" x1="50.23799864469831%" y1="-8.650794464295075%" x2="50.23799864469832%" y2="109.18705445475129%"><stop offset="0%" stop-opacity="1" style="stop-color:rgb(79,195,247)"/><stop offset="100%" stop-opacity="1" style="stop-color:rgb(3,155,229)"/></linearGradient><path d=" M 32.4 13.893 L 43.543 13.893 C 39.88 6.83 32.499 2 24 2 C 15.501 2 8.12 6.83 4.457 13.893 L 16.4 13.893 L 20.4 21.893 L 28.4 21.893 L 32.4 13.893 Z " fill="url(#_lgradient_95)"/><path d=" M 39 13.893 L 32.4 13.893 L 28.4 21.893 L 20.4 21.893 L 16.4 13.893 L 9 13.893 L 9 9 L 39 9 L 39 13.893 Z " fill="rgb(255,255,255)"/><path d=" M 39 13.893 L 32.4 13.893 L 28.4 21.893 L 20.4 21.893 L 16.4 13.893 L 9 13.893 L 9 10 L 39 10 L 39 13.893 Z " fill="rgb(247,247,247)"/></g><g id="Group Download"><path d=" M 28.267 32.933 L 24 37.2 L 19.733 32.933 L 22.4 32.933 L 22.4 26.533 L 25.6 26.533 L 25.6 32.933 L 28.267 32.933 Z  M 24 37.2 L 16 37.2 L 16 41.467 L 32 41.467 L 32 37.2 L 24 37.2 Z  M 30.933 39.333 L 28.8 39.333 L 28.8 38.267 L 30.933 38.267 L 30.933 39.333 Z " fill="rgb(0,0,0)" fill-opacity="0.15"/><path d=" M 28.267 31.933 L 24 36.2 L 19.733 31.933 L 22.4 31.933 L 22.4 25.533 L 25.6 25.533 L 25.6 31.933 L 28.267 31.933 Z  M 24 36.2 L 16 36.2 L 16 40.467 L 32 40.467 L 32 36.2 L 24 36.2 Z  M 30.933 38.333 L 28.8 38.333 L 28.8 37.267 L 30.933 37.267 L 30.933 38.333 Z " fill="rgb(247,247,247)"/></g></g></g></svg>