<?xml version="1.0" standalone="no"?><!-- Generator: Gravit.io --><svg xmlns="http://www.w3.org/2000/svg" xmlns:xlink="http://www.w3.org/1999/xlink" style="isolation:isolate" viewBox="0 0 48 48" width="48" height="48"><defs><clipPath id="_clipPath_3L2FFVLWBS8YCoVJhWQARyxTaVWlWnKs"><rect width="48" height="48"/></clipPath></defs><g clip-path="url(#_clipPath_3L2FFVLWBS8YCoVJhWQARyxTaVWlWnKs)"><g style="isolation:isolate" id="Design"><defs><filter id="a7zCyTo0NXkEBuZhiSnCLYysBFUQAqO5" x="-200%" y="-200%" width="400%" height="400%"><feOffset xmlns="http://www.w3.org/2000/svg" in="SourceAlpha" result="offOut" dx="0" dy="1"/><feGaussianBlur xmlns="http://www.w3.org/2000/svg" in="offOut" result="blurOut" stdDeviation="0.5"/><feComponentTransfer xmlns="http://www.w3.org/2000/svg" in="blurOut" result="opacOut"><feFuncA xmlns="http://www.w3.org/2000/svg" type="table" tableValues="0 0.5"/></feComponentTransfer><feBlend xmlns="http://www.w3.org/2000/svg" in="SourceGraphic" in2="opacOut" mode="normal"/></filter></defs><g filter="url(#a7zCyTo0NXkEBuZhiSnCLYysBFUQAqO5)"><linearGradient id="_lgradient_106" x1="50.21141649048629%" y1="15.961945031712476%" x2="50.211416490486315%" y2="100.10570824524314%"><stop offset="0%" stop-opacity="1" style="stop-color:rgb(79,195,247)"/><stop offset="100%" stop-opacity="1" style="stop-color:rgb(3,169,244)"/></linearGradient><path d=" M 2 24 C 2 11.858 11.858 2 24 2 C 36.142 2 46 11.858 46 24 C 46 36.142 36.142 46 24 46 C 11.858 46 2 36.142 2 24 Z " fill="url(#_lgradient_106)"/></g><g id="Group desktop"><path d=" M 17.28 27 L 30.72 27 C 31.426 27 32 27.574 32 28.28 L 32 39.72 C 32 40.426 31.426 41 30.72 41 L 17.28 41 C 16.574 41 16 40.426 16 39.72 L 16 28.28 C 16 27.574 16.574 27 17.28 27 Z  M 30.1 39.1 L 30.1 39.7 L 30.7 39.7 L 30.7 39.1 L 30.1 39.1 L 17.9 39.1 L 17.3 39.1 L 17.3 39.7 L 17.9 39.7 L 17.9 39.1 L 17.9 28.9 L 17.9 28.3 L 17.3 28.3 L 17.3 28.9 L 17.9 28.9 L 30.1 28.9 L 30.1 39.1 Z  M 30.1 28.9 L 30.7 28.9 L 30.7 28.3 L 30.1 28.3 L 30.1 28.9 Z " fill-rule="evenodd" fill="rgb(0,0,0)" fill-opacity="0.15"/><mask id="_mask_z7xLNnMm4JBobQj8y67V2PNcNthXveBa"><path d=" M 17.28 26 L 30.72 26 C 31.426 26 32 26.574 32 27.28 L 32 38.72 C 32 39.426 31.426 40 30.72 40 L 17.28 40 C 16.574 40 16 39.426 16 38.72 L 16 27.28 C 16 26.574 16.574 26 17.28 26 Z " fill="white" stroke="none"/></mask><path d=" M 17.28 26 L 30.72 26 C 31.426 26 32 26.574 32 27.28 L 32 38.72 C 32 39.426 31.426 40 30.72 40 L 17.28 40 C 16.574 40 16 39.426 16 38.72 L 16 27.28 C 16 26.574 16.574 26 17.28 26 Z " fill="none" mask="url(#_mask_z7xLNnMm4JBobQj8y67V2PNcNthXveBa)" vector-effect="non-scaling-stroke" stroke-width="3.84" stroke="rgb(247,247,247)" stroke-linejoin="miter" stroke-linecap="square" stroke-miterlimit="3"/><path d=" M 20.084 34.68 L 27.916 34.68 C 28.404 34.68 28.8 35.076 28.8 35.564 L 28.8 35.796 C 28.8 36.284 28.404 36.68 27.916 36.68 L 20.084 36.68 C 19.596 36.68 19.2 36.284 19.2 35.796 L 19.2 35.564 C 19.2 35.076 19.596 34.68 20.084 34.68 Z " fill="rgb(0,0,0)" fill-opacity="0.15"/><path d="M 20.084 33.68 L 27.916 33.68 C 28.404 33.68 28.8 34.076 28.8 34.564 L 28.8 34.796 C 28.8 35.284 28.404 35.68 27.916 35.68 L 20.084 35.68 C 19.596 35.68 19.2 35.284 19.2 34.796 L 19.2 34.564 C 19.2 34.076 19.596 33.68 20.084 33.68 Z" style="stroke:none;fill:#F7F7F7;stroke-miterlimit:10;"/></g><g id="Group"><linearGradient id="_lgradient_107" x1="50.23799864469831%" y1="-8.650794464295075%" x2="50.23799864469832%" y2="109.18705445475129%"><stop offset="0%" stop-opacity="1" style="stop-color:rgb(79,195,247)"/><stop offset="100%" stop-opacity="1" style="stop-color:rgb(3,155,229)"/></linearGradient><path d=" M 32.4 13.893 L 43.543 13.893 C 39.88 6.83 32.499 2 24 2 C 15.501 2 8.12 6.83 4.457 13.893 L 16.4 13.893 L 20.4 21.893 L 28.4 21.893 L 32.4 13.893 Z " fill="url(#_lgradient_107)"/><path d=" M 39 13.893 L 32.4 13.893 L 28.4 21.893 L 20.4 21.893 L 16.4 13.893 L 9 13.893 L 9 9 L 39 9 L 39 13.893 Z " fill="rgb(255,255,255)"/><path d=" M 39 13.893 L 32.4 13.893 L 28.4 21.893 L 20.4 21.893 L 16.4 13.893 L 9 13.893 L 9 10 L 39 10 L 39 13.893 Z " fill="rgb(247,247,247)"/></g></g></g></svg>