<?xml version="1.0" standalone="no"?><!-- Generator: Gravit.io --><svg xmlns="http://www.w3.org/2000/svg" xmlns:xlink="http://www.w3.org/1999/xlink" style="isolation:isolate" viewBox="0 0 48 48" width="48" height="48"><defs><clipPath id="_clipPath_C3w0nC4CyppGbjAeG8EUH13gM96B2QQX"><rect width="48" height="48"/></clipPath></defs><g clip-path="url(#_clipPath_C3w0nC4CyppGbjAeG8EUH13gM96B2QQX)"><g style="isolation:isolate" id="Design"><defs><filter id="HnTOgf3AHXJlGTXaNUoLUoKRbXogRS1R" x="-200%" y="-200%" width="400%" height="400%"><feOffset xmlns="http://www.w3.org/2000/svg" in="SourceAlpha" result="offOut" dx="0" dy="1"/><feGaussianBlur xmlns="http://www.w3.org/2000/svg" in="offOut" result="blurOut" stdDeviation="0.5"/><feComponentTransfer xmlns="http://www.w3.org/2000/svg" in="blurOut" result="opacOut"><feFuncA xmlns="http://www.w3.org/2000/svg" type="table" tableValues="0 0.5"/></feComponentTransfer><feBlend xmlns="http://www.w3.org/2000/svg" in="SourceGraphic" in2="opacOut" mode="normal"/></filter></defs><g filter="url(#HnTOgf3AHXJlGTXaNUoLUoKRbXogRS1R)"><linearGradient id="_lgradient_74" x1="50.21141649048629%" y1="15.961945031712476%" x2="50.211416490486315%" y2="100.10570824524314%"><stop offset="0%" stop-opacity="1" style="stop-color:rgb(79,195,247)"/><stop offset="100%" stop-opacity="1" style="stop-color:rgb(3,169,244)"/></linearGradient><path d=" M 2 24 C 2 11.858 11.858 2 24 2 C 36.142 2 46 11.858 46 24 C 46 36.142 36.142 46 24 46 C 11.858 46 2 36.142 2 24 Z " fill="url(#_lgradient_74)"/></g><linearGradient id="_lgradient_75" x1="50.23799864469831%" y1="-8.650794464295075%" x2="50.23799864469832%" y2="109.18705445475129%"><stop offset="0%" stop-opacity="1" style="stop-color:rgb(3,169,244)"/><stop offset="100%" stop-opacity="1" style="stop-color:rgb(3,155,229)"/></linearGradient><path d=" M 32.4 13.893 L 43.543 13.893 C 39.88 6.83 32.499 2 24 2 C 15.501 2 8.12 6.83 4.457 13.893 L 16.4 13.893 L 20.4 21.893 L 28.4 21.893 L 32.4 13.893 Z " fill="url(#_lgradient_75)"/><path d=" M 39 13.893 L 32.4 13.893 L 28.4 21.893 L 20.4 21.893 L 16.4 13.893 L 9 13.893 L 9 9 L 39 9 L 39 13.893 Z " fill="rgb(255,255,255)"/><path d=" M 39 13.893 L 32.4 13.893 L 28.4 21.893 L 20.4 21.893 L 16.4 13.893 L 9 13.893 L 9 10 L 39 10 L 39 13.893 Z " fill="rgb(247,247,247)"/></g></g></svg>