<?xml version="1.0" standalone="no"?><!-- Generator: Gravit.io --><svg xmlns="http://www.w3.org/2000/svg" xmlns:xlink="http://www.w3.org/1999/xlink" style="isolation:isolate" viewBox="0 0 48 48" width="48" height="48"><defs><clipPath id="_clipPath_56OfoV4vOSiHiT1nYaAiCyz1TC1NZA6h"><rect width="48" height="48"/></clipPath></defs><g clip-path="url(#_clipPath_56OfoV4vOSiHiT1nYaAiCyz1TC1NZA6h)"><g style="isolation:isolate" id="Design"><defs><filter id="7mrfByC7mpup8M6KZWPRjHXMXflaQVXf" x="-200%" y="-200%" width="400%" height="400%"><feOffset xmlns="http://www.w3.org/2000/svg" in="SourceAlpha" result="offOut" dx="0" dy="1"/><feGaussianBlur xmlns="http://www.w3.org/2000/svg" in="offOut" result="blurOut" stdDeviation="0.5"/><feComponentTransfer xmlns="http://www.w3.org/2000/svg" in="blurOut" result="opacOut"><feFuncA xmlns="http://www.w3.org/2000/svg" type="table" tableValues="0 0.5"/></feComponentTransfer><feBlend xmlns="http://www.w3.org/2000/svg" in="SourceGraphic" in2="opacOut" mode="normal"/></filter></defs><g filter="url(#7mrfByC7mpup8M6KZWPRjHXMXflaQVXf)"><path d=" M 2 24 C 2 11.858 11.858 2 24 2 C 36.142 2 46 11.858 46 24 C 46 36.142 36.142 46 24 46 C 11.858 46 2 36.142 2 24 Z " fill="rgb(124,179,66)"/></g><path d=" M 4.343 14.131 C 7.958 6.938 15.407 2 24 2 C 32.593 2 40.042 6.937 43.657 14.131 C 39.183 20.117 32.041 24 24 24 C 15.959 24 8.817 20.118 4.343 14.131 Z " fill="rgb(0,0,0)" fill-opacity="0.15"/><path d=" M 4.879 13.23 C 8.654 6.573 15.807 2.085 24 2.085 C 32.191 2.085 39.342 6.571 43.118 13.225 C 38.863 19.195 31.881 23.085 23.997 23.085 C 16.116 23.085 9.135 19.197 4.879 13.23 Z " fill="rgb(139,195,74)"/><path d=" M 8.865 8.053 C 12.803 4.3 18.135 2 24 2 C 29.865 2 35.196 4.3 39.135 8.052 C 35.474 12.309 30.049 15 24 15 C 17.951 15 12.525 12.309 8.865 8.053 Z " fill="rgb(0,0,0)" fill-opacity="0.15"/><path d=" M 9.51 7.39 C 13.365 4.03 18.405 2 23.915 2 C 29.415 2 34.446 4.022 38.298 7.372 C 34.82 11.432 29.656 14 23.896 14 C 18.145 14 12.987 11.439 9.51 7.39 Z " fill="rgb(197,225,165)"/><g id="Group"><path d=" M 24.482 17.096 C 22.045 12.191 19.482 16.141 19.482 16.141 L 17.539 19.502 L 21.539 21.782 L 24.482 17.096 Z  M 33.133 15.593 L 30.977 16.785 L 30.187 15.423 C 30.187 15.423 29.576 14.007 26.564 14.155 C 26.564 14.155 22.832 14.257 22.443 14.187 C 22.443 14.187 23.501 14.391 24.027 15.191 L 26.41 19.305 L 24.669 20.264 L 30.513 20.387 L 33.133 15.593 Z  M 18.808 27.456 C 15.785 32.033 20.577 32.121 20.577 32.121 L 24.524 31.994 L 24.445 27.474 L 18.808 27.456 Z  M 13 21.027 L 15.163 22.204 L 14.379 23.569 C 14.379 23.569 13.458 24.818 15.154 27.247 C 15.154 27.247 17.187 30.309 17.323 30.668 C 17.323 30.668 16.951 29.681 17.378 28.826 L 19.743 24.701 L 21.49 25.651 L 18.558 20.718 L 13 21.027 Z  M 31.236 26.771 C 36.807 27.114 34.546 22.993 34.546 22.993 L 32.506 19.689 L 28.502 21.965 L 31.236 26.771 Z  M 25.327 30.271 L 28.315 25.368 L 28.315 27.324 L 33.157 27.324 C 34.13 27.27 34.832 26.47 34.832 26.47 C 34.578 26.76 32.829 29.987 32.829 29.987 C 31.483 32.616 29.917 32.441 29.917 32.441 L 28.315 32.441 L 28.315 34.856 L 25.327 30.271 Z " fill-rule="evenodd" fill="rgb(0,0,0)" fill-opacity="0.15"/><path d=" M 24.482 16.096 C 22.045 11.191 19.482 15.141 19.482 15.141 L 17.539 18.502 L 21.539 20.782 L 24.482 16.096 Z  M 33.133 14.593 L 30.977 15.785 L 30.187 14.423 C 30.187 14.423 29.576 13.007 26.564 13.155 C 26.564 13.155 22.832 13.257 22.443 13.187 C 22.443 13.187 23.501 13.391 24.027 14.191 L 26.41 18.305 L 24.669 19.264 L 30.513 19.387 L 33.133 14.593 Z  M 18.808 26.456 C 15.785 31.033 20.577 31.121 20.577 31.121 L 24.524 30.994 L 24.445 26.474 L 18.808 26.456 Z  M 13 20.027 L 15.163 21.204 L 14.379 22.569 C 14.379 22.569 13.458 23.818 15.154 26.247 C 15.154 26.247 17.187 29.309 17.323 29.668 C 17.323 29.668 16.951 28.681 17.378 27.826 L 19.743 23.701 L 21.49 24.651 L 18.558 19.718 L 13 20.027 Z  M 31.236 25.771 C 36.807 26.114 34.546 21.993 34.546 21.993 L 32.506 18.689 L 28.502 20.965 L 31.236 25.771 Z  M 25.327 29.271 L 28.315 24.368 L 28.315 26.324 L 33.157 26.324 C 34.13 26.27 34.832 25.47 34.832 25.47 C 34.578 25.76 32.829 28.987 32.829 28.987 C 31.483 31.616 29.917 31.441 29.917 31.441 L 28.315 31.441 L 28.315 33.856 L 25.327 29.271 Z " fill-rule="evenodd" fill="rgb(247,247,247)"/></g></g></g></svg>