<?xml version="1.0" standalone="no"?><!-- Generator: Gravit.io --><svg xmlns="http://www.w3.org/2000/svg" xmlns:xlink="http://www.w3.org/1999/xlink" style="isolation:isolate" viewBox="0 0 48 48" width="48" height="48"><defs><clipPath id="_clipPath_sJZd8lsiuQoggl5qhsv1eauBKWdGF8bY"><rect width="48" height="48"/></clipPath></defs><g clip-path="url(#_clipPath_sJZd8lsiuQoggl5qhsv1eauBKWdGF8bY)"><g style="isolation:isolate" id="Design"><path d="M 18.28 3 L 29.72 3 C 38.705 3 46 10.295 46 19.28 L 46 30.72 C 46 39.705 38.705 47 29.72 47 L 18.28 47 C 9.295 47 2 39.705 2 30.72 L 2 19.28 C 2 10.295 9.295 3 18.28 3 Z" style="stroke:none;fill:#000000;stroke-miterlimit:10;opacity:0.15;"/><defs><radialGradient id="_rgradient_1" fx="50%" fy="50%" cx="50%" cy="50%" r="50%"><stop offset="0%" style="stop-color:#E91E63"/><stop offset="98.26086956521739%" style="stop-color:#C2185B"/></radialGradient></defs><path d="M 18.28 2 L 29.72 2 C 38.705 2 46 9.295 46 18.28 L 46 29.72 C 46 38.705 38.705 46 29.72 46 L 18.28 46 C 9.295 46 2 38.705 2 29.72 L 2 18.28 C 2 9.295 9.295 2 18.28 2 Z" style="stroke:none;fill:url(#_rgradient_1);stroke-miterlimit:10;"/><linearGradient id="_lgradient_11" x1="28.067866023109534%" y1="23.626698272399814%" x2="65.05758057833798%" y2="55.29579816136649%"><stop offset="1.3043478260869565%" stop-opacity="1" style="stop-color:rgb(255,245,157)"/><stop offset="98.69565217391305%" stop-opacity="1" style="stop-color:rgb(255,238,88)"/></linearGradient><path d=" M 28 2 L 18.28 2 C 9.295 2 2 9.295 2 18.28 L 2 29.72 C 2 31.962 2.454 34.098 3.275 36.042 L 31 11 L 11 17 L 28 2 Z " fill="url(#_lgradient_11)"/><linearGradient id="_lgradient_12" x1="8.341655281255566%" y1="38.393578453223675%" x2="90.81718425804985%" y2="94.8562224460353%"><stop offset="0%" stop-opacity="1" style="stop-color:rgb(255,245,157)"/><stop offset="98.26086956521739%" stop-opacity="1" style="stop-color:rgb(253,216,53)"/></linearGradient><path d=" M 46 18.613 L 46 29.72 C 46 38.705 38.705 46 29.72 46 L 18.28 46 C 17.299 46 16.338 45.913 15.408 45.739 C 21.87 33.321 32.77 23.577 46 18.613 Z " fill="url(#_lgradient_12)"/></g></g></svg>