<?xml version="1.0" standalone="no"?><!-- Generator: Gravit.io --><svg xmlns="http://www.w3.org/2000/svg" xmlns:xlink="http://www.w3.org/1999/xlink" style="isolation:isolate" viewBox="0 0 48 48" width="48" height="48"><defs><clipPath id="_clipPath_N0HQVUsUn5VjozCPAATSiVeZYfrRSyRH"><rect width="48" height="48"/></clipPath></defs><g clip-path="url(#_clipPath_N0HQVUsUn5VjozCPAATSiVeZYfrRSyRH)"><g style="isolation:isolate" id="Design"><path d="M 18 3 L 30 3 C 38.831 3 46 10.169 46 19 L 46 31 C 46 39.831 38.831 47 30 47 L 18 47 C 9.169 47 2 39.831 2 31 L 2 19 C 2 10.169 9.169 3 18 3 Z" style="stroke:none;fill:#000000;stroke-miterlimit:10;opacity:0.15;"/><defs><linearGradient id="_lgradient_49" x1="0.4990173543270887" y1="0.1343710493046776" x2="0.5000086196988852" y2="1.0075932364096076"><stop offset="1.7391304347826086%" style="stop-color:#4CB2D4"/><stop offset="99.1304347826087%" style="stop-color:#56B949"/></linearGradient></defs><path d="M 18 2 L 30 2 C 38.831 2 46 9.169 46 18 L 46 30 C 46 38.831 38.831 46 30 46 L 18 46 C 9.169 46 2 38.831 2 30 L 2 18 C 2 9.169 9.169 2 18 2 Z" style="stroke:none;fill:url(#_lgradient_49);stroke-miterlimit:10;"/><g id="Group"><path d=" M 29.485 14.13 L 20.778 22.837 L 15.224 18.518 L 13.03 19.615 L 13.03 30.585 L 15.224 31.682 L 20.778 27.363 L 29.485 36.07 L 34.97 33.876 L 34.97 16.324 L 29.485 14.13 Z  M 29.485 20.59 L 29.485 29.61 L 23.687 25.1 L 29.485 20.59 Z  M 15.224 21.809 L 18.515 25.1 L 15.224 28.391 L 15.224 21.809 Z " fill-rule="evenodd" fill="rgb(0,0,0)" fill-opacity="0.15"/><path d=" M 29.485 12.93 L 20.778 21.637 L 15.224 17.318 L 13.03 18.415 L 13.03 29.385 L 15.224 30.482 L 20.778 26.163 L 29.485 34.87 L 34.97 32.676 L 34.97 15.124 L 29.485 12.93 Z  M 29.485 19.39 L 29.485 28.41 L 23.687 23.9 L 29.485 19.39 Z  M 15.224 20.609 L 18.515 23.9 L 15.224 27.191 L 15.224 20.609 Z " fill-rule="evenodd" fill="rgb(255,255,255)"/><path d=" M 29.485 13.53 L 20.778 22.237 L 15.224 17.918 L 13.03 19.015 L 13.03 29.985 L 15.224 31.082 L 20.778 26.763 L 29.485 35.47 L 34.97 33.276 L 34.97 15.724 L 29.485 13.53 Z  M 29.485 19.99 L 29.485 29.01 L 23.687 24.5 L 29.485 19.99 Z  M 15.224 21.209 L 18.515 24.5 L 15.224 27.791 L 15.224 21.209 Z " fill-rule="evenodd" fill="rgb(247,247,247)"/></g></g></g></svg>