<?xml version="1.0" standalone="no"?><!-- Generator: Gravit.io --><svg xmlns="http://www.w3.org/2000/svg" xmlns:xlink="http://www.w3.org/1999/xlink" style="isolation:isolate" viewBox="0 0 48 48" width="48" height="48"><defs><clipPath id="_clipPath_jbjTrLBQFJHtygd0QRHle4oDNBfA9Hll"><rect width="48" height="48"/></clipPath></defs><g clip-path="url(#_clipPath_jbjTrLBQFJHtygd0QRHle4oDNBfA9Hll)"><g style="isolation:isolate" id="Design"><path d="M 18 3 L 30 3 C 38.831 3 46 10.169 46 19 L 46 31 C 46 39.831 38.831 47 30 47 L 18 47 C 9.169 47 2 39.831 2 31 L 2 19 C 2 10.169 9.169 3 18 3 Z" style="stroke:none;fill:#000000;stroke-miterlimit:10;opacity:0.15;"/><defs><linearGradient id="_lgradient_56" x1="0.04071525011930416" y1="0.03519470454053819" x2="0.9626463617730696" y2="0.9571258161943044"><stop offset="0%" style="stop-color:#D0EEAB"/><stop offset="50.117087581658836%" style="stop-color:#86E6C8"/><stop offset="100%" style="stop-color:#4DB5C8"/></linearGradient></defs><path d="M 18 2 L 30 2 C 38.831 2 46 9.169 46 18 L 46 30 C 46 38.831 38.831 46 30 46 L 18 46 C 9.169 46 2 38.831 2 30 L 2 18 C 2 9.169 9.169 2 18 2 Z" style="stroke:none;fill:url(#_lgradient_56);stroke-miterlimit:10;"/><g id="Group"><path d=" M 31.34 20.422 C 27.246 20.422 27.947 18.667 25.023 18.667 C 24.555 18.667 24.322 18.843 24.322 19.604 C 24.322 21.066 24.322 30.656 24.322 32.177 C 24.322 33.696 24.322 36.796 20.345 36.796 C 16.016 36.796 15.55 34.749 15.55 33.347 C 15.55 31.3 17.012 30.363 20.345 30.363 C 22.625 30.363 23.152 29.486 23.152 28.2 C 23.152 23.638 23.152 15.218 23.152 14.514 C 23.152 13.929 23.385 13.404 24.322 13.404 C 28.18 13.404 27.246 15.158 31.34 15.158 C 32.041 15.158 32.45 15.391 32.45 16.269 C 32.45 16.853 32.45 17.906 32.45 19.368 C 32.45 20.481 31.34 20.422 31.34 20.422 Z " fill="rgb(0,0,0)" fill-opacity="0.15"/><path d=" M 31.34 19.222 C 27.246 19.222 27.947 17.467 25.023 17.467 C 24.555 17.467 24.322 17.643 24.322 18.404 C 24.322 19.866 24.322 29.456 24.322 30.977 C 24.322 32.496 24.322 35.596 20.345 35.596 C 16.016 35.596 15.55 33.549 15.55 32.147 C 15.55 30.1 17.012 29.163 20.345 29.163 C 22.625 29.163 23.152 28.286 23.152 27 C 23.152 22.438 23.152 14.018 23.152 13.314 C 23.152 12.729 23.385 12.204 24.322 12.204 C 28.18 12.204 27.246 13.958 31.34 13.958 C 32.041 13.958 32.45 14.191 32.45 15.069 C 32.45 15.653 32.45 16.706 32.45 18.168 C 32.45 19.281 31.34 19.222 31.34 19.222 Z " fill="rgb(255,255,255)"/><path d=" M 31.34 19.825 C 27.246 19.825 27.947 18.071 25.023 18.071 C 24.555 18.071 24.322 18.247 24.322 19.008 C 24.322 20.47 24.322 30.06 24.322 31.581 C 24.322 33.1 24.322 36.2 20.345 36.2 C 16.016 36.2 15.55 34.153 15.55 32.751 C 15.55 30.704 17.012 29.767 20.345 29.767 C 22.625 29.767 23.152 28.89 23.152 27.604 C 23.152 23.042 23.152 14.622 23.152 13.918 C 23.152 13.333 23.385 12.808 24.322 12.808 C 28.18 12.808 27.246 14.562 31.34 14.562 C 32.041 14.562 32.45 14.795 32.45 15.672 C 32.45 16.257 32.45 17.31 32.45 18.772 C 32.45 19.885 31.34 19.825 31.34 19.825 Z " fill="rgb(247,247,247)"/></g></g></g></svg>