<?xml version="1.0" standalone="no"?><!-- Generator: Gravit.io --><svg xmlns="http://www.w3.org/2000/svg" xmlns:xlink="http://www.w3.org/1999/xlink" style="isolation:isolate" viewBox="0 0 48 48" width="48" height="48"><defs><clipPath id="_clipPath_NfjZ98UnWAAJseIs64oO30h4mX4Ems6a"><rect width="48" height="48"/></clipPath></defs><g clip-path="url(#_clipPath_NfjZ98UnWAAJseIs64oO30h4mX4Ems6a)"><g style="isolation:isolate" id="Design"><path d="M 18 3 L 30 3 C 38.831 3 46 10.169 46 19 L 46 31 C 46 39.831 38.831 47 30 47 L 18 47 C 9.169 47 2 39.831 2 31 L 2 19 C 2 10.169 9.169 3 18 3 Z" style="stroke:none;fill:#000000;stroke-miterlimit:10;opacity:0.15;"/><defs><linearGradient id="_lgradient_34" x1="0.5" y1="-1.1102230246251565e-16" x2="0.49999999999999994" y2="0.4999999999999999"><stop offset="0%" style="stop-color:#4FC3F7"/><stop offset="100%" style="stop-color:#03A9F4"/></linearGradient></defs><path d="M 18 2 L 30 2 C 38.831 2 46 9.169 46 18 L 46 30 C 46 38.831 38.831 46 30 46 L 18 46 C 9.169 46 2 38.831 2 30 L 2 18 C 2 9.169 9.169 2 18 2 Z" style="stroke:none;fill:url(#_lgradient_34);stroke-miterlimit:10;"/><g id="Group sol"><path d=" M 26.532 16.7 C 26.532 13.664 28.997 11.2 32.032 11.2 C 35.068 11.2 37.532 13.664 37.532 16.7 C 37.532 19.736 35.068 22.2 32.032 22.2 C 28.997 22.2 26.532 19.736 26.532 16.7 Z " fill="rgb(0,0,0)" fill-opacity="0.15"/><path d=" M 26.532 15.5 C 26.532 12.464 28.997 10 32.032 10 C 35.068 10 37.532 12.464 37.532 15.5 C 37.532 18.536 35.068 21 32.032 21 C 28.997 21 26.532 18.536 26.532 15.5 Z " fill="rgb(255,255,255)"/><linearGradient id="_lgradient_35" x1="49.04862579281187%" y1="5.285412262156475%" x2="49.048625792811876%" y2="97.37319687926812%"><stop offset="0%" stop-opacity="1" style="stop-color:rgb(255,245,157)"/><stop offset="98.26086956521739%" stop-opacity="1" style="stop-color:rgb(253,216,53)"/></linearGradient><path d=" M 26.532 16.1 C 26.532 13.064 28.997 10.6 32.032 10.6 C 35.068 10.6 37.532 13.064 37.532 16.1 C 37.532 19.136 35.068 21.6 32.032 21.6 C 28.997 21.6 26.532 19.136 26.532 16.1 Z " fill="url(#_lgradient_35)"/></g><linearGradient id="_lgradient_36" x1="31.080567152851867%" y1="0.8441116405718208%" x2="31.080567152851874%" y2="61.94690265486727%"><stop offset="0%" stop-opacity="1" style="stop-color:rgb(141,110,99)"/><stop offset="100%" stop-opacity="1" style="stop-color:rgb(121,85,72)"/></linearGradient><path d=" M 2.115 31.925 L 9 20 L 16.506 33 L 24.011 46 L 18 46 C 9.821 46 3.067 39.85 2.115 31.925 Z " fill="url(#_lgradient_36)"/><path d=" M 6.945 41.562 L 10.391 36.988 L 15.157 30.664 L 16.506 33 L 24.011 46 L 18 46 C 13.713 46 9.818 44.311 6.945 41.562 Z " fill="rgb(0,0,0)" fill-opacity="0.15"/><linearGradient id="_lgradient_37" x1="49.99999999999998%" y1="2.7755575615628914e-15%" x2="49.999999999999986%" y2="79.91831177671885%"><stop offset="0%" stop-opacity="1" style="stop-color:rgb(141,110,99)"/><stop offset="100%" stop-opacity="1" style="stop-color:rgb(121,85,72)"/></linearGradient><path d=" M 10.17 43.954 L 16.494 33 L 24 20 L 31.506 33 L 37.83 43.954 C 35.515 45.257 32.843 46 30 46 L 18 46 C 15.157 46 12.485 45.257 10.17 43.954 Z " fill="url(#_lgradient_37)"/><path d=" M 30.586 31.406 L 31.506 33 L 37.463 43.318 C 36.765 43.995 36.006 44.607 35.192 45.142 C 33.563 45.697 31.817 46 30 46 L 20.367 46 L 28.091 34.969 L 30.586 31.406 Z " fill="rgb(0,0,0)" fill-opacity="0.15"/><linearGradient id="_lgradient_38" x1="70.66393558773507%" y1="-0.014491468621413706%" x2="70.66393558773507%" y2="87.88203678188916%"><stop offset="0%" stop-opacity="1" style="stop-color:rgb(141,110,99)"/><stop offset="100%" stop-opacity="1" style="stop-color:rgb(121,85,72)"/></linearGradient><path d=" M 31.013 45.968 L 24.527 45.968 L 32.032 32.968 L 39.538 19.968 L 45.963 31.097 C 45.421 39.082 39.01 45.468 31.013 45.968 Z " fill="url(#_lgradient_38)"/></g></g></svg>