<?xml version="1.0" standalone="no"?><!-- Generator: Gravit.io --><svg xmlns="http://www.w3.org/2000/svg" xmlns:xlink="http://www.w3.org/1999/xlink" style="isolation:isolate" viewBox="0 0 48 48" width="48" height="48"><defs><clipPath id="_clipPath_xhAX6AVxv99UcbE4izcQuRCbkQ9N2JhX"><rect width="48" height="48"/></clipPath></defs><g clip-path="url(#_clipPath_xhAX6AVxv99UcbE4izcQuRCbkQ9N2JhX)"><g style="isolation:isolate" id="Design"><path d="M 18 3 L 30 3 C 38.831 3 46 10.169 46 19 L 46 31 C 46 39.831 38.831 47 30 47 L 18 47 C 9.169 47 2 39.831 2 31 L 2 19 C 2 10.169 9.169 3 18 3 Z" style="stroke:none;fill:#000000;stroke-miterlimit:10;opacity:0.15;"/><defs><linearGradient id="_lgradient_45" x1="0.5009783938035058" y1="0.14398695474928658" x2="0.49998268329551293" y2="1.0151506733672695"><stop offset="1.3043478260869565%" style="stop-color:#64B5F6"/><stop offset="98.26086956521739%" style="stop-color:#1E88E5"/></linearGradient></defs><path d="M 18 2 L 30 2 C 38.831 2 46 9.169 46 18 L 46 30 C 46 38.831 38.831 46 30 46 L 18 46 C 9.169 46 2 38.831 2 30 L 2 18 C 2 9.169 9.169 2 18 2 Z" style="stroke:none;fill:url(#_lgradient_45);stroke-miterlimit:10;"/><g id="Group"><path d=" M 16.449 31.542 L 16.338 25.13 L 16.226 18.717 C 16.192 16.765 17.55 15.949 19.258 16.895 L 24.867 20.005 L 30.476 23.114 C 32.184 24.06 32.211 25.645 30.538 26.651 L 25.041 29.954 L 19.543 33.257 C 17.87 34.262 16.484 33.494 16.449 31.542 Z " fill="rgb(0,0,0)" fill-opacity="0.15"/><path d=" M 16.449 30.342 L 16.338 23.93 L 16.226 17.517 C 16.192 15.565 17.55 14.749 19.258 15.695 L 24.867 18.805 L 30.476 21.914 C 32.184 22.86 32.211 24.445 30.538 25.451 L 25.041 28.754 L 19.543 32.057 C 17.87 33.062 16.484 32.294 16.449 30.342 Z " fill="rgb(255,255,255)"/><path d=" M 16.449 30.943 L 16.338 24.531 L 16.226 18.119 C 16.192 16.167 17.55 15.35 19.258 16.297 L 24.867 19.406 L 30.476 22.515 C 32.184 23.462 32.211 25.046 30.538 26.052 L 25.041 29.355 L 19.543 32.658 C 17.87 33.664 16.484 32.895 16.449 30.943 Z " fill="rgb(247,247,247)"/></g></g></g></svg>