<?xml version="1.0" standalone="no"?><!-- Generator: Gravit.io --><svg xmlns="http://www.w3.org/2000/svg" xmlns:xlink="http://www.w3.org/1999/xlink" style="isolation:isolate" viewBox="0 0 48 48" width="48" height="48"><defs><clipPath id="_clipPath_ZsIgoOtDCDwA1ZgHUffCtidNjB5QGc5w"><rect width="48" height="48"/></clipPath></defs><g clip-path="url(#_clipPath_ZsIgoOtDCDwA1ZgHUffCtidNjB5QGc5w)"><g style="isolation:isolate" id="Design"><path d="M 18 3 L 30 3 C 38.831 3 46 10.169 46 19 L 46 31 C 46 39.831 38.831 47 30 47 L 18 47 C 9.169 47 2 39.831 2 31 L 2 19 C 2 10.169 9.169 3 18 3 Z" style="stroke:none;fill:#000000;stroke-miterlimit:10;opacity:0.15;"/><defs><linearGradient id="_lgradient_67" x1="0.5009654062751407" y1="0.15534995977473842" x2="0.5009654062751407" y2="0.9933226065969428"><stop offset="0%" style="stop-color:#4FC3F7"/><stop offset="100%" style="stop-color:#039BE5"/></linearGradient></defs><path d="M 18.018 2 L 30.018 2 C 38.849 2 46.018 9.169 46.018 18 L 46.018 30 C 46.018 38.831 38.849 46 30.018 46 L 18.018 46 C 9.187 46 2.018 38.831 2.018 30 L 2.018 18 C 2.018 9.169 9.187 2 18.018 2 Z" style="stroke:none;fill:url(#_lgradient_67);stroke-miterlimit:10;"/><g id="Group"><path d=" M 35.009 18.277 C 34.201 18.638 33.329 18.879 32.418 18.986 C 33.35 18.427 34.064 17.543 34.403 16.49 C 33.53 17.006 32.564 17.384 31.537 17.586 C 30.712 16.71 29.54 16.164 28.242 16.164 C 25.75 16.164 23.731 18.183 23.731 20.675 C 23.731 21.027 23.769 21.371 23.847 21.702 C 20.096 21.513 16.771 19.717 14.546 16.985 C 14.159 17.651 13.936 18.429 13.936 19.254 C 13.936 20.817 14.731 22.2 15.943 23.009 C 15.204 22.987 14.508 22.781 13.898 22.446 C 13.898 22.463 13.898 22.484 13.898 22.501 C 13.898 24.688 15.453 26.514 17.519 26.926 C 17.141 27.029 16.742 27.085 16.33 27.085 C 16.038 27.085 15.758 27.055 15.479 27.003 C 16.055 28.794 17.722 30.1 19.694 30.139 C 18.147 31.351 16.205 32.073 14.087 32.073 C 13.722 32.073 13.366 32.052 13.009 32.008 C 15.011 33.293 17.382 34.036 19.93 34.036 C 28.23 34.036 32.771 27.158 32.771 21.195 C 32.771 20.998 32.767 20.804 32.758 20.611 C 33.638 19.979 34.403 19.185 35.009 18.278 L 35.009 18.277 Z " fill="rgb(0,0,0)" fill-opacity="0.15"/><path d=" M 32.418 17.786 C 33.35 17.227 34.064 16.947 34.403 15.894 C 33.53 16.41 32.808 16.497 31.781 16.699 C 30.956 15.822 29.54 14.964 28.242 14.964 C 25.75 14.964 23.731 16.983 23.731 19.475 C 23.731 19.827 23.769 20.171 23.847 20.502 C 20.096 20.313 16.771 18.517 14.546 15.785 C 14.159 16.451 13.936 17.229 13.936 18.054 C 13.936 19.617 14.731 21 15.943 21.809 C 15.204 21.787 14.508 21.581 13.898 21.246 C 13.898 21.263 13.898 21.284 13.898 21.301 C 13.898 23.488 15.453 25.314 17.519 25.726 C 17.141 25.829 16.742 25.885 16.33 25.885 C 16.038 25.885 15.758 25.855 15.479 25.803 C 16.055 27.594 17.722 28.9 19.694 28.939 C 18.147 30.151 16.205 30.873 14.087 30.873 C 13.722 30.873 13.366 30.852 13.009 30.808 C 15.011 32.093 17.382 32.836 19.93 32.836 C 28.23 32.836 32.771 25.958 32.771 19.995 C 32.771 19.798 31.104 19.534 31.095 19.341 C 31.975 18.709 32.63 17.761 32.418 17.786 Z " fill="rgb(255,255,255)"/><path d=" M 35.009 17.681 C 34.201 18.042 33.329 18.283 32.418 18.39 C 33.35 17.831 34.064 16.947 34.403 15.894 C 33.53 16.41 32.564 16.788 31.537 16.99 C 30.712 16.113 29.54 15.568 28.242 15.568 C 25.75 15.568 23.731 17.587 23.731 20.079 C 23.731 20.431 23.769 20.775 23.847 21.106 C 20.096 20.917 16.771 19.121 14.546 16.389 C 14.159 17.055 13.936 17.833 13.936 18.657 C 13.936 20.221 14.731 21.604 15.943 22.413 C 15.204 22.391 14.508 22.185 13.898 21.85 C 13.898 21.867 13.898 21.888 13.898 21.905 C 13.898 24.092 15.453 25.918 17.519 26.33 C 17.141 26.433 16.742 26.489 16.33 26.489 C 16.038 26.489 15.758 26.458 15.479 26.407 C 16.055 28.198 17.722 29.504 19.694 29.543 C 18.147 30.754 16.205 31.477 14.087 31.477 C 13.722 31.477 13.366 31.456 13.009 31.412 C 15.011 32.697 17.382 33.44 19.93 33.44 C 28.23 33.44 32.771 26.562 32.771 20.599 C 32.771 20.402 32.767 20.208 32.758 20.015 C 33.638 19.383 34.403 18.589 35.009 17.682 L 35.009 17.681 Z " fill="rgb(247,247,247)"/></g></g></g></svg>