<?xml version="1.0" standalone="no"?><!-- Generator: Gravit.io --><svg xmlns="http://www.w3.org/2000/svg" xmlns:xlink="http://www.w3.org/1999/xlink" style="isolation:isolate" viewBox="0 0 48 48" width="48" height="48"><defs><clipPath id="_clipPath_LFP27v7pZ9VI3oxo0UMKjqFl6JBA1zW1"><rect width="48" height="48"/></clipPath></defs><g clip-path="url(#_clipPath_LFP27v7pZ9VI3oxo0UMKjqFl6JBA1zW1)"><g style="isolation:isolate" id="Design"><path d="M 18 3 L 30 3 C 38.831 3 46 10.169 46 19 L 46 31 C 46 39.831 38.831 47 30 47 L 18 47 C 9.169 47 2 39.831 2 31 L 2 19 C 2 10.169 9.169 3 18 3 Z" style="stroke:none;fill:#000000;stroke-miterlimit:10;opacity:0.15;"/><g id="Group B"><path d="M 18 46 L 30 46 C 38.831 46 46 38.831 46 30 L 46 18 C 46 9.169 38.831 2 30 2 L 18 2 C 9.169 2 2 9.169 2 18 L 2 30 C 2 38.831 9.169 46 18 46 Z" style="stroke:none;fill:#78909C;stroke-miterlimit:10;"/><path d="M 14 8 L 34 8 C 34.552 8 35 8.448 35 9 L 35 11 C 35 11.552 34.552 12 34 12 L 14 12 C 13.448 12 13 11.552 13 11 L 13 9 C 13 8.448 13.448 8 14 8 Z" style="stroke:none;fill:#455A64;stroke-miterlimit:10;"/><path d=" M 34.861 8.5 C 34.692 8.2 34.369 8 34 8 L 14 8 C 13.631 8 13.308 8.2 13.139 8.5 C 13.308 8.8 13.631 9 14 9 L 34 9 C 34.369 9 34.692 8.8 34.861 8.5 Z " fill="rgb(0,0,0)" fill-opacity="0.15"/><g id="Group"><path d="M 14.388 15.6 L 33.612 15.6 C 36.586 15.6 39 18.014 39 20.988 L 39 35.212 C 39 38.186 36.586 40.6 33.612 40.6 L 14.388 40.6 C 11.414 40.6 9 38.186 9 35.212 L 9 20.988 C 9 18.014 11.414 15.6 14.388 15.6 Z" style="stroke:none;fill:#000000;stroke-miterlimit:10;opacity:0.15;"/><path d="M 14.388 14.4 L 33.612 14.4 C 36.586 14.4 39 16.814 39 19.788 L 39 34.012 C 39 36.986 36.586 39.4 33.612 39.4 L 14.388 39.4 C 11.414 39.4 9 36.986 9 34.012 L 9 19.788 C 9 16.814 11.414 14.4 14.388 14.4 Z" style="stroke:none;fill:#FFFFFF;stroke-miterlimit:10;"/><path d="M 14.388 15 L 33.612 15 C 36.586 15 39 17.414 39 20.388 L 39 34.612 C 39 37.586 36.586 40 33.612 40 L 14.388 40 C 11.414 40 9 37.586 9 34.612 L 9 20.388 C 9 17.414 11.414 15 14.388 15 Z" style="stroke:none;fill:#F7F7F7;stroke-miterlimit:10;"/></g><g id="Group"><path d=" M 17.448 33.566 L 17.448 33.566 L 23.496 33.566 L 23.496 34.763 L 14.466 34.763 L 14.466 34.763 Q 15.789 33.461 17.039 32.201 L 17.039 32.201 L 17.039 32.201 Q 18.288 30.941 19.254 29.765 L 19.254 29.765 L 19.254 29.765 Q 20.22 28.589 20.808 27.486 L 20.808 27.486 L 20.808 27.486 Q 21.396 26.384 21.396 25.376 L 21.396 25.376 L 21.396 25.376 Q 21.396 24.452 21.113 23.811 L 21.113 23.811 L 21.113 23.811 Q 20.829 23.171 20.398 22.782 L 20.398 22.782 L 20.398 22.782 Q 19.968 22.394 19.464 22.215 L 19.464 22.215 L 19.464 22.215 Q 18.96 22.037 18.519 22.037 L 18.519 22.037 L 18.519 22.037 Q 17.637 22.037 17.06 22.352 L 17.06 22.352 L 17.06 22.352 Q 16.482 22.667 16.146 23.118 L 16.146 23.118 L 16.146 23.118 Q 15.81 23.57 15.684 24.095 L 15.684 24.095 L 15.684 24.095 Q 15.558 24.62 15.558 25.019 L 15.558 25.019 L 15.558 25.019 Q 15.558 25.754 15.779 26.321 L 15.779 26.321 L 15.779 26.321 Q 15.999 26.888 16.398 27.308 L 16.398 27.308 L 15.663 28.043 L 15.663 28.043 Q 15.348 27.812 15.096 27.465 L 15.096 27.465 L 15.096 27.465 Q 14.844 27.119 14.676 26.709 L 14.676 26.709 L 14.676 26.709 Q 14.508 26.3 14.414 25.869 L 14.414 25.869 L 14.414 25.869 Q 14.319 25.439 14.319 25.019 L 14.319 25.019 L 14.319 25.019 Q 14.319 24.179 14.592 23.412 L 14.592 23.412 L 14.592 23.412 Q 14.865 22.646 15.401 22.079 L 15.401 22.079 L 15.401 22.079 Q 15.936 21.512 16.724 21.176 L 16.724 21.176 L 16.724 21.176 Q 17.511 20.84 18.519 20.84 L 18.519 20.84 L 18.519 20.84 Q 19.443 20.84 20.199 21.176 L 20.199 21.176 L 20.199 21.176 Q 20.955 21.512 21.501 22.089 L 21.501 22.089 L 21.501 22.089 Q 22.047 22.667 22.341 23.454 L 22.341 23.454 L 22.341 23.454 Q 22.635 24.242 22.635 25.124 L 22.635 25.124 L 22.635 25.124 Q 22.635 26.237 22.173 27.318 L 22.173 27.318 L 22.173 27.318 Q 21.711 28.4 20.976 29.439 L 20.976 29.439 L 20.976 29.439 Q 20.241 30.479 19.317 31.508 L 19.317 31.508 L 19.317 31.508 Q 18.393 32.537 17.448 33.566 Z  M 31.749 22.205 L 25.029 22.205 L 25.029 21.008 L 33.681 21.008 L 33.681 21.008 Q 32.19 24.557 30.773 27.927 L 30.773 27.927 L 30.773 27.927 Q 29.355 31.298 27.927 34.763 L 27.927 34.763 L 26.499 34.763 L 26.499 34.763 Q 27.759 31.76 29.093 28.578 L 29.093 28.578 L 29.093 28.578 Q 30.426 25.397 31.749 22.205 L 31.749 22.205 Z " fill-rule="evenodd" fill="rgb(0,0,0)" fill-opacity="0.15" vector-effect="non-scaling-stroke" stroke-width="1" stroke="rgb(0,0,0)" stroke-opacity="0.15" stroke-linejoin="miter" stroke-linecap="square" stroke-miterlimit="3"/><path d=" M 17.448 32.963 L 17.448 32.963 L 23.496 32.963 L 23.496 34.16 L 14.466 34.16 L 14.466 34.16 Q 15.789 32.858 17.039 31.598 L 17.039 31.598 L 17.039 31.598 Q 18.288 30.338 19.254 29.162 L 19.254 29.162 L 19.254 29.162 Q 20.22 27.986 20.808 26.884 L 20.808 26.884 L 20.808 26.884 Q 21.396 25.781 21.396 24.773 L 21.396 24.773 L 21.396 24.773 Q 21.396 23.849 21.113 23.209 L 21.113 23.209 L 21.113 23.209 Q 20.829 22.568 20.398 22.18 L 20.398 22.18 L 20.398 22.18 Q 19.968 21.791 19.464 21.613 L 19.464 21.613 L 19.464 21.613 Q 18.96 21.434 18.519 21.434 L 18.519 21.434 L 18.519 21.434 Q 17.637 21.434 17.06 21.749 L 17.06 21.749 L 17.06 21.749 Q 16.482 22.064 16.146 22.516 L 16.146 22.516 L 16.146 22.516 Q 15.81 22.967 15.684 23.492 L 15.684 23.492 L 15.684 23.492 Q 15.558 24.017 15.558 24.416 L 15.558 24.416 L 15.558 24.416 Q 15.558 25.151 15.779 25.718 L 15.779 25.718 L 15.779 25.718 Q 15.999 26.285 16.398 26.705 L 16.398 26.705 L 15.663 27.44 L 15.663 27.44 Q 15.348 27.209 15.096 26.863 L 15.096 26.863 L 15.096 26.863 Q 14.844 26.516 14.676 26.107 L 14.676 26.107 L 14.676 26.107 Q 14.508 25.697 14.414 25.267 L 14.414 25.267 L 14.414 25.267 Q 14.319 24.836 14.319 24.416 L 14.319 24.416 L 14.319 24.416 Q 14.319 23.576 14.592 22.81 L 14.592 22.81 L 14.592 22.81 Q 14.865 22.043 15.401 21.476 L 15.401 21.476 L 15.401 21.476 Q 15.936 20.909 16.724 20.573 L 16.724 20.573 L 16.724 20.573 Q 17.511 20.237 18.519 20.237 L 18.519 20.237 L 18.519 20.237 Q 19.443 20.237 20.199 20.573 L 20.199 20.573 L 20.199 20.573 Q 20.955 20.909 21.501 21.487 L 21.501 21.487 L 21.501 21.487 Q 22.047 22.064 22.341 22.852 L 22.341 22.852 L 22.341 22.852 Q 22.635 23.639 22.635 24.521 L 22.635 24.521 L 22.635 24.521 Q 22.635 25.634 22.173 26.716 L 22.173 26.716 L 22.173 26.716 Q 21.711 27.797 20.976 28.837 L 20.976 28.837 L 20.976 28.837 Q 20.241 29.876 19.317 30.905 L 19.317 30.905 L 19.317 30.905 Q 18.393 31.934 17.448 32.963 Z  M 31.749 21.602 L 25.029 21.602 L 25.029 20.405 L 33.681 20.405 L 33.681 20.405 Q 32.19 23.954 30.773 27.325 L 30.773 27.325 L 30.773 27.325 Q 29.355 30.695 27.927 34.16 L 27.927 34.16 L 26.499 34.16 L 26.499 34.16 Q 27.759 31.157 29.093 27.976 L 29.093 27.976 L 29.093 27.976 Q 30.426 24.794 31.749 21.602 L 31.749 21.602 Z " fill-rule="evenodd" fill="rgb(84,110,122)" vector-effect="non-scaling-stroke" stroke-width="1" stroke="rgb(84,110,122)" stroke-linejoin="miter" stroke-linecap="square" stroke-miterlimit="3"/></g></g></g></g></svg>