<?xml version="1.0" standalone="no"?><!-- Generator: Gravit.io --><svg xmlns="http://www.w3.org/2000/svg" xmlns:xlink="http://www.w3.org/1999/xlink" style="isolation:isolate" viewBox="0 0 48 48" width="48" height="48"><defs><clipPath id="_clipPath_T5CIYJKA8dDh2KtxwKWuQcaaKm03ktZl"><rect width="48" height="48"/></clipPath></defs><g clip-path="url(#_clipPath_T5CIYJKA8dDh2KtxwKWuQcaaKm03ktZl)"><g style="isolation:isolate" id="Design"><path d="M 18 3 L 30 3 C 38.831 3 46 10.169 46 19 L 46 31 C 46 39.831 38.831 47 30 47 L 18 47 C 9.169 47 2 39.831 2 31 L 2 19 C 2 10.169 9.169 3 18 3 Z" style="stroke:none;fill:#000000;stroke-miterlimit:10;opacity:0.15;"/><defs><linearGradient id="_lgradient_14" x1="0.5" y1="0.03276955602537002" x2="0.5" y2="0.49999999999999994"><stop offset="0%" style="stop-color:#64B5F6"/><stop offset="100%" style="stop-color:#2196F3"/></linearGradient></defs><path d="M 18 2 L 30 2 C 38.831 2 46 9.169 46 18 L 46 30 C 46 38.831 38.831 46 30 46 L 18 46 C 9.169 46 2 38.831 2 30 L 2 18 C 2 9.169 9.169 2 18 2 Z" style="stroke:none;fill:url(#_lgradient_14);stroke-miterlimit:10;"/><g id="Group"><g id="Group"><path d="M 25.396 10.835 L 36.604 10.835 C 37.707 10.835 38.604 11.732 38.604 12.835 L 38.604 19.455 C 38.604 20.559 37.707 21.455 36.604 21.455 L 25.396 21.455 C 24.293 21.455 23.396 20.559 23.396 19.455 L 23.396 12.835 C 23.396 11.732 24.293 10.835 25.396 10.835 Z" style="stroke:none;fill:#AED581;stroke-miterlimit:10;"/><defs><linearGradient id="_lgradient_15" x1="0.6269298644493533" y1="0.02425968992248051" x2="0.6269298644493533" y2="0.4797635658914731"><stop offset="0%" style="stop-color:#AED581"/><stop offset="100%" style="stop-color:#7CB342"/></linearGradient></defs><path d="M 25.396 11.835 L 36.604 11.835 C 37.707 11.835 38.604 12.732 38.604 13.835 L 38.604 20.455 C 38.604 21.559 37.707 22.455 36.604 22.455 L 25.396 22.455 C 24.293 22.455 23.396 21.559 23.396 20.455 L 23.396 13.835 C 23.396 12.732 24.293 11.835 25.396 11.835 Z" style="stroke:none;fill:url(#_lgradient_15);stroke-miterlimit:10;"/></g><g id="Group"><path d="M 21.37 10.835 L 28.926 10.835 C 30.029 10.835 30.926 11.732 30.926 12.835 L 30.926 19.455 C 30.926 20.559 30.029 21.455 28.926 21.455 L 21.37 21.455 C 20.266 21.455 19.37 20.559 19.37 19.455 L 19.37 12.835 C 19.37 11.732 20.266 10.835 21.37 10.835 Z" style="stroke:none;fill:#E57373;stroke-miterlimit:10;"/><defs><linearGradient id="_lgradient_16" x1="0.5858228226837685" y1="0.04177906976744178" x2="0.5858228226837685" y2="0.48852325581395356"><stop offset="0%" style="stop-color:#E57373"/><stop offset="100%" style="stop-color:#E53935"/></linearGradient></defs><path d="M 21.37 11.835 L 28.926 11.835 C 30.029 11.835 30.926 12.732 30.926 13.835 L 30.926 20.455 C 30.926 21.559 30.029 22.455 28.926 22.455 L 21.37 22.455 C 20.266 22.455 19.37 21.559 19.37 20.455 L 19.37 13.835 C 19.37 12.732 20.266 11.835 21.37 11.835 Z" style="stroke:none;fill:url(#_lgradient_16);stroke-miterlimit:10;"/></g><g id="Group"><path d="M 11.396 10.835 L 22.604 10.835 C 23.707 10.835 24.604 11.732 24.604 12.835 L 24.604 19.455 C 24.604 20.559 23.707 21.455 22.604 21.455 L 11.396 21.455 C 10.293 21.455 9.396 20.559 9.396 19.455 L 9.396 12.835 C 9.396 11.732 10.293 10.835 11.396 10.835 Z" style="stroke:none;fill:#FFEB3B;stroke-miterlimit:10;"/><defs><linearGradient id="_lgradient_17" x1="0.4954121735741202" y1="0.09433720930232536" x2="0.4954121735741202" y2="0.4759818495372745"><stop offset="0%" style="stop-color:#FFEB3B"/><stop offset="98.69565217391305%" style="stop-color:#FBC02D"/></linearGradient></defs><path d="M 11.396 11.835 L 22.604 11.835 C 23.707 11.835 24.604 12.732 24.604 13.835 L 24.604 20.455 C 24.604 21.559 23.707 22.455 22.604 22.455 L 11.396 22.455 C 10.293 22.455 9.396 21.559 9.396 20.455 L 9.396 13.835 C 9.396 12.732 10.293 11.835 11.396 11.835 Z" style="stroke:none;fill:url(#_lgradient_17);stroke-miterlimit:10;"/></g></g><linearGradient id="_lgradient_18" x1="50%" y1="0%" x2="49.999999999999986%" y2="101.60668790938965%"><stop offset="0%" stop-opacity="1" style="stop-color:rgb(79,195,247)"/><stop offset="98.26086956521739%" stop-opacity="1" style="stop-color:rgb(3,169,244)"/></linearGradient><path d=" M 45.969 17 C 45.99 17.331 46 17.664 46 18 L 46 30 C 46 38.831 38.831 46 30 46 L 18 46 C 9.169 46 2 38.831 2 30 L 2 18 C 2 17.664 2.01 17.331 2.031 17 L 45.969 17 Z " fill="url(#_lgradient_18)"/><g id="Group"><g opacity="0.15"><path d=" M 27.597 30.024 L 27.597 30.024 C 27.473 27.518 25.4 25.524 22.864 25.524 C 20.328 25.524 18.255 27.518 18.132 30.024 C 18.126 29.945 18.124 29.864 18.124 29.784 C 18.124 27.167 20.248 25.043 22.864 25.043 C 25.481 25.043 27.605 27.167 27.605 29.784 C 27.605 29.864 27.603 29.945 27.597 30.024 Z  M 28.267 34.446 C 29.169 33.295 29.679 31.822 29.679 30.264 C 29.679 30.188 29.678 30.113 29.672 30.038 C 29.618 31.622 29.033 33.103 28.049 34.228 L 28.267 34.446 Z  M 31.755 37.575 L 32 37.82 L 32 37.82 L 30.392 39.372 L 27.605 36.585 L 27.605 36.104 L 27.605 35.745 L 27.309 35.449 C 26.124 36.486 24.544 37.079 22.864 37.079 C 19.062 37.079 16 34.067 16 30.264 C 16 30.183 16.001 30.103 16.008 30.024 C 16.13 33.713 19.143 36.598 22.864 36.598 C 24.544 36.598 26.124 36.005 27.309 34.969 L 27.605 35.265 L 27.605 35.745 L 27.605 36.104 L 30.392 38.892 L 31.755 37.575 Z " fill-rule="evenodd" fill="rgb(0,0,0)"/></g><g opacity="0.15"><path d=" M 29.673 29.586 C 29.678 29.513 29.679 29.439 29.679 29.364 C 29.679 25.561 26.667 22.5 22.864 22.5 C 19.061 22.5 16 25.561 16 29.364 C 16 29.435 16.001 29.505 16.007 29.574 C 16.114 25.868 19.132 22.919 22.864 22.919 C 26.601 22.919 29.574 25.875 29.673 29.586 Z  M 18.131 29.574 C 18.238 32.094 20.318 34.105 22.864 34.105 L 22.864 34.105 C 25.411 34.105 27.49 32.094 27.598 29.574 C 27.603 29.643 27.605 29.713 27.605 29.784 C 27.605 32.4 25.481 34.524 22.864 34.524 C 20.248 34.524 18.124 32.4 18.124 29.784 C 18.124 29.713 18.125 29.643 18.131 29.574 Z  M 28.24 33.999 L 28.345 34.105 L 29.185 34.105 L 32 36.92 L 32 36.92 L 31.787 37.126 L 29.185 34.524 L 28.345 34.524 L 28.049 34.228 C 28.115 34.153 28.178 34.077 28.24 33.999 Z " fill-rule="evenodd" fill="rgb(255,255,255)"/></g><path d=" M 32 37.339 L 29.185 34.524 L 29.185 34.524 L 28.345 34.524 L 28.049 34.228 C 29.086 33.043 29.679 31.463 29.679 29.784 C 29.679 25.981 26.667 22.919 22.864 22.919 C 19.061 22.919 16 25.981 16 29.784 C 16 33.587 19.062 36.598 22.864 36.598 C 24.544 36.598 26.124 36.005 27.309 34.969 L 27.605 35.265 L 27.605 36.104 L 30.392 38.892 L 32 37.339 Z  M 22.864 34.524 C 20.248 34.524 18.124 32.4 18.124 29.784 C 18.124 27.167 20.248 25.043 22.864 25.043 C 25.481 25.043 27.605 27.167 27.605 29.784 C 27.605 32.4 25.481 34.524 22.864 34.524 L 22.864 34.524 Z " fill-rule="evenodd" fill="rgb(247,247,247)"/><linearGradient id="_lgradient_19" x1="6.824754375434683%" y1="9.355469471892343%" x2="18.39746610920514%" y2="14.629965297339176%"><stop offset="0%" stop-opacity="0.45" style="stop-color:rgb(209,209,209)"/><stop offset="50.77046883781856%" stop-opacity="0.15" style="stop-color:rgb(232,232,232)"/><stop offset="100%" stop-opacity="0.15" style="stop-color:rgb(255,255,255)"/></linearGradient><path d=" M 27.6 36.09 L 30.406 38.934 L 31.994 37.339 L 29.185 34.526 L 28.352 34.526 L 28.049 34.228 L 27.6 35.273 L 27.6 36.09 Z " fill="url(#_lgradient_19)"/></g></g></g></svg>