<?xml version="1.0" standalone="no"?><!-- Generator: Gravit.io --><svg xmlns="http://www.w3.org/2000/svg" xmlns:xlink="http://www.w3.org/1999/xlink" style="isolation:isolate" viewBox="0 0 48 48" width="48" height="48"><defs><clipPath id="_clipPath_5O0OLmb9pQJWkrwfkWYrAK7XXomf4aCB"><rect width="48" height="48"/></clipPath></defs><g clip-path="url(#_clipPath_5O0OLmb9pQJWkrwfkWYrAK7XXomf4aCB)"><g style="isolation:isolate" id="Design"><path d="M 18 3 L 30 3 C 38.831 3 46 10.169 46 19 L 46 31 C 46 39.831 38.831 47 30 47 L 18 47 C 9.169 47 2 39.831 2 31 L 2 19 C 2 10.169 9.169 3 18 3 Z" style="stroke:none;fill:#000000;stroke-miterlimit:10;opacity:0.15;"/><defs><linearGradient id="_lgradient_15" x1="0.5000000000000002" y1="0.14904862579281186" x2="0.5000000000000002" y2="0.9904862579281186"><stop offset="0%" style="stop-color:#F9ED3A"/><stop offset="100%" style="stop-color:#F0A32F"/></linearGradient></defs><path d="M 18 2 L 30 2 C 38.831 2 46 9.169 46 18 L 46 30 C 46 38.831 38.831 46 30 46 L 18 46 C 9.169 46 2 38.831 2 30 L 2 18 C 2 9.169 9.169 2 18 2 Z" style="stroke:none;fill:url(#_lgradient_15);stroke-miterlimit:10;"/><g id="Group"><path d=" M 37.806 24.672 Q 38 24.769 38 25 Q 38 25.231 37.806 25.328 L 33.917 27.661 Q 33.819 27.722 33.722 27.722 Q 33.613 27.722 33.528 27.674 Q 33.333 27.552 33.333 27.333 L 33.333 25.778 L 22.906 25.778 Q 23.356 26.483 23.915 27.783 Q 24.109 28.233 24.213 28.451 Q 24.316 28.67 24.504 29.047 Q 24.693 29.424 24.832 29.618 Q 24.972 29.813 25.161 30.031 Q 25.349 30.25 25.543 30.347 Q 25.738 30.444 25.944 30.444 L 27.111 30.444 L 27.111 29.278 Q 27.111 29.108 27.22 28.998 Q 27.33 28.889 27.5 28.889 L 31.389 28.889 Q 31.559 28.889 31.668 28.998 Q 31.778 29.108 31.778 29.278 L 31.778 33.167 Q 31.778 33.337 31.668 33.446 Q 31.559 33.556 31.389 33.556 L 27.5 33.556 Q 27.33 33.556 27.22 33.446 Q 27.111 33.337 27.111 33.167 L 27.111 32 L 25.944 32 Q 25.556 32 25.203 31.878 Q 24.851 31.757 24.583 31.593 Q 24.316 31.429 24.036 31.101 Q 23.757 30.773 23.587 30.542 Q 23.417 30.311 23.18 29.849 Q 22.943 29.387 22.833 29.15 Q 22.724 28.913 22.493 28.415 Q 22.214 27.771 22.043 27.424 Q 21.873 27.078 21.606 26.635 Q 21.339 26.191 21.065 25.984 Q 20.792 25.778 20.5 25.778 L 16.125 25.778 Q 15.858 26.799 15.019 27.455 Q 14.181 28.111 13.111 28.111 Q 11.823 28.111 10.911 27.2 Q 10 26.288 10 25 Q 10 23.712 10.911 22.8 Q 11.823 21.889 13.111 21.889 Q 14.181 21.889 15.019 22.545 Q 15.858 23.201 16.125 24.222 L 17.389 24.222 Q 17.681 24.222 17.954 24.016 Q 18.227 23.809 18.495 23.365 Q 18.762 22.922 18.932 22.576 Q 19.102 22.229 19.382 21.585 Q 19.613 21.087 19.722 20.85 Q 19.832 20.613 20.069 20.151 Q 20.306 19.689 20.476 19.458 Q 20.646 19.227 20.925 18.899 Q 21.205 18.571 21.472 18.407 Q 21.74 18.243 22.092 18.122 Q 22.444 18 22.833 18 L 24.134 18 Q 24.389 17.307 24.984 16.876 Q 25.58 16.444 26.333 16.444 Q 27.306 16.444 27.986 17.125 Q 28.667 17.806 28.667 18.778 Q 28.667 19.75 27.986 20.431 Q 27.306 21.111 26.333 21.111 Q 25.58 21.111 24.984 20.68 Q 24.389 20.248 24.134 19.556 L 22.833 19.556 Q 22.627 19.556 22.432 19.653 Q 22.238 19.75 22.049 19.969 Q 21.861 20.188 21.721 20.382 Q 21.582 20.576 21.393 20.953 Q 21.205 21.33 21.102 21.549 Q 20.998 21.767 20.804 22.217 Q 20.245 23.517 19.795 24.222 L 33.333 24.222 L 33.333 22.667 Q 33.333 22.448 33.528 22.326 Q 33.722 22.205 33.917 22.339 L 37.806 24.672 Z " fill="rgb(0,0,0)" fill-opacity="0.15"/><path d=" M 37.806 23.672 Q 38 23.769 38 24 Q 38 24.231 37.806 24.328 L 33.917 26.661 Q 33.819 26.722 33.722 26.722 Q 33.613 26.722 33.528 26.674 Q 33.333 26.552 33.333 26.333 L 33.333 24.778 L 22.906 24.778 Q 23.356 25.483 23.915 26.783 Q 24.109 27.233 24.213 27.451 Q 24.316 27.67 24.504 28.047 Q 24.693 28.424 24.832 28.618 Q 24.972 28.813 25.161 29.031 Q 25.349 29.25 25.543 29.347 Q 25.738 29.444 25.944 29.444 L 27.111 29.444 L 27.111 28.278 Q 27.111 28.108 27.22 27.998 Q 27.33 27.889 27.5 27.889 L 31.389 27.889 Q 31.559 27.889 31.668 27.998 Q 31.778 28.108 31.778 28.278 L 31.778 32.167 Q 31.778 32.337 31.668 32.446 Q 31.559 32.556 31.389 32.556 L 27.5 32.556 Q 27.33 32.556 27.22 32.446 Q 27.111 32.337 27.111 32.167 L 27.111 31 L 25.944 31 Q 25.556 31 25.203 30.878 Q 24.851 30.757 24.583 30.593 Q 24.316 30.429 24.036 30.101 Q 23.757 29.773 23.587 29.542 Q 23.417 29.311 23.18 28.849 Q 22.943 28.387 22.833 28.15 Q 22.724 27.913 22.493 27.415 Q 22.214 26.771 22.043 26.424 Q 21.873 26.078 21.606 25.635 Q 21.339 25.191 21.065 24.984 Q 20.792 24.778 20.5 24.778 L 16.125 24.778 Q 15.858 25.799 15.019 26.455 Q 14.181 27.111 13.111 27.111 Q 11.823 27.111 10.911 26.2 Q 10 25.288 10 24 Q 10 22.712 10.911 21.8 Q 11.823 20.889 13.111 20.889 Q 14.181 20.889 15.019 21.545 Q 15.858 22.201 16.125 23.222 L 17.389 23.222 Q 17.681 23.222 17.954 23.016 Q 18.227 22.809 18.495 22.365 Q 18.762 21.922 18.932 21.576 Q 19.102 21.229 19.382 20.585 Q 19.613 20.087 19.722 19.85 Q 19.832 19.613 20.069 19.151 Q 20.306 18.689 20.476 18.458 Q 20.646 18.227 20.925 17.899 Q 21.205 17.571 21.472 17.407 Q 21.74 17.243 22.092 17.122 Q 22.444 17 22.833 17 L 24.134 17 Q 24.389 16.307 24.984 15.876 Q 25.58 15.444 26.333 15.444 Q 27.306 15.444 27.986 16.125 Q 28.667 16.806 28.667 17.778 Q 28.667 18.75 27.986 19.431 Q 27.306 20.111 26.333 20.111 Q 25.58 20.111 24.984 19.68 Q 24.389 19.248 24.134 18.556 L 22.833 18.556 Q 22.627 18.556 22.432 18.653 Q 22.238 18.75 22.049 18.969 Q 21.861 19.188 21.721 19.382 Q 21.582 19.576 21.393 19.953 Q 21.205 20.33 21.102 20.549 Q 20.998 20.767 20.804 21.217 Q 20.245 22.517 19.795 23.222 L 33.333 23.222 L 33.333 21.667 Q 33.333 21.448 33.528 21.326 Q 33.722 21.205 33.917 21.339 L 37.806 23.672 Z " fill="rgb(255,255,255)"/><path d=" M 37.806 24.116 Q 38 24.214 38 24.444 Q 38 24.675 37.806 24.773 L 33.917 27.106 Q 33.819 27.167 33.722 27.167 Q 33.613 27.167 33.528 27.118 Q 33.333 26.997 33.333 26.778 L 33.333 25.222 L 22.906 25.222 Q 23.356 25.927 23.915 27.227 Q 24.109 27.677 24.213 27.896 Q 24.316 28.115 24.504 28.491 Q 24.693 28.868 24.832 29.063 Q 24.972 29.257 25.161 29.476 Q 25.349 29.694 25.543 29.792 Q 25.738 29.889 25.944 29.889 L 27.111 29.889 L 27.111 28.722 Q 27.111 28.552 27.22 28.443 Q 27.33 28.333 27.5 28.333 L 31.389 28.333 Q 31.559 28.333 31.668 28.443 Q 31.778 28.552 31.778 28.722 L 31.778 32.611 Q 31.778 32.781 31.668 32.891 Q 31.559 33 31.389 33 L 27.5 33 Q 27.33 33 27.22 32.891 Q 27.111 32.781 27.111 32.611 L 27.111 31.444 L 25.944 31.444 Q 25.556 31.444 25.203 31.323 Q 24.851 31.201 24.583 31.037 Q 24.316 30.873 24.036 30.545 Q 23.757 30.217 23.587 29.986 Q 23.417 29.755 23.18 29.293 Q 22.943 28.832 22.833 28.595 Q 22.724 28.358 22.493 27.859 Q 22.214 27.215 22.043 26.869 Q 21.873 26.523 21.606 26.079 Q 21.339 25.635 21.065 25.429 Q 20.792 25.222 20.5 25.222 L 16.125 25.222 Q 15.858 26.243 15.019 26.899 Q 14.181 27.556 13.111 27.556 Q 11.823 27.556 10.911 26.644 Q 10 25.733 10 24.444 Q 10 23.156 10.911 22.245 Q 11.823 21.333 13.111 21.333 Q 14.181 21.333 15.019 21.99 Q 15.858 22.646 16.125 23.667 L 17.389 23.667 Q 17.681 23.667 17.954 23.46 Q 18.227 23.253 18.495 22.81 Q 18.762 22.366 18.932 22.02 Q 19.102 21.674 19.382 21.03 Q 19.613 20.531 19.722 20.294 Q 19.832 20.057 20.069 19.595 Q 20.306 19.134 20.476 18.903 Q 20.646 18.672 20.925 18.344 Q 21.205 18.016 21.472 17.852 Q 21.74 17.688 22.092 17.566 Q 22.444 17.444 22.833 17.444 L 24.134 17.444 Q 24.389 16.752 24.984 16.32 Q 25.58 15.889 26.333 15.889 Q 27.306 15.889 27.986 16.569 Q 28.667 17.25 28.667 18.222 Q 28.667 19.194 27.986 19.875 Q 27.306 20.556 26.333 20.556 Q 25.58 20.556 24.984 20.124 Q 24.389 19.693 24.134 19 L 22.833 19 Q 22.627 19 22.432 19.097 Q 22.238 19.194 22.049 19.413 Q 21.861 19.632 21.721 19.826 Q 21.582 20.021 21.393 20.398 Q 21.205 20.774 21.102 20.993 Q 20.998 21.212 20.804 21.661 Q 20.245 22.962 19.795 23.667 L 33.333 23.667 L 33.333 22.111 Q 33.333 21.892 33.528 21.771 Q 33.722 21.649 33.917 21.783 L 37.806 24.116 Z " fill="rgb(247,247,247)"/></g></g></g></svg>