<?xml version="1.0" standalone="no"?><!-- Generator: Gravit.io --><svg xmlns="http://www.w3.org/2000/svg" xmlns:xlink="http://www.w3.org/1999/xlink" style="isolation:isolate" viewBox="0 0 48 48" width="48" height="48"><defs><clipPath id="_clipPath_xVuDY7NBlCpDiqiqjTgKyorXBl6VioW0"><rect width="48" height="48"/></clipPath></defs><g clip-path="url(#_clipPath_xVuDY7NBlCpDiqiqjTgKyorXBl6VioW0)"><g style="isolation:isolate" id="Design"><path d="M 18 3 L 30 3 C 38.831 3 46 10.169 46 19 L 46 31 C 46 39.831 38.831 47 30 47 L 18 47 C 9.169 47 2 39.831 2 31 L 2 19 C 2 10.169 9.169 3 18 3 Z" style="stroke:none;fill:#000000;stroke-miterlimit:10;opacity:0.15;"/><defs><linearGradient id="_lgradient_3" x1="0.5021141649048628" y1="0.14693446088794926" x2="0.5021141649048628" y2="1"><stop offset="0%" style="stop-color:#8BD276"/><stop offset="100%" style="stop-color:#62A140"/></linearGradient></defs><path d="M 18 2 L 30 2 C 38.831 2 46 9.169 46 18 L 46 30 C 46 38.831 38.831 46 30 46 L 18 46 C 9.169 46 2 38.831 2 30 L 2 18 C 2 9.169 9.169 2 18 2 Z" style="stroke:none;fill:url(#_lgradient_3);stroke-miterlimit:10;"/><g id="deepin-show-desktop"><g id="Group"><path d="M 10.875 31.891 L 37.125 31.891 C 37.608 31.891 38 32.283 38 32.766 L 38 36.266 C 38 36.748 37.608 37.141 37.125 37.141 L 10.875 37.141 C 10.392 37.141 10 36.748 10 36.266 L 10 32.766 C 10 32.283 10.392 31.891 10.875 31.891 Z" style="stroke:none;fill:#000000;stroke-miterlimit:10;opacity:0.15;"/><path d="M 10.875 30.2 L 37.125 30.2 C 37.608 30.2 38 30.592 38 31.075 L 38 34.575 C 38 35.058 37.608 35.45 37.125 35.45 L 10.875 35.45 C 10.392 35.45 10 35.058 10 34.575 L 10 31.075 C 10 30.592 10.392 30.2 10.875 30.2 Z" style="stroke:none;fill:#FFFFFF;stroke-miterlimit:10;"/><path d="M 10.875 30.891 L 37.125 30.891 C 37.608 30.891 38 31.283 38 31.766 L 38 35.266 C 38 35.748 37.608 36.141 37.125 36.141 L 10.875 36.141 C 10.392 36.141 10 35.748 10 35.266 L 10 31.766 C 10 31.283 10.392 30.891 10.875 30.891 Z" style="stroke:none;fill:#F7F7F7;stroke-miterlimit:10;"/><path d="M 10.875 13.859 L 14.375 13.859 C 14.858 13.859 15.25 14.252 15.25 14.734 L 15.25 18.234 C 15.25 18.717 14.858 19.109 14.375 19.109 L 10.875 19.109 C 10.392 19.109 10 18.717 10 18.234 L 10 14.734 C 10 14.252 10.392 13.859 10.875 13.859 Z" style="stroke:none;fill:#000000;stroke-miterlimit:10;opacity:0.15;"/><path d="M 10.875 12.2 L 14.375 12.2 C 14.858 12.2 15.25 12.592 15.25 13.075 L 15.25 16.575 C 15.25 17.058 14.858 17.45 14.375 17.45 L 10.875 17.45 C 10.392 17.45 10 17.058 10 16.575 L 10 13.075 C 10 12.592 10.392 12.2 10.875 12.2 Z" style="stroke:none;fill:#FFFFFF;stroke-miterlimit:10;"/><path d="M 10.875 12.859 L 14.375 12.859 C 14.858 12.859 15.25 13.252 15.25 13.734 L 15.25 17.234 C 15.25 17.717 14.858 18.109 14.375 18.109 L 10.875 18.109 C 10.392 18.109 10 17.717 10 17.234 L 10 13.734 C 10 13.252 10.392 12.859 10.875 12.859 Z" style="stroke:none;fill:#F7F7F7;stroke-miterlimit:10;"/><path d="M 10.875 22.609 L 14.375 22.609 C 14.858 22.609 15.25 23.002 15.25 23.484 L 15.25 26.984 C 15.25 27.467 14.858 27.859 14.375 27.859 L 10.875 27.859 C 10.392 27.859 10 27.467 10 26.984 L 10 23.484 C 10 23.002 10.392 22.609 10.875 22.609 Z" style="stroke:none;fill:#000000;stroke-miterlimit:10;opacity:0.15;"/><path d="M 10.875 20.9 L 14.375 20.9 C 14.858 20.9 15.25 21.292 15.25 21.775 L 15.25 25.275 C 15.25 25.758 14.858 26.15 14.375 26.15 L 10.875 26.15 C 10.392 26.15 10 25.758 10 25.275 L 10 21.775 C 10 21.292 10.392 20.9 10.875 20.9 Z" style="stroke:none;fill:#FFFFFF;stroke-miterlimit:10;"/><path d="M 10.875 21.609 L 14.375 21.609 C 14.858 21.609 15.25 22.002 15.25 22.484 L 15.25 25.984 C 15.25 26.467 14.858 26.859 14.375 26.859 L 10.875 26.859 C 10.392 26.859 10 26.467 10 25.984 L 10 22.484 C 10 22.002 10.392 21.609 10.875 21.609 Z" style="stroke:none;fill:#F7F7F7;stroke-miterlimit:10;"/></g></g></g></g></svg>