<?xml version="1.0" standalone="no"?><!-- Generator: Gravit.io --><svg xmlns="http://www.w3.org/2000/svg" xmlns:xlink="http://www.w3.org/1999/xlink" style="isolation:isolate" viewBox="0 0 48 48" width="48" height="48"><defs><clipPath id="_clipPath_mtyua0tzEK8TpcIGe5BfByxRBqDvbnRE"><rect width="48" height="48"/></clipPath></defs><g clip-path="url(#_clipPath_mtyua0tzEK8TpcIGe5BfByxRBqDvbnRE)"><g style="isolation:isolate" id="Design"><path d="M 18 3 L 30 3 C 38.831 3 46 10.169 46 19 L 46 31 C 46 39.831 38.831 47 30 47 L 18 47 C 9.169 47 2 39.831 2 31 L 2 19 C 2 10.169 9.169 3 18 3 Z" style="stroke:none;fill:#000000;stroke-miterlimit:10;opacity:0.15;"/><defs><linearGradient id="_lgradient_1" x1="0.04071525011930416" y1="0.03519470454053819" x2="0.9626463617730696" y2="0.9571258161943044"><stop offset="0%" style="stop-color:#4CAF50"/><stop offset="100%" style="stop-color:#00BCD4"/></linearGradient></defs><path d="M 18 2 L 30 2 C 38.831 2 46 9.169 46 18 L 46 30 C 46 38.831 38.831 46 30 46 L 18 46 C 9.169 46 2 38.831 2 30 L 2 18 C 2 9.169 9.169 2 18 2 Z" style="stroke:none;fill:url(#_lgradient_1);stroke-miterlimit:10;"/><g id="Group"><path d=" M 31.34 20.822 C 27.246 20.822 27.947 19.067 25.023 19.067 C 24.555 19.067 24.322 19.243 24.322 20.004 C 24.322 21.466 24.322 31.056 24.322 32.577 C 24.322 34.096 24.322 37.196 20.345 37.196 C 16.016 37.196 15.55 35.149 15.55 33.747 C 15.55 31.7 17.012 30.763 20.345 30.763 C 22.625 30.763 23.152 29.886 23.152 28.6 C 23.152 24.038 23.152 15.618 23.152 14.914 C 23.152 14.329 23.385 13.804 24.322 13.804 C 28.18 13.804 27.246 15.558 31.34 15.558 C 32.041 15.558 32.45 15.791 32.45 16.669 C 32.45 17.253 32.45 18.306 32.45 19.768 C 32.45 20.881 31.34 20.822 31.34 20.822 Z " fill="rgb(0,0,0)" fill-opacity="0.15"/><path d=" M 31.34 18.822 C 27.246 18.822 27.947 17.067 25.023 17.067 C 24.555 17.067 24.322 17.243 24.322 18.004 C 24.322 19.466 24.322 29.056 24.322 30.577 C 24.322 32.096 24.322 35.196 20.345 35.196 C 16.016 35.196 15.55 33.149 15.55 31.747 C 15.55 29.7 17.012 28.763 20.345 28.763 C 22.625 28.763 23.152 27.886 23.152 26.6 C 23.152 22.038 23.152 13.618 23.152 12.914 C 23.152 12.329 23.385 11.804 24.322 11.804 C 28.18 11.804 27.246 13.558 31.34 13.558 C 32.041 13.558 32.45 13.791 32.45 14.669 C 32.45 15.253 32.45 16.306 32.45 17.768 C 32.45 18.881 31.34 18.822 31.34 18.822 Z " fill="rgb(255,255,255)"/><path d=" M 31.34 19.822 C 27.246 19.822 27.947 18.067 25.023 18.067 C 24.555 18.067 24.322 18.243 24.322 19.004 C 24.322 20.466 24.322 30.056 24.322 31.577 C 24.322 33.096 24.322 36.196 20.345 36.196 C 16.016 36.196 15.55 34.149 15.55 32.747 C 15.55 30.7 17.012 29.763 20.345 29.763 C 22.625 29.763 23.152 28.886 23.152 27.6 C 23.152 23.038 23.152 14.618 23.152 13.914 C 23.152 13.329 23.385 12.804 24.322 12.804 C 28.18 12.804 27.246 14.558 31.34 14.558 C 32.041 14.558 32.45 14.791 32.45 15.669 C 32.45 16.253 32.45 17.306 32.45 18.768 C 32.45 19.881 31.34 19.822 31.34 19.822 Z " fill="rgb(247,247,247)"/></g></g></g></svg>