<?xml version="1.0" standalone="no"?><!-- Generator: Gravit.io --><svg xmlns="http://www.w3.org/2000/svg" xmlns:xlink="http://www.w3.org/1999/xlink" style="isolation:isolate" viewBox="0 0 48 48" width="48" height="48"><defs><clipPath id="_clipPath_A34oSdKZ10dB1WhVmMEkSwTdwPCTAvHQ"><rect width="48" height="48"/></clipPath></defs><g clip-path="url(#_clipPath_A34oSdKZ10dB1WhVmMEkSwTdwPCTAvHQ)"><g style="isolation:isolate" id="Design"><path d="M 18 3 L 30 3 C 38.831 3 46 10.169 46 19 L 46 31 C 46 39.831 38.831 47 30 47 L 18 47 C 9.169 47 2 39.831 2 31 L 2 19 C 2 10.169 9.169 3 18 3 Z" style="stroke:none;fill:#000000;stroke-miterlimit:10;opacity:0.15;"/><defs><linearGradient id="_lgradient_9" x1="0.5000000000000002" y1="0.14693446088794915" x2="0.5000000000000002" y2="0.996828752642706"><stop offset="0%" style="stop-color:#FDF028"/><stop offset="41.791044776119406%" style="stop-color:#FFD027"/><stop offset="100%" style="stop-color:#FD9A28"/></linearGradient></defs><path d="M 18 2 L 30 2 C 38.831 2 46 9.169 46 18 L 46 30 C 46 38.831 38.831 46 30 46 L 18 46 C 9.169 46 2 38.831 2 30 L 2 18 C 2 9.169 9.169 2 18 2 Z" style="stroke:none;fill:url(#_lgradient_9);stroke-miterlimit:10;"/><linearGradient id="_lgradient_10" x1="49.99999999999998%" y1="0%" x2="50.00000000000002%" y2="7.5538587401764445%"><stop offset="0%" stop-opacity="1" style="stop-color:rgb(253,154,40)"/><stop offset="100%" stop-opacity="1" style="stop-color:rgb(255,208,39)"/></linearGradient><path d=" M 42.865 39.51 C 39.949 43.446 35.27 46 30 46 L 18 46 C 12.73 46 8.051 43.446 5.135 39.51 L 42.865 39.51 Z " fill="url(#_lgradient_10)"/><linearGradient id="_lgradient_11" x1="49.999999999999986%" y1="1.1102230246251565e-14%" x2="49.755201958384355%" y2="108.94826891720557%"><stop offset="0%" stop-opacity="1" style="stop-color:rgb(253,240,40)"/><stop offset="100%" stop-opacity="1" style="stop-color:rgb(253,154,40)"/></linearGradient><path d=" M 42.838 8.454 C 39.92 4.538 35.254 2 30 2 L 18 2 C 12.959 2 8.459 4.337 5.525 7.985 L 13.484 13.547 L 5.715 18.033 L 5 18.445 L 8.833 22.278 L 12.825 18.286 L 14.923 18.286 L 18.915 22.278 L 22.907 18.286 L 25.004 18.286 L 28.997 22.278 L 32.989 18.286 L 35.086 18.286 L 39.078 22.278 L 43 18.357 L 42.09 17.831 L 34.32 13.345 L 42.838 8.454 Z " fill="url(#_lgradient_11)"/><g id="Group"><path d=" M 34.647 28.084 C 33.969 34.164 29.457 38.866 24 38.866 C 18.543 38.866 14.031 34.164 13.353 28.084 C 12.822 27.641 12.5 26.972 12.5 26.229 C 12.5 24.834 13.633 23.701 15.027 23.701 C 16.422 23.701 17.555 24.834 17.555 26.229 C 17.555 26.991 17.217 27.674 16.666 28.12 C 17.47 31.973 20.452 34.822 24 34.822 C 27.548 34.822 30.53 31.973 31.334 28.12 C 30.783 27.674 30.445 26.991 30.445 26.229 C 30.445 24.834 31.578 23.701 32.973 23.701 C 34.367 23.701 35.5 24.834 35.5 26.229 C 35.5 26.972 35.178 27.641 34.647 28.084 Z " fill="rgb(0,0,0)" fill-opacity="0.15"/><path d=" M 34.647 26.583 C 33.969 32.663 29.457 37.365 24 37.365 C 18.543 37.365 14.031 32.663 13.353 26.583 C 12.822 26.14 12.5 25.471 12.5 24.727 C 12.5 23.333 13.633 22.2 15.027 22.2 C 16.422 22.2 17.555 23.333 17.555 24.727 C 17.555 25.489 17.217 26.173 16.666 26.619 C 17.47 30.472 20.452 33.321 24 33.321 C 27.548 33.321 30.53 30.472 31.334 26.619 C 30.783 26.173 30.445 25.489 30.445 24.727 C 30.445 23.333 31.578 22.2 32.973 22.2 C 34.367 22.2 35.5 23.333 35.5 24.727 C 35.5 25.471 35.178 26.14 34.647 26.583 Z " fill="rgb(255,255,255)"/><g id="Group"><path d=" M 16.43 25.482 L 13.258 25.482 C 13.258 32.317 18.071 37.866 24 37.866 C 29.929 37.866 34.742 32.317 34.742 25.482 L 31.582 25.482 L 31.57 25.482 C 31.345 30.129 28.039 33.822 24 33.822 C 19.961 33.822 16.655 30.129 16.43 25.482 Z " fill-rule="evenodd" fill="rgb(247,247,247)"/><path d=" M 12.5 25.229 C 12.5 23.834 13.633 22.701 15.027 22.701 C 16.422 22.701 17.555 23.834 17.555 25.229 C 17.555 26.624 16.422 27.756 15.027 27.756 C 13.633 27.756 12.5 26.624 12.5 25.229 Z " fill="rgb(247,247,247)"/><path d=" M 30.445 25.229 C 30.445 23.834 31.578 22.701 32.973 22.701 C 34.367 22.701 35.5 23.834 35.5 25.229 C 35.5 26.624 34.367 27.756 32.973 27.756 C 31.578 27.756 30.445 26.624 30.445 25.229 Z " fill="rgb(247,247,247)"/></g></g></g></g></svg>