<?xml version="1.0" standalone="no"?><!-- Generator: Gravit.io --><svg xmlns="http://www.w3.org/2000/svg" xmlns:xlink="http://www.w3.org/1999/xlink" style="isolation:isolate" viewBox="0 0 48 48" width="48" height="48"><defs><clipPath id="_clipPath_R5lO8JYtJJtamXN17ks0li6SmtDpfGPg"><rect width="48" height="48"/></clipPath></defs><g clip-path="url(#_clipPath_R5lO8JYtJJtamXN17ks0li6SmtDpfGPg)"><g style="isolation:isolate" id="Design"><path d="M 18 3 L 30 3 C 38.831 3 46 10.169 46 19 L 46 31 C 46 39.831 38.831 47 30 47 L 18 47 C 9.169 47 2 39.831 2 31 L 2 19 C 2 10.169 9.169 3 18 3 Z" style="stroke:none;fill:#000000;stroke-miterlimit:10;opacity:0.15;"/><defs><linearGradient id="_lgradient_1" x1="0.49903459372485914" y1="0.14569589702333072" x2="0.4990345937248592" y2="1.0000000000000002"><stop offset="0%" style="stop-color:#F06292"/><stop offset="100%" style="stop-color:#E91E63"/></linearGradient></defs><path d="M 18 2 L 30 2 C 38.831 2 46 9.169 46 18 L 46 30 C 46 38.831 38.831 46 30 46 L 18 46 C 9.169 46 2 38.831 2 30 L 2 18 C 2 9.169 9.169 2 18 2 Z" style="stroke:none;fill:url(#_lgradient_1);stroke-miterlimit:10;"/><g id="深度终端"><path d=" M 21.04 22.326 L 12.171 27.499 C 11.526 27.876 11.308 28.703 11.684 29.348 C 12.06 29.992 12.888 30.21 13.532 29.834 L 24.343 23.528 C 25.237 23.006 25.237 21.715 24.343 21.193 L 13.532 14.887 C 12.888 14.511 12.06 14.729 11.684 15.373 C 11.308 16.018 11.526 16.845 12.171 17.221 L 21.04 22.326 Z " fill-rule="evenodd" fill="rgb(0,0,0)" fill-opacity="0.15"/><path d=" M 21.04 21.65 L 12.171 26.824 C 11.526 27.2 11.308 28.027 11.684 28.672 C 12.06 29.317 12.888 29.534 13.532 29.158 L 24.343 22.852 C 25.237 22.331 25.237 21.039 24.343 20.518 L 13.532 14.211 C 12.888 13.835 12.06 14.053 11.684 14.698 C 11.308 15.342 11.526 16.17 12.171 16.546 L 21.04 21.65 Z " fill-rule="evenodd" fill="rgb(247,247,247)"/><path d=" M 12.171 26.824 C 11.601 27.156 11.364 27.842 11.577 28.442 C 11.68 28.15 11.883 27.821 12.171 27.653 L 20.96 22.36 L 20.442 21.978 L 12.171 26.824 Z  M 24.938 22.135 C 25.139 21.559 24.941 20.866 24.343 20.518 L 13.532 14.211 C 12.888 13.835 12.06 14.053 11.684 14.698 C 11.476 15.055 11.45 15.467 11.577 15.829 C 11.605 15.75 11.641 15.673 11.684 15.599 C 12.06 14.954 12.888 14.736 13.532 15.112 L 24.343 21.418 C 24.64 21.591 24.838 21.849 24.938 22.135 L 24.938 22.135 L 24.938 22.135 Z " fill-rule="evenodd" fill="rgb(255,255,255)"/><path d=" M 35.046 34.973 C 35.725 34.973 36.275 34.267 36.275 33.396 C 36.275 32.526 35.725 31.82 35.046 31.82 L 23.089 31.82 C 22.411 31.82 21.86 32.526 21.86 33.396 C 21.86 34.267 22.411 34.973 23.089 34.973 L 35.046 34.973 Z " fill-rule="evenodd" fill="rgb(0,0,0)" fill-opacity="0.15"/><path d=" M 35.046 34.297 C 35.725 34.297 36.5 33.591 36.5 32.721 C 36.5 31.85 35.725 31.144 35.046 31.144 L 23.089 31.144 C 22.411 31.144 21.635 31.85 21.635 32.721 C 21.635 33.591 22.411 34.297 23.089 34.297 L 35.046 34.297 Z " fill-rule="evenodd" fill="rgb(247,247,247)"/><path d=" M 36.5 32.721 C 36.5 31.85 35.725 31.144 35.046 31.144 L 23.089 31.144 C 22.411 31.144 21.635 31.85 21.635 32.721 C 21.635 32.721 21.973 31.82 23.089 31.82 L 35.046 31.82 C 35.603 31.82 36.162 31.932 36.5 32.721 Z " fill-rule="evenodd" fill="rgb(255,255,255)"/></g></g></g></svg>