<?xml version="1.0" standalone="no"?><!-- Generator: Gravit.io --><svg xmlns="http://www.w3.org/2000/svg" xmlns:xlink="http://www.w3.org/1999/xlink" style="isolation:isolate" viewBox="0 0 48 48" width="48" height="48"><defs><clipPath id="_clipPath_992gp6GIn157XShsmrGRyqXgeCuLPx4T"><rect width="48" height="48"/></clipPath></defs><g clip-path="url(#_clipPath_992gp6GIn157XShsmrGRyqXgeCuLPx4T)"><g style="isolation:isolate" id="Design"><path d="M 18 3 L 30 3 C 38.831 3 46 10.169 46 19 L 46 31 C 46 39.831 38.831 47 30 47 L 18 47 C 9.169 47 2 39.831 2 31 L 2 19 C 2 10.169 9.169 3 18 3 Z" style="stroke:none;fill:#000000;stroke-miterlimit:10;opacity:0.15;"/><path d="M 18 2 L 30 2 C 38.831 2 46 9.169 46 18 L 46 30 C 46 38.831 38.831 46 30 46 L 18 46 C 9.169 46 2 38.831 2 30 L 2 18 C 2 9.169 9.169 2 18 2 Z" style="stroke:none;fill:#8E24AA;stroke-miterlimit:10;"/><path d=" M 44.929 12.249 C 42.62 6.255 36.803 2 30 2 L 18 2 C 11.197 2 5.379 6.255 3.071 12.25 C 7.381 19.293 15.145 24 24 24 C 32.855 24 40.618 19.292 44.929 12.249 Z " fill="rgb(0,0,0)" fill-opacity="0.15"/><path d=" M 44.432 11.076 C 41.845 5.71 36.352 2 30 2 L 18 2 C 11.645 2 6.151 5.712 3.565 11.082 C 7.596 18.2 15.24 23 23.997 23 C 32.756 23 40.403 18.197 44.432 11.076 Z " fill="rgb(171,71,188)"/><path d=" M 40.645 6.059 C 37.816 3.535 34.086 2 30 2 L 18 2 C 13.914 2 10.184 3.535 7.355 6.059 C 10.929 11.451 17.053 15 24 15 C 30.947 15 37.071 11.451 40.645 6.059 Z " fill="rgb(0,0,0)" fill-opacity="0.15"/><path d=" M 39.858 5.41 C 37.145 3.272 33.72 2 30 2 L 18 2 C 14.269 2 10.834 3.28 8.117 5.43 C 11.506 10.594 17.349 14 23.981 14 C 30.622 14 36.472 10.585 39.858 5.41 Z " fill="rgb(206,147,216)"/><g id="Group"><path d=" M 10 25 L 18.41 24.59 L 23.261 13.887 L 25.813 26.914 L 27.29 23.59 L 38 25 L 29.103 26.41 L 24.739 36.113 L 22.187 23.086 L 19.71 28.41 L 10 25 Z " fill="rgb(0,0,0)" fill-opacity="0.15"/><path d=" M 10 24 L 18.41 23.59 L 23.261 12.887 L 25.813 25.914 L 27.29 22.59 L 38 24 L 29.103 25.41 L 24.739 35.113 L 22.187 22.086 L 19.71 27.41 L 10 24 Z " fill="rgb(247,247,247)"/></g></g></g></svg>