<?xml version="1.0" standalone="no"?><!-- Generator: Gravit.io --><svg xmlns="http://www.w3.org/2000/svg" xmlns:xlink="http://www.w3.org/1999/xlink" style="isolation:isolate" viewBox="0 0 48 48" width="48" height="48"><defs><clipPath id="_clipPath_1i3gu2LLYRc1TjMGT6KYXr1gQthEsSSc"><rect width="48" height="48"/></clipPath></defs><g clip-path="url(#_clipPath_1i3gu2LLYRc1TjMGT6KYXr1gQthEsSSc)"><g style="isolation:isolate" id="Design"><path d="M 18 3 L 30 3 C 38.831 3 46 10.169 46 19 L 46 31 C 46 39.831 38.831 47 30 47 L 18 47 C 9.169 47 2 39.831 2 31 L 2 19 C 2 10.169 9.169 3 18 3 Z" style="stroke:none;fill:#000000;stroke-miterlimit:10;opacity:0.15;"/><defs><linearGradient id="_lgradient_33" x1="0.5021141649048628" y1="0.14482029598308688" x2="0.5021141649048628" y2="0.9926004228329811"><stop offset="0%" style="stop-color:#EE4035"/><stop offset="100%" style="stop-color:#844D9E"/></linearGradient></defs><path d="M 18 2 L 30 2 C 38.831 2 46 9.169 46 18 L 46 30 C 46 38.831 38.831 46 30 46 L 18 46 C 9.169 46 2 38.831 2 30 L 2 18 C 2 9.169 9.169 2 18 2 Z" style="stroke:none;fill:url(#_lgradient_33);stroke-miterlimit:10;"/><g id="deepin-show-desktop"><g id="Group"><path d=" M 10.612 32.731 L 37.388 32.731 C 37.726 32.731 38 33.005 38 33.343 L 38 34.689 C 38 35.027 37.726 35.301 37.388 35.301 L 10.612 35.301 C 10.274 35.301 10 35.027 10 34.689 L 10 33.343 C 10 33.005 10.274 32.731 10.612 32.731 Z  M 12.25 14.7 L 15.75 14.7 C 16.233 14.7 16.625 15.092 16.625 15.575 L 16.625 19.075 C 16.625 19.558 16.233 19.95 15.75 19.95 L 12.25 19.95 C 11.767 19.95 11.375 19.558 11.375 19.075 L 11.375 15.575 C 11.375 15.092 11.767 14.7 12.25 14.7 Z  M 22.25 14.7 L 25.75 14.7 C 26.233 14.7 26.625 15.092 26.625 15.575 L 26.625 19.075 C 26.625 19.558 26.233 19.95 25.75 19.95 L 22.25 19.95 C 21.767 19.95 21.375 19.558 21.375 19.075 L 21.375 15.575 C 21.375 15.092 21.767 14.7 22.25 14.7 Z  M 32.25 14.7 L 35.75 14.7 C 36.233 14.7 36.625 15.092 36.625 15.575 L 36.625 19.075 C 36.625 19.558 36.233 19.95 35.75 19.95 L 32.25 19.95 C 31.767 19.95 31.375 19.558 31.375 19.075 L 31.375 15.575 C 31.375 15.092 31.767 14.7 32.25 14.7 Z  M 12.25 23.716 L 15.75 23.716 C 16.233 23.716 16.625 24.108 16.625 24.591 L 16.625 28.091 C 16.625 28.573 16.233 28.966 15.75 28.966 L 12.25 28.966 C 11.767 28.966 11.375 28.573 11.375 28.091 L 11.375 24.591 C 11.375 24.108 11.767 23.716 12.25 23.716 Z  M 22.25 23.716 L 25.75 23.716 C 26.233 23.716 26.625 24.108 26.625 24.591 L 26.625 28.091 C 26.625 28.573 26.233 28.966 25.75 28.966 L 22.25 28.966 C 21.767 28.966 21.375 28.573 21.375 28.091 L 21.375 24.591 C 21.375 24.108 21.767 23.716 22.25 23.716 Z  M 32.25 23.716 L 35.75 23.716 C 36.233 23.716 36.625 24.108 36.625 24.591 L 36.625 28.091 C 36.625 28.573 36.233 28.966 35.75 28.966 L 32.25 28.966 C 31.767 28.966 31.375 28.573 31.375 28.091 L 31.375 24.591 C 31.375 24.108 31.767 23.716 32.25 23.716 Z " fill-rule="evenodd" fill="rgb(0,0,0)" fill-opacity="0.15"/><path d=" M 10.612 31.831 L 37.388 31.831 C 37.726 31.831 38 32.105 38 32.443 L 38 33.789 C 38 34.127 37.726 34.401 37.388 34.401 L 10.612 34.401 C 10.274 34.401 10 34.127 10 33.789 L 10 32.443 C 10 32.105 10.274 31.831 10.612 31.831 Z  M 12.25 13.8 L 15.75 13.8 C 16.233 13.8 16.625 14.192 16.625 14.675 L 16.625 18.175 C 16.625 18.658 16.233 19.05 15.75 19.05 L 12.25 19.05 C 11.767 19.05 11.375 18.658 11.375 18.175 L 11.375 14.675 C 11.375 14.192 11.767 13.8 12.25 13.8 Z  M 22.25 13.8 L 25.75 13.8 C 26.233 13.8 26.625 14.192 26.625 14.675 L 26.625 18.175 C 26.625 18.658 26.233 19.05 25.75 19.05 L 22.25 19.05 C 21.767 19.05 21.375 18.658 21.375 18.175 L 21.375 14.675 C 21.375 14.192 21.767 13.8 22.25 13.8 Z  M 32.25 13.8 L 35.75 13.8 C 36.233 13.8 36.625 14.192 36.625 14.675 L 36.625 18.175 C 36.625 18.658 36.233 19.05 35.75 19.05 L 32.25 19.05 C 31.767 19.05 31.375 18.658 31.375 18.175 L 31.375 14.675 C 31.375 14.192 31.767 13.8 32.25 13.8 Z  M 12.25 22.816 L 15.75 22.816 C 16.233 22.816 16.625 23.208 16.625 23.691 L 16.625 27.191 C 16.625 27.673 16.233 28.066 15.75 28.066 L 12.25 28.066 C 11.767 28.066 11.375 27.673 11.375 27.191 L 11.375 23.691 C 11.375 23.208 11.767 22.816 12.25 22.816 Z  M 22.25 22.816 L 25.75 22.816 C 26.233 22.816 26.625 23.208 26.625 23.691 L 26.625 27.191 C 26.625 27.673 26.233 28.066 25.75 28.066 L 22.25 28.066 C 21.767 28.066 21.375 27.673 21.375 27.191 L 21.375 23.691 C 21.375 23.208 21.767 22.816 22.25 22.816 Z  M 32.25 22.816 L 35.75 22.816 C 36.233 22.816 36.625 23.208 36.625 23.691 L 36.625 27.191 C 36.625 27.673 36.233 28.066 35.75 28.066 L 32.25 28.066 C 31.767 28.066 31.375 27.673 31.375 27.191 L 31.375 23.691 C 31.375 23.208 31.767 22.816 32.25 22.816 Z " fill-rule="evenodd" fill="rgb(255,255,255)"/><g id="Group"><path d="M 10.612 32.256 L 37.388 32.256 C 37.726 32.256 38 32.53 38 32.868 L 38 34.213 C 38 34.551 37.726 34.826 37.388 34.826 L 10.612 34.826 C 10.274 34.826 10 34.551 10 34.213 L 10 32.868 C 10 32.53 10.274 32.256 10.612 32.256 Z" style="stroke:none;fill:#F7F7F7;stroke-miterlimit:10;"/><path d="M 12.25 14.224 L 15.75 14.224 C 16.233 14.224 16.625 14.617 16.625 15.099 L 16.625 18.599 C 16.625 19.082 16.233 19.474 15.75 19.474 L 12.25 19.474 C 11.767 19.474 11.375 19.082 11.375 18.599 L 11.375 15.099 C 11.375 14.617 11.767 14.224 12.25 14.224 Z" style="stroke:none;fill:#F7F7F7;stroke-miterlimit:10;"/><path d="M 22.25 14.224 L 25.75 14.224 C 26.233 14.224 26.625 14.617 26.625 15.099 L 26.625 18.599 C 26.625 19.082 26.233 19.474 25.75 19.474 L 22.25 19.474 C 21.767 19.474 21.375 19.082 21.375 18.599 L 21.375 15.099 C 21.375 14.617 21.767 14.224 22.25 14.224 Z" style="stroke:none;fill:#F7F7F7;stroke-miterlimit:10;"/><path d="M 32.25 14.224 L 35.75 14.224 C 36.233 14.224 36.625 14.617 36.625 15.099 L 36.625 18.599 C 36.625 19.082 36.233 19.474 35.75 19.474 L 32.25 19.474 C 31.767 19.474 31.375 19.082 31.375 18.599 L 31.375 15.099 C 31.375 14.617 31.767 14.224 32.25 14.224 Z" style="stroke:none;fill:#F7F7F7;stroke-miterlimit:10;"/><path d="M 12.25 23.24 L 15.75 23.24 C 16.233 23.24 16.625 23.632 16.625 24.115 L 16.625 27.615 C 16.625 28.098 16.233 28.49 15.75 28.49 L 12.25 28.49 C 11.767 28.49 11.375 28.098 11.375 27.615 L 11.375 24.115 C 11.375 23.632 11.767 23.24 12.25 23.24 Z" style="stroke:none;fill:#F7F7F7;stroke-miterlimit:10;"/><path d="M 22.25 23.24 L 25.75 23.24 C 26.233 23.24 26.625 23.632 26.625 24.115 L 26.625 27.615 C 26.625 28.098 26.233 28.49 25.75 28.49 L 22.25 28.49 C 21.767 28.49 21.375 28.098 21.375 27.615 L 21.375 24.115 C 21.375 23.632 21.767 23.24 22.25 23.24 Z" style="stroke:none;fill:#F7F7F7;stroke-miterlimit:10;"/><path d="M 32.25 23.24 L 35.75 23.24 C 36.233 23.24 36.625 23.632 36.625 24.115 L 36.625 27.615 C 36.625 28.098 36.233 28.49 35.75 28.49 L 32.25 28.49 C 31.767 28.49 31.375 28.098 31.375 27.615 L 31.375 24.115 C 31.375 23.632 31.767 23.24 32.25 23.24 Z" style="stroke:none;fill:#F7F7F7;stroke-miterlimit:10;"/></g></g></g></g></g></svg>