<?xml version="1.0" standalone="no"?><!-- Generator: Gravit.io --><svg xmlns="http://www.w3.org/2000/svg" xmlns:xlink="http://www.w3.org/1999/xlink" style="isolation:isolate" viewBox="0 0 48 48" width="48" height="48"><defs><clipPath id="_clipPath_5QHq7lQDLYuIpjcbHk6UO3ZN0yZCWkot"><rect width="48" height="48"/></clipPath></defs><g clip-path="url(#_clipPath_5QHq7lQDLYuIpjcbHk6UO3ZN0yZCWkot)"><g style="isolation:isolate" id="Design"><path d="M 18 3 L 30 3 C 38.831 3 46 10.169 46 19 L 46 31 C 46 39.831 38.831 47 30 47 L 18 47 C 9.169 47 2 39.831 2 31 L 2 19 C 2 10.169 9.169 3 18 3 Z" style="stroke:none;fill:#000000;stroke-miterlimit:10;opacity:0.15;"/><defs><linearGradient id="_lgradient_40" x1="0.4990260503064952" y1="0.13618778433564238" x2="0.5000085434183641" y2="1.0075773001374067"><stop offset="0.8695652173913043%" style="stop-color:#4DD0E1"/><stop offset="41.86180097674625%" style="stop-color:#00BCD4"/><stop offset="99.1304347826087%" style="stop-color:#0097A7"/></linearGradient></defs><path d="M 18 2 L 30 2 C 38.831 2 46 9.169 46 18 L 46 30 C 46 38.831 38.831 46 30 46 L 18 46 C 9.169 46 2 38.831 2 30 L 2 18 C 2 9.169 9.169 2 18 2 Z" style="stroke:none;fill:url(#_lgradient_40);stroke-miterlimit:10;"/><g id="Group"><path d=" M 23.511 29.076 L 34 29.076 C 34.552 29.076 35 28.627 35 28.076 L 35 17.326 C 35 16.774 34.552 16.326 34 16.326 L 19 16.326 L 19 16.326 C 18.448 16.326 18 16.774 18 17.326 L 18 23.433 C 18.712 23.695 19.383 24.043 20 24.465 L 20 18.315 L 33 18.315 L 33 27.115 L 33 27.115 L 22.567 27.115 C 22.955 27.723 23.274 28.381 23.511 29.076 Z  M 13 24.704 C 13 25.291 13.249 25.538 13.833 25.538 C 17.976 25.538 21.333 28.896 21.333 33.038 C 21.333 33.556 21.616 33.871 22.167 33.871 C 22.733 33.871 23 33.54 23 33.038 C 23 27.975 18.896 23.871 13.833 23.871 C 13.279 23.871 13 24.141 13 24.704 Z  M 13 28.329 C 13 28.871 13.222 29.12 13.791 29.12 C 15.976 29.12 17.748 30.892 17.748 33.077 C 17.748 33.542 18.015 33.868 18.539 33.868 C 19.05 33.868 19.33 33.584 19.33 33.077 C 19.33 30.018 16.85 27.538 13.791 27.538 C 13.28 27.538 13 27.764 13 28.329 Z  M 14.335 31.204 C 13.598 31.204 13 31.802 13 32.539 C 13 33.277 13.598 33.874 14.335 33.874 C 15.072 33.874 15.67 33.277 15.67 32.539 C 15.67 31.802 15.072 31.204 14.335 31.204 Z " fill-rule="evenodd" fill="rgb(0,0,0)" fill-opacity="0.15"/><path d=" M 23.511 27.876 L 34 27.876 C 34.552 27.876 35 27.427 35 26.876 L 35 16.126 C 35 15.574 34.552 15.126 34 15.126 L 19 15.126 L 19 15.126 C 18.448 15.126 18 15.574 18 16.126 L 18 22.233 C 18.712 22.495 19.383 22.843 20 23.265 L 20 17.115 L 33 17.115 L 33 25.915 L 33 25.915 L 22.567 25.915 C 22.955 26.523 23.274 27.181 23.511 27.876 Z  M 13 23.504 C 13 24.091 13.249 24.338 13.833 24.338 C 17.976 24.338 21.333 27.696 21.333 31.838 C 21.333 32.356 21.616 32.671 22.167 32.671 C 22.733 32.671 23 32.34 23 31.838 C 23 26.775 18.896 22.671 13.833 22.671 C 13.279 22.671 13 22.941 13 23.504 Z  M 13 27.129 C 13 27.671 13.222 27.92 13.791 27.92 C 15.976 27.92 17.748 29.692 17.748 31.877 C 17.748 32.342 18.015 32.668 18.539 32.668 C 19.05 32.668 19.33 32.384 19.33 31.877 C 19.33 28.818 16.85 26.338 13.791 26.338 C 13.28 26.338 13 26.564 13 27.129 Z  M 14.335 30.004 C 13.598 30.004 13 30.602 13 31.339 C 13 32.077 13.598 32.674 14.335 32.674 C 15.072 32.674 15.67 32.077 15.67 31.339 C 15.67 30.602 15.072 30.004 14.335 30.004 Z " fill-rule="evenodd" fill="rgb(255,255,255)"/><g id="Group"><path d=" M 13 24.1 C 13 24.687 13.249 24.933 13.833 24.933 C 17.976 24.933 21.333 28.291 21.333 32.433 C 21.333 32.952 21.616 33.267 22.167 33.267 C 22.733 33.267 23 32.936 23 32.433 C 23 27.371 18.896 23.267 13.833 23.267 C 13.279 23.267 13 23.536 13 24.1 Z  M 13 27.725 C 13 28.267 13.222 28.516 13.791 28.516 C 15.976 28.516 17.748 30.287 17.748 32.472 C 17.748 32.938 18.015 33.263 18.539 33.263 C 19.05 33.263 19.33 32.98 19.33 32.472 C 19.33 29.413 16.85 26.933 13.791 26.933 C 13.28 26.933 13 27.159 13 27.725 Z  M 14.335 30.6 C 13.598 30.6 13 31.198 13 31.935 C 13 32.672 13.598 33.27 14.335 33.27 C 15.072 33.27 15.67 32.672 15.67 31.935 C 15.67 31.198 15.072 30.6 14.335 30.6 Z " fill-rule="evenodd" fill="rgb(247,247,247)"/><path d=" M 23.511 28.471 L 34 28.471 C 34.552 28.471 35 28.023 35 27.471 L 35 16.721 C 35 16.169 34.552 15.721 34 15.721 L 19 15.721 L 19 15.721 C 18.448 15.721 18 16.169 18 16.721 L 18 22.828 C 18.712 23.091 19.383 23.439 20 23.86 L 20 17.71 L 33 17.71 L 33 26.51 L 33 26.51 L 22.567 26.51 C 22.955 27.119 23.274 27.776 23.511 28.471 Z " fill="rgb(247,247,247)"/></g></g></g></g></svg>