<?xml version="1.0" standalone="no"?><!-- Generator: Gravit.io --><svg xmlns="http://www.w3.org/2000/svg" xmlns:xlink="http://www.w3.org/1999/xlink" style="isolation:isolate" viewBox="0 0 48 48" width="48" height="48"><defs><clipPath id="_clipPath_sJwgdIUJz3bBYshsgU5UmWEX54IuNPkV"><rect width="48" height="48"/></clipPath></defs><g clip-path="url(#_clipPath_sJwgdIUJz3bBYshsgU5UmWEX54IuNPkV)"><g style="isolation:isolate" id="Design"><path d="M 18 3 L 30 3 C 38.831 3 46 10.169 46 19 L 46 31 C 46 39.831 38.831 47 30 47 L 18 47 C 9.169 47 2 39.831 2 31 L 2 19 C 2 10.169 9.169 3 18 3 Z" style="stroke:none;fill:#000000;stroke-miterlimit:10;opacity:0.15;"/><defs><linearGradient id="_lgradient_55" x1="0.49903459372485914" y1="0.14569589702333072" x2="0.4990345937248592" y2="1.0000000000000002"><stop offset="0%" style="stop-color:#F58DB6"/><stop offset="100%" style="stop-color:#F26767"/></linearGradient></defs><path d="M 18 2 L 30 2 C 38.831 2 46 9.169 46 18 L 46 30 C 46 38.831 38.831 46 30 46 L 18 46 C 9.169 46 2 38.831 2 30 L 2 18 C 2 9.169 9.169 2 18 2 Z" style="stroke:none;fill:url(#_lgradient_55);stroke-miterlimit:10;"/><g id="深度终端"><path d=" M 21.04 22.592 L 12.171 27.765 C 11.526 28.141 11.308 28.969 11.684 29.613 C 12.06 30.258 12.888 30.476 13.532 30.1 L 24.343 23.794 C 25.237 23.272 25.237 21.98 24.343 21.459 L 13.532 15.153 C 12.888 14.777 12.06 14.994 11.684 15.639 C 11.308 16.284 11.526 17.111 12.171 17.487 L 21.04 22.592 Z " fill-rule="evenodd" fill="rgb(0,0,0)" fill-opacity="0.15"/><path d=" M 21.04 21.392 L 12.171 26.565 C 11.526 26.941 11.308 27.769 11.684 28.413 C 12.06 29.058 12.888 29.276 13.532 28.9 L 24.343 22.594 C 25.237 22.072 25.237 20.78 24.343 20.259 L 13.532 13.953 C 12.888 13.577 12.06 13.794 11.684 14.439 C 11.308 15.084 11.526 15.911 12.171 16.287 L 21.04 21.392 Z " fill-rule="evenodd" fill="rgb(255,255,255)"/><path d=" M 21.04 21.989 L 12.171 27.162 C 11.526 27.538 11.308 28.366 11.684 29.01 C 12.06 29.655 12.888 29.873 13.532 29.497 L 24.343 23.191 C 25.237 22.669 25.237 21.377 24.343 20.856 L 13.532 14.55 C 12.888 14.174 12.06 14.391 11.684 15.036 C 11.308 15.681 11.526 16.508 12.171 16.884 L 21.04 21.989 Z " fill-rule="evenodd" fill="rgb(247,247,247)"/><path d=" M 35.046 35.232 C 35.725 35.232 36.275 34.526 36.275 33.655 C 36.275 32.784 35.725 32.078 35.046 32.078 L 23.089 32.078 C 22.411 32.078 21.86 32.784 21.86 33.655 C 21.86 34.526 22.411 35.232 23.089 35.232 L 35.046 35.232 Z " fill-rule="evenodd" fill="rgb(0,0,0)" fill-opacity="0.15"/><path d=" M 35.046 34.032 C 35.725 34.032 36.5 33.326 36.5 32.455 C 36.5 31.584 35.725 30.878 35.046 30.878 L 23.089 30.878 C 22.411 30.878 21.635 31.584 21.635 32.455 C 21.635 33.326 22.411 34.032 23.089 34.032 L 35.046 34.032 Z " fill-rule="evenodd" fill="rgb(255,255,255)"/><path d=" M 35.046 34.636 C 35.725 34.636 36.5 33.93 36.5 33.059 C 36.5 32.188 35.725 31.483 35.046 31.483 L 23.089 31.483 C 22.411 31.483 21.635 32.188 21.635 33.059 C 21.635 33.93 22.411 34.636 23.089 34.636 L 35.046 34.636 Z " fill-rule="evenodd" fill="rgb(247,247,247)"/></g></g></g></svg>