<?xml version="1.0" standalone="no"?><!-- Generator: Gravit.io --><svg xmlns="http://www.w3.org/2000/svg" xmlns:xlink="http://www.w3.org/1999/xlink" style="isolation:isolate" viewBox="0 0 48 48" width="48" height="48"><defs><clipPath id="_clipPath_ozQh9XWtSadfsDlPPGGXlONex3adDDea"><rect width="48" height="48"/></clipPath></defs><g clip-path="url(#_clipPath_ozQh9XWtSadfsDlPPGGXlONex3adDDea)"><g style="isolation:isolate" id="Design"><path d="M 18 3 L 30 3 C 38.831 3 46 10.169 46 19 L 46 31 C 46 39.831 38.831 47 30 47 L 18 47 C 9.169 47 2 39.831 2 31 L 2 19 C 2 10.169 9.169 3 18 3 Z" style="stroke:none;fill:#000000;stroke-miterlimit:10;opacity:0.15;"/><defs><linearGradient id="_lgradient_47" x1="0.4990260503064952" y1="0.13618778433564238" x2="0.5000085434183641" y2="1.0075773001374067"><stop offset="0.8695652173913043%" style="stop-color:#4DD0E1"/><stop offset="41.86180097674625%" style="stop-color:#00BCD4"/><stop offset="99.1304347826087%" style="stop-color:#0097A7"/></linearGradient></defs><path d="M 18 2 L 30 2 C 38.831 2 46 9.169 46 18 L 46 30 C 46 38.831 38.831 46 30 46 L 18 46 C 9.169 46 2 38.831 2 30 L 2 18 C 2 9.169 9.169 2 18 2 Z" style="stroke:none;fill:url(#_lgradient_47);stroke-miterlimit:10;"/><g id="Group"><path d=" M 13 24.104 C 13 24.691 13.249 24.938 13.833 24.938 C 17.976 24.938 21.333 28.296 21.333 32.438 C 21.333 32.956 21.616 33.271 22.167 33.271 C 22.733 33.271 23 32.94 23 32.438 C 23 27.375 18.896 23.271 13.833 23.271 C 13.279 23.271 13 23.541 13 24.104 Z  M 13 27.729 C 13 28.271 13.222 28.52 13.791 28.52 C 15.976 28.52 17.748 30.292 17.748 32.477 C 17.748 32.942 18.015 33.268 18.539 33.268 C 19.05 33.268 19.33 32.984 19.33 32.477 C 19.33 29.418 16.85 26.938 13.791 26.938 C 13.28 26.938 13 27.164 13 27.729 Z  M 14.335 30.604 C 13.598 30.604 13 31.202 13 31.939 C 13 32.677 13.598 33.274 14.335 33.274 C 15.072 33.274 15.67 32.677 15.67 31.939 C 15.67 31.202 15.072 30.604 14.335 30.604 Z " fill-rule="evenodd" fill="rgb(0,0,0)" fill-opacity="0.15"/><path d=" M 13 23.104 C 13 23.691 13.249 23.938 13.833 23.938 C 17.976 23.938 21.333 27.296 21.333 31.438 C 21.333 31.956 21.616 32.271 22.167 32.271 C 22.733 32.271 23 31.94 23 31.438 C 23 26.375 18.896 22.271 13.833 22.271 C 13.279 22.271 13 22.541 13 23.104 Z  M 13 26.729 C 13 27.271 13.222 27.52 13.791 27.52 C 15.976 27.52 17.748 29.292 17.748 31.477 C 17.748 31.942 18.015 32.268 18.539 32.268 C 19.05 32.268 19.33 31.984 19.33 31.477 C 19.33 28.418 16.85 25.938 13.791 25.938 C 13.28 25.938 13 26.164 13 26.729 Z  M 14.335 29.604 C 13.598 29.604 13 30.202 13 30.939 C 13 31.677 13.598 32.274 14.335 32.274 C 15.072 32.274 15.67 31.677 15.67 30.939 C 15.67 30.202 15.072 29.604 14.335 29.604 Z " fill-rule="evenodd" fill="rgb(255,255,255)"/><path d=" M 23.511 28.476 L 34 28.476 C 34.552 28.476 35 28.027 35 27.476 L 35 16.726 C 35 16.174 34.552 15.726 34 15.726 L 19 15.726 L 19 15.726 C 18.448 15.726 18 16.174 18 16.726 L 18 22.833 C 18.712 23.095 19.383 23.443 20 23.865 L 20 17.715 L 33 17.715 L 33 26.515 L 33 26.515 L 22.567 26.515 C 22.955 27.123 23.274 27.781 23.511 28.476 Z " fill="rgb(0,0,0)" fill-opacity="0.15"/><path d=" M 23.511 27.476 L 34 27.476 C 34.552 27.476 35 27.027 35 26.476 L 35 15.726 C 35 15.174 34.552 14.726 34 14.726 L 19 14.726 L 19 14.726 C 18.448 14.726 18 15.174 18 15.726 L 18 21.833 C 18.712 22.095 19.383 22.443 20 22.865 L 20 16.715 L 33 16.715 L 33 25.515 L 33 25.515 L 22.567 25.515 C 22.955 26.123 23.274 26.781 23.511 27.476 Z " fill="rgb(255,255,255)"/></g></g></g></svg>