<?xml version="1.0" standalone="no"?><!-- Generator: Gravit.io --><svg xmlns="http://www.w3.org/2000/svg" xmlns:xlink="http://www.w3.org/1999/xlink" style="isolation:isolate" viewBox="0 0 48 48" width="48" height="48"><defs><clipPath id="_clipPath_ziNMarx74bhwRNw88bPsGX8bPObgl6Kv"><rect width="48" height="48"/></clipPath></defs><g clip-path="url(#_clipPath_ziNMarx74bhwRNw88bPsGX8bPObgl6Kv)"><g style="isolation:isolate" id="Design"><path d="M 18 3 L 30 3 C 38.831 3 46 10.169 46 19 L 46 31 C 46 39.831 38.831 47 30 47 L 18 47 C 9.169 47 2 39.831 2 31 L 2 19 C 2 10.169 9.169 3 18 3 Z" style="stroke:none;fill:#000000;stroke-miterlimit:10;opacity:0.15;"/><defs><linearGradient id="_lgradient_3" x1="0.4978858350951376" y1="0.14693446088794926" x2="0.4978858350951375" y2="0.988372093023256"><stop offset="0%" style="stop-color:#D0EEAB"/><stop offset="100%" style="stop-color:#4DB5C8"/></linearGradient></defs><path d="M 18.044 2.085 L 30.044 2.085 C 38.874 2.085 46.044 9.254 46.044 18.085 L 46.044 30.085 C 46.044 38.916 38.874 46.085 30.044 46.085 L 18.044 46.085 C 9.213 46.085 2.044 38.916 2.044 30.085 L 2.044 18.085 C 2.044 9.254 9.213 2.085 18.044 2.085 Z" style="stroke:none;fill:url(#_lgradient_3);stroke-miterlimit:10;"/><g id="Group"><path d=" M 30.23 25.092 C 30.23 22.448 32.377 20.301 35.022 20.301 C 37.667 20.301 39.814 22.448 39.814 25.092 C 39.814 27.737 37.667 29.884 35.022 29.884 C 32.377 29.884 30.23 27.737 30.23 25.092 Z  M 19.23 25.092 C 19.23 22.448 21.377 20.301 24.022 20.301 C 26.667 20.301 28.814 22.448 28.814 25.092 C 28.814 27.737 26.667 29.884 24.022 29.884 C 21.377 29.884 19.23 27.737 19.23 25.092 Z  M 8.23 25.092 C 8.23 22.448 10.377 20.301 13.022 20.301 C 15.667 20.301 17.814 22.448 17.814 25.092 C 17.814 27.737 15.667 29.884 13.022 29.884 C 10.377 29.884 8.23 27.737 8.23 25.092 Z " fill-rule="evenodd" fill="rgb(0,0,0)" fill-opacity="0.15"/><path d=" M 30.23 23.992 C 30.23 21.348 32.377 19.201 35.022 19.201 C 37.667 19.201 39.814 21.348 39.814 23.992 C 39.814 26.637 37.667 28.784 35.022 28.784 C 32.377 28.784 30.23 26.637 30.23 23.992 Z  M 19.23 23.992 C 19.23 21.348 21.377 19.201 24.022 19.201 C 26.667 19.201 28.814 21.348 28.814 23.992 C 28.814 26.637 26.667 28.784 24.022 28.784 C 21.377 28.784 19.23 26.637 19.23 23.992 Z  M 8.23 23.992 C 8.23 21.348 10.377 19.201 13.022 19.201 C 15.667 19.201 17.814 21.348 17.814 23.992 C 17.814 26.637 15.667 28.784 13.022 28.784 C 10.377 28.784 8.23 26.637 8.23 23.992 Z " fill-rule="evenodd" fill="rgb(255,255,255)"/><g id="Group"><path d=" M 8.23 24.543 C 8.23 21.898 10.377 19.751 13.022 19.751 C 15.667 19.751 17.814 21.898 17.814 24.543 C 17.814 27.188 15.667 29.335 13.022 29.335 C 10.377 29.335 8.23 27.188 8.23 24.543 Z " fill="rgb(247,247,247)"/><path d=" M 19.23 24.543 C 19.23 21.898 21.377 19.751 24.022 19.751 C 26.667 19.751 28.814 21.898 28.814 24.543 C 28.814 27.188 26.667 29.335 24.022 29.335 C 21.377 29.335 19.23 27.188 19.23 24.543 Z " fill="rgb(247,247,247)"/><path d=" M 30.23 24.543 C 30.23 21.898 32.377 19.751 35.022 19.751 C 37.667 19.751 39.814 21.898 39.814 24.543 C 39.814 27.188 37.667 29.335 35.022 29.335 C 32.377 29.335 30.23 27.188 30.23 24.543 Z " fill="rgb(247,247,247)"/></g></g></g></g></svg>