<?xml version="1.0" standalone="no"?><!-- Generator: Gravit.io --><svg xmlns="http://www.w3.org/2000/svg" xmlns:xlink="http://www.w3.org/1999/xlink" style="isolation:isolate" viewBox="0 0 48 48" width="48" height="48"><defs><clipPath id="_clipPath_WXffheBfHLIhK2ln9LCmvLBaNzexoPuD"><rect width="48" height="48"/></clipPath></defs><g clip-path="url(#_clipPath_WXffheBfHLIhK2ln9LCmvLBaNzexoPuD)"><g style="isolation:isolate" id="Design"><path d="M 18 3 L 30 3 C 38.831 3 46 10.169 46 19 L 46 31 C 46 39.831 38.831 47 30 47 L 18 47 C 9.169 47 2 39.831 2 31 L 2 19 C 2 10.169 9.169 3 18 3 Z" style="stroke:none;fill:#000000;stroke-miterlimit:10;opacity:0.15;"/><defs><linearGradient id="_lgradient_53" x1="0.5021141649048628" y1="0" x2="0.5021141649048629" y2="0.9999999999999998"><stop offset="0%" style="stop-color:#ED5364"/><stop offset="100%" style="stop-color:#4C409A"/></linearGradient></defs><path d="M 18 2 L 30 2 C 38.831 2 46 9.169 46 18 L 46 30 C 46 38.831 38.831 46 30 46 L 18 46 C 9.169 46 2 38.831 2 30 L 2 18 C 2 9.169 9.169 2 18 2 Z" style="stroke:none;fill:url(#_lgradient_53);stroke-miterlimit:10;"/><g id="Group"><path d=" M 10 24 L 18.41 24.193 L 23.261 13.49 L 25.813 26.516 L 27.29 23.193 L 38 24 L 29.103 26.013 L 24.739 35.715 L 22.187 22.689 L 19.71 28.013 L 10 24 Z " fill="rgb(0,0,0)" fill-opacity="0.15"/><path d=" M 10 24 L 18.41 22.993 L 23.261 12.29 L 25.813 25.316 L 27.29 21.993 L 38 24 L 29.103 24.813 L 24.739 34.515 L 22.187 21.489 L 19.71 26.813 L 10 24 Z " fill="rgb(255,255,255)"/><path d=" M 10 24 L 18.41 23.59 L 23.261 12.887 L 25.813 25.914 L 27.29 22.59 L 38 24 L 29.103 25.41 L 24.739 35.113 L 22.187 22.086 L 19.71 27.41 L 10 24 Z " fill="rgb(247,247,247)"/></g></g></g></svg>