<?xml version="1.0" standalone="no"?><!-- Generator: Gravit.io --><svg xmlns="http://www.w3.org/2000/svg" xmlns:xlink="http://www.w3.org/1999/xlink" style="isolation:isolate" viewBox="0 0 48 48" width="48" height="48"><defs><clipPath id="_clipPath_5iL6sw0aIm8ES1quYcFabmk2pto53Ngr"><rect width="48" height="48"/></clipPath></defs><g clip-path="url(#_clipPath_5iL6sw0aIm8ES1quYcFabmk2pto53Ngr)"><g style="isolation:isolate" id="Design"><path d="M 18 3 L 30 3 C 38.831 3 46 10.169 46 19 L 46 31 C 46 39.831 38.831 47 30 47 L 18 47 C 9.169 47 2 39.831 2 31 L 2 19 C 2 10.169 9.169 3 18 3 Z" style="stroke:none;fill:#000000;stroke-miterlimit:10;opacity:0.15;"/><defs><linearGradient id="_lgradient_4" x1="0.5009654062751407" y1="0.14923409818743832" x2="0.5009654062751407" y2="1.0106999195494772"><stop offset="1.7391304347826086%" style="stop-color:#E57373"/><stop offset="100%" style="stop-color:#E53935"/></linearGradient></defs><path d="M 18 2 L 30 2 C 38.831 2 46 9.169 46 18 L 46 30 C 46 38.831 38.831 46 30 46 L 18 46 C 9.169 46 2 38.831 2 30 L 2 18 C 2 9.169 9.169 2 18 2 Z" style="stroke:none;fill:url(#_lgradient_4);stroke-miterlimit:10;"/><g id="Group"><path d=" M 36.52 21.975 L 36.52 25.462 L 36.52 28.949 C 36.52 30.01 35.774 30.441 34.854 29.91 L 31.835 28.167 L 28.815 26.423 C 27.896 25.893 27.896 25.031 28.815 24.5 L 31.835 22.757 L 34.854 21.013 C 35.774 20.482 36.52 20.913 36.52 21.975 Z  M 13.403 19.826 L 24.585 19.826 C 25.647 19.826 26.508 20.688 26.508 21.749 L 26.508 29.174 C 26.508 30.236 25.647 31.097 24.585 31.097 L 13.403 31.097 C 12.342 31.097 11.48 30.236 11.48 29.174 L 11.48 21.749 C 11.48 20.688 12.342 19.826 13.403 19.826 Z " fill-rule="evenodd" fill="rgb(0,0,0)" fill-opacity="0.15"/><path d=" M 36.52 20.051 L 36.52 23.538 L 36.52 27.025 C 36.52 28.087 35.774 28.518 34.854 27.987 L 31.835 26.243 L 28.815 24.5 C 27.896 23.969 27.896 23.107 28.815 22.577 L 31.835 20.833 L 34.854 19.09 C 35.774 18.559 36.52 18.99 36.52 20.051 Z  M 13.403 17.903 L 24.585 17.903 C 25.647 17.903 26.508 18.764 26.508 19.826 L 26.508 27.251 C 26.508 28.312 25.647 29.174 24.585 29.174 L 13.403 29.174 C 12.342 29.174 11.48 28.312 11.48 27.251 L 11.48 19.826 C 11.48 18.764 12.342 17.903 13.403 17.903 Z " fill-rule="evenodd" fill="rgb(255,255,255)"/><g id="Group"><path d="M 13.403 18.864 L 24.585 18.864 C 25.647 18.864 26.508 19.726 26.508 20.788 L 26.508 28.212 C 26.508 29.274 25.647 30.136 24.585 30.136 L 13.403 30.136 C 12.342 30.136 11.48 29.274 11.48 28.212 L 11.48 20.788 C 11.48 19.726 12.342 18.864 13.403 18.864 Z" style="stroke:none;fill:#F7F7F7;stroke-miterlimit:10;"/><path d=" M 36.52 21.013 L 36.52 24.5 L 36.52 27.987 C 36.52 29.048 35.774 29.479 34.854 28.949 L 31.835 27.205 L 28.815 25.462 C 27.896 24.931 27.896 24.069 28.815 23.538 L 31.835 21.795 L 34.854 20.051 C 35.774 19.521 36.52 19.952 36.52 21.013 Z " fill="rgb(247,247,247)"/></g></g></g></g></svg>