<?xml version="1.0" standalone="no"?><!-- Generator: Gravit.io --><svg xmlns="http://www.w3.org/2000/svg" xmlns:xlink="http://www.w3.org/1999/xlink" style="isolation:isolate" viewBox="0 0 48 48" width="48" height="48"><defs><clipPath id="_clipPath_kmqHxWznXthN76F2ZIwkjhwFOnKUtipD"><rect width="48" height="48"/></clipPath></defs><g clip-path="url(#_clipPath_kmqHxWznXthN76F2ZIwkjhwFOnKUtipD)"><g style="isolation:isolate" id="Design"><path d="M 18 3 L 30 3 C 38.831 3 46 10.169 46 19 L 46 31 C 46 39.831 38.831 47 30 47 L 18 47 C 9.169 47 2 39.831 2 31 L 2 19 C 2 10.169 9.169 3 18 3 Z" style="stroke:none;fill:#000000;stroke-miterlimit:10;opacity:0.15;"/><defs><linearGradient id="_lgradient_1" x1="0.14569589702333058" y1="0.14762670957361224" x2="0.5" y2="0.5019308125502817"><stop offset="0%" style="stop-color:#FAD2DD"/><stop offset="100%" style="stop-color:#EE5C96"/></linearGradient></defs><path d="M 18 2 L 30 2 C 38.831 2 46 9.169 46 18 L 46 30 C 46 38.831 38.831 46 30 46 L 18 46 C 9.169 46 2 38.831 2 30 L 2 18 C 2 9.169 9.169 2 18 2 Z" style="stroke:none;fill:url(#_lgradient_1);stroke-miterlimit:10;"/><linearGradient id="_lgradient_2" x1="42.893655578202555%" y1="45.41453972086735%" x2="95.90579210570378%" y2="96.28410920276903%"><stop offset="0%" stop-opacity="1" style="stop-color:rgb(250,210,221)"/><stop offset="100%" stop-opacity="1" style="stop-color:rgb(238,92,150)"/></linearGradient><path d=" M 40.675 6.085 C 43.943 9.016 46 13.269 46 18 L 46 30 C 46 38.831 38.831 46 30 46 L 18 46 C 14.074 46 10.476 44.583 7.699 42.224 C 14.076 41.633 21.962 40.497 24 31 C 27.394 15.182 30.512 12.163 39 7 Q 39.775 6.529 40.675 6.085 Z " fill="url(#_lgradient_2)"/><g id="deepin-clone"><path d=" M 27.974 17.732 C 29.141 18.122 30.185 18.781 31.032 19.635 C 30.795 19.641 30.548 19.642 30.295 19.633 C 30.295 19.633 28.063 19.74 26.811 20.377 C 26.811 20.377 25.878 20.803 24.945 21.524 C 24.945 21.524 24.747 21.625 24.756 21.996 C 24.765 22.367 24.566 23.354 23.905 23.933 C 23.905 23.933 23.433 24.181 23.669 24.535 C 23.669 24.535 23.988 25.008 24.437 24.512 C 24.437 24.512 25.594 23.295 25.665 21.335 C 25.665 21.335 26.031 21.015 26.61 20.921 C 26.61 20.921 26.716 23.862 25.287 25.339 C 25.287 25.339 23.928 26.85 23.492 24.606 C 23.492 24.606 22.96 22.468 25.701 19.929 C 25.701 19.929 26.931 18.674 27.974 17.732 Z  M 18.574 21.624 C 19.581 19.615 21.435 18.104 23.666 17.558 C 22.713 19.335 22.228 21.669 22.275 23.189 C 22.275 23.189 22.187 25.861 24.047 26.808 C 24.047 26.808 25.719 27.53 26.858 25.196 C 26.858 25.196 27.641 23.88 27.322 20.903 C 27.322 20.903 27.627 20.956 27.661 21.004 C 27.696 21.051 28.335 23.295 27.886 25.185 C 27.886 25.185 27.473 27.406 25.441 27.914 C 23.409 28.422 21.826 27.193 20.751 26.035 C 20.105 25.339 19.205 23.694 18.574 21.624 L 18.574 21.624 Z  M 19.337 29.794 L 19.337 29.794 C 21.725 30.191 24.969 30.295 27.271 28.67 C 29.4 27.167 29.126 24.76 29.126 24.76 C 29.09 22.929 27.933 21.11 27.933 21.11 C 32.433 25.031 29.773 29.388 29.773 29.388 C 29.041 30.829 27.851 31.963 26.54 32.792 C 26.206 32.836 25.864 32.859 25.517 32.859 C 22.996 32.859 20.755 31.657 19.337 29.794 Z  M 14.185 24.666 C 14.411 18.841 19.202 14.189 25.078 14.189 C 31.099 14.189 35.98 19.073 35.98 25.097 C 35.98 31.122 31.099 36.006 25.078 36.006 C 21.978 36.006 19.088 34.705 17.035 32.462 C 16.738 32.137 16.233 32.114 15.908 32.412 C 15.584 32.71 15.561 33.215 15.859 33.54 C 18.211 36.11 21.526 37.603 25.078 37.603 C 31.98 37.603 37.575 32.004 37.575 25.097 C 37.575 18.191 31.98 12.592 25.078 12.592 C 18.32 12.592 12.815 17.96 12.588 24.666 L 10.425 24.666 L 13.443 30.703 L 16.462 24.666 L 14.185 24.666 L 14.185 24.666 Z " fill-rule="evenodd" fill="rgb(0,0,0)" fill-opacity="0.15"/><path d=" M 27.974 16.538 C 29.141 16.927 30.185 17.586 31.032 18.44 C 30.795 18.447 30.548 18.447 30.295 18.438 C 30.295 18.438 28.063 18.545 26.811 19.183 C 26.811 19.183 25.878 19.608 24.945 20.329 C 24.945 20.329 24.747 20.43 24.756 20.801 C 24.765 21.172 24.566 22.159 23.905 22.738 C 23.905 22.738 23.433 22.986 23.669 23.34 C 23.669 23.34 23.988 23.813 24.437 23.317 C 24.437 23.317 25.594 22.1 25.665 20.14 C 25.665 20.14 26.031 19.82 26.61 19.726 C 26.61 19.726 26.716 22.667 25.287 24.144 C 25.287 24.144 23.928 25.656 23.492 23.411 C 23.492 23.411 22.96 21.273 25.701 18.734 C 25.701 18.734 26.931 17.479 27.974 16.538 Z  M 18.574 20.429 C 19.581 18.42 21.435 16.909 23.666 16.363 C 22.713 18.14 22.228 20.474 22.275 21.994 C 22.275 21.994 22.187 24.666 24.047 25.613 C 24.047 25.613 25.719 26.335 26.858 24.002 C 26.858 24.002 27.641 22.685 27.322 19.709 C 27.322 19.709 27.627 19.761 27.661 19.809 C 27.696 19.856 28.335 22.1 27.886 23.99 C 27.886 23.99 27.473 26.211 25.441 26.719 C 23.409 27.227 21.826 25.998 20.751 24.84 C 20.105 24.144 19.205 22.499 18.574 20.429 L 18.574 20.429 Z  M 19.337 28.599 L 19.337 28.599 C 21.725 28.997 24.969 29.1 27.271 27.475 C 29.4 25.972 29.126 23.565 29.126 23.565 C 29.09 21.734 27.933 19.915 27.933 19.915 C 32.433 23.836 29.773 28.193 29.773 28.193 C 29.041 29.634 27.851 30.768 26.54 31.598 C 26.206 31.642 25.864 31.664 25.517 31.664 C 22.996 31.664 20.755 30.462 19.337 28.599 Z  M 14.185 23.471 C 14.411 17.647 19.202 12.994 25.078 12.994 C 31.099 12.994 35.98 17.878 35.98 23.903 C 35.98 29.927 31.099 34.811 25.078 34.811 C 21.978 34.811 19.088 33.511 17.035 31.267 C 16.738 30.942 16.233 30.92 15.908 31.217 C 15.584 31.515 15.561 32.02 15.859 32.345 C 18.211 34.916 21.526 36.408 25.078 36.408 C 31.98 36.408 37.575 30.809 37.575 23.903 C 37.575 16.996 31.98 11.397 25.078 11.397 C 18.32 11.397 12.815 16.765 12.588 23.471 L 10.425 23.471 L 13.443 29.508 L 16.462 23.471 L 14.185 23.471 L 14.185 23.471 Z " fill-rule="evenodd" fill="rgb(255,255,255)"/><g id="Group"><path d=" M 14.185 23.666 C 14.411 17.841 19.202 13.189 25.078 13.189 C 31.099 13.189 35.98 18.073 35.98 24.097 C 35.98 30.122 31.099 35.006 25.078 35.006 C 21.978 35.006 19.088 33.705 17.035 31.462 C 16.738 31.137 16.233 31.114 15.908 31.412 C 15.584 31.71 15.561 32.215 15.859 32.54 C 18.211 35.11 21.526 36.603 25.078 36.603 C 31.98 36.603 37.575 31.004 37.575 24.097 C 37.575 17.191 31.98 11.592 25.078 11.592 C 18.32 11.592 12.815 16.96 12.588 23.666 L 10.425 23.666 L 13.443 29.703 L 16.462 23.666 L 14.185 23.666 L 14.185 23.666 Z " fill="rgb(247,247,247)"/><path d=" M 27.974 16.732 C 29.141 17.122 30.185 17.781 31.032 18.635 C 30.795 18.641 30.548 18.642 30.295 18.633 C 30.295 18.633 28.063 18.74 26.811 19.377 C 26.811 19.377 25.878 19.803 24.945 20.524 C 24.945 20.524 24.747 20.625 24.756 20.996 C 24.765 21.367 24.566 22.354 23.905 22.933 C 23.905 22.933 23.433 23.181 23.669 23.535 C 23.669 23.535 23.988 24.008 24.437 23.512 C 24.437 23.512 25.594 22.295 25.665 20.335 C 25.665 20.335 26.031 20.015 26.61 19.921 C 26.61 19.921 26.716 22.862 25.287 24.339 C 25.287 24.339 23.928 25.85 23.492 23.606 C 23.492 23.606 22.96 21.468 25.701 18.929 C 25.701 18.929 26.931 17.674 27.974 16.732 Z  M 18.574 20.624 C 19.581 18.615 21.435 17.104 23.666 16.558 C 22.713 18.335 22.228 20.669 22.275 22.189 C 22.275 22.189 22.187 24.861 24.047 25.808 C 24.047 25.808 25.719 26.53 26.858 24.196 C 26.858 24.196 27.641 22.88 27.322 19.903 C 27.322 19.903 27.627 19.956 27.661 20.004 C 27.696 20.051 28.335 22.295 27.886 24.185 C 27.886 24.185 27.473 26.406 25.441 26.914 C 23.409 27.422 21.826 26.193 20.751 25.035 C 20.105 24.339 19.205 22.694 18.574 20.624 L 18.574 20.624 Z  M 19.337 28.794 L 19.337 28.794 C 21.725 29.191 24.969 29.295 27.271 27.67 C 29.4 26.167 29.126 23.76 29.126 23.76 C 29.09 21.929 27.933 20.11 27.933 20.11 C 32.433 24.031 29.773 28.388 29.773 28.388 C 29.041 29.829 27.851 30.963 26.54 31.792 C 26.206 31.836 25.864 31.859 25.517 31.859 C 22.996 31.859 20.755 30.657 19.337 28.794 Z " fill-rule="evenodd" fill="rgb(247,247,247)"/></g></g></g></g></svg>