<?xml version="1.0" standalone="no"?><!-- Generator: Gravit.io --><svg xmlns="http://www.w3.org/2000/svg" xmlns:xlink="http://www.w3.org/1999/xlink" style="isolation:isolate" viewBox="0 0 48 48" width="48" height="48"><defs><clipPath id="_clipPath_Oa683RDxhuGiTbcxcet5jzoMrVV3T50b"><rect width="48" height="48"/></clipPath></defs><g clip-path="url(#_clipPath_Oa683RDxhuGiTbcxcet5jzoMrVV3T50b)"><g style="isolation:isolate" id="Design"><path d="M 18 3 L 30 3 C 38.831 3 46 10.169 46 19 L 46 31 C 46 39.831 38.831 47 30 47 L 18 47 C 9.169 47 2 39.831 2 31 L 2 19 C 2 10.169 9.169 3 18 3 Z" style="stroke:none;fill:#000000;stroke-miterlimit:10;opacity:0.15;"/><defs><linearGradient id="_lgradient_10" x1="0.5021141649048628" y1="0.14693446088794926" x2="0.5021141649048628" y2="1"><stop offset="0%" style="stop-color:#8BD276"/><stop offset="100%" style="stop-color:#62A140"/></linearGradient></defs><path d="M 18 2 L 30 2 C 38.831 2 46 9.169 46 18 L 46 30 C 46 38.831 38.831 46 30 46 L 18 46 C 9.169 46 2 38.831 2 30 L 2 18 C 2 9.169 9.169 2 18 2 Z" style="stroke:none;fill:url(#_lgradient_10);stroke-miterlimit:10;"/><g id="deepin-show-desktop"><g id="Group"><path d="M 10.612 32.865 L 37.388 32.865 C 37.726 32.865 38 33.139 38 33.477 L 38 34.823 C 38 35.161 37.726 35.435 37.388 35.435 L 10.612 35.435 C 10.274 35.435 10 35.161 10 34.823 L 10 33.477 C 10 33.139 10.274 32.865 10.612 32.865 Z" style="stroke:none;fill:#000000;stroke-miterlimit:10;opacity:0.15;"/><path d="M 10.612 31.665 L 37.388 31.665 C 37.726 31.665 38 31.939 38 32.277 L 38 33.623 C 38 33.961 37.726 34.235 37.388 34.235 L 10.612 34.235 C 10.274 34.235 10 33.961 10 33.623 L 10 32.277 C 10 31.939 10.274 31.665 10.612 31.665 Z" style="stroke:none;fill:#FFFFFF;stroke-miterlimit:10;"/><path d="M 10.612 32.256 L 37.388 32.256 C 37.726 32.256 38 32.53 38 32.868 L 38 34.213 C 38 34.551 37.726 34.826 37.388 34.826 L 10.612 34.826 C 10.274 34.826 10 34.551 10 34.213 L 10 32.868 C 10 32.53 10.274 32.256 10.612 32.256 Z" style="stroke:none;fill:#F7F7F7;stroke-miterlimit:10;"/><path d="M 10.875 15.065 L 14.375 15.065 C 14.858 15.065 15.25 15.457 15.25 15.94 L 15.25 19.44 C 15.25 19.923 14.858 20.315 14.375 20.315 L 10.875 20.315 C 10.392 20.315 10 19.923 10 19.44 L 10 15.94 C 10 15.457 10.392 15.065 10.875 15.065 Z" style="stroke:none;fill:#000000;stroke-miterlimit:10;opacity:0.15;"/><path d="M 10.875 13.565 L 14.375 13.565 C 14.858 13.565 15.25 13.957 15.25 14.44 L 15.25 17.94 C 15.25 18.423 14.858 18.815 14.375 18.815 L 10.875 18.815 C 10.392 18.815 10 18.423 10 17.94 L 10 14.44 C 10 13.957 10.392 13.565 10.875 13.565 Z" style="stroke:none;fill:#FFFFFF;stroke-miterlimit:10;"/><path d="M 10.875 14.224 L 14.375 14.224 C 14.858 14.224 15.25 14.617 15.25 15.099 L 15.25 18.599 C 15.25 19.082 14.858 19.474 14.375 19.474 L 10.875 19.474 C 10.392 19.474 10 19.082 10 18.599 L 10 15.099 C 10 14.617 10.392 14.224 10.875 14.224 Z" style="stroke:none;fill:#F7F7F7;stroke-miterlimit:10;"/><path d="M 10.875 23.865 L 14.375 23.865 C 14.858 23.865 15.25 24.257 15.25 24.74 L 15.25 28.24 C 15.25 28.723 14.858 29.115 14.375 29.115 L 10.875 29.115 C 10.392 29.115 10 28.723 10 28.24 L 10 24.74 C 10 24.257 10.392 23.865 10.875 23.865 Z" style="stroke:none;fill:#000000;stroke-miterlimit:10;opacity:0.15;"/><path d="M 10.875 22.265 L 14.375 22.265 C 14.858 22.265 15.25 22.657 15.25 23.14 L 15.25 26.64 C 15.25 27.123 14.858 27.515 14.375 27.515 L 10.875 27.515 C 10.392 27.515 10 27.123 10 26.64 L 10 23.14 C 10 22.657 10.392 22.265 10.875 22.265 Z" style="stroke:none;fill:#FFFFFF;stroke-miterlimit:10;"/><path d="M 10.875 22.974 L 14.375 22.974 C 14.858 22.974 15.25 23.367 15.25 23.849 L 15.25 27.349 C 15.25 27.832 14.858 28.224 14.375 28.224 L 10.875 28.224 C 10.392 28.224 10 27.832 10 27.349 L 10 23.849 C 10 23.367 10.392 22.974 10.875 22.974 Z" style="stroke:none;fill:#F7F7F7;stroke-miterlimit:10;"/></g></g></g></g></svg>