<?xml version="1.0" standalone="no"?><!-- Generator: Gravit.io --><svg xmlns="http://www.w3.org/2000/svg" xmlns:xlink="http://www.w3.org/1999/xlink" style="isolation:isolate" viewBox="0 0 48 48" width="48" height="48"><defs><clipPath id="_clipPath_1ehPCSHRKAStTFkfMkWoqOUnxlW6WAxt"><rect width="48" height="48"/></clipPath></defs><g clip-path="url(#_clipPath_1ehPCSHRKAStTFkfMkWoqOUnxlW6WAxt)"><g style="isolation:isolate" id="Design"><path d="M 18 3 L 30 3 C 38.831 3 46 10.169 46 19 L 46 31 C 46 39.831 38.831 47 30 47 L 18 47 C 9.169 47 2 39.831 2 31 L 2 19 C 2 10.169 9.169 3 18 3 Z" style="stroke:none;fill:#000000;stroke-miterlimit:10;opacity:0.15;"/><defs><linearGradient id="_lgradient_46" x1="0.5009654062751407" y1="0.14923409818743832" x2="0.5009654062751407" y2="1.0106999195494772"><stop offset="1.7391304347826086%" style="stop-color:#E57373"/><stop offset="100%" style="stop-color:#E53935"/></linearGradient></defs><path d="M 18 2 L 30 2 C 38.831 2 46 9.169 46 18 L 46 30 C 46 38.831 38.831 46 30 46 L 18 46 C 9.169 46 2 38.831 2 30 L 2 18 C 2 9.169 9.169 2 18 2 Z" style="stroke:none;fill:url(#_lgradient_46);stroke-miterlimit:10;"/><g id="Group"><path d=" M 36.52 21.578 L 36.52 25.065 L 36.52 28.552 C 36.52 29.613 35.774 30.044 34.854 29.514 L 31.835 27.77 L 28.815 26.027 C 27.896 25.496 27.896 24.634 28.815 24.103 L 31.835 22.36 L 34.854 20.616 C 35.774 20.086 36.52 20.517 36.52 21.578 Z  M 13.403 19.429 L 24.585 19.429 C 25.647 19.429 26.508 20.291 26.508 21.353 L 26.508 28.777 C 26.508 29.839 25.647 30.701 24.585 30.701 L 13.403 30.701 C 12.342 30.701 11.48 29.839 11.48 28.777 L 11.48 21.353 C 11.48 20.291 12.342 19.429 13.403 19.429 Z " fill-rule="evenodd" fill="rgb(0,0,0)" fill-opacity="0.15"/><path d=" M 36.52 20.448 L 36.52 23.935 L 36.52 27.422 C 36.52 28.483 35.774 28.914 34.854 28.384 L 31.835 26.64 L 28.815 24.897 C 27.896 24.366 27.896 23.504 28.815 22.973 L 31.835 21.23 L 34.854 19.486 C 35.774 18.956 36.52 19.387 36.52 20.448 Z  M 13.403 18.299 L 24.585 18.299 C 25.647 18.299 26.508 19.161 26.508 20.223 L 26.508 27.647 C 26.508 28.709 25.647 29.571 24.585 29.571 L 13.403 29.571 C 12.342 29.571 11.48 28.709 11.48 27.647 L 11.48 20.223 C 11.48 19.161 12.342 18.299 13.403 18.299 Z " fill-rule="evenodd" fill="rgb(255,255,255)"/><g id="Group"><path d="M 13.403 18.864 L 24.585 18.864 C 25.647 18.864 26.508 19.725 26.508 20.787 L 26.508 28.212 C 26.508 29.273 25.647 30.135 24.585 30.135 L 13.403 30.135 C 12.342 30.135 11.48 29.273 11.48 28.212 L 11.48 20.787 C 11.48 19.725 12.342 18.864 13.403 18.864 Z" style="stroke:none;fill:#F7F7F7;stroke-miterlimit:10;"/><path d=" M 36.52 21.012 L 36.52 24.499 L 36.52 27.986 C 36.52 29.048 35.774 29.479 34.854 28.948 L 31.835 27.204 L 28.815 25.461 C 27.896 24.93 27.896 24.068 28.815 23.538 L 31.835 21.794 L 34.854 20.051 C 35.774 19.52 36.52 19.951 36.52 21.012 Z " fill="rgb(247,247,247)"/></g></g></g></g></svg>