<?xml version="1.0" standalone="no"?><!-- Generator: Gravit.io --><svg xmlns="http://www.w3.org/2000/svg" xmlns:xlink="http://www.w3.org/1999/xlink" style="isolation:isolate" viewBox="0 0 48 48" width="48" height="48"><defs><clipPath id="_clipPath_XY1EVE2ZdADuFP31S4WLzmug4udfI2ss"><rect width="48" height="48"/></clipPath></defs><g clip-path="url(#_clipPath_XY1EVE2ZdADuFP31S4WLzmug4udfI2ss)"><g style="isolation:isolate" id="Design"><path d="M 18 3 L 30 3 C 38.831 3 46 10.169 46 19 L 46 31 C 46 39.831 38.831 47 30 47 L 18 47 C 9.169 47 2 39.831 2 31 L 2 19 C 2 10.169 9.169 3 18 3 Z" style="stroke:none;fill:#000000;stroke-miterlimit:10;opacity:0.15;"/><defs><linearGradient id="_lgradient_2" x1="0.4983899550147601" y1="0.14723622121857755" x2="0.49838995501476013" y2="1.0000000000000002"><stop offset="0%" style="stop-color:#00BCD4"/><stop offset="100%" style="stop-color:#4CAF50"/></linearGradient></defs><path d="M 18 2 L 30 2 C 38.831 2 46 9.169 46 18 L 46 30 C 46 38.831 38.831 46 30 46 L 18 46 C 9.169 46 2 38.831 2 30 L 2 18 C 2 9.169 9.169 2 18 2 Z" style="stroke:none;fill:url(#_lgradient_2);stroke-miterlimit:10;"/><g id="Group"><path d=" M 34.063 14 L 35.5 14 L 35.5 30.531 C 35.5 32.516 33.247 34.125 30.469 34.125 C 27.69 34.125 25.438 32.516 25.438 30.531 C 25.438 28.547 27.69 26.938 30.469 26.938 C 31.877 26.938 33.149 27.351 34.063 28.016 L 34.063 19.75 L 22.563 22.306 L 22.563 33.406 C 22.563 35.391 20.31 37 17.531 37 C 14.753 37 12.5 35.391 12.5 33.406 C 12.5 31.422 14.753 29.813 17.531 29.813 C 18.939 29.813 20.211 30.226 21.125 30.891 L 21.125 16.875 L 34.063 14 Z " fill="rgb(0,0,0)" fill-opacity="0.15"/><path d=" M 34.063 12 L 35.5 12 L 35.5 28.531 C 35.5 30.516 33.247 32.125 30.469 32.125 C 27.69 32.125 25.438 30.516 25.438 28.531 C 25.438 26.547 27.69 24.938 30.469 24.938 C 31.877 24.938 33.149 25.351 34.063 26.016 L 34.063 17.75 L 22.563 20.306 L 22.563 31.406 C 22.563 33.391 20.31 35 17.531 35 C 14.753 35 12.5 33.391 12.5 31.406 C 12.5 29.422 14.753 27.813 17.531 27.813 C 18.939 27.813 20.211 28.226 21.125 28.891 L 21.125 14.875 L 34.063 12 Z " fill="rgb(255,255,255)"/><path d=" M 34.063 13 L 35.5 13 L 35.5 29.531 C 35.5 31.516 33.247 33.125 30.469 33.125 C 27.69 33.125 25.438 31.516 25.438 29.531 C 25.438 27.547 27.69 25.938 30.469 25.938 C 31.877 25.938 33.149 26.351 34.063 27.016 L 34.063 18.75 L 22.563 21.306 L 22.563 32.406 C 22.563 34.391 20.31 36 17.531 36 C 14.753 36 12.5 34.391 12.5 32.406 C 12.5 30.422 14.753 28.813 17.531 28.813 C 18.939 28.813 20.211 29.226 21.125 29.891 L 21.125 15.875 L 34.063 13 Z " fill="rgb(247,247,247)"/></g></g></g></svg>