<?xml version="1.0" standalone="no"?><!-- Generator: Gravit.io --><svg xmlns="http://www.w3.org/2000/svg" xmlns:xlink="http://www.w3.org/1999/xlink" style="isolation:isolate" viewBox="0 0 48 48" width="48" height="48"><defs><clipPath id="_clipPath_LdEfWJ3XOYF4lsJLD7GBLZg2qC8p6p4v"><rect width="48" height="48"/></clipPath></defs><g clip-path="url(#_clipPath_LdEfWJ3XOYF4lsJLD7GBLZg2qC8p6p4v)"><g style="isolation:isolate" id="Design"><path d="M 18 3 L 30 3 C 38.831 3 46 10.169 46 19 L 46 31 C 46 39.831 38.831 47 30 47 L 18 47 C 9.169 47 2 39.831 2 31 L 2 19 C 2 10.169 9.169 3 18 3 Z" style="stroke:none;fill:#000000;stroke-miterlimit:10;opacity:0.15;"/><defs><linearGradient id="_lgradient_57" x1="0.5009654062751409" y1="0.1514883346741754" x2="0.5009654062751411" y2="0.9971842316975064"><stop offset="0%" style="stop-color:#FAD2DD"/><stop offset="100%" style="stop-color:#EE5C96"/></linearGradient></defs><path d="M 18 2 L 30 2 C 38.831 2 46 9.169 46 18 L 46 30 C 46 38.831 38.831 46 30 46 L 18 46 C 9.169 46 2 38.831 2 30 L 2 18 C 2 9.169 9.169 2 18 2 Z" style="stroke:none;fill:url(#_lgradient_57);stroke-miterlimit:10;"/><g id="deepin-clone"><path d=" M 27.974 17.33 C 29.141 17.719 30.185 18.378 31.032 19.233 C 30.795 19.239 30.548 19.239 30.295 19.231 C 30.295 19.231 28.063 19.337 26.811 19.975 C 26.811 19.975 25.878 20.4 24.945 21.121 C 24.945 21.121 24.747 21.222 24.756 21.594 C 24.765 21.964 24.566 22.952 23.905 23.53 C 23.905 23.53 23.433 23.778 23.669 24.133 C 23.669 24.133 23.988 24.606 24.437 24.109 C 24.437 24.109 25.594 22.893 25.665 20.932 C 25.665 20.932 26.031 20.613 26.61 20.519 C 26.61 20.519 26.716 23.46 25.287 24.936 C 25.287 24.936 23.928 26.448 23.492 24.204 C 23.492 24.204 22.96 22.066 25.701 19.527 C 25.701 19.527 26.931 18.271 27.974 17.33 Z  M 18.574 21.221 C 19.581 19.213 21.435 17.701 23.666 17.155 C 22.713 18.933 22.228 21.266 22.275 22.787 C 22.275 22.787 22.187 25.458 24.047 26.406 C 24.047 26.406 25.719 27.128 26.858 24.794 C 26.858 24.794 27.641 23.477 27.322 20.501 C 27.322 20.501 27.627 20.554 27.661 20.601 C 27.696 20.649 28.335 22.893 27.886 24.783 C 27.886 24.783 27.473 27.003 25.441 27.511 C 23.409 28.019 21.826 26.79 20.751 25.633 C 20.105 24.937 19.205 23.292 18.574 21.221 L 18.574 21.221 Z  M 19.337 29.391 L 19.337 29.391 C 21.725 29.789 24.969 29.893 27.271 28.267 C 29.4 26.764 29.126 24.357 29.126 24.357 C 29.09 22.527 27.933 20.708 27.933 20.708 C 32.433 24.629 29.773 28.985 29.773 28.985 C 29.041 30.426 27.851 31.56 26.54 32.39 C 26.206 32.434 25.864 32.457 25.517 32.457 C 22.996 32.457 20.755 31.254 19.337 29.391 Z  M 14.185 24.264 C 14.411 18.439 19.202 13.786 25.078 13.786 C 31.099 13.786 35.98 18.67 35.98 24.695 C 35.98 30.72 31.099 35.604 25.078 35.604 C 21.978 35.604 19.088 34.303 17.035 32.06 C 16.738 31.734 16.233 31.712 15.908 32.01 C 15.584 32.308 15.561 32.812 15.859 33.138 C 18.211 35.708 21.526 37.2 25.078 37.2 C 31.98 37.2 37.575 31.601 37.575 24.695 C 37.575 17.789 31.98 12.19 25.078 12.19 C 18.32 12.19 12.815 17.557 12.588 24.264 L 10.425 24.264 L 13.443 30.301 L 16.462 24.264 L 14.185 24.264 L 14.185 24.264 Z " fill-rule="evenodd" fill="rgb(0,0,0)" fill-opacity="0.15"/><path d=" M 27.974 16.13 C 29.141 16.519 30.185 17.178 31.032 18.033 C 30.795 18.039 30.548 18.039 30.295 18.031 C 30.295 18.031 28.063 18.137 26.811 18.775 C 26.811 18.775 25.878 19.2 24.945 19.921 C 24.945 19.921 24.747 20.022 24.756 20.394 C 24.765 20.764 24.566 21.752 23.905 22.33 C 23.905 22.33 23.433 22.578 23.669 22.933 C 23.669 22.933 23.988 23.406 24.437 22.909 C 24.437 22.909 25.594 21.693 25.665 19.732 C 25.665 19.732 26.031 19.413 26.61 19.319 C 26.61 19.319 26.716 22.26 25.287 23.736 C 25.287 23.736 23.928 25.248 23.492 23.004 C 23.492 23.004 22.96 20.866 25.701 18.327 C 25.701 18.327 26.931 17.071 27.974 16.13 Z  M 18.574 20.021 C 19.581 18.013 21.435 16.501 23.666 15.955 C 22.713 17.733 22.228 20.066 22.275 21.587 C 22.275 21.587 22.187 24.258 24.047 25.206 C 24.047 25.206 25.719 25.928 26.858 23.594 C 26.858 23.594 27.641 22.277 27.322 19.301 C 27.322 19.301 27.627 19.354 27.661 19.401 C 27.696 19.449 28.335 21.693 27.886 23.583 C 27.886 23.583 27.473 25.803 25.441 26.311 C 23.409 26.819 21.826 25.59 20.751 24.433 C 20.105 23.737 19.205 22.092 18.574 20.021 L 18.574 20.021 Z  M 19.337 28.191 L 19.337 28.191 C 21.725 28.589 24.969 28.693 27.271 27.067 C 29.4 25.564 29.126 23.157 29.126 23.157 C 29.09 21.327 27.933 19.508 27.933 19.508 C 32.433 23.429 29.773 27.785 29.773 27.785 C 29.041 29.226 27.851 30.36 26.54 31.19 C 26.206 31.234 25.864 31.257 25.517 31.257 C 22.996 31.257 20.755 30.054 19.337 28.191 Z  M 14.185 23.064 C 14.411 17.239 19.202 12.586 25.078 12.586 C 31.099 12.586 35.98 17.47 35.98 23.495 C 35.98 29.52 31.099 34.404 25.078 34.404 C 21.978 34.404 19.088 33.103 17.035 30.86 C 16.738 30.534 16.233 30.512 15.908 30.81 C 15.584 31.108 15.561 31.612 15.859 31.938 C 18.211 34.508 21.526 36 25.078 36 C 31.98 36 37.575 30.401 37.575 23.495 C 37.575 16.589 31.98 10.99 25.078 10.99 C 18.32 10.99 12.815 16.357 12.588 23.064 L 10.425 23.064 L 13.443 29.101 L 16.462 23.064 L 14.185 23.064 L 14.185 23.064 Z " fill-rule="evenodd" fill="rgb(255,255,255)"/><g id="Group"><path d=" M 14.185 23.666 C 14.411 17.841 19.202 13.189 25.078 13.189 C 31.099 13.189 35.98 18.073 35.98 24.097 C 35.98 30.122 31.099 35.006 25.078 35.006 C 21.978 35.006 19.088 33.705 17.035 31.462 C 16.738 31.137 16.233 31.114 15.908 31.412 C 15.584 31.71 15.561 32.215 15.859 32.54 C 18.211 35.11 21.526 36.603 25.078 36.603 C 31.98 36.603 37.575 31.004 37.575 24.097 C 37.575 17.191 31.98 11.592 25.078 11.592 C 18.32 11.592 12.815 16.96 12.588 23.666 L 10.425 23.666 L 13.443 29.703 L 16.462 23.666 L 14.185 23.666 L 14.185 23.666 Z " fill="rgb(247,247,247)"/><path d=" M 27.974 16.732 C 29.141 17.122 30.185 17.781 31.032 18.635 C 30.795 18.641 30.548 18.642 30.295 18.633 C 30.295 18.633 28.063 18.74 26.811 19.377 C 26.811 19.377 25.878 19.803 24.945 20.524 C 24.945 20.524 24.747 20.625 24.756 20.996 C 24.765 21.367 24.566 22.354 23.905 22.933 C 23.905 22.933 23.433 23.181 23.669 23.535 C 23.669 23.535 23.988 24.008 24.437 23.512 C 24.437 23.512 25.594 22.295 25.665 20.335 C 25.665 20.335 26.031 20.015 26.61 19.921 C 26.61 19.921 26.716 22.862 25.287 24.339 C 25.287 24.339 23.928 25.85 23.492 23.606 C 23.492 23.606 22.96 21.468 25.701 18.929 C 25.701 18.929 26.931 17.674 27.974 16.732 Z  M 18.574 20.624 C 19.581 18.615 21.435 17.104 23.666 16.558 C 22.713 18.335 22.228 20.669 22.275 22.189 C 22.275 22.189 22.187 24.861 24.047 25.808 C 24.047 25.808 25.719 26.53 26.858 24.196 C 26.858 24.196 27.641 22.88 27.322 19.903 C 27.322 19.903 27.627 19.956 27.661 20.004 C 27.696 20.051 28.335 22.295 27.886 24.185 C 27.886 24.185 27.473 26.406 25.441 26.914 C 23.409 27.422 21.826 26.193 20.751 25.035 C 20.105 24.339 19.205 22.694 18.574 20.624 L 18.574 20.624 Z  M 19.337 28.794 L 19.337 28.794 C 21.725 29.191 24.969 29.295 27.271 27.67 C 29.4 26.167 29.126 23.76 29.126 23.76 C 29.09 21.929 27.933 20.11 27.933 20.11 C 32.433 24.031 29.773 28.388 29.773 28.388 C 29.041 29.829 27.851 30.963 26.54 31.792 C 26.206 31.836 25.864 31.859 25.517 31.859 C 22.996 31.859 20.755 30.657 19.337 28.794 Z " fill-rule="evenodd" fill="rgb(247,247,247)"/></g></g></g></g></svg>