<?xml version="1.0" standalone="no"?><!-- Generator: Gravit.io --><svg xmlns="http://www.w3.org/2000/svg" xmlns:xlink="http://www.w3.org/1999/xlink" style="isolation:isolate" viewBox="0 0 48 48" width="48" height="48"><defs><clipPath id="_clipPath_woIIv1NB5J7d4ipNrki0wvZoL4qYHJya"><rect width="48" height="48"/></clipPath></defs><g clip-path="url(#_clipPath_woIIv1NB5J7d4ipNrki0wvZoL4qYHJya)"><g style="isolation:isolate" id="Design"><path d="M 18 3 L 30 3 C 38.831 3 46 10.169 46 19 L 46 31 C 46 39.831 38.831 47 30 47 L 18 47 C 9.169 47 2 39.831 2 31 L 2 19 C 2 10.169 9.169 3 18 3 Z" style="stroke:none;fill:#000000;stroke-miterlimit:10;opacity:0.15;"/><defs><linearGradient id="_lgradient_10" x1="0.5000000000000002" y1="0.13013859525487437" x2="0.5000000000000002" y2="1"><stop offset="1.3043478260869565%" style="stop-color:#F5F5F5"/><stop offset="45.21739130434783%" style="stop-color:#EEEEEE"/><stop offset="100%" style="stop-color:#E0E0E0"/></linearGradient></defs><path d="M 18 2 L 30 2 C 38.831 2 46 9.169 46 18 L 46 30 C 46 38.831 38.831 46 30 46 L 18 46 C 9.169 46 2 38.831 2 30 L 2 18 C 2 9.169 9.169 2 18 2 Z" style="stroke:none;fill:url(#_lgradient_10);stroke-miterlimit:10;"/><g id="deluge"><path d=" M 23.853 12.96 C 21.164 16.724 12.03 27.337 15.921 33.471 C 18.931 38.218 29.164 38.242 32.14 33.471 C 36.011 27.265 26.141 16.724 23.853 12.96 Z " fill="rgb(0,0,0)" fill-opacity="0.15"/><path d=" M 23.853 11.96 C 21.164 15.724 12.03 26.337 15.921 32.471 C 18.931 37.218 29.164 37.242 32.14 32.471 C 36.011 26.265 26.141 15.724 23.853 11.96 Z " fill="rgb(3,155,229)"/><path d=" M 23.189 12.864 C 23.807 13.047 24.401 13.288 24.964 13.579 C 26.438 15.615 28.715 18.516 30.472 21.587 C 30.515 21.96 30.536 22.339 30.536 22.724 C 30.536 28.402 25.926 33.011 20.248 33.011 C 18.578 33.011 17.001 32.613 15.606 31.906 C 12.797 26.163 20.028 17.08 23.189 12.864 Z " fill="rgb(64,196,255)"/><path d=" M 28.391 18.312 C 28.104 23.733 23.611 28.045 18.12 28.045 C 17.06 28.045 16.038 27.884 15.077 27.585 C 15.945 21.753 21.792 14.845 23.853 11.96 C 24.694 13.344 26.56 15.643 28.391 18.312 Z " fill="rgb(128,216,255)"/><path d=" M 36.9 27.913 C 36.9 27.486 36.553 27.139 36.126 27.139 C 35.699 27.139 35.352 27.486 35.352 27.913 C 35.352 28.34 35.699 28.687 36.126 28.687 C 36.553 28.687 36.9 28.34 36.9 27.913 Z  M 33.612 29.547 L 31.244 29.547 C 30.758 29.547 30.364 29.855 30.364 30.235 L 30.364 30.235 C 30.364 30.615 30.758 30.923 31.244 30.923 L 33.612 30.923 C 34.098 30.923 34.492 30.615 34.492 30.235 L 34.492 30.235 C 34.492 29.855 34.098 29.547 33.612 29.547 Z  M 33.784 27.311 L 31.416 27.311 C 30.93 27.311 30.536 27.619 30.536 27.999 L 30.536 27.999 C 30.536 28.379 30.93 28.687 31.416 28.687 L 33.784 28.687 C 34.27 28.687 34.664 28.379 34.664 27.999 L 34.664 27.999 C 34.664 27.619 34.27 27.311 33.784 27.311 Z " fill="rgb(3,155,229)"/><path d=" M 15.056 17.421 C 15.056 16.994 15.403 16.647 15.83 16.647 C 16.257 16.647 16.604 16.994 16.604 17.421 C 16.604 17.848 16.257 18.195 15.83 18.195 C 15.403 18.195 15.056 17.848 15.056 17.421 Z  M 18.344 19.055 L 20.712 19.055 C 21.198 19.055 21.592 19.363 21.592 19.743 L 21.592 19.743 C 21.592 20.123 21.198 20.431 20.712 20.431 L 18.344 20.431 C 17.858 20.431 17.464 20.123 17.464 19.743 L 17.464 19.743 C 17.464 19.363 17.858 19.055 18.344 19.055 Z  M 18.172 16.819 L 20.54 16.819 C 21.026 16.819 21.42 17.127 21.42 17.507 L 21.42 17.507 C 21.42 17.887 21.026 18.195 20.54 18.195 L 18.172 18.195 C 17.686 18.195 17.292 17.887 17.292 17.507 L 17.292 17.507 C 17.292 17.127 17.686 16.819 18.172 16.819 Z " fill="rgb(128,216,255)"/></g></g></g></svg>