<?xml version="1.0" standalone="no"?><!-- Generator: Gravit.io --><svg xmlns="http://www.w3.org/2000/svg" xmlns:xlink="http://www.w3.org/1999/xlink" style="isolation:isolate" viewBox="0 0 48 48" width="48" height="48"><defs><clipPath id="_clipPath_G61moSdt9MxajK44P9Zw12JZx1PxImbx"><rect width="48" height="48"/></clipPath></defs><g clip-path="url(#_clipPath_G61moSdt9MxajK44P9Zw12JZx1PxImbx)"><g style="isolation:isolate" id="Design"><path d="M 18 3 L 30 3 C 38.831 3 46 10.169 46 19 L 46 31 C 46 39.831 38.831 47 30 47 L 18 47 C 9.169 47 2 39.831 2 31 L 2 19 C 2 10.169 9.169 3 18 3 Z" style="stroke:none;fill:#000000;stroke-miterlimit:10;opacity:0.15;"/><defs><linearGradient id="_lgradient_4" x1="0.5" y1="0.14745607799329744" x2="0.4999999999999999" y2="1"><stop offset="0.43478260869565216%" style="stop-color:#9CACE5"/><stop offset="100%" style="stop-color:#7289DA"/></linearGradient></defs><path d="M 18 2 L 30 2 C 38.831 2 46 9.169 46 18 L 46 30 C 46 38.831 38.831 46 30 46 L 18 46 C 9.169 46 2 38.831 2 30 L 2 18 C 2 9.169 9.169 2 18 2 Z" style="stroke:none;fill:url(#_lgradient_4);stroke-miterlimit:10;"/><g id="Group"><path d=" M 21.845 15.039 C 21.845 15.039 18.623 14.969 15.21 17.476 C 11.797 19.984 10.169 23.547 10.169 31.024 C 10.169 31.024 12.975 34.4 18.213 34.564 C 18.213 34.564 19.091 33.532 19.802 32.642 C 16.792 31.751 15.651 29.899 15.651 29.899 C 18.425 31.449 20.31 32.097 23.186 32.124 C 26.062 32.097 29.575 31.449 32.349 29.899 C 32.349 29.899 31.208 31.751 28.198 32.642 C 28.909 33.532 29.787 34.564 29.787 34.564 C 35.025 34.4 37.831 31.024 37.831 31.024 C 37.831 23.547 36.203 19.984 32.79 17.476 C 29.377 14.969 26.155 15.039 26.155 15.039 L 25.916 15.32 C 30.183 16.515 32.126 18.365 32.126 18.365 C 29.695 16.666 25.627 16.666 24 16.666 C 22.373 16.666 18.305 16.666 15.874 18.365 C 15.874 18.365 17.817 16.515 22.084 15.32 L 21.845 15.039 Z  M 19.932 23.174 C 21.296 23.174 22.397 24.443 22.373 26.022 C 22.373 27.601 21.296 28.869 19.932 28.869 C 18.592 28.869 17.492 27.601 17.492 26.022 C 17.492 24.443 18.568 23.174 19.932 23.174 Z  M 28.068 23.174 C 29.432 23.174 30.508 24.443 30.508 26.022 C 30.508 27.601 29.408 28.869 28.068 28.869 C 26.704 28.869 25.627 27.601 25.627 26.022 C 25.603 24.443 26.704 23.174 28.068 23.174 Z " fill="rgb(0,0,0)" fill-opacity="0.15"/><path d=" M 21.845 14.436 C 21.845 14.436 18.623 14.366 15.21 16.873 C 11.797 19.381 10.169 22.944 10.169 30.421 C 10.169 30.421 12.975 33.797 18.213 33.961 C 18.213 33.961 19.091 32.929 19.802 32.039 C 16.792 31.148 15.651 29.296 15.651 29.296 C 18.425 30.847 20.31 31.494 23.186 31.521 C 26.062 31.494 29.575 30.847 32.349 29.296 C 32.349 29.296 31.208 31.148 28.198 32.039 C 28.909 32.929 29.787 33.961 29.787 33.961 C 35.025 33.797 37.831 30.421 37.831 30.421 C 37.831 22.944 36.203 19.381 32.79 16.873 C 29.377 14.366 26.155 14.436 26.155 14.436 L 25.916 14.717 C 30.183 15.913 32.126 17.762 32.126 17.762 C 29.695 16.063 25.627 16.063 24 16.063 C 22.373 16.063 18.305 16.063 15.874 17.762 C 15.874 17.762 17.817 15.913 22.084 14.717 L 21.845 14.436 Z  M 19.932 22.572 C 21.296 22.572 22.397 23.84 22.373 25.419 C 22.373 26.998 21.296 28.266 19.932 28.266 C 18.592 28.266 17.492 26.998 17.492 25.419 C 17.492 23.84 18.568 22.572 19.932 22.572 Z  M 28.068 22.572 C 29.432 22.572 30.508 23.84 30.508 25.419 C 30.508 26.998 29.408 28.266 28.068 28.266 C 26.704 28.266 25.627 26.998 25.627 25.419 C 25.603 23.84 26.704 22.572 28.068 22.572 Z " fill="rgb(247,247,247)"/></g></g></g></svg>