<?xml version="1.0" standalone="no"?><!-- Generator: Gravit.io --><svg xmlns="http://www.w3.org/2000/svg" xmlns:xlink="http://www.w3.org/1999/xlink" style="isolation:isolate" viewBox="0 0 48 48" width="48" height="48"><defs><clipPath id="_clipPath_foNiqat0QR2bt2ntUCL1xuOr2hX836Js"><rect width="48" height="48"/></clipPath></defs><g clip-path="url(#_clipPath_foNiqat0QR2bt2ntUCL1xuOr2hX836Js)"><g style="isolation:isolate" id="Design"><path d="M 18 3 L 30 3 C 38.831 3 46 10.169 46 19 L 46 31 C 46 39.831 38.831 47 30 47 L 18 47 C 9.169 47 2 39.831 2 31 L 2 19 C 2 10.169 9.169 3 18 3 Z" style="stroke:none;fill:#000000;stroke-miterlimit:10;opacity:0.15;"/><defs><linearGradient id="_lgradient_12" x1="0.5" y1="0.14745607799329744" x2="0.4999999999999999" y2="1"><stop offset="0.43478260869565216%" style="stop-color:#E9BA72"/><stop offset="100%" style="stop-color:#E9AE55"/></linearGradient></defs><path d="M 18 2 L 30 2 C 38.831 2 46 9.169 46 18 L 46 30 C 46 38.831 38.831 46 30 46 L 18 46 C 9.169 46 2 38.831 2 30 L 2 18 C 2 9.169 9.169 2 18 2 Z" style="stroke:none;fill:url(#_lgradient_12);stroke-miterlimit:10;"/><g id="Group"><path d=" M 21.845 15.237 C 21.845 15.237 18.623 15.167 15.21 17.675 C 11.797 20.182 10.169 23.745 10.169 31.223 C 10.169 31.223 12.975 34.599 18.213 34.763 C 18.213 34.763 19.091 33.731 19.802 32.84 C 16.792 31.949 15.651 30.098 15.651 30.098 C 18.425 31.648 20.31 32.295 23.186 32.322 C 26.062 32.295 29.575 31.648 32.349 30.098 C 32.349 30.098 31.208 31.949 28.198 32.84 C 28.909 33.731 29.787 34.763 29.787 34.763 C 35.025 34.599 37.831 31.223 37.831 31.223 C 37.831 23.745 36.203 20.182 32.79 17.675 C 29.377 15.167 26.155 15.237 26.155 15.237 L 25.916 15.519 C 30.183 16.714 32.126 18.563 32.126 18.563 C 29.695 16.865 25.627 16.865 24 16.865 C 22.373 16.865 18.305 16.865 15.874 18.563 C 15.874 18.563 17.817 16.714 22.084 15.519 L 21.845 15.237 Z  M 19.932 23.373 C 21.296 23.373 22.397 24.641 22.373 26.22 C 22.373 27.799 21.296 29.068 19.932 29.068 C 18.592 29.068 17.492 27.799 17.492 26.22 C 17.492 24.641 18.568 23.373 19.932 23.373 Z  M 28.068 23.373 C 29.432 23.373 30.508 24.641 30.508 26.22 C 30.508 27.799 29.408 29.068 28.068 29.068 C 26.704 29.068 25.627 27.799 25.627 26.22 C 25.603 24.641 26.704 23.373 28.068 23.373 Z " fill="rgb(0,0,0)" fill-opacity="0.15"/><path d=" M 21.845 14.237 C 21.845 14.237 18.623 14.167 15.21 16.675 C 11.797 19.182 10.169 22.745 10.169 30.223 C 10.169 30.223 12.975 33.599 18.213 33.763 C 18.213 33.763 19.091 32.731 19.802 31.84 C 16.792 30.949 15.651 29.098 15.651 29.098 C 18.425 30.648 20.31 31.295 23.186 31.322 C 26.062 31.295 29.575 30.648 32.349 29.098 C 32.349 29.098 31.208 30.949 28.198 31.84 C 28.909 32.731 29.787 33.763 29.787 33.763 C 35.025 33.599 37.831 30.223 37.831 30.223 C 37.831 22.745 36.203 19.182 32.79 16.675 C 29.377 14.167 26.155 14.237 26.155 14.237 L 25.916 14.519 C 30.183 15.714 32.126 17.563 32.126 17.563 C 29.695 15.865 25.627 15.865 24 15.865 C 22.373 15.865 18.305 15.865 15.874 17.563 C 15.874 17.563 17.817 15.714 22.084 14.519 L 21.845 14.237 Z  M 19.932 22.373 C 21.296 22.373 22.397 23.641 22.373 25.22 C 22.373 26.799 21.296 28.068 19.932 28.068 C 18.592 28.068 17.492 26.799 17.492 25.22 C 17.492 23.641 18.568 22.373 19.932 22.373 Z  M 28.068 22.373 C 29.432 22.373 30.508 23.641 30.508 25.22 C 30.508 26.799 29.408 28.068 28.068 28.068 C 26.704 28.068 25.627 26.799 25.627 25.22 C 25.603 23.641 26.704 22.373 28.068 22.373 Z " fill="rgb(255,255,255)"/></g></g></g></svg>