<?xml version="1.0" standalone="no"?><!-- Generator: Gravit.io --><svg xmlns="http://www.w3.org/2000/svg" xmlns:xlink="http://www.w3.org/1999/xlink" style="isolation:isolate" viewBox="0 0 48 48" width="48" height="48"><defs><clipPath id="_clipPath_lwIJrS75Sbku4jLz0BW6nzEjAdQBUVe6"><rect width="48" height="48"/></clipPath></defs><g clip-path="url(#_clipPath_lwIJrS75Sbku4jLz0BW6nzEjAdQBUVe6)"><g style="isolation:isolate" id="Design"><path d="M 18 3 L 30 3 C 38.831 3 46 10.169 46 19 L 46 31 C 46 39.831 38.831 47 30 47 L 18 47 C 9.169 47 2 39.831 2 31 L 2 19 C 2 10.169 9.169 3 18 3 Z" style="stroke:none;fill:#000000;stroke-miterlimit:10;opacity:0.15;"/><defs><linearGradient id="_lgradient_60" x1="0.4990345937248592" y1="0.15148833467417547" x2="0.5000170868367281" y2="1.0112744048438047"><stop offset="0%" style="stop-color:#E57373"/><stop offset="98.26086956521739%" style="stop-color:#E53935"/></linearGradient></defs><path d="M 18 2 L 30 2 C 38.831 2 46 9.169 46 18 L 46 30 C 46 38.831 38.831 46 30 46 L 18 46 C 9.169 46 2 38.831 2 30 L 2 18 C 2 9.169 9.169 2 18 2 Z" style="stroke:none;fill:url(#_lgradient_60);stroke-miterlimit:10;"/><g id="Group"><path d=" M 14.485 31.96 L 10 34.755 C 11.121 33.638 12.179 32.577 13.174 31.573 L 13.155 31.567 L 13.3 31.423 C 12.973 31.236 12.662 31.036 12.366 30.823 C 5.268 25.711 20.648 11.948 27.746 16.274 C 28.272 16.77 28.535 17.411 28.535 18.197 C 28.535 18.984 28.535 19.377 27.746 20.206 C 21.174 26.497 17.756 29.774 17.493 30.037 C 17.23 30.299 16.836 30.561 16.31 30.823 L 15.875 31.094 L 15.826 30.996 C 17.535 33.152 20.932 33.349 26.02 31.585 C 28.212 30.826 32.205 28.867 38 25.711 L 38 30.823 C 27.219 33.796 19.339 34.175 14.362 31.96 L 14.485 31.96 Z  M 14.903 29.824 C 21.199 23.425 24.56 19.695 24.986 18.633 C 25.775 16.667 12.761 18.633 14.732 28.464 C 14.818 28.892 14.932 29.289 15.073 29.654 L 14.903 29.824 Z " fill-rule="evenodd" fill="rgb(0,0,0)" fill-opacity="0.15"/><path d=" M 14.485 30.76 L 10 34.156 C 11.121 33.039 12.179 31.377 13.174 30.373 L 13.155 30.367 L 13.3 30.223 C 12.973 30.036 12.662 29.836 12.366 29.623 C 5.268 24.511 20.648 10.748 27.746 15.074 C 28.272 15.57 28.535 16.211 28.535 16.997 C 28.535 17.784 28.535 18.177 27.746 19.006 C 21.174 25.297 17.756 28.574 17.493 28.837 C 17.23 29.099 16.836 29.361 16.31 29.623 L 15.875 29.894 L 15.826 29.796 C 17.535 31.952 20.932 32.149 26.02 30.385 C 28.212 29.626 32.205 27.667 38 24.511 L 38 29.623 C 30.317 31.742 20.977 32.487 19.066 32.279 C 17.156 32.071 15.793 31.397 14.362 30.76 L 14.485 30.76 Z  M 14.903 28.624 C 21.199 22.225 24.56 18.495 24.986 17.433 C 25.775 15.467 12.761 17.433 14.732 27.264 C 14.818 27.692 14.932 28.089 15.073 28.454 L 14.903 28.624 Z " fill-rule="evenodd" fill="rgb(255,255,255)"/><path d=" M 14.485 31.361 L 10 34.156 C 11.121 33.039 12.179 31.978 13.174 30.975 L 13.155 30.968 L 13.3 30.824 C 12.973 30.637 12.662 30.437 12.366 30.224 C 5.268 25.112 20.648 11.349 27.746 15.675 C 28.272 16.171 28.535 16.812 28.535 17.599 C 28.535 18.385 28.535 18.778 27.746 19.607 C 21.174 25.899 17.756 29.175 17.493 29.438 C 17.23 29.7 16.836 29.962 16.31 30.224 L 15.875 30.495 L 15.826 30.397 C 17.535 32.553 20.932 32.75 26.02 30.986 C 28.212 30.227 32.205 28.269 38 25.112 L 38 30.224 C 27.219 33.198 19.339 33.577 14.362 31.361 L 14.485 31.361 Z  M 14.903 29.225 C 21.199 22.827 24.56 19.096 24.986 18.034 C 25.775 16.068 12.761 18.034 14.732 27.865 C 14.818 28.294 14.932 28.69 15.073 29.055 L 14.903 29.225 Z " fill-rule="evenodd" fill="rgb(247,247,247)"/></g></g></g></svg>