<?xml version="1.0" standalone="no"?><!-- Generator: Gravit.io --><svg xmlns="http://www.w3.org/2000/svg" xmlns:xlink="http://www.w3.org/1999/xlink" style="isolation:isolate" viewBox="0 0 48 48" width="48" height="48"><defs><clipPath id="_clipPath_WEl94ffoiDTF2RLX96wxdkYLHivSXKgc"><rect width="48" height="48"/></clipPath></defs><g clip-path="url(#_clipPath_WEl94ffoiDTF2RLX96wxdkYLHivSXKgc)"><g style="isolation:isolate" id="Design"><path d="M 18 3 L 30 3 C 38.831 3 46 10.169 46 19 L 46 31 C 46 39.831 38.831 47 30 47 L 18 47 C 9.169 47 2 39.831 2 31 L 2 19 C 2 10.169 9.169 3 18 3 Z" style="stroke:none;fill:#000000;stroke-miterlimit:10;opacity:0.15;"/><defs><linearGradient id="_lgradient_2" x1="0.5" y1="0.15116279069767447" x2="0.5" y2="1"><stop offset="0%" style="stop-color:#F9ED3A"/><stop offset="100%" style="stop-color:#F0A32F"/></linearGradient></defs><path d="M 18 2 L 30 2 C 38.831 2 46 9.169 46 18 L 46 30 C 46 38.831 38.831 46 30 46 L 18 46 C 9.169 46 2 38.831 2 30 L 2 18 C 2 9.169 9.169 2 18 2 Z" style="stroke:none;fill:url(#_lgradient_2);stroke-miterlimit:10;"/><g id="Group"><path d=" M 13.235 16.136 L 34.765 16.136 C 35.171 16.136 35.5 16.465 35.5 16.87 L 35.5 17.701 C 35.5 18.107 35.171 18.436 34.765 18.436 L 13.235 18.436 C 12.829 18.436 12.5 18.107 12.5 17.701 L 12.5 16.87 C 12.5 16.465 12.829 16.136 13.235 16.136 Z  M 13.235 21.279 L 34.765 21.279 C 35.171 21.279 35.5 21.608 35.5 22.013 L 35.5 22.844 C 35.5 23.249 35.171 23.579 34.765 23.579 L 13.235 23.579 C 12.829 23.579 12.5 23.249 12.5 22.844 L 12.5 22.013 C 12.5 21.608 12.829 21.279 13.235 21.279 Z  M 13.235 26.421 L 34.765 26.421 C 35.171 26.421 35.5 26.751 35.5 27.156 L 35.5 27.987 C 35.5 28.392 35.171 28.721 34.765 28.721 L 13.235 28.721 C 12.829 28.721 12.5 28.392 12.5 27.987 L 12.5 27.156 C 12.5 26.751 12.829 26.421 13.235 26.421 Z  M 13.235 31.564 L 24.703 31.564 C 25.108 31.564 25.438 31.893 25.438 32.299 L 25.438 33.13 C 25.438 33.535 25.108 33.864 24.703 33.864 L 13.235 33.864 C 12.829 33.864 12.5 33.535 12.5 33.13 L 12.5 32.299 C 12.5 31.893 12.829 31.564 13.235 31.564 Z " fill-rule="evenodd" fill="rgb(0,0,0)" fill-opacity="0.15"/><path d=" M 13.235 15.136 L 34.765 15.136 C 35.171 15.136 35.5 15.465 35.5 15.87 L 35.5 16.701 C 35.5 17.107 35.171 17.436 34.765 17.436 L 13.235 17.436 C 12.829 17.436 12.5 17.107 12.5 16.701 L 12.5 15.87 C 12.5 15.465 12.829 15.136 13.235 15.136 Z  M 13.235 20.279 L 34.765 20.279 C 35.171 20.279 35.5 20.608 35.5 21.013 L 35.5 21.844 C 35.5 22.249 35.171 22.579 34.765 22.579 L 13.235 22.579 C 12.829 22.579 12.5 22.249 12.5 21.844 L 12.5 21.013 C 12.5 20.608 12.829 20.279 13.235 20.279 Z  M 13.235 25.421 L 34.765 25.421 C 35.171 25.421 35.5 25.751 35.5 26.156 L 35.5 26.987 C 35.5 27.392 35.171 27.721 34.765 27.721 L 13.235 27.721 C 12.829 27.721 12.5 27.392 12.5 26.987 L 12.5 26.156 C 12.5 25.751 12.829 25.421 13.235 25.421 Z  M 13.235 30.564 L 24.703 30.564 C 25.108 30.564 25.438 30.893 25.438 31.299 L 25.438 32.13 C 25.438 32.535 25.108 32.864 24.703 32.864 L 13.235 32.864 C 12.829 32.864 12.5 32.535 12.5 32.13 L 12.5 31.299 C 12.5 30.893 12.829 30.564 13.235 30.564 Z " fill-rule="evenodd" fill="rgb(255,255,255)"/><g id="Group"><path d="M 13.235 15.523 L 34.765 15.523 C 35.171 15.523 35.5 15.852 35.5 16.258 L 35.5 17.089 C 35.5 17.494 35.171 17.823 34.765 17.823 L 13.235 17.823 C 12.829 17.823 12.5 17.494 12.5 17.089 L 12.5 16.258 C 12.5 15.852 12.829 15.523 13.235 15.523 Z" style="stroke:none;fill:#F7F7F7;stroke-miterlimit:10;"/><path d="M 13.235 20.666 L 34.765 20.666 C 35.171 20.666 35.5 20.995 35.5 21.401 L 35.5 22.231 C 35.5 22.637 35.171 22.966 34.765 22.966 L 13.235 22.966 C 12.829 22.966 12.5 22.637 12.5 22.231 L 12.5 21.401 C 12.5 20.995 12.829 20.666 13.235 20.666 Z" style="stroke:none;fill:#F7F7F7;stroke-miterlimit:10;"/><path d="M 13.235 25.809 L 34.765 25.809 C 35.171 25.809 35.5 26.138 35.5 26.544 L 35.5 27.374 C 35.5 27.78 35.171 28.109 34.765 28.109 L 13.235 28.109 C 12.829 28.109 12.5 27.78 12.5 27.374 L 12.5 26.544 C 12.5 26.138 12.829 25.809 13.235 25.809 Z" style="stroke:none;fill:#F7F7F7;stroke-miterlimit:10;"/><path d="M 13.235 30.952 L 24.703 30.952 C 25.108 30.952 25.438 31.281 25.438 31.686 L 25.438 32.517 C 25.438 32.923 25.108 33.252 24.703 33.252 L 13.235 33.252 C 12.829 33.252 12.5 32.923 12.5 32.517 L 12.5 31.686 C 12.5 31.281 12.829 30.952 13.235 30.952 Z" style="stroke:none;fill:#F7F7F7;stroke-miterlimit:10;"/></g></g></g></g></svg>