<?xml version="1.0" standalone="no"?><!-- Generator: Gravit.io --><svg xmlns="http://www.w3.org/2000/svg" xmlns:xlink="http://www.w3.org/1999/xlink" style="isolation:isolate" viewBox="0 0 48 48" width="48" height="48"><defs><clipPath id="_clipPath_MNxZXjH7vIUbTENYtiH1FdegQ1Agcz7x"><rect width="48" height="48"/></clipPath></defs><g clip-path="url(#_clipPath_MNxZXjH7vIUbTENYtiH1FdegQ1Agcz7x)"><g style="isolation:isolate" id="Design"><path d="M 18 3 L 30 3 C 38.831 3 46 10.169 46 19 L 46 31 C 46 39.831 38.831 47 30 47 L 18 47 C 9.169 47 2 39.831 2 31 L 2 19 C 2 10.169 9.169 3 18 3 Z" style="stroke:none;fill:#000000;stroke-miterlimit:10;opacity:0.15;"/><defs><linearGradient id="_lgradient_41" x1="0.5" y1="0.15116279069767447" x2="0.5" y2="1"><stop offset="0%" style="stop-color:#F9ED3A"/><stop offset="100%" style="stop-color:#F0A32F"/></linearGradient></defs><path d="M 18 2 L 30 2 C 38.831 2 46 9.169 46 18 L 46 30 C 46 38.831 38.831 46 30 46 L 18 46 C 9.169 46 2 38.831 2 30 L 2 18 C 2 9.169 9.169 2 18 2 Z" style="stroke:none;fill:url(#_lgradient_41);stroke-miterlimit:10;"/><g id="Group"><path d=" M 13.235 16.12 L 34.765 16.12 C 35.171 16.12 35.5 16.449 35.5 16.855 L 35.5 17.685 C 35.5 18.091 35.171 18.42 34.765 18.42 L 13.235 18.42 C 12.829 18.42 12.5 18.091 12.5 17.685 L 12.5 16.855 C 12.5 16.449 12.829 16.12 13.235 16.12 Z  M 13.235 21.263 L 34.765 21.263 C 35.171 21.263 35.5 21.592 35.5 21.998 L 35.5 22.828 C 35.5 23.234 35.171 23.563 34.765 23.563 L 13.235 23.563 C 12.829 23.563 12.5 23.234 12.5 22.828 L 12.5 21.998 C 12.5 21.592 12.829 21.263 13.235 21.263 Z  M 13.235 26.406 L 34.765 26.406 C 35.171 26.406 35.5 26.735 35.5 27.14 L 35.5 27.971 C 35.5 28.377 35.171 28.706 34.765 28.706 L 13.235 28.706 C 12.829 28.706 12.5 28.377 12.5 27.971 L 12.5 27.14 C 12.5 26.735 12.829 26.406 13.235 26.406 Z  M 13.235 31.549 L 24.703 31.549 C 25.108 31.549 25.438 31.878 25.438 32.283 L 25.438 33.114 C 25.438 33.519 25.108 33.849 24.703 33.849 L 13.235 33.849 C 12.829 33.849 12.5 33.519 12.5 33.114 L 12.5 32.283 C 12.5 31.878 12.829 31.549 13.235 31.549 Z " fill-rule="evenodd" fill="rgb(0,0,0)" fill-opacity="0.15"/><path d=" M 13.235 14.92 L 34.765 14.92 C 35.171 14.92 35.5 15.249 35.5 15.655 L 35.5 16.485 C 35.5 16.891 35.171 17.22 34.765 17.22 L 13.235 17.22 C 12.829 17.22 12.5 16.891 12.5 16.485 L 12.5 15.655 C 12.5 15.249 12.829 14.92 13.235 14.92 Z  M 13.235 20.063 L 34.765 20.063 C 35.171 20.063 35.5 20.392 35.5 20.798 L 35.5 21.628 C 35.5 22.034 35.171 22.363 34.765 22.363 L 13.235 22.363 C 12.829 22.363 12.5 22.034 12.5 21.628 L 12.5 20.798 C 12.5 20.392 12.829 20.063 13.235 20.063 Z  M 13.235 25.206 L 34.765 25.206 C 35.171 25.206 35.5 25.535 35.5 25.94 L 35.5 26.771 C 35.5 27.177 35.171 27.506 34.765 27.506 L 13.235 27.506 C 12.829 27.506 12.5 27.177 12.5 26.771 L 12.5 25.94 C 12.5 25.535 12.829 25.206 13.235 25.206 Z  M 13.235 30.349 L 24.703 30.349 C 25.108 30.349 25.438 30.678 25.438 31.083 L 25.438 31.914 C 25.438 32.319 25.108 32.649 24.703 32.649 L 13.235 32.649 C 12.829 32.649 12.5 32.319 12.5 31.914 L 12.5 31.083 C 12.5 30.678 12.829 30.349 13.235 30.349 Z " fill-rule="evenodd" fill="rgb(255,255,255)"/><g id="Group"><path d="M 13.235 15.523 L 34.765 15.523 C 35.171 15.523 35.5 15.852 35.5 16.258 L 35.5 17.089 C 35.5 17.494 35.171 17.823 34.765 17.823 L 13.235 17.823 C 12.829 17.823 12.5 17.494 12.5 17.089 L 12.5 16.258 C 12.5 15.852 12.829 15.523 13.235 15.523 Z" style="stroke:none;fill:#F7F7F7;stroke-miterlimit:10;"/><path d="M 13.235 20.666 L 34.765 20.666 C 35.171 20.666 35.5 20.995 35.5 21.401 L 35.5 22.231 C 35.5 22.637 35.171 22.966 34.765 22.966 L 13.235 22.966 C 12.829 22.966 12.5 22.637 12.5 22.231 L 12.5 21.401 C 12.5 20.995 12.829 20.666 13.235 20.666 Z" style="stroke:none;fill:#F7F7F7;stroke-miterlimit:10;"/><path d="M 13.235 25.809 L 34.765 25.809 C 35.171 25.809 35.5 26.138 35.5 26.544 L 35.5 27.374 C 35.5 27.78 35.171 28.109 34.765 28.109 L 13.235 28.109 C 12.829 28.109 12.5 27.78 12.5 27.374 L 12.5 26.544 C 12.5 26.138 12.829 25.809 13.235 25.809 Z" style="stroke:none;fill:#F7F7F7;stroke-miterlimit:10;"/><path d="M 13.235 30.952 L 24.703 30.952 C 25.108 30.952 25.438 31.281 25.438 31.686 L 25.438 32.517 C 25.438 32.923 25.108 33.252 24.703 33.252 L 13.235 33.252 C 12.829 33.252 12.5 32.923 12.5 32.517 L 12.5 31.686 C 12.5 31.281 12.829 30.952 13.235 30.952 Z" style="stroke:none;fill:#F7F7F7;stroke-miterlimit:10;"/></g></g></g></g></svg>