<?xml version="1.0" standalone="no"?><!-- Generator: Gravit.io --><svg xmlns="http://www.w3.org/2000/svg" xmlns:xlink="http://www.w3.org/1999/xlink" style="isolation:isolate" viewBox="0 0 48 48" width="48" height="48"><defs><clipPath id="_clipPath_6RGO5BcvMVrRg3ienJXbr3YA0H60AKyO"><rect width="48" height="48"/></clipPath></defs><g clip-path="url(#_clipPath_6RGO5BcvMVrRg3ienJXbr3YA0H60AKyO)"><g style="isolation:isolate" id="Design"><path d="M 18 3 L 30 3 C 38.831 3 46 10.169 46 19 L 46 31 C 46 39.831 38.831 47 30 47 L 18 47 C 9.169 47 2 39.831 2 31 L 2 19 C 2 10.169 9.169 3 18 3 Z" style="stroke:none;fill:#000000;stroke-miterlimit:10;opacity:0.15;"/><defs><linearGradient id="_lgradient_5" x1="0.5000000000000002" y1="0.15116279069767447" x2="0.5000000000000002" y2="1"><stop offset="0%" style="stop-color:#F9ED3A"/><stop offset="100%" style="stop-color:#F0A32F"/></linearGradient></defs><path d="M 18 2 L 30 2 C 38.831 2 46 9.169 46 18 L 46 30 C 46 38.831 38.831 46 30 46 L 18 46 C 9.169 46 2 38.831 2 30 L 2 18 C 2 9.169 9.169 2 18 2 Z" style="stroke:none;fill:url(#_lgradient_5);stroke-miterlimit:10;"/><g id="Group"><g id="Group" style="opacity:0.15;"><path d="M 13.321 15.054 L 34.679 15.054 C 35.132 15.054 35.5 15.422 35.5 15.875 L 35.5 17.107 C 35.5 17.561 35.132 17.929 34.679 17.929 L 13.321 17.929 C 12.868 17.929 12.5 17.561 12.5 17.107 L 12.5 15.875 C 12.5 15.422 12.868 15.054 13.321 15.054 Z" style="stroke:none;fill:#000000;stroke-miterlimit:10;"/><path d="M 13.321 20.804 L 34.679 20.804 C 35.132 20.804 35.5 21.172 35.5 21.625 L 35.5 22.857 C 35.5 23.311 35.132 23.679 34.679 23.679 L 13.321 23.679 C 12.868 23.679 12.5 23.311 12.5 22.857 L 12.5 21.625 C 12.5 21.172 12.868 20.804 13.321 20.804 Z" style="stroke:none;fill:#000000;stroke-miterlimit:10;"/><path d="M 13.321 26.554 L 34.679 26.554 C 35.132 26.554 35.5 26.922 35.5 27.375 L 35.5 28.607 C 35.5 29.061 35.132 29.429 34.679 29.429 L 13.321 29.429 C 12.868 29.429 12.5 29.061 12.5 28.607 L 12.5 27.375 C 12.5 26.922 12.868 26.554 13.321 26.554 Z" style="stroke:none;fill:#000000;stroke-miterlimit:10;"/><path d="M 13.321 32.304 L 24.616 32.304 C 25.069 32.304 25.438 32.672 25.438 33.125 L 25.438 34.357 C 25.438 34.811 25.069 35.179 24.616 35.179 L 13.321 35.179 C 12.868 35.179 12.5 34.811 12.5 34.357 L 12.5 33.125 C 12.5 32.672 12.868 32.304 13.321 32.304 Z" style="stroke:none;fill:#000000;stroke-miterlimit:10;"/></g><g id="Group"><path d="M 13.321 13.821 L 34.679 13.821 C 35.132 13.821 35.5 14.189 35.5 14.643 L 35.5 15.875 C 35.5 16.328 35.132 16.696 34.679 16.696 L 13.321 16.696 C 12.868 16.696 12.5 16.328 12.5 15.875 L 12.5 14.643 C 12.5 14.189 12.868 13.821 13.321 13.821 Z" style="stroke:none;fill:#FFFFFF;stroke-miterlimit:10;"/><path d="M 13.321 19.571 L 34.679 19.571 C 35.132 19.571 35.5 19.939 35.5 20.393 L 35.5 21.625 C 35.5 22.078 35.132 22.446 34.679 22.446 L 13.321 22.446 C 12.868 22.446 12.5 22.078 12.5 21.625 L 12.5 20.393 C 12.5 19.939 12.868 19.571 13.321 19.571 Z" style="stroke:none;fill:#FFFFFF;stroke-miterlimit:10;"/><path d="M 13.321 25.321 L 34.679 25.321 C 35.132 25.321 35.5 25.689 35.5 26.143 L 35.5 27.375 C 35.5 27.828 35.132 28.196 34.679 28.196 L 13.321 28.196 C 12.868 28.196 12.5 27.828 12.5 27.375 L 12.5 26.143 C 12.5 25.689 12.868 25.321 13.321 25.321 Z" style="stroke:none;fill:#FFFFFF;stroke-miterlimit:10;"/><path d="M 13.321 31.071 L 24.616 31.071 C 25.069 31.071 25.438 31.439 25.438 31.893 L 25.438 33.125 C 25.438 33.578 25.069 33.946 24.616 33.946 L 13.321 33.946 C 12.868 33.946 12.5 33.578 12.5 33.125 L 12.5 31.893 C 12.5 31.439 12.868 31.071 13.321 31.071 Z" style="stroke:none;fill:#FFFFFF;stroke-miterlimit:10;"/></g><g id="Group"><path d="M 13.321 14.438 L 34.679 14.438 C 35.132 14.438 35.5 14.806 35.5 15.259 L 35.5 16.491 C 35.5 16.944 35.132 17.313 34.679 17.313 L 13.321 17.313 C 12.868 17.313 12.5 16.944 12.5 16.491 L 12.5 15.259 C 12.5 14.806 12.868 14.438 13.321 14.438 Z" style="stroke:none;fill:#F7F7F7;stroke-miterlimit:10;"/><path d="M 13.321 20.188 L 34.679 20.188 C 35.132 20.188 35.5 20.556 35.5 21.009 L 35.5 22.241 C 35.5 22.694 35.132 23.063 34.679 23.063 L 13.321 23.063 C 12.868 23.063 12.5 22.694 12.5 22.241 L 12.5 21.009 C 12.5 20.556 12.868 20.188 13.321 20.188 Z" style="stroke:none;fill:#F7F7F7;stroke-miterlimit:10;"/><path d="M 13.321 25.938 L 34.679 25.938 C 35.132 25.938 35.5 26.306 35.5 26.759 L 35.5 27.991 C 35.5 28.444 35.132 28.813 34.679 28.813 L 13.321 28.813 C 12.868 28.813 12.5 28.444 12.5 27.991 L 12.5 26.759 C 12.5 26.306 12.868 25.938 13.321 25.938 Z" style="stroke:none;fill:#F7F7F7;stroke-miterlimit:10;"/><path d="M 13.321 31.688 L 24.616 31.688 C 25.069 31.688 25.438 32.056 25.438 32.509 L 25.438 33.741 C 25.438 34.194 25.069 34.563 24.616 34.563 L 13.321 34.563 C 12.868 34.563 12.5 34.194 12.5 33.741 L 12.5 32.509 C 12.5 32.056 12.868 31.688 13.321 31.688 Z" style="stroke:none;fill:#F7F7F7;stroke-miterlimit:10;"/></g></g></g></g></svg>