<?xml version="1.0" standalone="no"?><!-- Generator: Gravit.io --><svg xmlns="http://www.w3.org/2000/svg" xmlns:xlink="http://www.w3.org/1999/xlink" style="isolation:isolate" viewBox="0 0 48 48" width="48" height="48"><defs><clipPath id="_clipPath_OCr2BGtgIazeP6nU3kTfTDEwgNcPfNPJ"><rect width="48" height="48"/></clipPath></defs><g clip-path="url(#_clipPath_OCr2BGtgIazeP6nU3kTfTDEwgNcPfNPJ)"><g style="isolation:isolate" id="Design"><path d="M 18 3 L 30 3 C 38.831 3 46 10.169 46 19 L 46 31 C 46 39.831 38.831 47 30 47 L 18 47 C 9.169 47 2 39.831 2 31 L 2 19 C 2 10.169 9.169 3 18 3 Z" style="stroke:none;fill:#000000;stroke-miterlimit:10;opacity:0.15;"/><defs><linearGradient id="_lgradient_6" x1="0.5000000000000002" y1="0.15116279069767447" x2="0.5000000000000002" y2="1"><stop offset="0%" style="stop-color:#F9ED3A"/><stop offset="100%" style="stop-color:#F0A32F"/></linearGradient></defs><path d="M 18 2 L 30 2 C 38.831 2 46 9.169 46 18 L 46 30 C 46 38.831 38.831 46 30 46 L 18 46 C 9.169 46 2 38.831 2 30 L 2 18 C 2 9.169 9.169 2 18 2 Z" style="stroke:none;fill:url(#_lgradient_6);stroke-miterlimit:10;"/><g id="Group"><path d=" M 13.277 16.15 L 34.723 16.15 C 35.152 16.15 35.5 16.498 35.5 16.927 L 35.5 17.945 C 35.5 18.373 35.152 18.721 34.723 18.721 L 13.277 18.721 C 12.848 18.721 12.5 18.373 12.5 17.945 L 12.5 16.927 C 12.5 16.498 12.848 16.15 13.277 16.15 Z  M 13.277 21.293 L 34.723 21.293 C 35.152 21.293 35.5 21.641 35.5 22.07 L 35.5 23.087 C 35.5 23.516 35.152 23.864 34.723 23.864 L 13.277 23.864 C 12.848 23.864 12.5 23.516 12.5 23.087 L 12.5 22.07 C 12.5 21.641 12.848 21.293 13.277 21.293 Z  M 13.277 26.436 L 34.723 26.436 C 35.152 26.436 35.5 26.784 35.5 27.213 L 35.5 28.23 C 35.5 28.659 35.152 29.007 34.723 29.007 L 13.277 29.007 C 12.848 29.007 12.5 28.659 12.5 28.23 L 12.5 27.213 C 12.5 26.784 12.848 26.436 13.277 26.436 Z  M 13.277 31.579 L 24.661 31.579 C 25.089 31.579 25.438 31.927 25.438 32.355 L 25.438 33.373 C 25.438 33.802 25.089 34.15 24.661 34.15 L 13.277 34.15 C 12.848 34.15 12.5 33.802 12.5 33.373 L 12.5 32.355 C 12.5 31.927 12.848 31.579 13.277 31.579 Z " fill-rule="evenodd" fill="rgb(0,0,0)" fill-opacity="0.15"/><path d=" M 13.277 14.85 L 34.723 14.85 C 35.152 14.85 35.5 15.198 35.5 15.627 L 35.5 16.645 C 35.5 17.073 35.152 17.421 34.723 17.421 L 13.277 17.421 C 12.848 17.421 12.5 17.073 12.5 16.645 L 12.5 15.627 C 12.5 15.198 12.848 14.85 13.277 14.85 Z  M 13.277 19.993 L 34.723 19.993 C 35.152 19.993 35.5 20.341 35.5 20.77 L 35.5 21.787 C 35.5 22.216 35.152 22.564 34.723 22.564 L 13.277 22.564 C 12.848 22.564 12.5 22.216 12.5 21.787 L 12.5 20.77 C 12.5 20.341 12.848 19.993 13.277 19.993 Z  M 13.277 25.136 L 34.723 25.136 C 35.152 25.136 35.5 25.484 35.5 25.913 L 35.5 26.93 C 35.5 27.359 35.152 27.707 34.723 27.707 L 13.277 27.707 C 12.848 27.707 12.5 27.359 12.5 26.93 L 12.5 25.913 C 12.5 25.484 12.848 25.136 13.277 25.136 Z  M 13.277 30.279 L 24.661 30.279 C 25.089 30.279 25.438 30.627 25.438 31.055 L 25.438 32.073 C 25.438 32.502 25.089 32.85 24.661 32.85 L 13.277 32.85 C 12.848 32.85 12.5 32.502 12.5 32.073 L 12.5 31.055 C 12.5 30.627 12.848 30.279 13.277 30.279 Z " fill-rule="evenodd" fill="rgb(255,255,255)"/><g id="Group"><path d="M 13.277 15.488 L 34.723 15.488 C 35.152 15.488 35.5 15.836 35.5 16.264 L 35.5 17.282 C 35.5 17.711 35.152 18.059 34.723 18.059 L 13.277 18.059 C 12.848 18.059 12.5 17.711 12.5 17.282 L 12.5 16.264 C 12.5 15.836 12.848 15.488 13.277 15.488 Z" style="stroke:none;fill:#F7F7F7;stroke-miterlimit:10;"/><path d="M 13.277 20.63 L 34.723 20.63 C 35.152 20.63 35.5 20.978 35.5 21.407 L 35.5 22.425 C 35.5 22.854 35.152 23.202 34.723 23.202 L 13.277 23.202 C 12.848 23.202 12.5 22.854 12.5 22.425 L 12.5 21.407 C 12.5 20.978 12.848 20.63 13.277 20.63 Z" style="stroke:none;fill:#F7F7F7;stroke-miterlimit:10;"/><path d="M 13.277 25.773 L 34.723 25.773 C 35.152 25.773 35.5 26.121 35.5 26.55 L 35.5 27.568 C 35.5 27.997 35.152 28.345 34.723 28.345 L 13.277 28.345 C 12.848 28.345 12.5 27.997 12.5 27.568 L 12.5 26.55 C 12.5 26.121 12.848 25.773 13.277 25.773 Z" style="stroke:none;fill:#F7F7F7;stroke-miterlimit:10;"/><path d="M 13.277 30.916 L 24.661 30.916 C 25.089 30.916 25.438 31.264 25.438 31.693 L 25.438 32.711 C 25.438 33.139 25.089 33.488 24.661 33.488 L 13.277 33.488 C 12.848 33.488 12.5 33.139 12.5 32.711 L 12.5 31.693 C 12.5 31.264 12.848 30.916 13.277 30.916 Z" style="stroke:none;fill:#F7F7F7;stroke-miterlimit:10;"/></g></g></g></g></svg>