<?xml version="1.0" standalone="no"?><!-- Generator: Gravit.io --><svg xmlns="http://www.w3.org/2000/svg" xmlns:xlink="http://www.w3.org/1999/xlink" style="isolation:isolate" viewBox="0 0 48 48" width="48" height="48"><defs><clipPath id="_clipPath_eXTYgcW0BMTSKm9fwjKw1XxvYE7NjDdY"><rect width="48" height="48"/></clipPath></defs><g clip-path="url(#_clipPath_eXTYgcW0BMTSKm9fwjKw1XxvYE7NjDdY)"><g style="isolation:isolate" id="Design"><path d="M 18 3 L 30 3 C 38.831 3 46 10.169 46 19 L 46 31 C 46 39.831 38.831 47 30 47 L 18 47 C 9.169 47 2 39.831 2 31 L 2 19 C 2 10.169 9.169 3 18 3 Z" style="stroke:none;fill:#000000;stroke-miterlimit:10;opacity:0.15;"/><defs><linearGradient id="_lgradient_1" x1="0.5028962188254223" y1="0.14762670957361212" x2="0.5028962188254223" y2="0.9933226065969427"><stop offset="0%" style="stop-color:#90A4AE"/><stop offset="100%" style="stop-color:#546E7A"/></linearGradient></defs><path d="M 18 2 L 30 2 C 38.831 2 46 9.169 46 18 L 46 30 C 46 38.831 38.831 46 30 46 L 18 46 C 9.169 46 2 38.831 2 30 L 2 18 C 2 9.169 9.169 2 18 2 Z" style="stroke:none;fill:url(#_lgradient_1);stroke-miterlimit:10;"/><g id="gitkraken"><path d=" M 18.798 18.346 C 16.781 20.995 15.739 23.135 15.739 24.621 C 15.739 25.607 15.826 25.765 16.679 26.331 C 18.138 27.654 17.876 28.885 18.218 30.627 C 17.749 30.627 17.392 31.453 17.392 32.279 C 17.392 33.105 17.77 33.931 18.218 33.931 L 18.217 35.62 C 14.512 33.483 12.435 29.491 12.435 24.889 C 12.435 19.962 15.288 16.109 19.433 14.109 L 14.995 14.109 L 14.995 14.108 C 11.909 16.828 9.957 20.43 9.957 24.888 C 9.957 30.908 13.094 36.06 18.217 38.403 L 18.455 38.519 C 19.172 38.831 19.925 39.071 20.695 39.269 L 20.695 41.794 C 12.751 40.051 7.497 33.022 7.478 24.889 C 7.48 23.211 7.727 21.498 8.209 19.89 L 5.647 19.89 C 5.223 21.508 5.005 23.217 5 24.889 C 5.004 35.355 12.728 44.014 23.172 44.668 L 23.172 36.406 C 23.173 36.406 23.174 36.406 23.174 36.406 L 23.174 36.409 C 23.381 36.404 23.689 36.42 23.997 36.428 C 23.999 36.428 24.001 36.428 24.003 36.428 C 24.311 36.42 24.619 36.404 24.826 36.409 L 24.826 36.406 C 24.826 36.406 24.827 36.406 24.828 36.406 L 24.828 44.668 C 35.272 44.014 42.996 35.355 43 24.889 C 42.995 23.217 42.777 21.508 42.353 19.89 L 39.791 19.89 C 40.273 21.498 40.52 23.211 40.522 24.889 C 40.503 33.022 35.249 40.051 27.305 41.794 L 27.305 39.269 C 28.075 39.071 28.828 38.831 29.544 38.519 L 29.783 38.403 C 34.906 36.06 38.043 30.909 38.043 24.888 C 38.043 20.43 36.091 16.828 33.005 14.108 L 33.005 14.109 L 28.567 14.109 C 32.711 16.109 35.565 19.962 35.565 24.889 C 35.565 29.491 33.488 33.483 29.783 35.62 L 29.782 33.931 C 30.23 33.931 30.608 33.105 30.608 32.279 C 30.608 31.453 30.251 30.627 29.782 30.627 C 30.124 28.885 29.862 27.654 31.321 26.331 C 32.174 25.765 32.261 25.607 32.261 24.621 C 32.261 23.135 31.219 20.995 29.202 18.346 C 27.892 16.626 26.478 14.108 24 14.108 C 21.522 14.108 19.911 16.938 18.798 18.346 Z  M 20.283 31.453 C 20.967 31.453 21.522 32.008 21.522 32.692 C 21.522 33.376 20.967 33.931 20.283 33.931 C 19.599 33.931 19.044 33.376 19.044 32.692 C 19.044 32.008 19.599 31.453 20.283 31.453 Z  M 27.717 31.453 C 28.401 31.453 28.956 32.008 28.956 32.692 C 28.956 33.376 28.401 33.931 27.717 33.931 C 27.033 33.931 26.478 33.376 26.478 32.692 C 26.478 32.008 27.033 31.453 27.717 31.453 Z " fill="rgb(0,0,0)" fill-opacity="0.15"/><path d=" M 18.798 16.57 C 16.781 19.219 15.739 21.359 15.739 22.845 C 15.739 23.831 15.826 23.989 16.679 24.555 C 18.138 25.878 17.876 27.109 18.218 28.851 C 17.749 28.851 17.392 29.677 17.392 30.503 C 17.392 31.329 17.77 32.155 18.218 32.155 L 18.217 33.844 C 14.512 31.707 12.435 27.715 12.435 23.113 C 12.435 18.186 15.288 14.333 19.433 12.333 L 14.995 12.333 L 14.995 12.332 C 11.909 15.052 9.957 18.655 9.957 23.112 C 9.957 29.133 13.094 34.284 18.217 36.627 L 18.455 36.743 C 19.172 37.055 19.925 37.295 20.695 37.493 L 20.695 40.018 C 12.751 38.275 7.497 31.246 7.478 23.113 C 7.48 21.435 7.727 19.722 8.209 18.114 L 5.647 18.114 C 5.223 19.732 5.005 21.441 5 23.113 C 5.004 33.579 12.728 42.238 23.172 42.892 L 23.172 34.63 C 23.173 34.63 23.174 34.63 23.174 34.63 L 23.174 34.633 C 23.381 34.628 23.689 34.644 23.997 34.652 C 23.999 34.652 24.001 34.652 24.003 34.652 C 24.311 34.644 24.619 34.628 24.826 34.633 L 24.826 34.63 C 24.826 34.63 24.827 34.63 24.828 34.63 L 24.828 42.892 C 35.272 42.238 42.996 33.579 43 23.113 C 42.995 21.441 42.777 19.732 42.353 18.114 L 39.791 18.114 C 40.273 19.722 40.52 21.435 40.522 23.113 C 40.503 31.246 35.249 38.275 27.305 40.018 L 27.305 37.493 C 28.075 37.295 28.828 37.055 29.544 36.743 L 29.783 36.627 C 34.906 34.284 38.043 29.133 38.043 23.112 C 38.043 18.655 36.091 15.052 33.005 12.332 L 33.005 12.333 L 28.567 12.333 C 32.711 14.333 35.565 18.187 35.565 23.113 C 35.565 27.715 33.488 31.707 29.783 33.844 L 29.782 32.155 C 30.23 32.155 30.608 31.329 30.608 30.503 C 30.608 29.677 30.251 28.851 29.782 28.851 C 30.124 27.109 29.862 25.878 31.321 24.555 C 32.174 23.989 32.261 23.831 32.261 22.845 C 32.261 21.359 31.219 19.219 29.202 16.57 C 27.892 14.85 26.478 12.332 24 12.332 C 21.522 12.332 19.911 15.162 18.798 16.57 Z  M 20.283 29.677 C 20.967 29.677 21.522 30.232 21.522 30.916 C 21.522 31.601 20.967 32.155 20.283 32.155 C 19.599 32.155 19.044 31.601 19.044 30.916 C 19.044 30.232 19.599 29.677 20.283 29.677 Z  M 27.717 29.677 C 28.401 29.677 28.956 30.232 28.956 30.916 C 28.956 31.601 28.401 32.155 27.717 32.155 C 27.033 32.155 26.478 31.601 26.478 30.916 C 26.478 30.232 27.033 29.677 27.717 29.677 Z " fill="rgb(255,255,255)"/><path d=" M 18.798 17.024 C 16.781 19.673 15.739 21.812 15.739 23.299 C 15.739 24.285 15.826 24.442 16.679 25.009 C 18.138 26.332 17.876 27.562 18.218 29.305 C 17.749 29.305 17.392 30.131 17.392 30.957 C 17.392 31.783 17.77 32.609 18.218 32.609 L 18.217 34.298 C 14.512 32.161 12.435 28.169 12.435 23.567 C 12.435 18.64 15.288 14.787 19.433 12.787 L 14.995 12.787 L 14.995 12.785 C 11.909 15.506 9.957 19.108 9.957 23.565 C 9.957 29.586 13.094 34.738 18.217 37.081 L 18.455 37.197 C 19.172 37.509 19.925 37.748 20.695 37.947 L 20.695 40.471 C 12.751 38.729 7.497 31.7 7.478 23.567 C 7.48 21.888 7.727 20.176 8.209 18.568 L 5.647 18.568 C 5.223 20.186 5.005 21.894 5 23.567 C 5.004 34.032 12.728 42.692 23.172 43.346 L 23.172 35.083 C 23.173 35.084 23.174 35.083 23.174 35.083 L 23.174 35.087 C 23.381 35.082 23.689 35.097 23.997 35.106 C 23.999 35.106 24.001 35.106 24.003 35.106 C 24.311 35.097 24.619 35.082 24.826 35.087 L 24.826 35.084 C 24.826 35.083 24.827 35.084 24.828 35.084 L 24.828 43.346 C 35.272 42.692 42.996 34.032 43 23.567 C 42.995 21.894 42.777 20.186 42.353 18.568 L 39.791 18.568 C 40.273 20.176 40.52 21.888 40.522 23.567 C 40.503 31.7 35.249 38.729 27.305 40.472 L 27.305 37.947 C 28.075 37.748 28.828 37.509 29.544 37.197 L 29.783 37.081 C 34.906 34.738 38.043 29.586 38.043 23.565 C 38.043 19.108 36.091 15.506 33.005 12.785 L 33.005 12.787 L 28.567 12.787 C 32.711 14.787 35.565 18.64 35.565 23.567 C 35.565 28.169 33.488 32.161 29.783 34.298 L 29.782 32.609 C 30.23 32.609 30.608 31.783 30.608 30.957 C 30.608 30.131 30.251 29.305 29.782 29.305 C 30.124 27.562 29.862 26.332 31.321 25.009 C 32.174 24.442 32.261 24.285 32.261 23.299 C 32.261 21.812 31.219 19.673 29.202 17.024 C 27.892 15.304 26.478 12.786 24 12.786 C 21.522 12.786 19.911 15.616 18.798 17.024 Z  M 20.283 30.131 C 20.967 30.131 21.522 30.686 21.522 31.37 C 21.522 32.054 20.967 32.609 20.283 32.609 C 19.599 32.609 19.044 32.054 19.044 31.37 C 19.044 30.686 19.599 30.131 20.283 30.131 Z  M 27.717 30.131 C 28.401 30.131 28.956 30.686 28.956 31.37 C 28.956 32.054 28.401 32.609 27.717 32.609 C 27.033 32.609 26.478 32.054 26.478 31.37 C 26.478 30.686 27.033 30.131 27.717 30.131 Z " fill="rgb(247,247,247)"/></g></g></g></svg>