<?xml version="1.0" standalone="no"?><!-- Generator: Gravit.io --><svg xmlns="http://www.w3.org/2000/svg" xmlns:xlink="http://www.w3.org/1999/xlink" style="isolation:isolate" viewBox="0 0 48 48" width="48" height="48"><defs><clipPath id="_clipPath_Oi8A6EPlhVaPYEGBNqZWWtiyGoiAzI66"><rect width="48" height="48"/></clipPath></defs><g clip-path="url(#_clipPath_Oi8A6EPlhVaPYEGBNqZWWtiyGoiAzI66)"><g style="isolation:isolate" id="Design"><path d="M 18 3 L 30 3 C 38.831 3 46 10.169 46 19 L 46 31 C 46 39.831 38.831 47 30 47 L 18 47 C 9.169 47 2 39.831 2 31 L 2 19 C 2 10.169 9.169 3 18 3 Z" style="stroke:none;fill:#000000;stroke-miterlimit:10;opacity:0.15;"/><defs><linearGradient id="_lgradient_68" x1="0.5028962188254223" y1="0.14762670957361212" x2="0.5028962188254223" y2="0.9933226065969427"><stop offset="0%" style="stop-color:#90A4AE"/><stop offset="100%" style="stop-color:#546E7A"/></linearGradient></defs><path d="M 18 2 L 30 2 C 38.831 2 46 9.169 46 18 L 46 30 C 46 38.831 38.831 46 30 46 L 18 46 C 9.169 46 2 38.831 2 30 L 2 18 C 2 9.169 9.169 2 18 2 Z" style="stroke:none;fill:url(#_lgradient_68);stroke-miterlimit:10;"/><g id="gitkraken"><path d=" M 20.167 16.664 C 18.681 18.615 17.913 20.192 17.913 21.287 C 17.913 22.014 17.977 22.13 18.606 22.547 C 19.68 23.522 19.487 24.429 19.74 25.713 C 19.394 25.713 19.131 26.321 19.131 26.93 C 19.131 27.539 19.41 28.147 19.74 28.147 L 19.739 29.392 C 17.009 27.817 15.478 24.875 15.478 21.485 C 15.478 17.854 17.581 15.015 20.635 13.542 L 17.365 13.542 L 17.365 13.54 C 15.091 15.545 13.653 18.199 13.653 21.484 C 13.653 25.92 15.964 29.716 19.739 31.442 L 19.915 31.528 C 20.442 31.758 20.997 31.934 21.564 32.08 L 21.564 33.941 C 15.711 32.657 11.84 27.477 11.826 21.485 C 11.828 20.248 12.009 18.986 12.364 17.801 L 10.477 17.801 C 10.165 18.993 10.004 20.252 10 21.485 C 10.003 29.196 15.695 35.577 23.39 36.059 L 23.39 29.971 C 23.391 29.971 23.391 29.971 23.391 29.971 L 23.391 29.973 C 23.544 29.969 23.771 29.981 23.998 29.987 C 23.999 29.987 24.001 29.987 24.002 29.987 C 24.229 29.981 24.456 29.97 24.609 29.973 L 24.609 29.971 C 24.609 29.971 24.61 29.971 24.61 29.971 L 24.61 36.059 C 32.305 35.577 37.997 29.196 38 21.485 C 37.996 20.252 37.835 18.993 37.523 17.801 L 35.636 17.801 C 35.991 18.986 36.172 20.248 36.174 21.485 C 36.16 27.477 32.288 32.657 26.436 33.941 L 26.436 32.08 C 27.003 31.934 27.558 31.758 28.085 31.528 L 28.261 31.442 C 32.036 29.716 34.347 25.92 34.347 21.484 C 34.347 18.199 32.909 15.545 30.635 13.54 L 30.635 13.542 L 27.365 13.542 C 30.419 15.015 32.521 17.855 32.521 21.485 C 32.521 24.876 30.991 27.817 28.261 29.392 L 28.26 28.147 C 28.59 28.147 28.869 27.539 28.869 26.93 C 28.869 26.321 28.606 25.713 28.26 25.713 C 28.513 24.429 28.32 23.522 29.394 22.547 C 30.023 22.13 30.087 22.014 30.087 21.287 C 30.087 20.192 29.319 18.615 27.833 16.664 C 26.868 15.396 25.826 13.541 24 13.541 C 22.174 13.541 20.987 15.626 20.167 16.664 Z  M 21.261 26.321 C 21.766 26.321 22.174 26.73 22.174 27.234 C 22.174 27.739 21.766 28.147 21.261 28.147 C 20.757 28.147 20.348 27.739 20.348 27.234 C 20.348 26.73 20.757 26.321 21.261 26.321 Z  M 26.739 26.321 C 27.243 26.321 27.652 26.73 27.652 27.234 C 27.652 27.739 27.243 28.147 26.739 28.147 C 26.234 28.147 25.826 27.739 25.826 27.234 C 25.826 26.73 26.234 26.321 26.739 26.321 Z " fill="rgb(0,0,0)" fill-opacity="0.15"/><path d=" M 20.167 16.064 C 18.681 18.016 17.913 19.593 17.913 20.688 C 17.913 21.414 17.977 21.53 18.606 21.948 C 19.68 22.923 19.487 23.829 19.74 25.114 C 19.394 25.114 19.131 25.722 19.131 26.331 C 19.131 26.939 19.41 27.548 19.74 27.548 L 19.739 28.792 C 17.009 27.218 15.478 24.276 15.478 20.886 C 15.478 17.255 17.581 14.416 20.635 12.942 L 17.365 12.942 L 17.365 12.941 C 15.091 14.946 13.653 17.6 13.653 20.884 C 13.653 25.321 15.964 29.117 19.739 30.843 L 19.915 30.928 C 20.442 31.158 20.997 31.335 21.564 31.481 L 21.564 33.341 C 15.711 32.057 11.84 26.878 11.826 20.886 C 11.828 19.649 12.009 18.387 12.364 17.202 L 10.477 17.202 C 10.165 18.394 10.004 19.653 10 20.886 C 10.003 28.597 15.695 34.978 23.39 35.46 L 23.39 29.371 C 23.391 29.371 23.391 29.371 23.391 29.371 L 23.391 29.374 C 23.544 29.37 23.771 29.382 23.998 29.388 C 23.999 29.388 24.001 29.388 24.002 29.388 C 24.229 29.382 24.456 29.37 24.609 29.374 L 24.609 29.371 C 24.609 29.371 24.61 29.371 24.61 29.371 L 24.61 35.46 C 32.305 34.978 37.997 28.597 38 20.886 C 37.996 19.653 37.835 18.394 37.523 17.202 L 35.636 17.202 C 35.991 18.387 36.172 19.649 36.174 20.886 C 36.16 26.878 32.288 32.057 26.436 33.341 L 26.436 31.481 C 27.003 31.335 27.558 31.158 28.085 30.928 L 28.261 30.843 C 32.036 29.117 34.347 25.321 34.347 20.884 C 34.347 17.6 32.909 14.946 30.635 12.941 L 30.635 12.942 L 27.365 12.942 C 30.419 14.416 32.521 17.255 32.521 20.886 C 32.521 24.276 30.991 27.218 28.261 28.792 L 28.26 27.548 C 28.59 27.548 28.869 26.939 28.869 26.331 C 28.869 25.722 28.606 25.114 28.26 25.114 C 28.513 23.829 28.32 22.923 29.394 21.948 C 30.023 21.53 30.087 21.414 30.087 20.688 C 30.087 19.593 29.319 18.016 27.833 16.064 C 26.868 14.797 25.826 12.942 24 12.942 C 22.174 12.942 20.987 15.027 20.167 16.064 Z  M 21.261 25.722 C 21.766 25.722 22.174 26.131 22.174 26.635 C 22.174 27.139 21.766 27.548 21.261 27.548 C 20.757 27.548 20.348 27.139 20.348 26.635 C 20.348 26.131 20.757 25.722 21.261 25.722 Z  M 26.739 25.722 C 27.243 25.722 27.652 26.131 27.652 26.635 C 27.652 27.139 27.243 27.548 26.739 27.548 C 26.234 27.548 25.826 27.139 25.826 26.635 C 25.826 26.131 26.234 25.722 26.739 25.722 Z " fill="rgb(247,247,247)"/></g></g></g></svg>