<?xml version="1.0" standalone="no"?><!-- Generator: Gravit.io --><svg xmlns="http://www.w3.org/2000/svg" xmlns:xlink="http://www.w3.org/1999/xlink" style="isolation:isolate" viewBox="0 0 48 48" width="48" height="48"><defs><clipPath id="_clipPath_Q9IhyK2EFmXNmloM3waYn2DvWHeuln75"><rect width="48" height="48"/></clipPath></defs><g clip-path="url(#_clipPath_Q9IhyK2EFmXNmloM3waYn2DvWHeuln75)"><g style="isolation:isolate" id="Design"><path d="M 18 3 L 30 3 C 38.831 3 46 10.169 46 19 L 46 31 C 46 39.831 38.831 47 30 47 L 18 47 C 9.169 47 2 39.831 2 31 L 2 19 C 2 10.169 9.169 3 18 3 Z" style="stroke:none;fill:#000000;stroke-miterlimit:10;opacity:0.15;"/><path d="M 18 2 L 30 2 C 38.831 2 46 9.169 46 18 L 46 30 C 46 38.831 38.831 46 30 46 L 18 46 C 9.169 46 2 38.831 2 30 L 2 18 C 2 9.169 9.169 2 18 2 Z" style="stroke:none;fill:#FEDD37;stroke-miterlimit:10;"/><linearGradient id="_lgradient_29" x1="0%" y1="50%" x2="100%" y2="50%"><stop offset="0%" stop-opacity="1" style="stop-color:rgb(244,67,54)"/><stop offset="100%" stop-opacity="1" style="stop-color:rgb(229,57,53)"/></linearGradient><path d=" M 45.372 13.551 C 43.443 6.882 37.287 2 30 2 L 18 2 C 11.731 2 6.299 5.613 3.676 10.869 L 14.738 29.772 L 45.372 13.551 Z " fill="url(#_lgradient_29)"/><linearGradient id="_lgradient_30" x1="0%" y1="50%" x2="100%" y2="50%"><stop offset="0%" stop-opacity="1" style="stop-color:rgb(255,235,59)"/><stop offset="100%" stop-opacity="1" style="stop-color:rgb(253,216,53)"/></linearGradient><path d=" M 45.181 12.936 C 45.712 14.527 46 16.23 46 18 L 46 30 C 46 38.831 38.831 46 30 46 L 22.509 46 L 23.902 12.891 L 45.181 12.936 Z " fill="url(#_lgradient_30)"/><linearGradient id="_lgradient_31" x1="0%" y1="50%" x2="100%" y2="50%"><stop offset="0%" stop-opacity="1" style="stop-color:rgb(76,175,80)"/><stop offset="100%" stop-opacity="1" style="stop-color:rgb(67,160,71)"/></linearGradient><path d=" M 24.113 46 L 18 46 C 9.169 46 2 38.831 2 30 L 2 18 C 2 15.438 2.603 13.016 3.676 10.869 L 14.738 29.772 L 34.076 29.026 L 24.113 46 Z " fill="url(#_lgradient_31)"/><g id="Group"><path d=" M 24 36.857 C 17.6 36.857 12.393 31.649 12.393 25.249 C 12.393 18.849 17.6 13.643 24 13.643 C 30.399 13.643 35.607 18.849 35.607 25.249 C 35.607 31.649 30.399 36.857 24 36.857 L 24 36.857 Z " fill-rule="evenodd" fill="rgb(0,0,0)" fill-opacity="0.15"/><path d=" M 24 35.357 C 17.6 35.357 12.393 30.149 12.393 23.749 C 12.393 17.349 17.6 12.143 24 12.143 C 30.399 12.143 35.607 17.349 35.607 23.749 C 35.607 30.149 30.399 35.357 24 35.357 L 24 35.357 Z " fill-rule="evenodd" fill="rgb(255,255,255)"/><path d=" M 24 36.15 C 17.6 36.15 12.393 30.942 12.393 24.541 C 12.393 18.141 17.6 12.935 24 12.935 C 30.399 12.935 35.607 18.141 35.607 24.541 C 35.607 30.942 30.399 36.15 24 36.15 L 24 36.15 Z " fill-rule="evenodd" fill="rgb(247,247,247)"/><path d=" M 15.964 24.543 C 15.964 20.108 19.565 16.507 24 16.507 C 28.435 16.507 32.036 20.108 32.036 24.543 C 32.036 28.978 28.435 32.579 24 32.579 C 19.565 32.579 15.964 28.978 15.964 24.543 Z " fill="rgb(79,195,247)"/><path d=" M 15.3 24.543 C 15.3 22.243 16.2 20.043 17.8 18.343 C 19.5 16.743 21.7 15.843 24 15.843 C 26.3 15.843 28.5 16.743 30.2 18.343 C 31.8 20.043 32.7 22.243 32.7 24.543 C 32.7 26.843 31.8 29.043 30.2 30.743 C 28.5 32.343 26.3 33.243 24 33.243 C 21.7 33.243 19.5 32.343 17.8 30.743 C 16.2 29.043 15.3 26.843 15.3 24.543 Z  M 16.7 24.543 C 16.7 22.643 17.4 20.743 18.8 19.343 C 20.2 17.943 22.1 17.243 24 17.243 C 25.9 17.243 27.8 17.943 29.2 19.343 C 30.6 20.743 31.3 22.643 31.3 24.543 C 31.3 26.443 30.6 28.343 29.2 29.743 C 27.8 31.143 25.9 31.843 24 31.843 C 22.1 31.843 20.2 31.143 18.8 29.743 C 17.4 28.343 16.7 26.443 16.7 24.543 Z " fill-rule="evenodd" fill="rgb(41,182,246)"/></g></g></g></svg>