<?xml version="1.0" standalone="no"?><!-- Generator: Gravit.io --><svg xmlns="http://www.w3.org/2000/svg" xmlns:xlink="http://www.w3.org/1999/xlink" style="isolation:isolate" viewBox="0 0 48 48" width="48" height="48"><defs><clipPath id="_clipPath_a0W45x9DDetdBG99yLzjlHV1kGuXssSL"><rect width="48" height="48"/></clipPath></defs><g clip-path="url(#_clipPath_a0W45x9DDetdBG99yLzjlHV1kGuXssSL)"><g style="isolation:isolate" id="Design"><path d="M 18 3 L 30 3 C 38.831 3 46 10.169 46 19 L 46 31 C 46 39.831 38.831 47 30 47 L 18 47 C 9.169 47 2 39.831 2 31 L 2 19 C 2 10.169 9.169 3 18 3 Z" style="stroke:none;fill:#000000;stroke-miterlimit:10;opacity:0.15;"/><defs><linearGradient id="_lgradient_1" x1="0.5021622141072459" y1="0.12538439361906595" x2="0.4999519507976164" y2="1.0194359023640207"><stop offset="2.1739130434782608%" style="stop-color:#F44336"/><stop offset="97.82608695652173%" style="stop-color:#C62828"/></linearGradient></defs><path d="M 18 2 L 30 2 C 38.831 2 46 9.169 46 18 L 46 30 C 46 38.831 38.831 46 30 46 L 18 46 C 9.169 46 2 38.831 2 30 L 2 18 C 2 9.169 9.169 2 18 2 Z" style="stroke:none;fill:url(#_lgradient_1);stroke-miterlimit:10;"/><g id="Group"><path d=" M 16.03 35.6 L 12 35.6 L 15 14.6 L 20.536 14.6 L 24 20.6 L 27.464 14.6 L 33 14.6 L 36 35.6 L 31.28 35.6 L 30.542 34.322 L 26.084 26.6 L 21.626 34.322 L 21.345 34.807 L 18.916 30.6 L 16.03 35.6 Z " fill="rgb(0,0,0)" fill-opacity="0.15"/><path d=" M 16.03 34.4 L 12.18 34.44 L 15.103 13.4 L 20.536 13.4 L 24 19.4 L 27.464 13.4 L 32.899 13.379 L 35.79 34.403 L 31.28 34.4 L 30.542 33.122 L 26.084 25.4 L 21.626 33.122 L 21.345 33.607 L 18.916 29.4 L 16.03 34.4 Z " fill="rgb(255,255,255)"/><path d=" M 16.03 35 L 12 35 L 15 14 L 20.536 14 L 24 20 L 27.464 14 L 33 14 L 36 35 L 31.28 35 L 30.542 33.722 L 26.084 26 L 21.626 33.722 L 21.345 34.207 L 18.916 30 L 16.03 35 Z " fill="rgb(235,235,235)"/></g></g></g></svg>