<?xml version="1.0" standalone="no"?><!-- Generator: Gravit.io --><svg xmlns="http://www.w3.org/2000/svg" xmlns:xlink="http://www.w3.org/1999/xlink" style="isolation:isolate" viewBox="0 0 48 48" width="48" height="48"><defs><clipPath id="_clipPath_j7s3Sq5r1pAf18D3eBpbRR0HW3a2oByU"><rect width="48" height="48"/></clipPath></defs><g clip-path="url(#_clipPath_j7s3Sq5r1pAf18D3eBpbRR0HW3a2oByU)"><g style="isolation:isolate" id="Design"><path d="M 18 3 L 30 3 C 38.831 3 46 10.169 46 19 L 46 31 C 46 39.831 38.831 47 30 47 L 18 47 C 9.169 47 2 39.831 2 31 L 2 19 C 2 10.169 9.169 3 18 3 Z" style="stroke:none;fill:#000000;stroke-miterlimit:10;opacity:0.15;"/><defs><linearGradient id="_lgradient_6" x1="0.5" y1="0.13013859525487437" x2="0.5" y2="1"><stop offset="2.608695652173913%" style="stop-color:#81C784"/><stop offset="100%" style="stop-color:#00BCD4"/></linearGradient></defs><path d="M 18 2 L 30 2 C 38.831 2 46 9.169 46 18 L 46 30 C 46 38.831 38.831 46 30 46 L 18 46 C 9.169 46 2 38.831 2 30 L 2 18 C 2 9.169 9.169 2 18 2 Z" style="stroke:none;fill:url(#_lgradient_6);stroke-miterlimit:10;"/><g id="mailspring"><path d=" M 27.445 25.184 L 34.166 33.728 L 14.005 33.728 L 20.751 25.153 L 24.085 28.432 L 27.445 25.184 L 27.445 25.184 Z  M 24.085 26.381 L 14.005 16.472 L 34.166 16.472 L 24.085 26.381 Z  M 28.613 24.502 L 35.02 17.839 L 35.02 32.361 L 28.613 24.502 Z  M 19.472 24.246 L 12.98 32.361 L 12.98 17.839 L 19.472 24.246 Z " fill-rule="evenodd" fill="rgb(0,0,0)" fill-opacity="0.15"/><path d=" M 27.445 23.984 L 34.166 32.528 L 14.005 32.528 L 20.751 23.953 L 24.085 27.232 L 27.445 23.984 L 27.445 23.984 Z  M 24.085 25.181 L 14.005 15.272 L 34.166 15.272 L 24.085 25.181 Z  M 28.613 23.302 L 35.02 16.639 L 35.02 31.161 L 28.613 23.302 Z  M 19.472 23.046 L 12.98 31.161 L 12.98 16.639 L 19.472 23.046 Z " fill-rule="evenodd" fill="rgb(255,255,255)"/><path d=" M 27.445 24.589 L 34.166 33.133 L 14.005 33.133 L 20.751 24.558 L 24.085 27.837 L 27.445 24.589 L 27.445 24.589 Z  M 24.085 25.786 L 14.005 15.877 L 34.166 15.877 L 24.085 25.786 Z  M 28.613 23.907 L 35.02 17.244 L 35.02 31.766 L 28.613 23.907 Z  M 19.472 23.651 L 12.98 31.766 L 12.98 17.244 L 19.472 23.651 Z " fill-rule="evenodd" fill="rgb(247,247,247)"/></g></g></g></svg>