<?xml version="1.0" standalone="no"?><!-- Generator: Gravit.io --><svg xmlns="http://www.w3.org/2000/svg" xmlns:xlink="http://www.w3.org/1999/xlink" style="isolation:isolate" viewBox="0 0 48 48" width="48" height="48"><defs><clipPath id="_clipPath_uL99jrGjiB9DAkUzyCPhsUnVFrbXe0P1"><rect width="48" height="48"/></clipPath></defs><g clip-path="url(#_clipPath_uL99jrGjiB9DAkUzyCPhsUnVFrbXe0P1)"><g style="isolation:isolate" id="Design"><path d="M 18 3 L 30 3 C 38.831 3 46 10.169 46 19 L 46 31 C 46 39.831 38.831 47 30 47 L 18 47 C 9.169 47 2 39.831 2 31 L 2 19 C 2 10.169 9.169 3 18 3 Z" style="stroke:none;fill:#000000;stroke-miterlimit:10;opacity:0.15;"/><defs><linearGradient id="_lgradient_7" x1="0.5009654062751409" y1="0.15341914722445704" x2="0.5009654062751409" y2="0.9913917940466614"><stop offset="0%" style="stop-color:#E91E63"/><stop offset="100%" style="stop-color:#C2185B"/></linearGradient></defs><path d="M 18 2 L 30 2 C 38.831 2 46 9.169 46 18 L 46 30 C 46 38.831 38.831 46 30 46 L 18 46 C 9.169 46 2 38.831 2 30 L 2 18 C 2 9.169 9.169 2 18 2 Z" style="stroke:none;fill:url(#_lgradient_7);stroke-miterlimit:10;"/><clipPath id="_clipPath_EfFtwFOqx3XUfOAeOhREvhmBWyncCkvh"><path d="M 18 2 L 30 2 C 38.831 2 46 9.169 46 18 L 46 30 C 46 38.831 38.831 46 30 46 L 18 46 C 9.169 46 2 38.831 2 30 L 2 18 C 2 9.169 9.169 2 18 2 Z" style="stroke:black;fill:white;stroke-miterlimit:10;"/></clipPath><g clip-path="url(#_clipPath_EfFtwFOqx3XUfOAeOhREvhmBWyncCkvh)"><path d=" M 47.895 2.049 C 47.1 8.414 42.57 14.095 35.942 14.095 C 29.314 14.095 27.523 28.421 20.895 35.049 C 14.268 41.677 8.75 42.862 1.895 40.049 Q -4.99 37.224 -8.105 23.049 L -5.105 6.049 L 20.895 -3.951 Q 49.684 -12.253 47.895 2.049 Z " fill="rgb(236,64,122)"/></g><g id="preferences-system Atalho"><g opacity="0.3"><path d=" M 13.8 35.975 C 12.74 35.975 11.888 35.122 11.888 34.063 L 11.888 14.938 C 11.888 13.878 12.74 13.025 13.8 13.025 C 14.86 13.025 15.712 13.878 15.712 14.938 L 15.712 34.063 C 15.712 35.122 14.86 35.975 13.8 35.975 Z " fill="rgb(0,0,0)"/></g><g opacity="0.2"><path d=" M 17.625 29.6 C 17.625 31.712 15.912 33.425 13.8 33.425 C 11.688 33.425 9.975 31.712 9.975 29.6 C 9.975 27.488 11.688 25.775 13.8 25.775 C 15.912 25.775 17.625 27.488 17.625 29.6 Z " fill="rgb(0,0,0)"/></g><path d=" M 17.625 28.963 C 17.625 31.075 15.912 32.788 13.8 32.788 C 11.688 32.788 9.975 31.075 9.975 28.963 C 9.975 26.85 11.688 25.138 13.8 25.138 C 15.912 25.138 17.625 26.85 17.625 28.963 Z " fill="rgb(255,255,255)"/><g opacity="0.3"><path d=" M 34.2 35.975 C 33.14 35.975 32.288 35.122 32.288 34.063 L 32.288 14.938 C 32.288 13.878 33.14 13.025 34.2 13.025 C 35.26 13.025 36.113 13.878 36.113 14.938 L 36.113 34.063 C 36.113 35.122 35.26 35.975 34.2 35.975 Z " fill="rgb(0,0,0)"/></g><g opacity="0.2"><path d=" M 38.025 25.775 C 38.025 27.887 36.312 29.6 34.2 29.6 C 32.088 29.6 30.375 27.887 30.375 25.775 C 30.375 23.663 32.088 21.95 34.2 21.95 C 36.312 21.95 38.025 23.663 38.025 25.775 Z " fill="rgb(0,0,0)"/></g><path d=" M 38.025 25.138 C 38.025 27.25 36.312 28.963 34.2 28.963 C 32.088 28.963 30.375 27.25 30.375 25.138 C 30.375 23.025 32.088 21.313 34.2 21.313 C 36.312 21.313 38.025 23.025 38.025 25.138 Z " fill="rgb(255,255,255)"/><g opacity="0.3"><path d=" M 24 35.975 C 22.94 35.975 22.088 35.122 22.088 34.063 L 22.088 14.938 C 22.088 13.878 22.94 13.025 24 13.025 C 25.06 13.025 25.912 13.878 25.912 14.938 L 25.912 34.063 C 25.912 35.122 25.06 35.975 24 35.975 Z " fill="rgb(0,0,0)"/></g><g opacity="0.2"><path d=" M 27.825 20.675 C 27.825 22.787 26.112 24.5 24 24.5 C 21.888 24.5 20.175 22.787 20.175 20.675 C 20.175 18.563 21.888 16.85 24 16.85 C 26.112 16.85 27.825 18.563 27.825 20.675 Z " fill="rgb(0,0,0)"/></g><path d=" M 27.825 20.038 C 27.825 22.15 26.112 23.863 24 23.863 C 21.888 23.863 20.175 22.15 20.175 20.038 C 20.175 17.925 21.888 16.213 24 16.213 C 26.112 16.213 27.825 17.925 27.825 20.038 Z " fill="rgb(255,255,255)"/></g></g></g></svg>