<?xml version="1.0" standalone="no"?><!-- Generator: Gravit.io --><svg xmlns="http://www.w3.org/2000/svg" xmlns:xlink="http://www.w3.org/1999/xlink" style="isolation:isolate" viewBox="0 0 48 48" width="48" height="48"><defs><clipPath id="_clipPath_WUblYHdvqm0iWCxZOHjHSWWH9myADlsO"><rect width="48" height="48"/></clipPath></defs><g clip-path="url(#_clipPath_WUblYHdvqm0iWCxZOHjHSWWH9myADlsO)"><g style="isolation:isolate" id="Design"><path d="M 18 3 L 30 3 C 38.831 3 46 10.169 46 19 L 46 31 C 46 39.831 38.831 47 30 47 L 18 47 C 9.169 47 2 39.831 2 31 L 2 19 C 2 10.169 9.169 3 18 3 Z" style="stroke:none;fill:#000000;stroke-miterlimit:10;opacity:0.15;"/><defs><linearGradient id="_lgradient_66" x1="0.5042283298097254" y1="0.14904862579281175" x2="0.5042283298097254" y2="1"><stop offset="0%" style="stop-color:#90CAF9"/><stop offset="100%" style="stop-color:#2196F3"/></linearGradient></defs><path d="M 18 2 L 30 2 C 38.831 2 46 9.169 46 18 L 46 30 C 46 38.831 38.831 46 30 46 L 18 46 C 9.169 46 2 38.831 2 30 L 2 18 C 2 9.169 9.169 2 18 2 Z" style="stroke:none;fill:url(#_lgradient_66);stroke-miterlimit:10;"/><g id="Group"><path d=" M 27.937 31.616 L 30.047 31.616 L 24.937 18.584 L 23.062 18.584 L 17.953 31.616 L 20.062 31.616 L 21.187 28.615 L 26.812 28.615 L 27.937 31.616 Z  M 32.016 15.115 C 33.093 15.115 33.985 16.006 33.985 17.084 L 33.985 33.116 C 33.985 34.193 33.093 35.085 32.016 35.085 L 15.984 35.085 C 14.906 35.085 14.015 34.193 14.015 33.116 L 14.015 17.084 C 14.015 16.006 14.906 15.115 15.984 15.115 L 32.016 15.115 Z  M 21.937 26.599 L 24.001 21.068 L 26.063 26.599 L 21.938 26.599 L 21.937 26.599 Z " fill="rgb(0,0,0)" fill-opacity="0.15"/><path d=" M 27.937 30.416 L 30.047 30.416 L 24.937 17.384 L 23.062 17.384 L 17.953 30.416 L 20.062 30.416 L 21.187 27.415 L 26.812 27.415 L 27.937 30.416 Z  M 32.016 13.915 C 33.093 13.915 33.985 14.806 33.985 15.884 L 33.985 31.916 C 33.985 32.993 33.093 33.885 32.016 33.885 L 15.984 33.885 C 14.906 33.885 14.015 32.993 14.015 31.916 L 14.015 15.884 C 14.015 14.806 14.906 13.915 15.984 13.915 L 32.016 13.915 Z  M 21.937 25.399 L 24.001 19.868 L 26.063 25.399 L 21.938 25.399 L 21.937 25.399 Z " fill="rgb(255,255,255)"/><path d=" M 27.937 31.017 L 30.047 31.017 L 24.937 17.985 L 23.062 17.985 L 17.953 31.017 L 20.062 31.017 L 21.187 28.016 L 26.812 28.016 L 27.937 31.017 Z  M 32.016 14.516 C 33.093 14.516 33.985 15.407 33.985 16.485 L 33.985 32.517 C 33.985 33.594 33.093 34.486 32.016 34.486 L 15.984 34.486 C 14.906 34.486 14.015 33.594 14.015 32.517 L 14.015 16.485 C 14.015 15.407 14.906 14.516 15.984 14.516 L 32.016 14.516 Z  M 21.937 26 L 24.001 20.469 L 26.063 26 L 21.938 26 L 21.937 26 Z " fill-rule="evenodd" fill="rgb(247,247,247)"/></g></g></g></svg>