<?xml version="1.0" standalone="no"?><!-- Generator: Gravit.io --><svg xmlns="http://www.w3.org/2000/svg" xmlns:xlink="http://www.w3.org/1999/xlink" style="isolation:isolate" viewBox="0 0 48 48" width="48" height="48"><defs><clipPath id="_clipPath_AkEnjNeH37pFvPCpLjnMDjkfHqbe4vT6"><rect width="48" height="48"/></clipPath></defs><g clip-path="url(#_clipPath_AkEnjNeH37pFvPCpLjnMDjkfHqbe4vT6)"><g style="isolation:isolate" id="Design"><path d="M 18 3 L 30 3 C 38.831 3 46 10.169 46 19 L 46 31 C 46 39.831 38.831 47 30 47 L 18 47 C 9.169 47 2 39.831 2 31 L 2 19 C 2 10.169 9.169 3 18 3 Z" style="stroke:none;fill:#000000;stroke-miterlimit:10;opacity:0.15;"/><defs><radialGradient id="_rgradient_0" fx="50%" fy="50%" cx="50%" cy="50%" r="50%"><stop offset="0%" style="stop-color:#F9ED3A"/><stop offset="100%" style="stop-color:#88C542"/></radialGradient></defs><path d="M 18 2 L 30 2 C 38.831 2 46 9.169 46 18 L 46 30 C 46 38.831 38.831 46 30 46 L 18 46 C 9.169 46 2 38.831 2 30 L 2 18 C 2 9.169 9.169 2 18 2 Z" style="stroke:none;fill:url(#_rgradient_0);stroke-miterlimit:10;"/><g id="preferences-desktop-font-copy"><path d=" M 14.051 19.269 C 14.051 18.953 13.929 18.732 13.685 18.606 C 13.44 18.48 13.003 18.362 12.372 18.251 C 12.261 18.22 12.194 18.176 12.17 18.121 C 12.147 18.066 12.135 17.975 12.135 17.849 C 12.135 17.754 12.151 17.628 12.182 17.47 C 12.703 17.502 13.208 17.53 13.696 17.553 C 14.185 17.577 14.651 17.589 15.092 17.589 L 19.777 17.589 C 20.392 17.589 20.976 17.565 21.528 17.518 C 22.08 17.47 22.458 17.447 22.663 17.447 C 22.853 17.447 22.987 17.577 23.065 17.837 C 23.144 18.097 23.207 18.409 23.255 18.772 C 23.302 19.135 23.357 19.517 23.42 19.919 C 23.483 20.321 23.594 20.672 23.752 20.972 C 23.704 21.035 23.641 21.078 23.562 21.102 C 23.483 21.126 23.405 21.138 23.326 21.138 C 23.136 21.138 23.01 21.067 22.947 20.925 C 22.758 20.499 22.573 20.136 22.391 19.836 C 22.21 19.537 22.005 19.292 21.776 19.103 C 21.547 18.914 21.275 18.776 20.96 18.689 C 20.644 18.602 20.25 18.559 19.777 18.559 L 16.275 18.559 L 16.275 24.852 L 19.801 24.852 C 20.116 24.852 20.341 24.698 20.475 24.391 C 20.609 24.083 20.715 23.716 20.794 23.291 C 20.842 23.086 20.983 22.983 21.22 22.983 C 21.346 22.983 21.472 22.999 21.599 23.03 C 21.567 23.377 21.539 23.776 21.516 24.225 C 21.492 24.675 21.48 25.065 21.48 25.396 C 21.48 25.664 21.488 25.988 21.504 26.366 C 21.52 26.745 21.551 27.179 21.599 27.668 C 21.472 27.699 21.354 27.715 21.244 27.715 C 21.118 27.715 21.015 27.695 20.936 27.656 C 20.857 27.616 20.81 27.533 20.794 27.407 C 20.731 26.997 20.629 26.634 20.487 26.319 C 20.345 26.004 20.116 25.846 19.801 25.846 L 16.275 25.846 L 16.275 31.335 C 16.275 31.65 16.476 31.867 16.879 31.985 C 17.281 32.104 17.774 32.202 18.357 32.281 C 18.547 32.297 18.641 32.431 18.641 32.683 C 18.641 32.794 18.625 32.928 18.594 33.085 C 18.263 33.07 17.908 33.054 17.529 33.038 C 17.214 33.022 16.847 33.007 16.429 32.991 C 16.011 32.975 15.573 32.967 15.116 32.967 C 14.69 32.967 14.209 32.979 13.673 33.003 C 13.137 33.026 12.64 33.054 12.182 33.085 C 12.151 32.928 12.135 32.802 12.135 32.707 C 12.135 32.47 12.214 32.344 12.372 32.328 C 12.892 32.202 13.302 32.08 13.602 31.962 C 13.902 31.843 14.051 31.626 14.051 31.311 L 14.051 19.269 Z  M 25.313 27.975 C 25.313 27.25 25.451 26.563 25.727 25.917 C 26.003 25.27 26.378 24.71 26.851 24.237 C 27.324 23.764 27.88 23.389 28.519 23.113 C 29.158 22.837 29.848 22.699 30.589 22.699 C 31.362 22.699 32.072 22.829 32.718 23.09 C 33.365 23.35 33.921 23.709 34.386 24.166 C 34.852 24.623 35.214 25.179 35.475 25.834 C 35.735 26.489 35.865 27.202 35.865 27.975 C 35.865 28.716 35.727 29.406 35.451 30.045 C 35.175 30.684 34.8 31.24 34.327 31.713 C 33.854 32.186 33.298 32.561 32.659 32.837 C 32.02 33.113 31.33 33.251 30.589 33.251 C 29.816 33.251 29.106 33.121 28.46 32.861 C 27.813 32.6 27.257 32.242 26.792 31.784 C 26.326 31.327 25.964 30.775 25.703 30.128 C 25.443 29.481 25.313 28.764 25.313 27.975 Z  M 27.537 27.194 C 27.537 27.778 27.6 28.377 27.726 28.992 C 27.852 29.608 28.046 30.164 28.306 30.66 C 28.566 31.157 28.901 31.567 29.311 31.891 C 29.722 32.214 30.218 32.376 30.802 32.376 C 31.701 32.376 32.399 32.06 32.896 31.429 C 33.393 30.798 33.641 29.986 33.641 28.992 C 33.641 28.409 33.582 27.798 33.464 27.159 C 33.345 26.52 33.156 25.936 32.896 25.408 C 32.636 24.88 32.296 24.442 31.878 24.095 C 31.46 23.748 30.944 23.575 30.329 23.575 C 29.493 23.575 28.819 23.862 28.306 24.438 C 27.793 25.014 27.537 25.933 27.537 27.194 Z " fill-rule="evenodd" fill="rgb(0,0,0)" fill-opacity="0.15"/><path d=" M 14.051 17.571 C 14.051 17.255 13.929 17.034 13.685 16.908 C 13.44 16.782 13.003 16.664 12.372 16.553 C 12.261 16.522 12.194 16.478 12.17 16.423 C 12.147 16.368 12.135 16.277 12.135 16.151 C 12.135 16.057 12.151 15.93 12.182 15.773 C 12.703 15.804 13.208 15.832 13.696 15.855 C 14.185 15.879 14.651 15.891 15.092 15.891 L 19.777 15.891 C 20.392 15.891 20.976 15.867 21.528 15.82 C 22.08 15.773 22.458 15.749 22.663 15.749 C 22.853 15.749 22.987 15.879 23.065 16.139 C 23.144 16.4 23.207 16.711 23.255 17.074 C 23.302 17.437 23.357 17.819 23.42 18.221 C 23.483 18.624 23.594 18.974 23.752 19.274 C 23.704 19.337 23.641 19.381 23.562 19.404 C 23.483 19.428 23.405 19.44 23.326 19.44 C 23.136 19.44 23.01 19.369 22.947 19.227 C 22.758 18.801 22.573 18.438 22.391 18.139 C 22.21 17.839 22.005 17.594 21.776 17.405 C 21.547 17.216 21.275 17.078 20.96 16.991 C 20.644 16.904 20.25 16.861 19.777 16.861 L 16.275 16.861 L 16.275 23.154 L 19.801 23.154 C 20.116 23.154 20.341 23 20.475 22.693 C 20.609 22.385 20.715 22.019 20.794 21.593 C 20.842 21.388 20.983 21.285 21.22 21.285 C 21.346 21.285 21.472 21.301 21.599 21.332 C 21.567 21.679 21.539 22.078 21.516 22.527 C 21.492 22.977 21.48 23.367 21.48 23.698 C 21.48 23.967 21.488 24.29 21.504 24.668 C 21.52 25.047 21.551 25.481 21.599 25.97 C 21.472 26.001 21.354 26.017 21.244 26.017 C 21.118 26.017 21.015 25.997 20.936 25.958 C 20.857 25.918 20.81 25.836 20.794 25.709 C 20.731 25.299 20.629 24.937 20.487 24.621 C 20.345 24.306 20.116 24.148 19.801 24.148 L 16.275 24.148 L 16.275 29.637 C 16.275 29.952 16.476 30.169 16.879 30.287 C 17.281 30.406 17.774 30.504 18.357 30.583 C 18.547 30.599 18.641 30.733 18.641 30.985 C 18.641 31.096 18.625 31.23 18.594 31.388 C 18.263 31.372 17.908 31.356 17.529 31.34 C 17.214 31.324 16.847 31.309 16.429 31.293 C 16.011 31.277 15.573 31.269 15.116 31.269 C 14.69 31.269 14.209 31.281 13.673 31.305 C 13.137 31.328 12.64 31.356 12.182 31.388 C 12.151 31.23 12.135 31.104 12.135 31.009 C 12.135 30.772 12.214 30.646 12.372 30.63 C 12.892 30.504 13.302 30.382 13.602 30.264 C 13.902 30.145 14.051 29.929 14.051 29.613 L 14.051 17.571 Z  M 25.313 26.277 C 25.313 25.552 25.451 24.866 25.727 24.219 C 26.003 23.572 26.378 23.012 26.851 22.539 C 27.324 22.066 27.88 21.691 28.519 21.415 C 29.158 21.139 29.848 21.001 30.589 21.001 C 31.362 21.001 32.072 21.131 32.718 21.392 C 33.365 21.652 33.921 22.011 34.386 22.468 C 34.852 22.926 35.214 23.481 35.475 24.136 C 35.735 24.791 35.865 25.504 35.865 26.277 C 35.865 27.019 35.727 27.709 35.451 28.347 C 35.175 28.986 34.8 29.542 34.327 30.015 C 33.854 30.489 33.298 30.863 32.659 31.139 C 32.02 31.415 31.33 31.553 30.589 31.553 C 29.816 31.553 29.106 31.423 28.46 31.163 C 27.813 30.903 27.257 30.544 26.792 30.086 C 26.326 29.629 25.964 29.077 25.703 28.43 C 25.443 27.783 25.313 27.066 25.313 26.277 Z  M 27.537 25.496 C 27.537 26.08 27.6 26.679 27.726 27.295 C 27.852 27.91 28.046 28.466 28.306 28.963 C 28.566 29.459 28.901 29.869 29.311 30.193 C 29.722 30.516 30.218 30.678 30.802 30.678 C 31.701 30.678 32.399 30.362 32.896 29.731 C 33.393 29.101 33.641 28.288 33.641 27.295 C 33.641 26.711 33.582 26.1 33.464 25.461 C 33.345 24.822 33.156 24.239 32.896 23.71 C 32.636 23.182 32.296 22.744 31.878 22.397 C 31.46 22.05 30.944 21.877 30.329 21.877 C 29.493 21.877 28.819 22.164 28.306 22.74 C 27.793 23.316 27.537 24.235 27.537 25.496 Z " fill-rule="evenodd" fill="rgb(255,255,255)"/><path d=" M 14.051 18.269 C 14.051 17.953 13.929 17.732 13.685 17.606 C 13.44 17.48 13.003 17.362 12.372 17.251 C 12.261 17.22 12.194 17.176 12.17 17.121 C 12.147 17.066 12.135 16.975 12.135 16.849 C 12.135 16.754 12.151 16.628 12.182 16.47 C 12.703 16.502 13.208 16.53 13.696 16.553 C 14.185 16.577 14.651 16.589 15.092 16.589 L 19.777 16.589 C 20.392 16.589 20.976 16.565 21.528 16.518 C 22.08 16.47 22.458 16.447 22.663 16.447 C 22.853 16.447 22.987 16.577 23.065 16.837 C 23.144 17.097 23.207 17.409 23.255 17.772 C 23.302 18.135 23.357 18.517 23.42 18.919 C 23.483 19.321 23.594 19.672 23.752 19.972 C 23.704 20.035 23.641 20.078 23.562 20.102 C 23.483 20.126 23.405 20.138 23.326 20.138 C 23.136 20.138 23.01 20.067 22.947 19.925 C 22.758 19.499 22.573 19.136 22.391 18.836 C 22.21 18.537 22.005 18.292 21.776 18.103 C 21.547 17.914 21.275 17.776 20.96 17.689 C 20.644 17.602 20.25 17.559 19.777 17.559 L 16.275 17.559 L 16.275 23.852 L 19.801 23.852 C 20.116 23.852 20.341 23.698 20.475 23.391 C 20.609 23.083 20.715 22.716 20.794 22.291 C 20.842 22.086 20.983 21.983 21.22 21.983 C 21.346 21.983 21.472 21.999 21.599 22.03 C 21.567 22.377 21.539 22.776 21.516 23.225 C 21.492 23.675 21.48 24.065 21.48 24.396 C 21.48 24.664 21.488 24.988 21.504 25.366 C 21.52 25.745 21.551 26.179 21.599 26.668 C 21.472 26.699 21.354 26.715 21.244 26.715 C 21.118 26.715 21.015 26.695 20.936 26.656 C 20.857 26.616 20.81 26.533 20.794 26.407 C 20.731 25.997 20.629 25.634 20.487 25.319 C 20.345 25.004 20.116 24.846 19.801 24.846 L 16.275 24.846 L 16.275 30.335 C 16.275 30.65 16.476 30.867 16.879 30.985 C 17.281 31.104 17.774 31.202 18.357 31.281 C 18.547 31.297 18.641 31.431 18.641 31.683 C 18.641 31.794 18.625 31.928 18.594 32.085 C 18.263 32.07 17.908 32.054 17.529 32.038 C 17.214 32.022 16.847 32.007 16.429 31.991 C 16.011 31.975 15.573 31.967 15.116 31.967 C 14.69 31.967 14.209 31.979 13.673 32.003 C 13.137 32.026 12.64 32.054 12.182 32.085 C 12.151 31.928 12.135 31.802 12.135 31.707 C 12.135 31.47 12.214 31.344 12.372 31.328 C 12.892 31.202 13.302 31.08 13.602 30.962 C 13.902 30.843 14.051 30.626 14.051 30.311 L 14.051 18.269 Z  M 25.313 26.975 C 25.313 26.25 25.451 25.563 25.727 24.917 C 26.003 24.27 26.378 23.71 26.851 23.237 C 27.324 22.764 27.88 22.389 28.519 22.113 C 29.158 21.837 29.848 21.699 30.589 21.699 C 31.362 21.699 32.072 21.829 32.718 22.09 C 33.365 22.35 33.921 22.709 34.386 23.166 C 34.852 23.623 35.214 24.179 35.475 24.834 C 35.735 25.489 35.865 26.202 35.865 26.975 C 35.865 27.716 35.727 28.406 35.451 29.045 C 35.175 29.684 34.8 30.24 34.327 30.713 C 33.854 31.186 33.298 31.561 32.659 31.837 C 32.02 32.113 31.33 32.251 30.589 32.251 C 29.816 32.251 29.106 32.121 28.46 31.861 C 27.813 31.6 27.257 31.242 26.792 30.784 C 26.326 30.327 25.964 29.775 25.703 29.128 C 25.443 28.481 25.313 27.764 25.313 26.975 Z  M 27.537 26.194 C 27.537 26.778 27.6 27.377 27.726 27.992 C 27.852 28.608 28.046 29.164 28.306 29.66 C 28.566 30.157 28.901 30.567 29.311 30.891 C 29.722 31.214 30.218 31.376 30.802 31.376 C 31.701 31.376 32.399 31.06 32.896 30.429 C 33.393 29.798 33.641 28.986 33.641 27.992 C 33.641 27.409 33.582 26.798 33.464 26.159 C 33.345 25.52 33.156 24.936 32.896 24.408 C 32.636 23.88 32.296 23.442 31.878 23.095 C 31.46 22.748 30.944 22.575 30.329 22.575 C 29.493 22.575 28.819 22.862 28.306 23.438 C 27.793 24.014 27.537 24.933 27.537 26.194 Z " fill-rule="evenodd" fill="rgb(247,247,247)"/></g></g></g></svg>