<?xml version="1.0" standalone="no"?><!-- Generator: Gravit.io --><svg xmlns="http://www.w3.org/2000/svg" xmlns:xlink="http://www.w3.org/1999/xlink" style="isolation:isolate" viewBox="0 0 48 48" width="48" height="48"><defs><clipPath id="_clipPath_SJWUy3iLBykygedjXzgTaKa507kpbynH"><rect width="48" height="48"/></clipPath></defs><g clip-path="url(#_clipPath_SJWUy3iLBykygedjXzgTaKa507kpbynH)"><g style="isolation:isolate" id="Design"><path d="M 18 3 L 30 3 C 38.831 3 46 10.169 46 19 L 46 31 C 46 39.831 38.831 47 30 47 L 18 47 C 9.169 47 2 39.831 2 31 L 2 19 C 2 10.169 9.169 3 18 3 Z" style="stroke:none;fill:#000000;stroke-miterlimit:10;opacity:0.15;"/><defs><linearGradient id="_lgradient_0" x1="0.5009654062751409" y1="0.15341914722445704" x2="0.5009654062751409" y2="0.9913917940466614"><stop offset="0%" style="stop-color:#E91E63"/><stop offset="100%" style="stop-color:#C2185B"/></linearGradient></defs><path d="M 18 2 L 30 2 C 38.831 2 46 9.169 46 18 L 46 30 C 46 38.831 38.831 46 30 46 L 18 46 C 9.169 46 2 38.831 2 30 L 2 18 C 2 9.169 9.169 2 18 2 Z" style="stroke:none;fill:url(#_lgradient_0);stroke-miterlimit:10;"/><clipPath id="_clipPath_xet1PM6rCrXJ1r7izn4lYuctVrqLjPME"><path d="M 18 2 L 30 2 C 38.831 2 46 9.169 46 18 L 46 30 C 46 38.831 38.831 46 30 46 L 18 46 C 9.169 46 2 38.831 2 30 L 2 18 C 2 9.169 9.169 2 18 2 Z" style="stroke:black;fill:white;stroke-miterlimit:10;"/></clipPath><g clip-path="url(#_clipPath_xet1PM6rCrXJ1r7izn4lYuctVrqLjPME)"><path d=" M 47.895 2.049 C 47.1 8.414 42.57 14.095 35.942 14.095 C 29.314 14.095 27.523 28.421 20.895 35.049 C 14.268 41.677 8.75 42.862 1.895 40.049 Q -4.99 37.224 -8.105 23.049 L -5.105 6.049 L 20.895 -3.951 Q 49.684 -12.253 47.895 2.049 Z " fill="rgb(236,64,122)"/></g><g id="preferences-system Atalho"><g opacity="0.3"><path d=" M 13.8 13.025 C 12.74 13.025 11.888 13.878 11.888 14.937 L 11.888 34.063 C 11.888 35.122 12.74 35.975 13.8 35.975 C 14.86 35.975 15.712 35.122 15.712 34.063 L 15.712 14.937 C 15.712 13.878 14.86 13.025 13.8 13.025 Z " fill="rgb(0,0,0)"/></g><g opacity="0.2"><path d=" M 17.625 20.038 C 17.625 22.15 15.912 23.863 13.8 23.863 C 11.688 23.863 9.975 22.15 9.975 20.038 C 9.975 17.925 11.688 16.212 13.8 16.212 C 15.912 16.212 17.625 17.925 17.625 20.038 Z " fill="rgb(0,0,0)"/></g><path d=" M 17.625 19.4 C 17.625 21.512 15.912 23.225 13.8 23.225 C 11.688 23.225 9.975 21.512 9.975 19.4 C 9.975 17.288 11.688 15.575 13.8 15.575 C 15.912 15.575 17.625 17.288 17.625 19.4 Z " fill="rgb(255,255,255)"/><g opacity="0.3"><path d=" M 34.2 13.025 C 33.14 13.025 32.288 13.878 32.288 14.937 L 32.288 34.063 C 32.288 35.122 33.14 35.975 34.2 35.975 C 35.26 35.975 36.113 35.122 36.113 34.063 L 36.113 14.937 C 36.113 13.878 35.26 13.025 34.2 13.025 Z " fill="rgb(0,0,0)"/></g><g opacity="0.2"><path d=" M 38.025 23.863 C 38.025 25.975 36.312 27.688 34.2 27.688 C 32.088 27.688 30.375 25.975 30.375 23.863 C 30.375 21.75 32.088 20.038 34.2 20.038 C 36.312 20.038 38.025 21.75 38.025 23.863 Z " fill="rgb(0,0,0)"/></g><path d=" M 38.025 23.225 C 38.025 25.337 36.312 27.05 34.2 27.05 C 32.088 27.05 30.375 25.337 30.375 23.225 C 30.375 21.113 32.088 19.4 34.2 19.4 C 36.312 19.4 38.025 21.113 38.025 23.225 Z " fill="rgb(255,255,255)"/><g opacity="0.3"><path d=" M 24 13.025 C 22.94 13.025 22.088 13.878 22.088 14.937 L 22.088 34.063 C 22.088 35.122 22.94 35.975 24 35.975 C 25.06 35.975 25.912 35.122 25.912 34.063 L 25.912 14.937 C 25.912 13.878 25.06 13.025 24 13.025 Z " fill="rgb(0,0,0)"/></g><g opacity="0.2"><path d=" M 27.825 28.963 C 27.825 31.075 26.112 32.788 24 32.788 C 21.888 32.788 20.175 31.075 20.175 28.963 C 20.175 26.85 21.888 25.138 24 25.138 C 26.112 25.138 27.825 26.85 27.825 28.963 Z " fill="rgb(0,0,0)"/></g><path d=" M 27.825 28.325 C 27.825 30.437 26.112 32.15 24 32.15 C 21.888 32.15 20.175 30.437 20.175 28.325 C 20.175 26.213 21.888 24.5 24 24.5 C 26.112 24.5 27.825 26.213 27.825 28.325 Z " fill="rgb(255,255,255)"/></g></g></g></svg>