<?xml version="1.0" standalone="no"?><!-- Generator: Gravit.io --><svg xmlns="http://www.w3.org/2000/svg" xmlns:xlink="http://www.w3.org/1999/xlink" style="isolation:isolate" viewBox="0 0 48 48" width="48" height="48"><defs><clipPath id="_clipPath_v96XyUZoeC8c5xa1govgS87x1SYRHhcE"><rect width="48" height="48"/></clipPath></defs><g clip-path="url(#_clipPath_v96XyUZoeC8c5xa1govgS87x1SYRHhcE)"><g style="isolation:isolate" id="Design"><path d="M 18 3 L 30 3 C 38.831 3 46 10.169 46 19 L 46 31 C 46 39.831 38.831 47 30 47 L 18 47 C 9.169 47 2 39.831 2 31 L 2 19 C 2 10.169 9.169 3 18 3 Z" style="stroke:none;fill:#000000;stroke-miterlimit:10;opacity:0.15;"/><defs><linearGradient id="_lgradient_8" x1="0.5042283298097254" y1="0.14904862579281175" x2="0.5042283298097254" y2="1"><stop offset="0%" style="stop-color:#90CAF9"/><stop offset="100%" style="stop-color:#2196F3"/></linearGradient></defs><path d="M 18 2 L 30 2 C 38.831 2 46 9.169 46 18 L 46 30 C 46 38.831 38.831 46 30 46 L 18 46 C 9.169 46 2 38.831 2 30 L 2 18 C 2 9.169 9.169 2 18 2 Z" style="stroke:none;fill:url(#_lgradient_8);stroke-miterlimit:10;"/><g id="Group"><path d=" M 27.937 31.766 L 30.046 31.766 L 24.937 18.734 L 23.062 18.734 L 17.953 31.766 L 20.062 31.766 L 21.187 28.766 L 26.812 28.766 L 27.937 31.766 Z  M 32.015 15.266 C 33.093 15.266 33.984 16.157 33.984 17.235 L 33.984 33.266 C 33.984 34.344 33.093 35.235 32.015 35.235 L 15.984 35.235 C 14.906 35.235 14.015 34.344 14.015 33.266 L 14.015 17.235 C 14.015 16.157 14.906 15.266 15.984 15.266 L 32.015 15.266 Z  M 21.937 26.75 L 24 21.219 L 26.063 26.75 L 21.938 26.75 L 21.937 26.75 Z " fill="rgb(0,0,0)" fill-opacity="0.15"/><path d=" M 27.937 30.266 L 30.047 30.266 L 24.937 17.235 L 23.062 17.235 L 17.953 30.266 L 20.062 30.266 L 21.187 27.265 L 26.812 27.265 L 27.937 30.266 Z  M 32.016 13.766 C 33.093 13.766 33.985 14.657 33.985 15.734 L 33.985 31.766 C 33.985 32.843 33.093 33.735 32.016 33.735 L 15.984 33.735 C 14.906 33.735 14.015 32.843 14.015 31.766 L 14.015 15.734 C 14.015 14.657 14.906 13.766 15.984 13.766 L 32.016 13.766 Z  M 21.937 25.249 L 24.001 19.718 L 26.063 25.249 L 21.938 25.249 L 21.937 25.249 Z " fill="rgb(255,255,255)"/><path d=" M 27.937 30.981 L 30.047 30.981 L 24.937 17.95 L 23.062 17.95 L 17.953 30.981 L 20.062 30.981 L 21.187 27.981 L 26.812 27.981 L 27.937 30.981 Z  M 32.016 14.481 C 33.093 14.481 33.985 15.372 33.985 16.45 L 33.985 32.481 C 33.985 33.559 33.093 34.45 32.016 34.45 L 15.984 34.45 C 14.906 34.45 14.015 33.559 14.015 32.481 L 14.015 16.45 C 14.015 15.372 14.906 14.481 15.984 14.481 L 32.016 14.481 Z  M 21.937 25.965 L 24.001 20.434 L 26.063 25.965 L 21.938 25.965 L 21.937 25.965 Z " fill-rule="evenodd" fill="rgb(247,247,247)"/></g></g></g></svg>