<?xml version="1.0" standalone="no"?><!-- Generator: Gravit.io --><svg xmlns="http://www.w3.org/2000/svg" xmlns:xlink="http://www.w3.org/1999/xlink" style="isolation:isolate" viewBox="0 0 48 48" width="48" height="48"><defs><clipPath id="_clipPath_9DQwGIdxvo9yzrCknFKcLm4rLJkS19ts"><rect width="48" height="48"/></clipPath></defs><g clip-path="url(#_clipPath_9DQwGIdxvo9yzrCknFKcLm4rLJkS19ts)"><g style="isolation:isolate" id="Design"><path d="M 18 3 L 30 3 C 38.831 3 46 10.169 46 19 L 46 31 C 46 39.831 38.831 47 30 47 L 18 47 C 9.169 47 2 39.831 2 31 L 2 19 C 2 10.169 9.169 3 18 3 Z" style="stroke:none;fill:#000000;stroke-miterlimit:10;opacity:0.15;"/><defs><linearGradient id="_lgradient_5" x1="0.5009654062751409" y1="0.15148833467417544" x2="0.5" y2="1.0000000000000004"><stop offset="0%" style="stop-color:#4DD0E1"/><stop offset="100%" style="stop-color:#00ACC1"/></linearGradient></defs><path d="M 18 2 L 30 2 C 38.831 2 46 9.169 46 18 L 46 30 C 46 38.831 38.831 46 30 46 L 18 46 C 9.169 46 2 38.831 2 30 L 2 18 C 2 9.169 9.169 2 18 2 Z" style="stroke:none;fill:url(#_lgradient_5);stroke-miterlimit:10;"/><g id="Group"><g id="Group"><path d=" M 24 22.259 C 28.967 22.259 33 25.099 33 28.597 C 33 33.495 28.967 37.471 24 37.471 C 19.033 37.471 15 33.495 15 28.597 C 15 25.099 19.033 22.259 24 22.259 Z  M 24 33.962 C 25.433 33.962 26.705 33.204 27.462 32.096 C 27.434 30.96 25.136 30.311 24 30.311 C 22.837 30.311 20.566 30.96 20.538 32.096 C 21.296 33.205 22.567 33.962 24 33.962 Z  M 24 25.768 C 23.053 25.768 22.269 26.552 22.269 27.499 C 22.269 28.445 23.053 29.229 24 29.229 C 24.947 29.229 25.731 28.445 25.731 27.499 C 25.731 26.552 24.947 25.768 24 25.768 Z " fill-rule="evenodd" fill="rgb(0,0,0)" fill-opacity="0.15"/><path d=" M 24 20.6 C 28.967 20.6 33 23.44 33 26.938 C 33 31.835 28.967 35.811 24 35.811 C 19.033 35.811 15 31.835 15 26.938 C 15 23.44 19.033 20.6 24 20.6 Z  M 24 32.303 C 25.433 32.303 26.705 31.545 27.462 30.437 C 27.434 29.301 25.136 28.652 24 28.652 C 22.837 28.652 20.566 29.301 20.538 30.437 C 21.296 31.546 22.567 32.303 24 32.303 Z  M 24 24.109 C 23.053 24.109 22.269 24.893 22.269 25.839 C 22.269 26.786 23.053 27.57 24 27.57 C 24.947 27.57 25.731 26.786 25.731 25.839 C 25.731 24.893 24.947 24.109 24 24.109 Z " fill-rule="evenodd" fill="rgb(255,255,255)"/><path d=" M 24 21.259 C 28.967 21.259 33 24.099 33 27.597 C 33 32.495 28.967 36.471 24 36.471 C 19.033 36.471 15 32.495 15 27.597 C 15 24.099 19.033 21.259 24 21.259 Z  M 24 32.962 C 25.433 32.962 26.705 32.204 27.462 31.096 C 27.434 29.96 25.136 29.311 24 29.311 C 22.837 29.311 20.566 29.96 20.538 31.096 C 21.296 32.205 22.567 32.962 24 32.962 M 24 24.768 C 23.053 24.768 22.269 25.552 22.269 26.499 C 22.269 27.445 23.053 28.229 24 28.229 C 24.947 28.229 25.731 27.445 25.731 26.499 C 25.731 25.552 24.947 24.768 24 24.768 M 24 32.962 Z " fill-rule="evenodd" fill="rgb(247,247,247)"/></g><g id="Group"><path d=" M 19.671 20.713 L 17.769 20.713 C 17.769 16.748 20.561 13.529 24 13.529 C 27.439 13.529 30.231 16.748 30.231 20.713 L 28.398 20.713 L 28.329 20.713 C 27.959 17.631 26.161 15.875 24 15.875 C 21.839 15.875 20.041 17.631 19.671 20.713 Z " fill="rgb(0,0,0)" fill-opacity="0.15"/><path d=" M 19.671 19.084 L 17.769 19.084 C 17.769 15.119 20.561 11.9 24 11.9 C 27.439 11.9 30.231 15.119 30.231 19.084 L 28.398 19.084 L 28.329 19.084 C 27.959 16.001 26.161 14.246 24 14.246 C 21.839 14.246 20.041 16.001 19.671 19.084 Z " fill="rgb(255,255,255)"/><path d=" M 19.671 19.713 L 17.769 19.713 C 17.769 15.748 20.561 12.529 24 12.529 C 27.439 12.529 30.231 15.748 30.231 19.713 L 28.398 19.713 L 28.329 19.713 C 27.959 16.631 26.161 14.875 24 14.875 C 21.839 14.875 20.041 16.631 19.671 19.713 Z " fill="rgb(247,247,247)"/></g></g></g></g></svg>