<?xml version="1.0" standalone="no"?><!-- Generator: Gravit.io --><svg xmlns="http://www.w3.org/2000/svg" xmlns:xlink="http://www.w3.org/1999/xlink" style="isolation:isolate" viewBox="0 0 48 48" width="48" height="48"><defs><clipPath id="_clipPath_4A4xBqAuM4dCGZQp4YzGgUk7FzejZkIE"><rect width="48" height="48"/></clipPath></defs><g clip-path="url(#_clipPath_4A4xBqAuM4dCGZQp4YzGgUk7FzejZkIE)"><g style="isolation:isolate" id="Design"><path d="M 18 3 L 30 3 C 38.831 3 46 10.169 46 19 L 46 31 C 46 39.831 38.831 47 30 47 L 18 47 C 9.169 47 2 39.831 2 31 L 2 19 C 2 10.169 9.169 3 18 3 Z" style="stroke:none;fill:#000000;stroke-miterlimit:10;opacity:0.15;"/><defs><linearGradient id="_lgradient_54" x1="0.5009654062751409" y1="0.17333876885446375" x2="0.5009654062751411" y2="1.0146311722326642"><stop offset="1.3043478260869565%" style="stop-color:#64B5F6"/><stop offset="100%" style="stop-color:#2196F3"/></linearGradient></defs><path d="M 18 2 L 30 2 C 38.831 2 46 9.169 46 18 L 46 30 C 46 38.831 38.831 46 30 46 L 18 46 C 9.169 46 2 38.831 2 30 L 2 18 C 2 9.169 9.169 2 18 2 Z" style="stroke:none;fill:url(#_lgradient_54);stroke-miterlimit:10;"/><g id="Group"><path d=" M 34.22 26.636 C 34.211 26.675 34.207 26.714 34.198 26.753 L 34.16 26.529 C 34.181 26.568 34.198 26.602 34.22 26.636 C 34.332 26.018 34.392 25.386 34.392 24.754 C 34.392 23.354 34.117 21.991 33.575 20.711 C 33.051 19.473 32.303 18.36 31.349 17.407 C 30.394 16.453 29.282 15.705 28.049 15.181 C 26.768 14.639 25.406 14.364 24.005 14.364 C 23.343 14.364 22.682 14.425 22.037 14.549 C 22.037 14.549 22.033 14.549 22.033 14.549 C 22.067 14.567 22.106 14.584 22.14 14.605 L 21.921 14.571 C 21.959 14.562 21.994 14.558 22.032 14.549 C 21.148 14.081 20.155 13.828 19.149 13.828 C 17.507 13.828 15.96 14.468 14.801 15.628 C 13.641 16.789 13 18.335 13 19.977 C 13 21.021 13.271 22.052 13.773 22.959 C 13.782 22.92 13.786 22.881 13.791 22.848 L 13.829 23.067 C 13.808 23.032 13.791 22.998 13.773 22.964 C 13.67 23.552 13.619 24.154 13.619 24.755 C 13.619 26.156 13.894 27.518 14.436 28.799 C 14.96 30.036 15.707 31.145 16.661 32.099 C 17.615 33.052 18.728 33.8 19.965 34.325 C 21.246 34.866 22.608 35.141 24.008 35.141 C 24.618 35.141 25.229 35.086 25.826 34.978 C 25.792 34.956 25.757 34.939 25.719 34.922 L 25.942 34.961 C 25.904 34.969 25.864 34.974 25.826 34.978 C 26.745 35.498 27.789 35.777 28.851 35.777 C 30.492 35.777 32.039 35.137 33.199 33.977 C 34.36 32.816 35 31.269 35 29.628 C 34.996 28.584 34.725 27.553 34.218 26.638 L 34.22 26.636 Z  M 24.045 31.117 C 20.354 31.117 18.704 29.305 18.704 27.942 C 18.704 27.246 19.219 26.756 19.928 26.756 C 21.509 26.756 21.097 29.025 24.045 29.025 C 25.553 29.025 26.386 28.204 26.386 27.366 C 26.386 26.863 26.137 26.304 25.145 26.06 L 21.862 25.239 C 19.219 24.577 18.738 23.146 18.738 21.801 C 18.738 19.013 21.363 17.964 23.829 17.964 C 26.102 17.964 28.779 19.219 28.779 20.895 C 28.779 21.613 28.157 22.029 27.447 22.029 C 26.098 22.029 26.347 20.164 23.632 20.164 C 22.282 20.164 21.539 20.774 21.539 21.646 C 21.539 22.519 22.604 22.798 23.528 23.008 L 25.961 23.549 C 28.621 24.143 29.295 25.698 29.295 27.159 C 29.295 29.423 27.555 31.116 24.045 31.116 L 24.045 31.117 Z " fill-rule="evenodd" fill="rgb(0,0,0)" fill-opacity="0.15"/><path d=" M 34.22 26.031 C 34.211 26.07 34.207 26.109 34.198 26.148 L 34.16 25.924 C 34.181 25.963 34.198 25.997 34.22 26.031 C 34.332 25.413 34.392 24.781 34.392 24.149 C 34.392 22.749 34.117 21.386 33.575 20.106 C 33.051 18.868 32.303 17.755 31.349 16.802 C 30.394 15.848 29.282 15.1 28.049 14.576 C 26.768 14.035 25.406 13.76 24.005 13.76 C 23.343 13.76 22.682 13.82 22.037 13.945 C 22.037 13.945 22.033 13.945 22.033 13.945 C 22.067 13.962 22.106 13.979 22.14 14 L 21.921 13.966 C 21.959 13.958 21.994 13.953 22.032 13.945 C 21.148 13.476 20.155 13.223 19.149 13.223 C 17.507 13.223 15.96 13.863 14.801 15.023 C 13.641 16.184 13 17.73 13 19.372 C 13 20.416 13.271 21.447 13.773 22.354 C 13.782 22.316 13.786 22.276 13.791 22.243 L 13.829 22.462 C 13.808 22.428 13.791 22.393 13.773 22.359 C 13.67 22.947 13.619 23.549 13.619 24.15 C 13.619 25.552 13.894 26.914 14.435 28.194 C 14.96 29.431 15.707 30.54 16.661 31.494 C 17.614 32.447 18.728 33.195 19.965 33.72 C 21.246 34.262 22.608 34.537 24.008 34.537 C 24.618 34.537 25.229 34.481 25.826 34.373 C 25.792 34.352 25.757 34.334 25.719 34.317 L 25.942 34.356 C 25.904 34.364 25.864 34.369 25.826 34.373 C 26.745 34.893 27.789 35.172 28.851 35.172 C 30.492 35.172 32.039 34.532 33.199 33.372 C 34.36 32.211 35 30.665 35 29.023 C 34.996 27.979 34.725 26.948 34.218 26.033 L 34.22 26.031 Z  M 24.045 30.513 C 20.353 30.513 18.703 28.7 18.703 27.337 C 18.703 26.641 19.219 26.151 19.928 26.151 C 21.509 26.151 21.097 28.42 24.045 28.42 C 25.553 28.42 26.386 27.599 26.386 26.761 C 26.386 26.258 26.137 25.699 25.145 25.455 L 21.862 24.634 C 19.219 23.972 18.738 22.541 18.738 21.196 C 18.738 18.408 21.363 17.359 23.829 17.359 C 26.102 17.359 28.779 18.614 28.779 20.29 C 28.779 21.008 28.157 21.425 27.447 21.425 C 26.098 21.425 26.347 19.559 23.631 19.559 C 22.282 19.559 21.539 20.169 21.539 21.042 C 21.539 21.914 22.604 22.193 23.528 22.404 L 25.961 22.945 C 28.621 23.538 29.295 25.093 29.295 26.554 C 29.295 28.819 27.555 30.511 24.045 30.511 L 24.045 30.513 Z " fill-rule="evenodd" fill="rgb(247,247,247)"/></g></g></g></svg>