<?xml version="1.0" standalone="no"?><!-- Generator: Gravit.io --><svg xmlns="http://www.w3.org/2000/svg" xmlns:xlink="http://www.w3.org/1999/xlink" style="isolation:isolate" viewBox="0 0 48 48" width="48" height="48"><defs><clipPath id="_clipPath_l063IycsZTpdqin6MotiOEmG1fEurQfT"><rect width="48" height="48"/></clipPath></defs><g clip-path="url(#_clipPath_l063IycsZTpdqin6MotiOEmG1fEurQfT)"><g style="isolation:isolate" id="Design"><path d="M 18 3 L 30 3 C 38.831 3 46 10.169 46 19 L 46 31 C 46 39.831 38.831 47 30 47 L 18 47 C 9.169 47 2 39.831 2 31 L 2 19 C 2 10.169 9.169 3 18 3 Z" style="stroke:none;fill:#000000;stroke-miterlimit:10;opacity:0.15;"/><defs><linearGradient id="_lgradient_59" x1="0.5028962188254223" y1="0.14762670957361224" x2="0.5028962188254223" y2="0.9913917940466614"><stop offset="0%" style="stop-color:#81C784"/><stop offset="100%" style="stop-color:#4CAF50"/></linearGradient></defs><path d="M 18 2 L 30 2 C 38.831 2 46 9.169 46 18 L 46 30 C 46 38.831 38.831 46 30 46 L 18 46 C 9.169 46 2 38.831 2 30 L 2 18 C 2 9.169 9.169 2 18 2 Z" style="stroke:none;fill:url(#_lgradient_59);stroke-miterlimit:10;"/><g id="Group"><path d=" M 21.092 16.119 C 18.553 16.118 16.098 16.379 14.005 16.898 C 12.93 17.165 12.85 17.196 12.551 17.448 C 12.183 17.758 12.025 18.097 12.025 18.586 C 12.025 19.192 12.314 19.659 12.859 19.927 C 13.306 20.147 13.595 20.139 14.57 19.892 C 15.557 19.642 16.956 19.402 18.18 19.272 C 19.425 19.14 23.355 19.162 24.612 19.307 C 28.019 19.701 30.447 20.348 32.798 21.49 C 33.4 21.782 33.996 22.046 34.124 22.075 C 34.797 22.229 35.598 21.817 35.878 21.175 C 36.017 20.855 36.004 20.266 35.854 19.951 C 35.669 19.561 35.29 19.281 34.283 18.793 C 32.573 17.963 30.732 17.339 28.678 16.898 C 26.254 16.378 23.631 16.119 21.092 16.119 L 21.092 16.119 Z  M 20.075 22.112 C 19.623 22.119 19.234 22.134 18.97 22.161 C 17.263 22.333 15.047 22.803 14.343 23.143 C 13.603 23.501 13.341 24.652 13.798 25.39 C 13.972 25.672 14.495 25.986 14.792 25.986 C 14.904 25.986 15.441 25.861 15.988 25.709 C 17.584 25.267 18.652 25.123 20.6 25.086 C 21.862 25.062 22.971 25.082 23.708 25.167 C 26.834 25.529 29.582 26.143 32.234 27.704 C 32.598 27.918 32.975 28.094 33.072 28.094 C 33.861 28.092 34.547 27.117 34.413 26.331 C 34.295 25.644 33.999 25.357 32.643 24.6 C 30.397 23.347 27.483 22.694 24.553 22.262 C 24.052 22.188 23.03 22.139 22.004 22.118 C 21.491 22.108 20.527 22.106 20.075 22.112 L 20.075 22.112 Z  M 21.739 28.099 C 21.377 28.106 21.065 28.122 20.854 28.148 C 19.488 28.321 17.714 28.79 17.151 29.131 C 16.558 29.489 16.349 30.64 16.714 31.377 C 16.854 31.66 17.272 31.973 17.509 31.973 C 17.599 31.973 18.031 31.848 18.468 31.697 C 19.745 31.255 20.598 31.11 22.156 31.073 C 23.166 31.049 23.177 31.07 23.766 31.155 C 26.267 31.516 27.656 32.131 29.777 33.691 C 30.069 33.906 30.374 34.081 30.451 34.081 C 31.083 34.079 31.628 33.254 31.519 32.467 C 31.425 31.78 31.193 31.493 30.108 30.737 C 28.312 29.484 26.788 28.681 24.444 28.25 C 24.043 28.176 23.226 28.126 22.406 28.105 C 21.995 28.095 22.101 28.093 21.739 28.099 L 21.739 28.099 Z " fill="rgb(0,0,0)" fill-opacity="0.15"/><path d=" M 21.092 14.919 C 18.553 14.918 16.098 15.179 14.005 15.698 C 12.93 15.965 12.85 15.996 12.551 16.248 C 12.183 16.558 12.025 16.897 12.025 17.386 C 12.025 17.992 12.314 18.459 12.859 18.727 C 13.306 18.947 13.595 18.939 14.57 18.692 C 15.557 18.442 16.956 18.202 18.18 18.072 C 19.425 17.94 23.355 17.962 24.612 18.107 C 28.019 18.501 30.447 19.148 32.798 20.29 C 33.4 20.582 33.996 20.846 34.124 20.875 C 34.797 21.029 35.598 20.617 35.878 19.975 C 36.017 19.655 36.004 19.066 35.854 18.751 C 35.669 18.361 35.29 18.081 34.283 17.593 C 32.573 16.763 30.732 16.139 28.678 15.698 C 26.254 15.178 23.631 14.919 21.092 14.919 L 21.092 14.919 Z  M 20.075 20.912 C 19.623 20.919 19.234 20.934 18.97 20.961 C 17.263 21.133 15.047 21.603 14.343 21.943 C 13.603 22.301 13.341 23.452 13.798 24.19 C 13.972 24.472 14.495 24.786 14.792 24.786 C 14.904 24.786 15.441 24.661 15.988 24.509 C 17.584 24.067 18.652 23.923 20.6 23.886 C 21.862 23.862 22.971 23.882 23.708 23.967 C 26.834 24.329 29.582 24.943 32.234 26.504 C 32.598 26.718 32.975 26.894 33.072 26.894 C 33.861 26.892 34.547 25.917 34.413 25.131 C 34.295 24.444 33.999 24.157 32.643 23.4 C 30.397 22.147 27.483 21.494 24.553 21.062 C 24.052 20.988 23.03 20.939 22.004 20.918 C 21.491 20.908 20.527 20.906 20.075 20.912 L 20.075 20.912 Z  M 21.739 26.899 C 21.377 26.906 21.065 26.922 20.854 26.948 C 19.488 27.121 17.714 27.59 17.151 27.931 C 16.558 28.289 16.349 29.44 16.714 30.177 C 16.854 30.46 17.272 30.773 17.509 30.773 C 17.599 30.773 18.031 30.648 18.468 30.497 C 19.745 30.055 20.598 29.91 22.156 29.873 C 23.166 29.849 23.177 29.87 23.766 29.955 C 26.267 30.316 27.656 30.931 29.777 32.491 C 30.069 32.706 30.374 32.881 30.451 32.881 C 31.083 32.879 31.628 32.054 31.519 31.267 C 31.425 30.58 31.193 30.293 30.108 29.537 C 28.312 28.284 26.788 27.481 24.444 27.05 C 24.043 26.976 23.226 26.926 22.406 26.905 C 21.995 26.895 22.101 26.893 21.739 26.899 L 21.739 26.899 Z " fill="rgb(255,255,255)"/><path d=" M 21.092 15.518 C 18.553 15.517 16.098 15.777 14.005 16.297 C 12.93 16.564 12.85 16.595 12.551 16.847 C 12.183 17.156 12.025 17.496 12.025 17.985 C 12.025 18.59 12.314 19.057 12.859 19.326 C 13.306 19.546 13.595 19.538 14.57 19.291 C 15.557 19.041 16.956 18.801 18.18 18.671 C 19.425 18.539 23.355 18.561 24.612 18.706 C 28.019 19.1 30.447 19.747 32.798 20.889 C 33.4 21.181 33.996 21.445 34.124 21.474 C 34.797 21.628 35.598 21.216 35.878 20.573 C 36.017 20.254 36.004 19.665 35.854 19.349 C 35.669 18.959 35.29 18.68 34.283 18.192 C 32.573 17.362 30.732 16.738 28.678 16.297 C 26.254 15.777 23.631 15.518 21.092 15.517 L 21.092 15.518 Z  M 20.075 21.511 C 19.623 21.517 19.234 21.533 18.97 21.56 C 17.263 21.732 15.047 22.202 14.343 22.542 C 13.603 22.9 13.341 24.051 13.798 24.788 C 13.972 25.071 14.495 25.385 14.792 25.385 C 14.904 25.385 15.441 25.259 15.988 25.108 C 17.584 24.666 18.652 24.521 20.6 24.484 C 21.862 24.46 22.971 24.481 23.708 24.566 C 26.834 24.927 29.582 25.542 32.234 27.103 C 32.598 27.317 32.975 27.493 33.072 27.493 C 33.861 27.491 34.547 26.516 34.413 25.729 C 34.295 25.042 33.999 24.755 32.643 23.999 C 30.397 22.746 27.483 22.092 24.553 21.661 C 24.052 21.587 23.03 21.537 22.004 21.517 C 21.491 21.506 20.527 21.504 20.075 21.511 L 20.075 21.511 Z  M 21.739 27.498 C 21.377 27.505 21.065 27.52 20.854 27.547 C 19.488 27.719 17.714 28.189 17.151 28.529 C 16.558 28.887 16.349 30.038 16.714 30.776 C 16.854 31.058 17.272 31.372 17.509 31.372 C 17.599 31.372 18.031 31.247 18.468 31.095 C 19.745 30.653 20.598 30.509 22.156 30.472 C 23.166 30.448 23.177 30.468 23.766 30.553 C 26.267 30.915 27.656 31.53 29.777 33.09 C 30.069 33.305 30.374 33.48 30.451 33.48 C 31.083 33.478 31.628 32.653 31.519 31.866 C 31.425 31.179 31.193 30.892 30.108 30.136 C 28.312 28.883 26.788 28.08 24.444 27.648 C 24.043 27.575 23.226 27.524 22.406 27.504 C 21.995 27.493 22.101 27.492 21.739 27.498 L 21.739 27.498 Z " fill="rgb(247,247,247)"/></g></g></g></svg>