<?xml version="1.0" standalone="no"?><!-- Generator: Gravit.io --><svg xmlns="http://www.w3.org/2000/svg" xmlns:xlink="http://www.w3.org/1999/xlink" style="isolation:isolate" viewBox="0 0 48 48" width="48" height="48"><defs><clipPath id="_clipPath_RGJ3L2f53SULkqhgAo7o6O0zsUoboLOw"><rect width="48" height="48"/></clipPath></defs><g clip-path="url(#_clipPath_RGJ3L2f53SULkqhgAo7o6O0zsUoboLOw)"><g style="isolation:isolate" id="Design"><path d="M 18 3 L 30 3 C 38.831 3 46 10.169 46 19 L 46 31 C 46 39.831 38.831 47 30 47 L 18 47 C 9.169 47 2 39.831 2 31 L 2 19 C 2 10.169 9.169 3 18 3 Z" style="stroke:none;fill:#000000;stroke-miterlimit:10;opacity:0.15;"/><defs><linearGradient id="_lgradient_25" x1="0.5028962188254223" y1="0.14762670957361224" x2="0.5028962188254223" y2="0.9913917940466614"><stop offset="0%" style="stop-color:#81C784"/><stop offset="100%" style="stop-color:#4CAF50"/></linearGradient></defs><path d="M 18 2 L 30 2 C 38.831 2 46 9.169 46 18 L 46 30 C 46 38.831 38.831 46 30 46 L 18 46 C 9.169 46 2 38.831 2 30 L 2 18 C 2 9.169 9.169 2 18 2 Z" style="stroke:none;fill:url(#_lgradient_25);stroke-miterlimit:10;"/><g id="Group"><path d=" M 21.092 16.519 C 18.553 16.518 16.098 16.779 14.005 17.298 C 12.93 17.565 12.85 17.596 12.551 17.848 C 12.183 18.158 12.025 18.497 12.025 18.986 C 12.025 19.592 12.314 20.059 12.859 20.327 C 13.306 20.547 13.595 20.539 14.57 20.292 C 15.557 20.042 16.956 19.802 18.18 19.672 C 19.425 19.54 23.355 19.562 24.612 19.707 C 28.019 20.101 30.447 20.748 32.798 21.89 C 33.4 22.182 33.996 22.446 34.124 22.475 C 34.797 22.629 35.598 22.217 35.878 21.575 C 36.017 21.255 36.004 20.666 35.854 20.351 C 35.669 19.961 35.29 19.681 34.283 19.193 C 32.573 18.363 30.732 17.739 28.678 17.298 C 26.254 16.778 23.631 16.519 21.092 16.519 L 21.092 16.519 Z  M 20.075 22.512 C 19.623 22.519 19.234 22.534 18.97 22.561 C 17.263 22.733 15.047 23.203 14.343 23.543 C 13.603 23.901 13.341 25.052 13.798 25.79 C 13.972 26.072 14.495 26.386 14.792 26.386 C 14.904 26.386 15.441 26.261 15.988 26.109 C 17.584 25.667 18.652 25.523 20.6 25.486 C 21.862 25.462 22.971 25.482 23.708 25.567 C 26.834 25.929 29.582 26.543 32.234 28.104 C 32.598 28.318 32.975 28.494 33.072 28.494 C 33.861 28.492 34.547 27.517 34.413 26.731 C 34.295 26.044 33.999 25.757 32.643 25 C 30.397 23.747 27.483 23.094 24.553 22.662 C 24.052 22.588 23.03 22.539 22.004 22.518 C 21.491 22.508 20.527 22.506 20.075 22.512 L 20.075 22.512 Z  M 21.739 28.499 C 21.377 28.506 21.065 28.522 20.854 28.548 C 19.488 28.721 17.714 29.19 17.151 29.531 C 16.558 29.889 16.349 31.04 16.714 31.777 C 16.854 32.06 17.272 32.373 17.509 32.373 C 17.599 32.373 18.031 32.248 18.468 32.097 C 19.745 31.655 20.598 31.51 22.156 31.473 C 23.166 31.449 23.177 31.47 23.766 31.555 C 26.267 31.916 27.656 32.531 29.777 34.091 C 30.069 34.306 30.374 34.481 30.451 34.481 C 31.083 34.479 31.628 33.654 31.519 32.867 C 31.425 32.18 31.193 31.893 30.108 31.137 C 28.312 29.884 26.788 29.081 24.444 28.65 C 24.043 28.576 23.226 28.526 22.406 28.505 C 21.995 28.495 22.101 28.493 21.739 28.499 L 21.739 28.499 Z " fill="rgb(0,0,0)" fill-opacity="0.15"/><path d=" M 21.092 15 C 18.553 15 16.098 15.26 14.005 15.78 C 12.93 16.047 12.85 16.078 12.551 16.329 C 12.183 16.639 12.025 16.979 12.025 17.468 C 12.025 18.073 12.314 18.54 12.859 18.808 C 13.306 19.028 13.595 19.021 14.57 18.773 C 15.557 18.523 16.956 18.283 18.18 18.154 C 19.425 18.022 23.355 18.044 24.612 18.189 C 28.019 18.582 30.447 19.23 32.798 20.372 C 33.4 20.664 33.996 20.927 34.124 20.956 C 34.797 21.11 35.598 20.698 35.878 20.056 C 36.017 19.736 36.004 19.147 35.854 18.832 C 35.669 18.442 35.29 18.163 34.283 17.674 C 32.573 16.844 30.732 16.22 28.678 15.78 C 26.254 15.259 23.631 15 21.092 15 L 21.092 15 Z  M 20.075 20.993 C 19.623 21 19.234 21.015 18.97 21.042 C 17.263 21.214 15.047 21.684 14.343 22.024 C 13.603 22.382 13.341 23.534 13.798 24.271 C 13.972 24.553 14.495 24.867 14.792 24.867 C 14.904 24.867 15.441 24.742 15.988 24.59 C 17.584 24.148 18.652 24.004 20.6 23.967 C 21.862 23.943 22.971 23.963 23.708 24.049 C 26.834 24.41 29.582 25.025 32.234 26.585 C 32.598 26.8 32.975 26.975 33.072 26.975 C 33.861 26.973 34.547 25.999 34.413 25.212 C 34.295 24.525 33.999 24.238 32.643 23.481 C 30.397 22.228 27.483 21.575 24.553 21.143 C 24.052 21.07 23.03 21.02 22.004 20.999 C 21.491 20.989 20.527 20.987 20.075 20.993 L 20.075 20.993 Z  M 21.739 26.981 C 21.377 26.987 21.065 27.003 20.854 27.03 C 19.488 27.202 17.714 27.672 17.151 28.012 C 16.558 28.37 16.349 29.521 16.714 30.258 C 16.854 30.541 17.272 30.855 17.509 30.855 C 17.599 30.855 18.031 30.729 18.468 30.578 C 19.745 30.136 20.598 29.991 22.156 29.954 C 23.166 29.93 23.177 29.951 23.766 30.036 C 26.267 30.397 27.656 31.012 29.777 32.573 C 30.069 32.787 30.374 32.963 30.451 32.963 C 31.083 32.961 31.628 32.135 31.519 31.349 C 31.425 30.662 31.193 30.375 30.108 29.618 C 28.312 28.365 26.788 27.563 24.444 27.131 C 24.043 27.057 23.226 27.007 22.406 26.986 C 21.995 26.976 22.101 26.974 21.739 26.98 L 21.739 26.981 Z " fill="rgb(255,255,255)"/><path d=" M 21.092 15.519 C 18.553 15.518 16.098 15.779 14.005 16.298 C 12.93 16.565 12.85 16.596 12.551 16.848 C 12.183 17.158 12.025 17.497 12.025 17.986 C 12.025 18.592 12.314 19.059 12.859 19.327 C 13.306 19.547 13.595 19.539 14.57 19.292 C 15.557 19.042 16.956 18.802 18.18 18.672 C 19.425 18.54 23.355 18.562 24.612 18.707 C 28.019 19.101 30.447 19.748 32.798 20.89 C 33.4 21.182 33.996 21.446 34.124 21.475 C 34.797 21.629 35.598 21.217 35.878 20.575 C 36.017 20.255 36.004 19.666 35.854 19.351 C 35.669 18.961 35.29 18.681 34.283 18.193 C 32.573 17.363 30.732 16.739 28.678 16.298 C 26.254 15.778 23.631 15.519 21.092 15.519 L 21.092 15.519 Z  M 20.075 21.512 C 19.623 21.519 19.234 21.534 18.97 21.561 C 17.263 21.733 15.047 22.203 14.343 22.543 C 13.603 22.901 13.341 24.052 13.798 24.79 C 13.972 25.072 14.495 25.386 14.792 25.386 C 14.904 25.386 15.441 25.261 15.988 25.109 C 17.584 24.667 18.652 24.523 20.6 24.486 C 21.862 24.462 22.971 24.482 23.708 24.567 C 26.834 24.929 29.582 25.543 32.234 27.104 C 32.598 27.318 32.975 27.494 33.072 27.494 C 33.861 27.492 34.547 26.517 34.413 25.731 C 34.295 25.044 33.999 24.757 32.643 24 C 30.397 22.747 27.483 22.094 24.553 21.662 C 24.052 21.588 23.03 21.539 22.004 21.518 C 21.491 21.508 20.527 21.506 20.075 21.512 L 20.075 21.512 Z  M 21.739 27.499 C 21.377 27.506 21.065 27.522 20.854 27.548 C 19.488 27.721 17.714 28.19 17.151 28.531 C 16.558 28.889 16.349 30.04 16.714 30.777 C 16.854 31.06 17.272 31.373 17.509 31.373 C 17.599 31.373 18.031 31.248 18.468 31.097 C 19.745 30.655 20.598 30.51 22.156 30.473 C 23.166 30.449 23.177 30.47 23.766 30.555 C 26.267 30.916 27.656 31.531 29.777 33.091 C 30.069 33.306 30.374 33.481 30.451 33.481 C 31.083 33.479 31.628 32.654 31.519 31.867 C 31.425 31.18 31.193 30.893 30.108 30.137 C 28.312 28.884 26.788 28.081 24.444 27.65 C 24.043 27.576 23.226 27.526 22.406 27.505 C 21.995 27.495 22.101 27.493 21.739 27.499 L 21.739 27.499 Z " fill="rgb(247,247,247)"/></g></g></g></svg>