<?xml version="1.0" standalone="no"?><!-- Generator: Gravit.io --><svg xmlns="http://www.w3.org/2000/svg" xmlns:xlink="http://www.w3.org/1999/xlink" style="isolation:isolate" viewBox="0 0 48 48" width="48" height="48"><defs><clipPath id="_clipPath_C9RgO4wwbEPoCDE1M9JABSMRsh8cWQm0"><rect width="48" height="48"/></clipPath></defs><g clip-path="url(#_clipPath_C9RgO4wwbEPoCDE1M9JABSMRsh8cWQm0)"><g style="isolation:isolate" id="Design"><path d="M 18 3 L 30 3 C 38.831 3 46 10.169 46 19 L 46 31 C 46 39.831 38.831 47 30 47 L 18 47 C 9.169 47 2 39.831 2 31 L 2 19 C 2 10.169 9.169 3 18 3 Z" style="stroke:none;fill:#000000;stroke-miterlimit:10;opacity:0.15;"/><defs><linearGradient id="_lgradient_61" x1="0.5021141649048628" y1="0.14270613107822405" x2="0.5021141649048628" y2="1.0097943834309344"><stop offset="0%" style="stop-color:#64B5F6"/><stop offset="98.26086956521739%" style="stop-color:#2196F3"/></linearGradient></defs><path d="M 18 2 L 30 2 C 38.831 2 46 9.169 46 18 L 46 30 C 46 38.831 38.831 46 30 46 L 18 46 C 9.169 46 2 38.831 2 30 L 2 18 C 2 9.169 9.169 2 18 2 Z" style="stroke:none;fill:url(#_lgradient_61);stroke-miterlimit:10;"/><g id="Group"><path d=" M 36.188 25.1 L 28.063 31.6 L 28.063 28.35 L 19.938 28.35 L 19.938 31.6 L 11.813 25.1 L 19.938 18.6 L 19.938 21.85 L 28.063 21.85 L 28.063 18.6 L 36.188 25.1 Z " fill-rule="evenodd" fill="rgb(0,0,0)" fill-opacity="0.15"/><path d=" M 36.188 24.5 L 28.063 30.4 L 28.063 27.15 L 19.938 27.15 L 19.938 30.4 L 11.813 24.5 L 19.938 17.4 L 19.938 20.65 L 28.063 20.65 L 28.063 17.4 L 36.188 24.5 Z " fill-rule="evenodd" fill="rgb(255,255,255)"/><path d=" M 36.188 24.5 L 28.063 31 L 28.063 27.75 L 19.938 27.75 L 19.938 31 L 11.813 24.5 L 19.938 18 L 19.938 21.25 L 28.063 21.25 L 28.063 18 L 36.188 24.5 Z " fill-rule="evenodd" fill="rgb(247,247,247)"/></g></g></g></svg>