<?xml version="1.0" standalone="no"?><!-- Generator: Gravit.io --><svg xmlns="http://www.w3.org/2000/svg" xmlns:xlink="http://www.w3.org/1999/xlink" style="isolation:isolate" viewBox="0 0 48 48" width="48" height="48"><defs><clipPath id="_clipPath_s1o1pqhZszUcNZuhi9r7Wl8zgUheL0qV"><rect width="48" height="48"/></clipPath></defs><g clip-path="url(#_clipPath_s1o1pqhZszUcNZuhi9r7Wl8zgUheL0qV)"><g style="isolation:isolate" id="Design"><path d="M 18 3 L 30 3 C 38.831 3 46 10.169 46 19 L 46 31 C 46 39.831 38.831 47 30 47 L 18 47 C 9.169 47 2 39.831 2 31 L 2 19 C 2 10.169 9.169 3 18 3 Z" style="stroke:none;fill:#000000;stroke-miterlimit:10;opacity:0.15;"/><defs><linearGradient id="_lgradient_0" x1="0.5021141649048628" y1="0.14270613107822405" x2="0.5021141649048628" y2="1.0097943834309344"><stop offset="0%" style="stop-color:#4CB2D4"/><stop offset="98.26086956521739%" style="stop-color:#367ABD"/></linearGradient></defs><path d="M 18 2 L 30 2 C 38.831 2 46 9.169 46 18 L 46 30 C 46 38.831 38.831 46 30 46 L 18 46 C 9.169 46 2 38.831 2 30 L 2 18 C 2 9.169 9.169 2 18 2 Z" style="stroke:none;fill:url(#_lgradient_0);stroke-miterlimit:10;"/><path d=" M 8.75 25.097 C 8.75 16.677 15.583 9.84 24 9.84 C 32.417 9.84 39.25 16.677 39.25 25.097 C 39.25 33.518 32.417 40.355 24 40.355 C 15.583 40.355 8.75 33.518 8.75 25.097 Z " fill="rgb(0,0,0)" fill-opacity="0.15"/><path d=" M 8.75 23.897 C 8.75 15.477 15.583 8.64 24 8.64 C 32.417 8.64 39.25 15.477 39.25 23.897 C 39.25 32.318 32.417 39.155 24 39.155 C 15.583 39.155 8.75 32.318 8.75 23.897 Z " fill="rgb(255,255,255)" fill-opacity="0.15"/><linearGradient id="_lgradient_1" x1="50.30499428135724%" y1="-2.852576672538704%" x2="50.30499428135725%" y2="98.66095199050608%"><stop offset="0%" stop-opacity="1" style="stop-color:rgb(255,255,255)"/><stop offset="100%" stop-opacity="1" style="stop-color:rgb(235,235,235)"/></linearGradient><path d=" M 8.75 24.5 C 8.75 16.079 15.583 9.243 24 9.243 C 32.417 9.243 39.25 16.079 39.25 24.5 C 39.25 32.921 32.417 39.757 24 39.757 C 15.583 39.757 8.75 32.921 8.75 24.5 Z " fill="url(#_lgradient_1)"/><g id="Group"><path d=" M 36.188 25.1 L 28.063 31.6 L 28.063 28.35 L 19.938 28.35 L 19.938 31.6 L 11.813 25.1 L 19.938 18.6 L 19.938 21.85 L 28.063 21.85 L 28.063 18.6 L 36.188 25.1 Z " fill-rule="evenodd" fill="rgb(0,0,0)" fill-opacity="0.15"/><path d=" M 36.188 24.5 L 28.063 30.4 L 28.063 27.15 L 19.938 27.15 L 19.938 30.4 L 11.813 24.5 L 19.938 17.4 L 19.938 20.65 L 28.063 20.65 L 28.063 17.4 L 36.188 24.5 Z " fill-rule="evenodd" fill="rgb(255,255,255)"/><linearGradient id="_lgradient_2" x1="73.12457454050372%" y1="50.17426820966644%" x2="-1.29424025735414%" y2="50.17426820966645%"><stop offset="0%" stop-opacity="1" style="stop-color:rgb(76,178,212)"/><stop offset="98.26086956521739%" stop-opacity="1" style="stop-color:rgb(54,122,189)"/></linearGradient><path d=" M 36.188 24.5 L 28.063 31 L 28.063 27.75 L 19.938 27.75 L 19.938 31 L 11.813 24.5 L 19.938 18 L 19.938 21.25 L 28.063 21.25 L 28.063 18 L 36.188 24.5 Z " fill-rule="evenodd" fill="url(#_lgradient_2)"/></g></g></g></svg>