<?xml version="1.0" standalone="no"?><!-- Generator: Gravit.io --><svg xmlns="http://www.w3.org/2000/svg" xmlns:xlink="http://www.w3.org/1999/xlink" style="isolation:isolate" viewBox="0 0 48 48" width="48" height="48"><defs><clipPath id="_clipPath_Yb80jya73rufsWhelbOdgr2wB7EgG83g"><rect width="48" height="48"/></clipPath></defs><g clip-path="url(#_clipPath_Yb80jya73rufsWhelbOdgr2wB7EgG83g)"><g style="isolation:isolate" id="Design"><path d="M 18 3 L 30 3 C 38.831 3 46 10.169 46 19 L 46 31 C 46 39.831 38.831 47 30 47 L 18 47 C 9.169 47 2 39.831 2 31 L 2 19 C 2 10.169 9.169 3 18 3 Z" style="stroke:none;fill:#000000;stroke-miterlimit:10;opacity:0.15;"/><defs><linearGradient id="_lgradient_62" x1="0.5028962188254223" y1="0.14762670957361212" x2="0.5028962188254223" y2="0.9894609814963795"><stop offset="0%" style="stop-color:#76C6DE"/><stop offset="100%" style="stop-color:#3C8CE4"/></linearGradient></defs><path d="M 18 2 L 30 2 C 38.831 2 46 9.169 46 18 L 46 30 C 46 38.831 38.831 46 30 46 L 18 46 C 9.169 46 2 38.831 2 30 L 2 18 C 2 9.169 9.169 2 18 2 Z" style="stroke:none;fill:url(#_lgradient_62);stroke-miterlimit:10;"/><g id="Group"><path d=" M 25.657 33.942 C 25.156 33.639 24.836 33.111 23.443 30.296 C 22.674 28.737 21.94 27.352 21.814 27.22 C 21.672 27.07 20.511 26.452 18.776 25.605 C 15.348 23.932 15 23.667 15 22.718 C 15 22.276 15.216 21.853 15.554 21.633 C 15.671 21.557 19.255 20.274 23.519 18.783 C 31.011 16.163 31.29 16.072 31.801 16.104 C 32.244 16.131 32.373 16.176 32.585 16.379 C 32.904 16.683 33.048 17.105 32.986 17.556 C 32.919 18.04 27.54 33.235 27.34 33.504 C 26.913 34.077 26.189 34.266 25.657 33.943 L 25.657 33.942 Z " fill="rgb(0,0,0)" fill-opacity="0.15"/><path d=" M 25.657 32.742 C 25.156 32.439 24.836 31.911 23.443 29.096 C 22.674 27.537 21.94 26.152 21.814 26.02 C 21.672 25.87 20.511 25.252 18.776 24.405 C 15.348 22.732 15 22.467 15 21.518 C 15 21.076 15.216 20.653 15.554 20.433 C 15.671 20.357 19.255 19.074 23.519 17.583 C 31.011 14.963 31.29 14.872 31.801 14.904 C 32.244 14.931 32.373 14.976 32.585 15.179 C 32.904 15.483 33.048 15.905 32.986 16.356 C 32.919 16.84 27.54 32.035 27.34 32.304 C 26.913 32.877 26.189 33.066 25.657 32.743 L 25.657 32.742 Z " fill="rgb(255,255,255)"/><path d=" M 25.657 33.342 C 25.156 33.038 24.836 32.511 23.443 29.696 C 22.674 28.137 21.94 26.752 21.814 26.619 C 21.672 26.47 20.511 25.852 18.776 25.005 C 15.348 23.332 15 23.066 15 22.118 C 15 21.676 15.216 21.252 15.554 21.032 C 15.671 20.956 19.255 19.674 23.519 18.183 C 31.011 15.562 31.29 15.472 31.801 15.503 C 32.244 15.53 32.373 15.575 32.585 15.778 C 32.904 16.083 33.048 16.504 32.986 16.955 C 32.919 17.44 27.54 32.635 27.34 32.903 C 26.913 33.477 26.189 33.666 25.657 33.343 L 25.657 33.342 Z " fill="rgb(247,247,247)"/></g></g></g></svg>