<?xml version="1.0" standalone="no"?><!-- Generator: Gravit.io --><svg xmlns="http://www.w3.org/2000/svg" xmlns:xlink="http://www.w3.org/1999/xlink" style="isolation:isolate" viewBox="0 0 48 48" width="48" height="48"><defs><clipPath id="_clipPath_ZquDYzhau5HghSELNhQXQJoB4MW0E2OP"><rect width="48" height="48"/></clipPath></defs><g clip-path="url(#_clipPath_ZquDYzhau5HghSELNhQXQJoB4MW0E2OP)"><g style="isolation:isolate" id="Design"><path d="M 18 3 L 30 3 C 38.831 3 46 10.169 46 19 L 46 31 C 46 39.831 38.831 47 30 47 L 18 47 C 9.169 47 2 39.831 2 31 L 2 19 C 2 10.169 9.169 3 18 3 Z" style="stroke:none;fill:#000000;stroke-miterlimit:10;opacity:0.15;"/><defs><linearGradient id="_lgradient_13" x1="0.5028962188254223" y1="0.14762670957361212" x2="0.5028962188254223" y2="0.9894609814963795"><stop offset="0%" style="stop-color:#76C6DE"/><stop offset="100%" style="stop-color:#3C8CE4"/></linearGradient></defs><path d="M 18 2 L 30 2 C 38.831 2 46 9.169 46 18 L 46 30 C 46 38.831 38.831 46 30 46 L 18 46 C 9.169 46 2 38.831 2 30 L 2 18 C 2 9.169 9.169 2 18 2 Z" style="stroke:none;fill:url(#_lgradient_13);stroke-miterlimit:10;"/><g id="Group"><path d=" M 25.657 34.142 C 25.156 33.839 24.836 33.311 23.443 30.496 C 22.674 28.937 21.94 27.552 21.814 27.419 C 21.672 27.27 20.511 26.652 18.776 25.805 C 15.348 24.132 15 23.866 15 22.918 C 15 22.476 15.216 22.053 15.554 21.832 C 15.671 21.757 19.255 20.474 23.519 18.983 C 31.011 16.363 31.29 16.272 31.801 16.304 C 32.244 16.331 32.373 16.376 32.585 16.579 C 32.904 16.883 33.048 17.305 32.986 17.755 C 32.919 18.24 27.54 33.435 27.34 33.704 C 26.913 34.277 26.189 34.466 25.657 34.143 L 25.657 34.142 Z " fill="rgb(0,0,0)" fill-opacity="0.15"/><path d=" M 25.657 32.542 C 25.156 32.239 24.836 31.711 23.443 28.896 C 22.674 27.337 21.94 25.953 21.814 25.82 C 21.672 25.67 20.511 25.053 18.776 24.205 C 15.348 22.533 15 22.267 15 21.318 C 15 20.877 15.216 20.453 15.554 20.233 C 15.671 20.157 19.255 18.875 23.519 17.383 C 31.011 14.763 31.29 14.673 31.801 14.704 C 32.244 14.731 32.373 14.776 32.585 14.979 C 32.904 15.283 33.048 15.705 32.986 16.156 C 32.919 16.64 27.54 31.835 27.34 32.104 C 26.913 32.677 26.189 32.866 25.657 32.543 L 25.657 32.542 Z " fill="rgb(255,255,255)"/><path d=" M 25.657 33.142 C 25.156 32.839 24.836 32.311 23.443 29.496 C 22.674 27.937 21.94 26.552 21.814 26.419 C 21.672 26.27 20.511 25.652 18.776 24.805 C 15.348 23.132 15 22.866 15 21.918 C 15 21.476 15.216 21.053 15.554 20.832 C 15.671 20.757 19.255 19.474 23.519 17.983 C 31.011 15.363 31.29 15.272 31.801 15.304 C 32.244 15.331 32.373 15.376 32.585 15.579 C 32.904 15.883 33.048 16.305 32.986 16.755 C 32.919 17.24 27.54 32.435 27.34 32.704 C 26.913 33.277 26.189 33.466 25.657 33.143 L 25.657 33.142 Z " fill="rgb(247,247,247)"/></g></g></g></svg>