<?xml version="1.0" standalone="no"?><!-- Generator: Gravit.io --><svg xmlns="http://www.w3.org/2000/svg" xmlns:xlink="http://www.w3.org/1999/xlink" style="isolation:isolate" viewBox="0 0 48 48" width="48" height="48"><defs><clipPath id="_clipPath_bzYZwfWM0k7TAeo0gv6RXoBRgFwdaino"><rect width="48" height="48"/></clipPath></defs><g clip-path="url(#_clipPath_bzYZwfWM0k7TAeo0gv6RXoBRgFwdaino)"><g style="isolation:isolate" id="Design"><path d="M 18 3 L 30 3 C 38.831 3 46 10.169 46 19 L 46 31 C 46 39.831 38.831 47 30 47 L 18 47 C 9.169 47 2 39.831 2 31 L 2 19 C 2 10.169 9.169 3 18 3 Z" style="stroke:none;fill:#000000;stroke-miterlimit:10;opacity:0.15;"/><path d="M 18 2 L 30 2 C 38.831 2 46 9.169 46 18 L 46 30 C 46 38.831 38.831 46 30 46 L 18 46 C 9.169 46 2 38.831 2 30 L 2 18 C 2 9.169 9.169 2 18 2 Z" style="stroke:none;fill:#E53935;stroke-miterlimit:10;"/><g id="Group"><path d="M 24 10.245 L 24 10.245 C 32.417 10.245 39.25 17.079 39.25 25.497 L 39.25 25.503 C 39.25 33.921 32.417 40.755 24 40.755 L 24 40.755 C 15.583 40.755 8.75 33.921 8.75 25.503 L 8.75 25.497 C 8.75 17.079 15.583 10.245 24 10.245 Z" style="stroke:none;fill:#000000;stroke-miterlimit:10;opacity:0.15;"/><path d="M 24 8.245 L 24 8.245 C 32.417 8.245 39.25 15.079 39.25 23.497 L 39.25 23.503 C 39.25 31.921 32.417 38.755 24 38.755 L 24 38.755 C 15.583 38.755 8.75 31.921 8.75 23.503 L 8.75 23.497 C 8.75 15.079 15.583 8.245 24 8.245 Z" style="stroke:none;fill:#FFFFFF;stroke-miterlimit:10;"/><path d="M 24 9.245 L 24 9.245 C 32.417 9.245 39.25 16.079 39.25 24.497 L 39.25 24.503 C 39.25 32.921 32.417 39.755 24 39.755 L 24 39.755 C 15.583 39.755 8.75 32.921 8.75 24.503 L 8.75 24.497 C 8.75 16.079 15.583 9.245 24 9.245 Z" style="stroke:none;fill:#F7F7F7;stroke-miterlimit:10;"/></g><g id="Group"><path d=" M 24 37.188 L 17.5 29.063 L 20.75 29.063 L 20.75 20.938 L 17.5 20.938 L 24 12.813 L 30.5 20.938 L 27.25 20.938 L 27.25 29.063 L 30.5 29.063 L 24 37.188 Z " fill-rule="evenodd" fill="rgb(0,0,0)" fill-opacity="0.15"/><path d=" M 24 36.188 L 17.5 28.063 L 20.75 28.063 L 20.75 19.938 L 17.5 19.938 L 24 11.813 L 30.5 19.938 L 27.25 19.938 L 27.25 28.063 L 30.5 28.063 L 24 36.188 Z " fill-rule="evenodd" fill="rgb(109,76,65)"/></g></g></g></svg>