<?xml version="1.0" standalone="no"?><!-- Generator: Gravit.io --><svg xmlns="http://www.w3.org/2000/svg" xmlns:xlink="http://www.w3.org/1999/xlink" style="isolation:isolate" viewBox="0 0 48 48" width="48" height="48"><defs><clipPath id="_clipPath_MoQb0RwrCVPEVOst0WW2ROcvnWiZdT5r"><rect width="48" height="48"/></clipPath></defs><g clip-path="url(#_clipPath_MoQb0RwrCVPEVOst0WW2ROcvnWiZdT5r)"><g style="isolation:isolate" id="Design"><path d="M 18 3 L 30 3 C 38.831 3 46 10.169 46 19 L 46 31 C 46 39.831 38.831 47 30 47 L 18 47 C 9.169 47 2 39.831 2 31 L 2 19 C 2 10.169 9.169 3 18 3 Z" style="stroke:none;fill:#000000;stroke-miterlimit:10;opacity:0.15;"/><defs><linearGradient id="_lgradient_13" x1="0.5021141649048628" y1="0.14270613107822427" x2="0.5021141649048628" y2="0.9904862579281187"><stop offset="0%" style="stop-color:#EE4035"/><stop offset="100%" style="stop-color:#D32F2F"/></linearGradient></defs><path d="M 18 2 L 30 2 C 38.831 2 46 9.169 46 18 L 46 30 C 46 38.831 38.831 46 30 46 L 18 46 C 9.169 46 2 38.831 2 30 L 2 18 C 2 9.169 9.169 2 18 2 Z" style="stroke:none;fill:url(#_lgradient_13);stroke-miterlimit:10;"/><g id="Group"><g id="Group"><path d="M 24 9.845 L 24 9.845 C 32.417 9.845 39.25 16.679 39.25 25.097 L 39.25 25.103 C 39.25 33.521 32.417 40.355 24 40.355 L 24 40.355 C 15.583 40.355 8.75 33.521 8.75 25.103 L 8.75 25.097 C 8.75 16.679 15.583 9.845 24 9.845 Z" style="stroke:none;fill:#000000;stroke-miterlimit:10;opacity:0.15;"/><path d="M 24 8.645 L 24 8.645 C 32.417 8.645 39.25 15.479 39.25 23.897 L 39.25 23.903 C 39.25 32.321 32.417 39.155 24 39.155 L 24 39.155 C 15.583 39.155 8.75 32.321 8.75 23.903 L 8.75 23.897 C 8.75 15.479 15.583 8.645 24 8.645 Z" style="stroke:none;fill:#FFFFFF;stroke-miterlimit:10;opacity:0.15;"/><defs><linearGradient id="_lgradient_14" x1="0.4998360655737705" y1="0" x2="0.4998360655737706" y2="0.9834747280723821"><stop offset="0%" style="stop-color:#FFFFFF"/><stop offset="100%" style="stop-color:#EBEBEB"/></linearGradient></defs><path d="M 24 9.25 L 24 9.25 C 32.417 9.25 39.25 16.084 39.25 24.502 L 39.25 24.508 C 39.25 32.926 32.417 39.76 24 39.76 L 24 39.76 C 15.583 39.76 8.75 32.926 8.75 24.508 L 8.75 24.502 C 8.75 16.084 15.583 9.25 24 9.25 Z" style="stroke:none;fill:url(#_lgradient_14);stroke-miterlimit:10;"/></g><g id="Group"><path d=" M 24 36.986 L 17.5 28.861 L 20.75 28.861 L 20.75 20.736 L 17.5 20.736 L 24 12.611 L 30.5 20.736 L 27.25 20.736 L 27.25 28.861 L 30.5 28.861 L 24 36.986 Z " fill-rule="evenodd" fill="rgb(0,0,0)" fill-opacity="0.15"/><linearGradient id="_lgradient_15" x1="49.99999999999996%" y1="1.1102230246251565e-14%" x2="49.99999999999987%" y2="99.16839594514019%"><stop offset="0%" stop-opacity="1" style="stop-color:rgb(238,64,53)"/><stop offset="100%" stop-opacity="1" style="stop-color:rgb(211,47,47)"/></linearGradient><path d=" M 24 36.389 L 17.5 28.264 L 20.75 28.264 L 20.75 20.139 L 17.5 20.139 L 24 12.014 L 30.5 20.139 L 27.25 20.139 L 27.25 28.264 L 30.5 28.264 L 24 36.389 Z " fill-rule="evenodd" fill="url(#_lgradient_15)"/></g></g></g></g></svg>