<?xml version="1.0" standalone="no"?><!-- Generator: Gravit.io --><svg xmlns="http://www.w3.org/2000/svg" xmlns:xlink="http://www.w3.org/1999/xlink" style="isolation:isolate" viewBox="0 0 48 48" width="48" height="48"><defs><clipPath id="_clipPath_JoBcjzEQavroaQFCpvjpNaILeREMrdFi"><rect width="48" height="48"/></clipPath></defs><g clip-path="url(#_clipPath_JoBcjzEQavroaQFCpvjpNaILeREMrdFi)"><g style="isolation:isolate" id="Design"><path d="M 18 3 L 30 3 C 38.831 3 46 10.169 46 19 L 46 31 C 46 39.831 38.831 47 30 47 L 18 47 C 9.169 47 2 39.831 2 31 L 2 19 C 2 10.169 9.169 3 18 3 Z" style="stroke:none;fill:#000000;stroke-miterlimit:10;opacity:0.15;"/><defs><linearGradient id="_lgradient_7" x1="0.5042283298097253" y1="0.14482029598308666" x2="0.5042283298097253" y2="0.9926004228329812"><stop offset="0%" style="stop-color:#81C784"/><stop offset="100%" style="stop-color:#43A047"/></linearGradient></defs><path d="M 18 2 L 30 2 C 38.831 2 46 9.169 46 18 L 46 30 C 46 38.831 38.831 46 30 46 L 18 46 C 9.169 46 2 38.831 2 30 L 2 18 C 2 9.169 9.169 2 18 2 Z" style="stroke:none;fill:url(#_lgradient_7);stroke-miterlimit:10;"/><g id="Group"><path d=" M 35.5 23.2 L 29.75 23.2 L 29.75 26.65 L 33.2 26.65 L 26.875 34.125 L 21.125 26.65 L 24 26.65 L 24 18.6 L 29.75 18.6 L 29.75 20.9 L 35.5 20.9 L 35.5 18.6 C 35.5 18.6 35.5 14 31.188 14 L 22.563 14 C 22.563 14 18.25 14 18.25 18.888 L 18.25 19.75 L 18.25 27.8 L 15.95 27.8 L 15.95 19.75 L 12.5 19.75 L 12.5 28.375 C 12.5 31.25 15.375 31.25 15.375 31.25 L 18.25 31.25 L 18.25 32.688 C 18.25 37 22.563 37 22.563 37 L 31.188 37 C 35.5 37 35.5 32.688 35.5 32.688" fill="rgb(0,0,0)" fill-opacity="0.15"/><path d=" M 35.5 21.2 L 29.75 21.2 L 29.75 24.65 L 33.2 24.65 L 26.875 32.125 L 21.125 24.65 L 24 24.65 L 24 16.6 L 29.75 16.6 L 29.75 18.9 L 35.5 18.9 L 35.5 16.6 C 35.5 16.6 35.5 12 31.188 12 L 22.563 12 C 22.563 12 18.25 12 18.25 16.888 L 18.25 17.75 L 18.25 25.8 L 15.95 25.8 L 15.95 17.75 L 12.5 17.75 L 12.5 26.375 C 12.5 29.25 15.375 29.25 15.375 29.25 L 18.25 29.25 L 18.25 30.688 C 18.25 35 22.563 35 22.563 35 L 31.188 35 C 35.5 35 35.5 30.688 35.5 30.688" fill="rgb(255,255,255)"/><path d=" M 35.5 22.2 L 29.75 22.2 L 29.75 25.65 L 33.2 25.65 L 26.875 33.125 L 21.125 25.65 L 24 25.65 L 24 17.6 L 29.75 17.6 L 29.75 19.9 L 35.5 19.9 L 35.5 17.6 C 35.5 17.6 35.5 13 31.188 13 L 22.563 13 C 22.563 13 18.25 13 18.25 17.888 L 18.25 18.75 L 18.25 26.8 L 15.95 26.8 L 15.95 18.75 L 12.5 18.75 L 12.5 27.375 C 12.5 30.25 15.375 30.25 15.375 30.25 L 18.25 30.25 L 18.25 31.688 C 18.25 36 22.563 36 22.563 36 L 31.188 36 C 35.5 36 35.5 31.688 35.5 31.688" fill="rgb(247,247,247)"/></g></g></g></svg>