<?xml version="1.0" standalone="no"?><!-- Generator: Gravit.io --><svg xmlns="http://www.w3.org/2000/svg" xmlns:xlink="http://www.w3.org/1999/xlink" style="isolation:isolate" viewBox="0 0 48 48" width="48" height="48"><defs><clipPath id="_clipPath_H5KgLM26yI3I7cVsXmOtH4xgmRYtfFNs"><rect width="48" height="48"/></clipPath></defs><g clip-path="url(#_clipPath_H5KgLM26yI3I7cVsXmOtH4xgmRYtfFNs)"><g style="isolation:isolate" id="Design"><path d="M 18 3 L 30 3 C 38.831 3 46 10.169 46 19 L 46 31 C 46 39.831 38.831 47 30 47 L 18 47 C 9.169 47 2 39.831 2 31 L 2 19 C 2 10.169 9.169 3 18 3 Z" style="stroke:none;fill:#000000;stroke-miterlimit:10;opacity:0.15;"/><defs><linearGradient id="_lgradient_50" x1="0.5002296801365835" y1="0.15917703914212789" x2="0.5002296801365835" y2="1"><stop offset="0%" style="stop-color:#26C6DA"/><stop offset="25.65217391304348%" style="stop-color:#00BCD4"/><stop offset="71.73913043478261%" style="stop-color:#00ACC1"/><stop offset="99.1304347826087%" style="stop-color:#0097A7"/></linearGradient></defs><path d="M 18 2 L 30 2 C 38.831 2 46 9.169 46 18 L 46 30 C 46 38.831 38.831 46 30 46 L 18 46 C 9.169 46 2 38.831 2 30 L 2 18 C 2 9.169 9.169 2 18 2 Z" style="stroke:none;fill:url(#_lgradient_50);stroke-miterlimit:10;"/><g id="Group"><path d=" M 24.025 13.794 C 22.923 13.783 21.829 13.94 20.768 14.219 C 15.822 15.493 12.609 20.172 12.684 25.091 L 9.855 25.091 L 14.099 30.768 L 18.342 25.091 L 15.513 25.091 C 15.504 23.031 15.837 20.979 17.265 19.441 C 19.756 16.623 24.698 15.47 28.266 17.543 C 29.451 19.032 32.08 17.396 30.7 15.869 C 28.735 14.4 26.505 13.799 24.025 13.794 Z  M 33.902 19.433 L 29.658 25.11 L 32.487 25.11 C 32.496 27.17 32.163 29.222 30.735 30.76 C 28.051 33.858 23.302 34.73 19.734 32.658 C 18.549 31.168 15.92 32.802 17.3 34.329 C 19.265 35.798 21.495 36.401 23.975 36.407 L 23.978 36.404 C 25.08 36.415 26.171 36.26 27.232 35.981 C 32.178 34.707 35.391 30.028 35.316 25.11 L 38.145 25.11 L 33.902 19.433 Z " fill="rgb(0,0,0)" fill-opacity="0.15"/><path d=" M 24.025 12.594 C 22.923 12.583 21.829 12.74 20.768 13.019 C 15.822 14.293 12.609 18.972 12.684 23.891 L 9.855 23.891 L 14.099 29.568 L 18.342 23.891 L 15.513 23.891 C 15.504 21.831 15.837 19.779 17.265 18.241 C 19.756 15.423 24.698 14.27 28.266 16.343 C 29.451 17.832 32.08 16.196 30.7 14.669 C 28.735 13.2 26.505 12.599 24.025 12.594 Z  M 33.902 18.233 L 29.658 23.91 L 32.487 23.91 C 32.496 25.97 32.163 28.022 30.735 29.56 C 28.051 32.658 23.302 33.53 19.734 31.458 C 18.549 29.968 15.92 31.602 17.3 33.129 C 19.265 34.598 21.495 35.201 23.975 35.207 L 23.978 35.204 C 25.08 35.215 26.171 35.06 27.232 34.781 C 32.178 33.507 35.391 28.828 35.316 23.91 L 38.145 23.91 L 33.902 18.233 Z " fill="rgb(255,255,255)"/><path d=" M 24.025 13.197 C 22.923 13.186 21.829 13.344 20.768 13.623 C 15.822 14.897 12.609 19.575 12.684 24.494 L 9.855 24.494 L 14.099 30.171 L 18.342 24.494 L 15.513 24.494 C 15.504 22.434 15.837 20.382 17.265 18.844 C 19.756 16.027 24.698 14.874 28.266 16.946 C 29.451 18.436 32.08 16.8 30.7 15.272 C 28.735 13.803 26.505 13.203 24.025 13.197 Z  M 33.902 18.836 L 29.658 24.513 L 32.487 24.513 C 32.496 26.573 32.163 28.625 30.735 30.163 C 28.051 33.262 23.302 34.134 19.734 32.061 C 18.549 30.572 15.92 32.205 17.3 33.732 C 19.265 35.201 21.495 35.805 23.975 35.81 L 23.978 35.807 C 25.08 35.818 26.171 35.664 27.232 35.384 C 32.178 34.111 35.391 29.432 35.316 24.513 L 38.145 24.513 L 33.902 18.836 Z " fill="rgb(247,247,247)"/></g></g></g></svg>