<?xml version="1.0" standalone="no"?><!-- Generator: Gravit.io --><svg xmlns="http://www.w3.org/2000/svg" xmlns:xlink="http://www.w3.org/1999/xlink" style="isolation:isolate" viewBox="0 0 48 48" width="48" height="48"><defs><clipPath id="_clipPath_y2b1WlTcrRx0tahGBq3BvAuMKaU7a57W"><rect width="48" height="48"/></clipPath></defs><g clip-path="url(#_clipPath_y2b1WlTcrRx0tahGBq3BvAuMKaU7a57W)"><g style="isolation:isolate" id="Design"><path d="M 18 3 L 30 3 C 38.831 3 46 10.169 46 19 L 46 31 C 46 39.831 38.831 47 30 47 L 18 47 C 9.169 47 2 39.831 2 31 L 2 19 C 2 10.169 9.169 3 18 3 Z" style="stroke:none;fill:#000000;stroke-miterlimit:10;opacity:0.15;"/><defs><linearGradient id="_lgradient_47" x1="0.5" y1="0.1456958970233307" x2="0.5000000000000002" y2="1.0027056781132238"><stop offset="0%" style="stop-color:#EF5350"/><stop offset="99.1304347826087%" style="stop-color:#D32F2F"/></linearGradient></defs><path d="M 18 2 L 30 2 C 38.831 2 46 9.169 46 18 L 46 30 C 46 38.831 38.831 46 30 46 L 18 46 C 9.169 46 2 38.831 2 30 L 2 18 C 2 9.169 9.169 2 18 2 Z" style="stroke:none;fill:url(#_lgradient_47);stroke-miterlimit:10;"/><g id="Group"><path d=" M 32.803 14.088 C 32.335 14.089 31.862 14.189 31.483 14.384 C 30.929 14.669 30.371 15.274 30.124 15.857 C 29.861 16.476 29.824 17.569 30.045 18.149 C 30.139 18.395 30.3 18.817 30.404 19.087 C 30.638 19.697 30.723 21.039 30.574 21.792 C 30.407 22.641 29.887 23.621 29.278 24.237 C 27.449 26.086 24.683 26.118 22.867 24.312 C 22.24 23.689 22.151 23.54 19.322 18.374 C 18.362 16.62 17.5 15.151 17.321 14.961 C 16.759 14.353 15.977 14.135 15.261 14.131 C 13.722 14.106 12.655 15.338 12.402 16.66 C 12.215 17.719 12.129 17.537 17.101 26.601 C 20.239 32.323 21.731 34.96 21.976 35.219 C 22.842 36.138 24.076 36.365 25.231 35.82 C 25.535 35.676 25.879 35.418 26.098 35.169 C 26.528 34.682 35.423 18.526 35.568 17.97 C 35.719 17.388 35.681 16.56 35.478 15.987 C 35.225 15.275 34.526 14.544 33.837 14.27 C 33.528 14.148 33.167 14.088 32.804 14.088 L 32.803 14.088 Z " fill="rgb(183,28,28)"/><path d=" M 32.803 12.888 C 32.335 12.889 31.862 12.989 31.483 13.184 C 30.929 13.469 30.371 14.074 30.124 14.657 C 29.861 15.276 29.824 16.369 30.045 16.949 C 30.139 17.195 30.3 17.617 30.404 17.887 C 30.638 18.497 30.723 19.839 30.574 20.592 C 30.407 21.441 29.887 22.421 29.278 23.037 C 27.449 24.886 24.683 24.918 22.867 23.112 C 22.24 22.489 22.151 22.34 19.322 17.174 C 18.362 15.42 17.5 13.951 17.321 13.761 C 16.759 13.153 15.977 12.935 15.261 12.931 C 13.722 12.906 12.655 14.138 12.402 15.46 C 12.215 16.519 12.129 16.337 17.101 25.401 C 20.239 31.123 21.731 33.76 21.976 34.019 C 22.842 34.938 24.076 35.165 25.231 34.62 C 25.535 34.476 25.879 34.218 26.098 33.969 C 26.528 33.482 35.423 17.326 35.568 16.77 C 35.719 16.188 35.681 15.36 35.478 14.787 C 35.225 14.075 34.526 13.344 33.837 13.07 C 33.528 12.948 33.167 12.888 32.804 12.888 L 32.803 12.888 Z " fill="rgb(255,255,255)"/><path d=" M 32.803 13.489 C 32.335 13.49 31.862 13.59 31.483 13.785 C 30.929 14.07 30.371 14.674 30.124 15.258 C 29.861 15.877 29.824 16.97 30.045 17.55 C 30.139 17.796 30.3 18.218 30.404 18.488 C 30.638 19.098 30.723 20.439 30.574 21.193 C 30.407 22.042 29.887 23.022 29.278 23.638 C 27.449 25.487 24.683 25.519 22.867 23.713 C 22.24 23.09 22.151 22.941 19.322 17.775 C 18.362 16.021 17.5 14.552 17.321 14.362 C 16.759 13.753 15.977 13.536 15.261 13.532 C 13.722 13.507 12.655 14.739 12.402 16.061 C 12.215 17.12 12.129 16.938 17.101 26.002 C 20.239 31.724 21.731 34.361 21.976 34.62 C 22.842 35.539 24.076 35.766 25.231 35.221 C 25.535 35.077 25.879 34.819 26.098 34.57 C 26.528 34.083 35.423 17.927 35.568 17.371 C 35.719 16.789 35.681 15.961 35.478 15.388 C 35.225 14.676 34.526 13.945 33.837 13.671 C 33.528 13.549 33.167 13.488 32.804 13.489 L 32.803 13.489 Z " fill="rgb(247,247,247)"/></g></g></g></svg>