<?xml version="1.0" standalone="no"?><!-- Generator: Gravit.io --><svg xmlns="http://www.w3.org/2000/svg" xmlns:xlink="http://www.w3.org/1999/xlink" style="isolation:isolate" viewBox="0 0 48 48" width="48" height="48"><defs><clipPath id="_clipPath_AWAYIreJ2v3Hw53Gf5lcZ3eBnQveJGTb"><rect width="48" height="48"/></clipPath></defs><g clip-path="url(#_clipPath_AWAYIreJ2v3Hw53Gf5lcZ3eBnQveJGTb)"><g style="isolation:isolate" id="Design"><defs><linearGradient id="_lgradient_15" x1="0.5009654062751409" y1="0.14762670957361224" x2="0.5009654062751409" y2="1.0000000000000002"><stop offset="0%" style="stop-color:#FFA726"/><stop offset="100%" style="stop-color:#FB8C00"/></linearGradient></defs><path d="M 18 3 L 30 3 C 38.831 3 46 10.169 46 19 L 46 31 C 46 39.831 38.831 47 30 47 L 18 47 C 9.169 47 2 39.831 2 31 L 2 19 C 2 10.169 9.169 3 18 3 Z" style="stroke:none;fill:url(#_lgradient_15);stroke-miterlimit:10;opacity:0.15;"/><defs><linearGradient id="_lgradient_16" x1="0.5042283298097253" y1="0.14482029598308666" x2="0.5042283298097253" y2="1.0000000000000002"><stop offset="0%" style="stop-color:#F3A530"/><stop offset="100%" style="stop-color:#EB7B2D"/></linearGradient></defs><path d="M 18 2 L 30 2 C 38.831 2 46 9.169 46 18 L 46 30 C 46 38.831 38.831 46 30 46 L 18 46 C 9.169 46 2 38.831 2 30 L 2 18 C 2 9.169 9.169 2 18 2 Z" style="stroke:none;fill:url(#_lgradient_16);stroke-miterlimit:10;"/><g id="Group"><path d="M 13.852 31.76 L 34.148 31.76 C 35.17 31.76 36 32.589 36 33.611 L 36 33.908 C 36 34.93 35.17 35.76 34.148 35.76 L 13.852 35.76 C 12.83 35.76 12 34.93 12 33.908 L 12 33.611 C 12 32.589 12.83 31.76 13.852 31.76 Z" style="stroke:none;fill:#000000;stroke-miterlimit:10;opacity:0.15;"/><path d="M 13.852 31.159 L 34.148 31.159 C 35.17 31.159 36 31.988 36 33.01 L 36 33.307 C 36 34.329 35.17 35.159 34.148 35.159 L 13.852 35.159 C 12.83 35.159 12 34.329 12 33.307 L 12 33.01 C 12 31.988 12.83 31.159 13.852 31.159 Z" style="stroke:none;fill:#F7F7F7;stroke-miterlimit:10;"/><path d=" M 18.159 26.868 L 19.619 22.758 L 19.974 21.758 L 28.501 21.758 L 27.08 17.758 L 21.395 17.758 L 22.787 13.84 L 25.688 13.84 L 28.856 22.758 L 30.184 26.495 L 29.567 24.758 L 18.908 24.758 L 18.159 26.868 Z " fill="rgb(0,0,0)" fill-opacity="0.15"/><path d=" M 18.159 26.268 L 19.619 22.159 L 19.974 21.159 L 28.501 21.159 L 27.08 17.159 L 21.395 17.159 L 22.787 13.24 L 25.688 13.24 L 28.856 22.159 L 30.184 25.895 L 29.567 24.159 L 18.908 24.159 L 18.159 26.268 Z  M 17.487 28.159 L 15.83 32.824 L 16.421 31.159 L 32.054 31.159 L 30.988 28.159 L 17.487 28.159 Z " fill-rule="evenodd" fill="rgb(247,247,247)"/></g></g></g></svg>