<?xml version="1.0" standalone="no"?><!-- Generator: Gravit.io --><svg xmlns="http://www.w3.org/2000/svg" xmlns:xlink="http://www.w3.org/1999/xlink" style="isolation:isolate" viewBox="0 0 48 48" width="48" height="48"><defs><clipPath id="_clipPath_5JmiVmKD5R0WC1umL9xOtv61hk7k0IXi"><rect width="48" height="48"/></clipPath></defs><g clip-path="url(#_clipPath_5JmiVmKD5R0WC1umL9xOtv61hk7k0IXi)"><g style="isolation:isolate" id="Design"><defs><linearGradient id="_lgradient_15" x1="0.5009654062751409" y1="0.14762670957361224" x2="0.5009654062751409" y2="1.0000000000000002"><stop offset="0%" style="stop-color:#FFA726"/><stop offset="100%" style="stop-color:#FB8C00"/></linearGradient></defs><path d="M 18 3 L 30 3 C 38.831 3 46 10.169 46 19 L 46 31 C 46 39.831 38.831 47 30 47 L 18 47 C 9.169 47 2 39.831 2 31 L 2 19 C 2 10.169 9.169 3 18 3 Z" style="stroke:none;fill:url(#_lgradient_15);stroke-miterlimit:10;opacity:0.15;"/><defs><linearGradient id="_lgradient_16" x1="0.5042283298097255" y1="0.14693446088794937" x2="0.5042283298097255" y2="1.0010570824524316"><stop offset="0%" style="stop-color:#ED403C"/><stop offset="100%" style="stop-color:#00ACAC"/></linearGradient></defs><path d="M 18 2 L 30 2 C 38.831 2 46 9.169 46 18 L 46 30 C 46 38.831 38.831 46 30 46 L 18 46 C 9.169 46 2 38.831 2 30 L 2 18 C 2 9.169 9.169 2 18 2 Z" style="stroke:none;fill:url(#_lgradient_16);stroke-miterlimit:10;"/><g id="Group"><path d="M 13.852 31.959 L 34.148 31.959 C 35.17 31.959 36 32.789 36 33.811 L 36 34.107 C 36 35.129 35.17 35.959 34.148 35.959 L 13.852 35.959 C 12.83 35.959 12 35.129 12 34.107 L 12 33.811 C 12 32.789 12.83 31.959 13.852 31.959 Z" style="stroke:none;fill:#000000;stroke-miterlimit:10;opacity:0.15;"/><path d=" M 32.091 31.062 L 32.919 33.392 C 33.226 34.257 32.73 34.959 31.812 34.959 L 24.238 34.959 L 16.663 34.959 C 15.745 34.959 15.249 34.257 15.557 33.392 L 15.56 33.382 L 19.619 21.959 L 22.787 13.041 L 25.688 13.041 L 28.856 21.959 L 32.054 30.959 L 16.421 30.959 L 15.56 33.382 L 15.557 33.392 C 15.249 34.257 15.745 34.959 16.663 34.959 L 24.238 34.959 L 31.812 34.959 C 32.73 34.959 33.226 34.257 32.919 33.392 L 32.091 31.062 Z " fill="rgb(245,130,37)"/><path d=" M 21.395 16.959 L 19.974 20.959 L 28.501 20.959 L 27.08 16.959 L 21.395 16.959 Z " fill="rgb(255,255,255)"/><path d=" M 18.908 23.959 L 17.487 27.959 L 30.988 27.959 L 29.567 23.959 L 18.908 23.959 Z " fill="rgb(255,255,255)"/><path d="M 13.852 30.959 L 34.148 30.959 C 35.17 30.959 36 31.789 36 32.811 L 36 33.107 C 36 34.129 35.17 34.959 34.148 34.959 L 13.852 34.959 C 12.83 34.959 12 34.129 12 33.107 L 12 32.811 C 12 31.789 12.83 30.959 13.852 30.959 Z" style="stroke:none;fill:#F6A61B;stroke-miterlimit:10;"/></g></g></g></svg>