<?xml version="1.0" standalone="no"?><!-- Generator: Gravit.io --><svg xmlns="http://www.w3.org/2000/svg" xmlns:xlink="http://www.w3.org/1999/xlink" style="isolation:isolate" viewBox="0 0 48 48" width="48" height="48"><defs><clipPath id="_clipPath_OVkpFjFqgK7aM2YvNzyQ8BvmrZKn1aGb"><rect width="48" height="48"/></clipPath></defs><g clip-path="url(#_clipPath_OVkpFjFqgK7aM2YvNzyQ8BvmrZKn1aGb)"><g style="isolation:isolate" id="Design"><path d="M 18 3 L 30 3 C 38.831 3 46 10.169 46 19 L 46 31 C 46 39.831 38.831 47 30 47 L 18 47 C 9.169 47 2 39.831 2 31 L 2 19 C 2 10.169 9.169 3 18 3 Z" style="stroke:none;fill:#000000;stroke-miterlimit:10;opacity:0.15;"/><g id="Group P"><defs><linearGradient id="_lgradient_4" x1="0.5009654062751409" y1="0.14762670957361235" x2="0.5009654062751409" y2="1.0000000000000004"><stop offset="0%" style="stop-color:#88C542"/><stop offset="100%" style="stop-color:#56B949"/></linearGradient></defs><path d="M 18 2 L 30 2 C 38.831 2 46 9.169 46 18 L 46 30 C 46 38.831 38.831 46 30 46 L 18 46 C 9.169 46 2 38.831 2 30 L 2 18 C 2 9.169 9.169 2 18 2 Z" style="stroke:none;fill:url(#_lgradient_4);stroke-miterlimit:10;"/><g id="wps-office-etmain"><path d=" M 17.955 19.563 C 17.955 19.006 18.406 18.555 18.963 18.555 L 35.083 18.555 C 35.639 18.555 36.09 18.104 36.09 17.548 L 36.09 13.518 C 36.09 12.961 35.639 12.51 35.083 12.51 L 12.918 12.51 C 12.361 12.51 11.91 12.961 11.91 13.518 L 11.91 26.615 C 11.91 27.171 12.361 27.623 12.918 27.623 L 17.955 27.623 L 17.955 20.57 L 17.955 19.563 L 17.955 19.563 Z  M 31.053 21.578 L 31.053 21.074 L 31.053 21.578 L 30.045 21.578 L 18.963 21.578 C 18.406 21.578 17.955 21.126 17.955 20.57 L 17.955 27.623 L 30.045 27.623 L 30.045 29.638 C 30.045 30.194 29.594 30.645 29.038 30.645 L 12.918 30.645 C 12.361 30.645 11.91 31.096 11.91 31.652 L 11.91 35.683 C 11.91 36.239 12.361 36.69 12.918 36.69 L 35.083 36.69 L 35.083 36.69 C 35.639 36.69 36.09 36.239 36.09 35.683 L 36.09 22.585 C 36.09 22.029 35.639 21.578 35.083 21.578 L 31.053 21.578 Z " fill-rule="evenodd" fill="rgb(0,0,0)" fill-opacity="0.15"/><path d=" M 17.955 18.362 C 17.955 17.806 18.406 17.355 18.962 17.355 L 35.083 17.355 C 35.639 17.355 36.09 16.904 36.09 16.348 L 36.09 12.317 C 36.09 11.761 35.639 11.31 35.083 11.31 L 12.917 11.31 C 12.361 11.31 11.91 11.761 11.91 12.317 L 11.91 25.415 C 11.91 25.971 12.361 26.422 12.917 26.422 L 17.955 26.422 L 17.955 19.37 L 17.955 18.362 L 17.955 18.362 Z  M 31.052 20.378 L 31.052 19.874 L 31.052 20.378 L 30.045 20.378 L 18.962 20.378 C 18.406 20.378 17.955 19.926 17.955 19.37 L 17.955 26.422 L 30.045 26.422 L 30.045 28.438 C 30.045 28.994 29.594 29.445 29.038 29.445 L 12.917 29.445 C 12.361 29.445 11.91 29.896 11.91 30.452 L 11.91 34.483 C 11.91 35.039 12.361 35.49 12.917 35.49 L 35.083 35.49 L 35.083 35.49 C 35.639 35.49 36.09 35.039 36.09 34.483 L 36.09 21.385 C 36.09 20.829 35.639 20.378 35.083 20.378 L 31.052 20.378 Z " fill-rule="evenodd" fill="rgb(255,255,255)"/><g id="Group"><path d=" M 31.053 20.474 L 31.053 27.023 L 17.955 27.023 L 17.955 19.97 C 17.955 20.526 18.406 20.978 18.963 20.978 L 18.963 20.978 L 31.053 20.978 L 31.053 20.474 Z " fill="rgb(235,235,235)"/><path d=" M 35.082 36.09 L 12.918 36.09 L 12.918 36.09 C 12.361 36.09 11.91 35.639 11.91 35.082 L 11.91 31.053 L 11.91 31.053 C 11.91 30.496 12.361 30.045 12.918 30.045 L 29.038 30.045 L 29.038 30.045 C 29.594 30.045 30.045 29.594 30.045 29.038 L 30.045 20.978 L 35.082 20.978 L 35.082 20.978 C 35.639 20.978 36.09 21.429 36.09 21.985 L 36.09 35.082 L 36.09 35.082 C 36.09 35.639 35.639 36.09 35.082 36.09 Z  M 17.955 18.963 L 17.955 27.023 L 12.918 27.023 L 12.918 27.023 C 12.361 27.023 11.91 26.571 11.91 26.015 L 11.91 12.918 L 11.91 12.918 C 11.91 12.361 12.361 11.91 12.918 11.91 L 35.082 11.91 L 35.082 11.91 C 35.639 11.91 36.09 12.361 36.09 12.918 L 36.09 16.948 L 36.09 16.948 C 36.09 17.504 35.639 17.955 35.082 17.955 L 18.963 17.955 L 18.963 17.955 C 18.406 17.955 17.955 18.406 17.955 18.963 Z " fill="rgb(247,247,247)"/></g></g></g></g></g></svg>