<?xml version="1.0" standalone="no"?><!-- Generator: Gravit.io --><svg xmlns="http://www.w3.org/2000/svg" xmlns:xlink="http://www.w3.org/1999/xlink" style="isolation:isolate" viewBox="0 0 48 48" width="48" height="48"><defs><clipPath id="_clipPath_VI2Qh4eXjGbjvNN3Kz4Ww4xmxWallaqc"><rect width="48" height="48"/></clipPath></defs><g clip-path="url(#_clipPath_VI2Qh4eXjGbjvNN3Kz4Ww4xmxWallaqc)"><g style="isolation:isolate" id="Design"><path d="M 18 3 L 30 3 C 38.831 3 46 10.169 46 19 L 46 31 C 46 39.831 38.831 47 30 47 L 18 47 C 9.169 47 2 39.831 2 31 L 2 19 C 2 10.169 9.169 3 18 3 Z" style="stroke:none;fill:#000000;stroke-miterlimit:10;opacity:0.15;"/><g id="Group W"><defs><linearGradient id="_lgradient_3" x1="0.5009654062751409" y1="0.14762670957361235" x2="0.5009654062751409" y2="1.0000000000000004"><stop offset="0%" style="stop-color:#26A7FF"/><stop offset="100%" style="stop-color:#268AFF"/></linearGradient></defs><path d="M 18 2 L 30 2 C 38.831 2 46 9.169 46 18 L 46 30 C 46 38.831 38.831 46 30 46 L 18 46 C 9.169 46 2 38.831 2 30 L 2 18 C 2 9.169 9.169 2 18 2 Z" style="stroke:none;fill:url(#_lgradient_3);stroke-miterlimit:10;"/><g id="Group"><path d=" M 17.955 27.632 L 23.27 22.316 C 23.664 21.923 24.302 21.923 24.695 22.316 L 30.045 27.666 L 30.045 13.518 C 30.045 12.961 30.496 12.51 31.053 12.51 L 31.053 12.51 L 35.083 12.51 C 35.639 12.51 36.09 12.961 36.09 13.518 L 36.09 35.683 C 36.09 36.239 35.639 36.69 35.083 36.69 L 30.045 36.69 L 30.045 36.616 L 30.037 36.622 L 24.695 31.281 C 24.302 30.887 23.664 30.887 23.27 31.281 L 17.955 36.596 L 17.955 36.69 L 12.918 36.69 C 12.361 36.69 11.91 36.239 11.91 35.683 L 11.91 13.518 C 11.91 12.961 12.361 12.51 12.918 12.51 L 12.918 12.51 L 16.948 12.51 C 17.504 12.51 17.955 12.961 17.955 13.518 L 17.955 27.632 Z " fill="rgb(0,0,0)" fill-opacity="0.15"/><path d=" M 17.955 26.432 L 23.27 21.116 C 23.664 20.723 24.302 20.723 24.695 21.116 L 30.045 26.466 L 30.045 12.317 C 30.045 11.761 30.496 11.31 31.052 11.31 L 31.052 11.31 L 35.083 11.31 C 35.639 11.31 36.09 11.761 36.09 12.317 L 36.09 34.483 C 36.09 35.039 35.639 35.49 35.083 35.49 L 30.045 35.49 L 30.045 35.416 L 30.037 35.422 L 24.695 30.081 C 24.302 29.687 23.664 29.687 23.27 30.081 L 17.955 35.396 L 17.955 35.49 L 12.917 35.49 C 12.361 35.49 11.91 35.039 11.91 34.483 L 11.91 12.317 C 11.91 11.761 12.361 11.31 12.917 11.31 L 12.917 11.31 L 16.948 11.31 C 17.504 11.31 17.955 11.761 17.955 12.317 L 17.955 26.432 Z " fill="rgb(255,255,255)"/><g id="Group"><path d=" M 23.27 21.716 L 12.943 32.044 L 17.929 36.022 L 23.27 30.681 L 23.27 30.681 C 23.664 30.287 24.302 30.287 24.695 30.681 L 30.037 36.022 L 35.023 32.044 L 24.695 21.716 L 24.695 21.716 C 24.302 21.323 23.664 21.323 23.27 21.716 Z " fill="rgb(235,235,235)"/><path d=" M 12.918 11.91 L 16.948 11.91 L 16.948 11.91 C 17.504 11.91 17.955 12.361 17.955 12.918 L 17.955 36.09 L 12.918 36.09 L 12.918 36.09 C 12.361 36.09 11.91 35.639 11.91 35.083 L 11.91 12.918 L 11.91 12.918 C 11.91 12.361 12.361 11.91 12.918 11.91 L 12.918 11.91 Z  M 31.053 11.91 L 35.082 11.91 L 35.082 11.91 C 35.639 11.91 36.09 12.361 36.09 12.918 L 36.09 35.083 C 36.09 35.639 35.639 36.09 35.082 36.09 L 30.045 36.09 L 30.045 12.918 L 30.045 12.918 C 30.045 12.361 30.496 11.91 31.053 11.91 L 31.053 11.91 Z " fill="rgb(247,247,247)"/></g></g></g></g></g></svg>