<?xml version="1.0" standalone="no"?><!-- Generator: Gravit.io --><svg xmlns="http://www.w3.org/2000/svg" xmlns:xlink="http://www.w3.org/1999/xlink" style="isolation:isolate" viewBox="0 0 48 48" width="48" height="48"><defs><clipPath id="_clipPath_ZFgN1gCa7UqX0QPEtKnwiiHgz3sIE6n5"><rect width="48" height="48"/></clipPath></defs><g clip-path="url(#_clipPath_ZFgN1gCa7UqX0QPEtKnwiiHgz3sIE6n5)"><g style="isolation:isolate" id="Design"><path d="M 18 3 L 30 3 C 38.831 3 46 10.169 46 19 L 46 31 C 46 39.831 38.831 47 30 47 L 18 47 C 9.169 47 2 39.831 2 31 L 2 19 C 2 10.169 9.169 3 18 3 Z" style="stroke:none;fill:#000000;stroke-miterlimit:10;opacity:0.15;"/><g id="Group W"><defs><linearGradient id="_lgradient_1" x1="0.5009654062751409" y1="0.14762670957361235" x2="0.5009654062751409" y2="1.0000000000000004"><stop offset="0%" style="stop-color:#64B5F6"/><stop offset="100%" style="stop-color:#2196F3"/></linearGradient></defs><path d="M 18 2 L 30 2 C 38.831 2 46 9.169 46 18 L 46 30 C 46 38.831 38.831 46 30 46 L 18 46 C 9.169 46 2 38.831 2 30 L 2 18 C 2 9.169 9.169 2 18 2 Z" style="stroke:none;fill:url(#_lgradient_1);stroke-miterlimit:10;"/></g><g id="Group P"><defs><linearGradient id="_lgradient_2" x1="0.5009654062751409" y1="0.14762670957361235" x2="0.5009654062751409" y2="1.0000000000000004"><stop offset="0%" style="stop-color:#F9ED3A"/><stop offset="100%" style="stop-color:#F0A32F"/></linearGradient></defs><path d="M 18 2 L 30 2 C 38.831 2 46 9.169 46 18 L 46 30 C 46 38.831 38.831 46 30 46 L 18 46 C 9.169 46 2 38.831 2 30 L 2 18 C 2 9.169 9.169 2 18 2 Z" style="stroke:none;fill:url(#_lgradient_2);stroke-miterlimit:10;"/><g id="Group"><path d=" M 30.045 23.089 L 30.045 29.638 L 17.955 29.638 L 17.955 22.585 C 17.955 23.141 18.406 23.593 18.963 23.593 L 30.045 23.593 L 30.045 23.089 Z  M 29.038 18.555 L 18.963 18.555 L 18.963 18.555 C 18.406 18.555 17.955 19.006 17.955 19.563 L 17.955 35.683 L 17.955 35.683 C 17.955 36.239 17.504 36.69 16.948 36.69 L 12.918 36.69 L 12.918 36.69 C 12.361 36.69 11.91 36.239 11.91 35.683 L 11.91 13.518 L 11.91 13.518 C 11.91 12.961 12.361 12.51 12.918 12.51 L 35.083 12.51 L 35.083 12.51 C 35.639 12.51 36.09 12.961 36.09 13.518 L 36.09 28.63 L 36.09 28.63 C 36.09 29.186 35.639 29.638 35.083 29.638 L 30.045 29.638 L 30.045 19.563 L 30.045 19.563 C 30.045 19.006 29.594 18.555 29.038 18.555 Z " fill-rule="evenodd" fill="rgb(0,0,0)" fill-opacity="0.15"/><path d=" M 30.045 21.889 L 30.045 28.438 L 17.955 28.438 L 17.955 21.385 C 17.955 21.941 18.406 22.393 18.963 22.393 L 30.045 22.393 L 30.045 21.889 Z  M 29.038 17.355 L 18.963 17.355 L 18.963 17.355 C 18.406 17.355 17.955 17.806 17.955 18.363 L 17.955 34.483 L 17.955 34.483 C 17.955 35.039 17.504 35.49 16.948 35.49 L 12.918 35.49 L 12.918 35.49 C 12.361 35.49 11.91 35.039 11.91 34.483 L 11.91 12.318 L 11.91 12.318 C 11.91 11.761 12.361 11.31 12.918 11.31 L 35.083 11.31 L 35.083 11.31 C 35.639 11.31 36.09 11.761 36.09 12.318 L 36.09 27.43 L 36.09 27.43 C 36.09 27.986 35.639 28.438 35.083 28.438 L 30.045 28.438 L 30.045 18.363 L 30.045 18.363 C 30.045 17.806 29.594 17.355 29.038 17.355 Z " fill-rule="evenodd" fill="rgb(255,255,255)"/><g id="wps-office-wppmain"><path d=" M 30.045 22.489 L 30.045 29.038 L 17.955 29.038 L 17.955 21.985 C 17.955 22.541 18.406 22.993 18.963 22.993 L 30.045 22.993 L 30.045 22.489 Z " fill="rgb(235,235,235)"/><path d=" M 29.038 17.955 L 18.963 17.955 L 18.963 17.955 C 18.406 17.955 17.955 18.406 17.955 18.963 L 17.955 35.083 L 17.955 35.083 C 17.955 35.639 17.504 36.09 16.948 36.09 L 12.918 36.09 L 12.918 36.09 C 12.361 36.09 11.91 35.639 11.91 35.083 L 11.91 12.918 L 11.91 12.918 C 11.91 12.361 12.361 11.91 12.918 11.91 L 35.083 11.91 L 35.083 11.91 C 35.639 11.91 36.09 12.361 36.09 12.918 L 36.09 28.03 L 36.09 28.03 C 36.09 28.586 35.639 29.038 35.083 29.038 L 30.045 29.038 L 30.045 18.963 L 30.045 18.963 C 30.045 18.406 29.594 17.955 29.038 17.955 Z " fill="rgb(247,247,247)"/></g></g></g></g></g></svg>