<?xml version="1.0" standalone="no"?><!-- Generator: Gravit.io --><svg xmlns="http://www.w3.org/2000/svg" xmlns:xlink="http://www.w3.org/1999/xlink" style="isolation:isolate" viewBox="0 0 48 48" width="48" height="48"><defs><clipPath id="_clipPath_o3UyBapsN0Jw1jb2iPkXlcMH9t7g4PU0"><rect width="48" height="48"/></clipPath></defs><g clip-path="url(#_clipPath_o3UyBapsN0Jw1jb2iPkXlcMH9t7g4PU0)"><g style="isolation:isolate" id="Design"><path d="M 18 3 L 30 3 C 38.831 3 46 10.169 46 19 L 46 31 C 46 39.831 38.831 47 30 47 L 18 47 C 9.169 47 2 39.831 2 31 L 2 19 C 2 10.169 9.169 3 18 3 Z" style="stroke:none;fill:#000000;stroke-miterlimit:10;opacity:0.15;"/><g id="Group P"><defs><linearGradient id="_lgradient_5" x1="0.5009654062751409" y1="0.14762670957361235" x2="0.5009654062751409" y2="1.0000000000000004"><stop offset="0%" style="stop-color:#EC4A94"/><stop offset="100%" style="stop-color:#EE4035"/></linearGradient></defs><path d="M 18 2 L 30 2 C 38.831 2 46 9.169 46 18 L 46 30 C 46 38.831 38.831 46 30 46 L 18 46 C 9.169 46 2 38.831 2 30 L 2 18 C 2 9.169 9.169 2 18 2 Z" style="stroke:none;fill:url(#_lgradient_5);stroke-miterlimit:10;"/><g id="wps-office"><path d=" M 27.557 32.403 C 27.507 32.403 27.38 32.389 27.302 32.258 L 25.027 28.411 L 26.799 25.418 L 27.557 26.991 L 31.747 19.811 L 28.033 19.809 L 20.698 32.273 C 20.62 32.404 20.493 32.412 20.442 32.412 C 20.392 32.412 20.265 32.394 20.187 32.262 L 12.119 18.621 C 11.845 18.157 11.84 17.803 12.107 17.335 C 12.374 16.866 12.856 16.788 13.394 16.788 L 21.692 16.788 L 22.982 18.868 L 21.162 22.213 L 19.665 19.811 L 16.253 19.811 L 20.443 26.99 L 26.308 16.788 L 34.605 16.788 C 35.144 16.788 35.626 16.865 35.893 17.334 C 36.16 17.802 36.156 18.257 35.881 18.721 L 27.859 32.23 C 27.781 32.362 27.609 32.403 27.557 32.403 Z " fill="rgb(0,0,0)" fill-opacity="0.15"/><path d=" M 27.557 31.203 C 27.507 31.203 27.38 31.189 27.302 31.058 L 25.027 27.211 L 26.799 24.218 L 27.557 25.791 L 31.747 18.611 L 28.033 18.609 L 20.698 31.073 C 20.62 31.204 20.493 31.212 20.442 31.212 C 20.392 31.212 20.265 31.194 20.187 31.062 L 12.119 17.421 C 11.845 16.957 11.84 16.603 12.107 16.135 C 12.374 15.666 12.856 15.588 13.394 15.588 L 21.692 15.588 L 22.982 17.668 L 21.162 21.013 L 19.665 18.611 L 16.253 18.611 L 20.443 25.79 L 26.308 15.588 L 34.605 15.588 C 35.144 15.588 35.626 15.665 35.893 16.134 C 36.16 16.602 36.156 17.057 35.881 17.521 L 27.859 31.03 C 27.781 31.162 27.609 31.203 27.557 31.203 Z " fill="rgb(255,255,255)"/><path d=" M 27.557 31.802 C 27.507 31.802 27.38 31.787 27.302 31.656 L 25.027 27.81 L 26.799 24.817 L 27.557 26.389 L 31.747 19.209 L 28.033 19.207 L 20.698 31.671 C 20.62 31.802 20.493 31.81 20.442 31.81 C 20.392 31.81 20.265 31.792 20.187 31.66 L 12.119 18.02 C 11.845 17.556 11.84 17.201 12.107 16.733 C 12.374 16.264 12.856 16.186 13.394 16.186 L 21.692 16.186 L 22.982 18.266 L 21.162 21.611 L 19.665 19.209 L 16.253 19.209 L 20.443 26.388 L 26.308 16.186 L 34.605 16.186 C 35.144 16.186 35.626 16.264 35.893 16.732 C 36.16 17.201 36.156 17.655 35.881 18.119 L 27.859 31.629 C 27.781 31.76 27.609 31.802 27.557 31.802 Z " fill="rgb(247,247,247)"/></g></g></g></g></svg>