<?xml version="1.0" standalone="no"?><!-- Generator: Gravit.io --><svg xmlns="http://www.w3.org/2000/svg" xmlns:xlink="http://www.w3.org/1999/xlink" style="isolation:isolate" viewBox="0 0 48 48" width="48" height="48"><defs><clipPath id="_clipPath_BYNqKlSLuei63qDDttZUXacQ7kCXMo5m"><rect width="48" height="48"/></clipPath></defs><g clip-path="url(#_clipPath_BYNqKlSLuei63qDDttZUXacQ7kCXMo5m)"><g style="isolation:isolate" id="Design"><path d="M 18 3 L 30 3 C 38.831 3 46 10.169 46 19 L 46 31 C 46 39.831 38.831 47 30 47 L 18 47 C 9.169 47 2 39.831 2 31 L 2 19 C 2 10.169 9.169 3 18 3 Z" style="stroke:none;fill:#000000;stroke-miterlimit:10;opacity:0.15;"/><defs><linearGradient id="_lgradient_12" x1="0.5028962188254223" y1="0.15148833467417533" x2="0.5028962188254223" y2="0.9952534191472244"><stop offset="0%" style="stop-color:#4CB2D4"/><stop offset="40.55265818743017%" style="stop-color:#367ABD"/><stop offset="100%" style="stop-color:#30499B"/></linearGradient></defs><path d="M 18 2 L 30 2 C 38.831 2 46 9.169 46 18 L 46 30 C 46 38.831 38.831 46 30 46 L 18 46 C 9.169 46 2 38.831 2 30 L 2 18 C 2 9.169 9.169 2 18 2 Z" style="stroke:none;fill:url(#_lgradient_12);stroke-miterlimit:10;"/><g id="Group"><g id="Group Ellipse"><path d=" M 10.01 24.9 C 9.917 27.056 10.331 29.265 11.306 31.355 L 11.306 31.355 C 14.573 38.361 22.913 41.397 29.92 38.13 C 35.158 35.687 38.177 30.408 37.99 24.97 C 37.797 30.046 34.836 34.837 29.92 37.13 C 22.913 40.397 14.573 37.361 11.306 30.355 C 10.481 28.587 10.058 26.734 10.01 24.9 Z " fill="rgb(0,0,0)" fill-opacity="0.15"/><path d=" M 10.01 24.073 C 9.823 18.636 12.842 13.357 18.08 10.914 C 25.087 7.647 33.427 10.683 36.694 17.689 C 37.669 19.779 38.083 21.987 37.99 24.144 L 37.99 24.144 C 37.942 22.309 37.519 20.457 36.694 18.689 C 33.427 11.683 25.087 8.647 18.08 11.914 C 13.164 14.207 10.203 18.997 10.01 24.073 Z " fill="rgb(255,255,255)"/><path d=" M 11.306 30.42 C 8.038 23.413 11.074 15.073 18.08 11.806 C 25.087 8.538 33.427 11.574 36.694 18.58 C 39.962 25.587 36.926 33.927 29.92 37.194 C 22.913 40.462 14.573 37.426 11.306 30.42 Z  M 13.656 29.323 C 10.994 23.615 13.468 16.818 19.177 14.156 C 24.885 11.494 31.682 13.968 34.344 19.677 C 37.006 25.385 34.532 32.182 28.823 34.844 C 23.115 37.506 16.318 35.032 13.656 29.323 Z " fill-rule="evenodd" fill="rgb(247,247,247)"/></g><g id="Rocket"><path d=" M 25.869 31.663 C 27.278 30.03 27.521 28.342 27.476 27.213 C 27.471 27.083 27.462 26.957 27.45 26.837 C 29.636 24.65 30.377 22.515 30.615 21.109 C 30.873 19.577 30.612 18.573 30.601 18.531 C 30.587 18.477 30.544 18.435 30.49 18.421 C 30.449 18.409 29.445 18.149 27.912 18.407 C 26.506 18.644 24.371 19.386 22.185 21.572 C 22.064 21.56 21.939 21.551 21.809 21.546 C 20.68 21.501 18.991 21.744 17.359 23.153 C 17.306 23.199 17.274 23.265 17.272 23.336 C 17.269 23.406 17.296 23.474 17.346 23.524 L 19.595 25.773 C 19.479 26.145 19.415 26.475 19.413 26.736 C 19.413 26.778 19.429 26.818 19.459 26.847 L 19.514 26.902 C 18.42 28.162 18.456 30.003 18.459 30.084 C 18.462 30.215 18.517 30.333 18.603 30.419 C 18.689 30.505 18.807 30.559 18.938 30.563 C 19.019 30.565 20.86 30.602 22.119 29.508 L 22.174 29.563 C 22.204 29.592 22.244 29.609 22.286 29.609 C 22.547 29.607 22.876 29.543 23.249 29.427 L 25.498 31.676 C 25.548 31.726 25.616 31.753 25.686 31.75 C 25.756 31.748 25.823 31.716 25.869 31.663 Z  M 27.497 21.525 C 28.039 22.068 28.039 22.947 27.497 23.49 C 26.954 24.032 26.075 24.032 25.532 23.49 C 24.99 22.947 24.99 22.068 25.532 21.525 C 26.075 20.983 26.954 20.983 27.497 21.525 Z  M 19.476 29.546 C 19.536 29.026 19.711 28.213 20.213 27.601 L 21.421 28.809 C 20.809 29.311 19.995 29.486 19.476 29.546 Z " fill="rgb(0,0,0)" fill-opacity="0.15"/><path d=" M 25.869 30.663 C 27.278 29.03 27.521 27.342 27.476 26.213 C 27.471 26.083 27.462 25.957 27.45 25.837 C 29.636 23.65 30.377 21.515 30.615 20.109 C 30.873 18.577 30.612 17.573 30.601 17.531 C 30.587 17.477 30.544 17.435 30.49 17.421 C 30.449 17.409 29.445 17.149 27.912 17.407 C 26.506 17.644 24.371 18.386 22.185 20.572 C 22.064 20.56 21.939 20.551 21.809 20.546 C 20.68 20.501 18.991 20.744 17.359 22.153 C 17.306 22.199 17.274 22.265 17.272 22.336 C 17.269 22.406 17.296 22.474 17.346 22.524 L 19.595 24.773 C 19.479 25.145 19.415 25.475 19.413 25.736 C 19.413 25.778 19.429 25.818 19.459 25.847 L 19.514 25.902 C 18.42 27.162 18.456 29.003 18.459 29.084 C 18.462 29.215 18.517 29.333 18.603 29.419 C 18.689 29.505 18.807 29.559 18.938 29.563 C 19.019 29.565 20.86 29.602 22.119 28.508 L 22.174 28.563 C 22.204 28.592 22.244 28.609 22.286 28.609 C 22.547 28.607 22.876 28.543 23.249 28.427 L 25.498 30.676 C 25.548 30.726 25.616 30.753 25.686 30.75 C 25.756 30.748 25.823 30.716 25.869 30.663 Z  M 27.497 20.525 C 28.039 21.068 28.039 21.947 27.497 22.49 C 26.954 23.032 26.075 23.032 25.532 22.49 C 24.99 21.947 24.99 21.068 25.532 20.525 C 26.075 19.983 26.954 19.983 27.497 20.525 Z  M 19.476 28.546 C 19.536 28.026 19.711 27.213 20.213 26.601 L 21.421 27.809 C 20.809 28.311 19.995 28.486 19.476 28.546 Z " fill="rgb(247,247,247)"/></g></g></g></g></svg>