<?xml version="1.0" standalone="no"?><!-- Generator: Gravit.io --><svg xmlns="http://www.w3.org/2000/svg" xmlns:xlink="http://www.w3.org/1999/xlink" style="isolation:isolate" viewBox="0 0 48 48" width="48" height="48"><defs><clipPath id="_clipPath_Gh1v5o3gbh5rcrie5PwU2blT30Iw7nki"><rect width="48" height="48"/></clipPath></defs><g clip-path="url(#_clipPath_Gh1v5o3gbh5rcrie5PwU2blT30Iw7nki)"><g style="isolation:isolate" id="Design"><path d="M 18 3 L 30 3 C 38.831 3 46 10.169 46 19 L 46 31 C 46 39.831 38.831 47 30 47 L 18 47 C 9.169 47 2 39.831 2 31 L 2 19 C 2 10.169 9.169 3 18 3 Z" style="stroke:none;fill:#000000;stroke-miterlimit:10;opacity:0.15;"/><defs><linearGradient id="_lgradient_69" x1="0.5028962188254223" y1="0.15148833467417533" x2="0.5028962188254223" y2="0.9952534191472244"><stop offset="0%" style="stop-color:#4CB2D4"/><stop offset="40.55265818743017%" style="stop-color:#367ABD"/><stop offset="100%" style="stop-color:#367ABD"/></linearGradient></defs><path d="M 18 2 L 30 2 C 38.831 2 46 9.169 46 18 L 46 30 C 46 38.831 38.831 46 30 46 L 18 46 C 9.169 46 2 38.831 2 30 L 2 18 C 2 9.169 9.169 2 18 2 Z" style="stroke:none;fill:url(#_lgradient_69);stroke-miterlimit:10;"/><g id="Group"><g id="Group Ellipse"><path d=" M 10.014 24.22 C 9.908 26.4 10.32 28.635 11.306 30.748 C 14.573 37.755 22.913 40.79 29.92 37.523 C 35.199 35.062 38.224 29.719 37.986 24.238 C 37.769 29.286 34.812 34.042 29.92 36.323 C 22.913 39.59 14.573 36.555 11.306 29.548 C 10.5 27.821 10.078 26.013 10.014 24.22 Z " fill="rgb(0,0,0)" fill-opacity="0.15"/><path d=" M 10.001 23.911 C 9.917 18.563 12.923 13.409 18.08 11.004 C 25.087 7.737 33.427 10.773 36.694 17.779 C 37.647 19.821 38.064 21.976 37.999 24.086 C 37.98 22.17 37.557 20.228 36.694 18.379 C 33.427 11.373 25.087 8.337 18.08 11.604 C 13.116 13.919 10.145 18.781 10.001 23.911 Z " fill="rgb(255,255,255)"/><path d=" M 11.306 30.118 C 8.038 23.112 11.074 14.771 18.08 11.504 C 25.087 8.237 33.427 11.273 36.694 18.279 C 39.962 25.285 36.926 33.626 29.92 36.893 C 22.913 40.16 14.573 37.124 11.306 30.118 Z  M 13.656 29.022 C 10.994 23.313 13.468 16.517 19.177 13.855 C 24.885 11.193 31.682 13.666 34.344 19.375 C 37.006 25.084 34.532 31.88 28.823 34.542 C 23.115 37.204 16.318 34.731 13.656 29.022 Z " fill-rule="evenodd" fill="rgb(247,247,247)"/></g><g id="Rocket"><path d=" M 25.869 31.404 C 27.278 29.772 27.521 28.084 27.476 26.955 C 27.471 26.825 27.462 26.699 27.45 26.578 C 29.636 24.392 30.377 22.257 30.615 20.851 C 30.873 19.318 30.612 18.315 30.601 18.273 C 30.587 18.219 30.544 18.177 30.49 18.162 C 30.449 18.151 29.445 17.89 27.912 18.149 C 26.506 18.386 24.371 19.128 22.185 21.314 C 22.064 21.302 21.939 21.293 21.809 21.288 C 20.68 21.243 18.991 21.486 17.359 22.895 C 17.306 22.941 17.274 23.007 17.272 23.077 C 17.269 23.148 17.296 23.216 17.346 23.266 L 19.595 25.515 C 19.479 25.887 19.415 26.217 19.413 26.478 C 19.413 26.52 19.429 26.56 19.459 26.589 L 19.514 26.644 C 18.42 27.904 18.456 29.745 18.459 29.826 C 18.462 29.957 18.517 30.075 18.603 30.161 C 18.689 30.247 18.807 30.301 18.938 30.305 C 19.019 30.307 20.86 30.344 22.119 29.25 L 22.174 29.305 C 22.204 29.334 22.244 29.351 22.286 29.351 C 22.547 29.349 22.876 29.285 23.249 29.169 L 25.498 31.418 C 25.548 31.468 25.616 31.495 25.686 31.492 C 25.756 31.489 25.823 31.458 25.869 31.404 Z  M 27.497 21.267 C 28.039 21.809 28.039 22.689 27.497 23.231 C 26.954 23.774 26.075 23.774 25.532 23.231 C 24.99 22.689 24.99 21.809 25.532 21.267 C 26.075 20.725 26.954 20.725 27.497 21.267 Z  M 19.476 29.288 C 19.536 28.768 19.711 27.955 20.213 27.343 L 21.421 28.551 C 20.809 29.053 19.995 29.228 19.476 29.288 Z " fill="rgb(0,0,0)" fill-opacity="0.15"/><path d=" M 25.869 30.404 C 27.278 28.772 27.521 27.084 27.476 25.955 C 27.471 25.825 27.462 25.699 27.45 25.578 C 29.636 23.392 30.377 21.257 30.615 19.851 C 30.873 18.318 30.612 17.315 30.601 17.273 C 30.587 17.219 30.544 17.177 30.49 17.162 C 30.449 17.151 29.445 16.89 27.912 17.149 C 26.506 17.386 24.371 18.128 22.185 20.314 C 22.064 20.302 21.939 20.293 21.809 20.288 C 20.68 20.243 18.991 20.486 17.359 21.895 C 17.306 21.941 17.274 22.007 17.272 22.077 C 17.269 22.148 17.296 22.216 17.346 22.266 L 19.595 24.515 C 19.479 24.887 19.415 25.217 19.413 25.478 C 19.413 25.52 19.429 25.56 19.459 25.589 L 19.514 25.644 C 18.42 26.904 18.456 28.745 18.459 28.826 C 18.462 28.957 18.517 29.075 18.603 29.161 C 18.689 29.247 18.807 29.301 18.938 29.305 C 19.019 29.307 20.86 29.344 22.119 28.25 L 22.174 28.305 C 22.204 28.334 22.244 28.351 22.286 28.351 C 22.547 28.349 22.876 28.285 23.249 28.169 L 25.498 30.418 C 25.548 30.468 25.616 30.495 25.686 30.492 C 25.756 30.489 25.823 30.458 25.869 30.404 Z  M 27.497 20.267 C 28.039 20.809 28.039 21.689 27.497 22.231 C 26.954 22.774 26.075 22.774 25.532 22.231 C 24.99 21.689 24.99 20.809 25.532 20.267 C 26.075 19.725 26.954 19.725 27.497 20.267 Z  M 19.476 28.288 C 19.536 27.768 19.711 26.955 20.213 26.343 L 21.421 27.551 C 20.809 28.053 19.995 28.228 19.476 28.288 Z " fill="rgb(247,247,247)"/></g></g></g></g></svg>