<?xml version="1.0" standalone="no"?><!-- Generator: Gravit.io --><svg xmlns="http://www.w3.org/2000/svg" xmlns:xlink="http://www.w3.org/1999/xlink" style="isolation:isolate" viewBox="0 0 48 48" width="48" height="48"><defs><clipPath id="_clipPath_vovNM4r1K5gv3IFtEXnyHthGnGFHTM7c"><rect width="48" height="48"/></clipPath></defs><g clip-path="url(#_clipPath_vovNM4r1K5gv3IFtEXnyHthGnGFHTM7c)"><g style="isolation:isolate" id="Design"><path d="M 18 3 L 30 3 C 38.831 3 46 10.169 46 19 L 46 31 C 46 39.831 38.831 47 30 47 L 18 47 C 9.169 47 2 39.831 2 31 L 2 19 C 2 10.169 9.169 3 18 3 Z" style="stroke:none;fill:#000000;stroke-miterlimit:10;opacity:0.15;"/><defs><linearGradient id="_lgradient_2" x1="0.5028962188254223" y1="0.15148833467417533" x2="0.5028962188254223" y2="0.9952534191472244"><stop offset="0%" style="stop-color:#81D4FA"/><stop offset="100%" style="stop-color:#03A9F4"/></linearGradient></defs><path d="M 18 2 L 30 2 C 38.831 2 46 9.169 46 18 L 46 30 C 46 38.831 38.831 46 30 46 L 18 46 C 9.169 46 2 38.831 2 30 L 2 18 C 2 9.169 9.169 2 18 2 Z" style="stroke:none;fill:url(#_lgradient_2);stroke-miterlimit:10;"/><g id="Group"><g id="Group Ellipse"><path d=" M 10.01 24.965 C 9.917 27.121 10.331 29.33 11.306 31.42 L 11.306 31.42 C 14.573 38.426 22.913 41.462 29.92 38.194 C 35.158 35.752 38.177 30.473 37.99 25.035 C 37.797 30.111 34.836 34.902 29.92 37.194 C 22.913 40.462 14.573 37.426 11.306 30.42 C 10.481 28.652 10.058 26.799 10.01 24.965 Z " fill="rgb(0,0,0)" fill-opacity="0.15"/><path d=" M 10.01 23.965 C 9.823 18.527 12.842 13.248 18.08 10.806 C 25.087 7.538 33.427 10.574 36.694 17.58 C 37.669 19.67 38.083 21.879 37.99 24.035 L 37.99 24.035 C 37.942 22.201 37.519 20.348 36.694 18.58 C 33.427 11.574 25.087 8.538 18.08 11.806 C 13.164 14.098 10.203 18.889 10.01 23.965 Z " fill="rgb(255,255,255)"/><path d=" M 11.306 30.42 C 8.038 23.413 11.074 15.073 18.08 11.806 C 25.087 8.538 33.427 11.574 36.694 18.58 C 39.962 25.587 36.926 33.927 29.92 37.194 C 22.913 40.462 14.573 37.426 11.306 30.42 Z  M 13.656 29.323 C 10.994 23.615 13.468 16.818 19.177 14.156 C 24.885 11.494 31.682 13.968 34.344 19.677 C 37.006 25.385 34.532 32.182 28.823 34.844 C 23.115 37.506 16.318 35.032 13.656 29.323 Z " fill-rule="evenodd" fill="rgb(247,247,247)"/></g><g id="Rocket"><path d=" M 25.869 31.935 C 27.278 30.303 27.521 28.615 27.476 27.486 C 27.471 27.356 27.462 27.23 27.45 27.11 C 29.636 24.923 30.377 22.788 30.615 21.382 C 30.873 19.849 30.612 18.846 30.601 18.804 C 30.587 18.75 30.544 18.708 30.49 18.693 C 30.449 18.682 29.445 18.421 27.912 18.68 C 26.506 18.917 24.371 19.659 22.185 21.845 C 22.064 21.833 21.939 21.824 21.809 21.819 C 20.68 21.774 18.991 22.017 17.359 23.426 C 17.306 23.472 17.274 23.538 17.272 23.608 C 17.269 23.679 17.296 23.747 17.346 23.797 L 19.595 26.046 C 19.479 26.418 19.415 26.748 19.413 27.009 C 19.413 27.051 19.429 27.091 19.459 27.12 L 19.514 27.175 C 18.42 28.435 18.456 30.276 18.459 30.357 C 18.462 30.488 18.517 30.606 18.603 30.692 C 18.689 30.778 18.807 30.832 18.938 30.836 C 19.019 30.838 20.86 30.875 22.119 29.781 L 22.174 29.836 C 22.204 29.865 22.244 29.882 22.286 29.882 C 22.547 29.88 22.876 29.816 23.249 29.7 L 25.498 31.949 C 25.548 31.999 25.616 32.026 25.686 32.023 C 25.756 32.021 25.823 31.989 25.869 31.935 Z  M 27.497 21.798 C 28.039 22.341 28.039 23.22 27.497 23.763 C 26.954 24.305 26.075 24.305 25.532 23.763 C 24.99 23.22 24.99 22.341 25.532 21.798 C 26.075 21.256 26.954 21.256 27.497 21.798 Z  M 19.476 29.819 C 19.536 29.299 19.711 28.486 20.213 27.874 L 21.421 29.082 C 20.809 29.584 19.995 29.759 19.476 29.819 Z " fill="rgb(0,0,0)" fill-opacity="0.15"/><path d=" M 20.196 29.083 C 20.776 28.981 21.515 28.717 22.119 28.191 L 22.174 28.246 C 22.204 28.276 22.244 28.293 22.286 28.292 C 22.547 28.291 22.876 28.227 23.249 28.11 L 25.498 30.36 C 25.548 30.41 25.616 30.436 25.686 30.434 C 25.756 30.431 25.823 30.399 25.869 30.346 C 27.278 28.714 27.521 27.025 27.476 25.896 C 27.471 25.766 27.462 25.641 27.45 25.52 C 29.636 23.334 30.377 21.199 30.615 19.793 C 30.873 18.26 30.612 17.257 30.601 17.215 C 30.587 17.161 30.544 17.119 30.49 17.104 C 30.449 17.093 29.445 16.832 27.912 17.091 C 26.506 17.328 24.371 18.07 22.185 20.255 C 22.064 20.244 21.939 20.234 21.809 20.229 C 20.68 20.185 18.991 20.428 17.359 21.837 C 17.306 21.883 17.274 21.949 17.272 22.019 C 17.269 22.09 17.296 22.158 17.346 22.207 L 19.595 24.457 C 19.479 24.829 19.415 25.159 19.413 25.419 C 19.413 25.461 19.429 25.501 19.459 25.531 L 19.514 25.586 C 18.42 26.846 18.456 28.686 18.459 28.768 C 18.462 28.898 18.517 29.016 18.603 29.102 C 18.689 29.189 18.807 29.243 18.938 29.247 C 18.964 29.247 19.172 29.252 19.479 29.208 L 19.479 29.208 C 19.477 29.216 19.476 29.223 19.476 29.23 C 19.617 29.213 19.78 29.188 19.956 29.147 C 19.775 29.188 19.619 29.205 19.48 29.209 C 19.542 28.69 19.719 27.89 20.214 27.286 L 21.422 28.494 C 21.05 28.799 20.604 28.983 20.196 29.083 Z  M 27.793 21.693 C 28.004 21.2 27.9 20.612 27.498 20.21 C 26.955 19.668 26.076 19.668 25.534 20.21 C 25.132 20.612 25.028 21.198 25.237 21.69 C 25.026 22.183 25.13 22.771 25.532 23.173 C 26.075 23.716 26.954 23.716 27.497 23.173 C 27.898 22.772 28.002 22.186 27.793 21.693 L 27.793 21.693 Z " fill-rule="evenodd" fill="rgb(255,255,255)"/><path d=" M 25.869 30.935 C 27.278 29.303 27.521 27.615 27.476 26.486 C 27.471 26.356 27.462 26.23 27.45 26.11 C 29.636 23.923 30.377 21.788 30.615 20.382 C 30.873 18.849 30.612 17.846 30.601 17.804 C 30.587 17.75 30.544 17.708 30.49 17.693 C 30.449 17.682 29.445 17.421 27.912 17.68 C 26.506 17.917 24.371 18.659 22.185 20.845 C 22.064 20.833 21.939 20.824 21.809 20.819 C 20.68 20.774 18.991 21.017 17.359 22.426 C 17.306 22.472 17.274 22.538 17.272 22.608 C 17.269 22.679 17.296 22.747 17.346 22.797 L 19.595 25.046 C 19.479 25.418 19.415 25.748 19.413 26.009 C 19.413 26.051 19.429 26.091 19.459 26.12 L 19.514 26.175 C 18.42 27.435 18.456 29.276 18.459 29.357 C 18.462 29.488 18.517 29.606 18.603 29.692 C 18.689 29.778 18.807 29.832 18.938 29.836 C 19.019 29.838 20.86 29.875 22.119 28.781 L 22.174 28.836 C 22.204 28.865 22.244 28.882 22.286 28.882 C 22.547 28.88 22.876 28.816 23.249 28.7 L 25.498 30.949 C 25.548 30.999 25.616 31.026 25.686 31.023 C 25.756 31.021 25.823 30.989 25.869 30.935 Z  M 27.497 20.798 C 28.039 21.341 28.039 22.22 27.497 22.763 C 26.954 23.305 26.075 23.305 25.532 22.763 C 24.99 22.22 24.99 21.341 25.532 20.798 C 26.075 20.256 26.954 20.256 27.497 20.798 Z  M 19.476 28.819 C 19.536 28.299 19.711 27.486 20.213 26.874 L 21.421 28.082 C 20.809 28.584 19.995 28.759 19.476 28.819 Z " fill="rgb(247,247,247)"/></g></g></g></g></svg>