<?xml version="1.0" standalone="no"?><!-- Generator: Gravit.io --><svg xmlns="http://www.w3.org/2000/svg" xmlns:xlink="http://www.w3.org/1999/xlink" style="isolation:isolate" viewBox="0 0 48 48" width="48" height="48"><defs><clipPath id="_clipPath_LIJlb72oHxhC6JaDEh5o7ZlXN1fUwhd7"><rect width="48" height="48"/></clipPath></defs><g clip-path="url(#_clipPath_LIJlb72oHxhC6JaDEh5o7ZlXN1fUwhd7)"><g style="isolation:isolate" id="Design"><path d="M 18 3 L 30 3 C 38.831 3 46 10.169 46 19 L 46 31 C 46 39.831 38.831 47 30 47 L 18 47 C 9.169 47 2 39.831 2 31 L 2 19 C 2 10.169 9.169 3 18 3 Z" style="stroke:none;fill:#000000;stroke-miterlimit:10;opacity:0.15;"/><defs><linearGradient id="_lgradient_12" x1="0.5" y1="-1.1102230246251565e-16" x2="0.49999999999999983" y2="1.0000000000000004"><stop offset="0%" style="stop-color:#D0EEAB"/><stop offset="100%" style="stop-color:#4DB5C8"/></linearGradient></defs><path d="M 18 2 L 30 2 C 38.831 2 46 9.169 46 18 L 46 30 C 46 38.831 38.831 46 30 46 L 18 46 C 9.169 46 2 38.831 2 30 L 2 18 C 2 9.169 9.169 2 18 2 Z" style="stroke:none;fill:url(#_lgradient_12);stroke-miterlimit:10;"/><g id="3618325"><path d=" M 32.413 25.607 L 29.156 27.488 L 30.92 30.543 L 27.393 30.543 L 27.393 29.03 L 24 32.423 L 27.393 35.815 L 27.393 34.303 L 33.567 34.303 L 35.5 30.955 L 32.413 25.607 Z  M 25.765 21.612 L 25.765 21.612 L 24.455 22.369 L 29.09 23.61 L 30.331 18.976 L 29.019 19.733 L 29.021 19.732 L 25.934 14.385 L 22.067 14.385 L 18.979 19.732 L 22.236 21.612 L 24 18.556 L 25.765 21.612 Z  M 18.844 27.488 L 20.153 28.243 L 18.911 23.609 L 14.277 24.851 L 15.587 25.607 L 12.5 30.954 L 14.433 34.303 L 20.608 34.303 L 20.608 30.543 L 17.08 30.543 L 18.844 27.488 Z " fill-rule="evenodd" fill="rgb(0,0,0)" fill-opacity="0.15"/><path d=" M 32.413 24.407 L 29.156 26.288 L 30.92 29.343 L 27.393 29.343 L 27.393 27.83 L 24 31.223 L 27.393 34.615 L 27.393 33.103 L 33.567 33.103 L 35.5 29.755 L 32.413 24.407 Z  M 25.765 20.412 L 25.765 20.412 L 24.455 21.169 L 29.09 22.41 L 30.331 17.776 L 29.019 18.533 L 29.021 18.532 L 25.934 13.185 L 22.067 13.185 L 18.979 18.532 L 22.236 20.412 L 24 17.356 L 25.765 20.412 Z  M 18.844 26.288 L 20.153 27.043 L 18.911 22.409 L 14.277 23.651 L 15.587 24.407 L 12.5 29.754 L 14.433 33.103 L 20.608 33.103 L 20.608 29.343 L 17.08 29.343 L 18.844 26.288 Z " fill-rule="evenodd" fill="rgb(255,255,255)"/><g id="Group"><path d=" M 18.844 26.892 L 20.153 27.648 L 18.911 23.014 L 14.277 24.256 L 15.587 25.012 L 12.5 30.359 L 14.433 33.707 L 20.607 33.707 L 20.607 29.947 L 17.08 29.947 L 18.844 26.892 Z " fill="rgb(247,247,247)"/><path d=" M 25.765 21.017 L 25.765 21.017 L 24.455 21.773 L 29.09 23.014 L 30.331 18.38 L 29.019 19.138 L 29.021 19.137 L 25.934 13.789 L 22.067 13.789 L 18.979 19.137 L 22.236 21.017 L 24 17.961 L 25.765 21.017 Z " fill="rgb(247,247,247)"/><path d=" M 32.413 25.012 L 29.156 26.892 L 30.92 29.947 L 27.393 29.947 L 27.393 28.434 L 24 31.827 L 27.393 35.22 L 27.393 33.707 L 33.567 33.707 L 35.5 30.359 L 32.413 25.012 Z " fill="rgb(247,247,247)"/></g></g></g></g></svg>