<?xml version="1.0" standalone="no"?><!-- Generator: Gravit.io --><svg xmlns="http://www.w3.org/2000/svg" xmlns:xlink="http://www.w3.org/1999/xlink" style="isolation:isolate" viewBox="0 0 48 48" width="48" height="48"><defs><clipPath id="_clipPath_xUmrC1LXy9MUh58KY9Ld4xWqwobWjxBf"><rect width="48" height="48"/></clipPath></defs><g clip-path="url(#_clipPath_xUmrC1LXy9MUh58KY9Ld4xWqwobWjxBf)"><g style="isolation:isolate" id="Design"><path d="M 18 3 L 30 3 C 38.831 3 46 10.169 46 19 L 46 31 C 46 39.831 38.831 47 30 47 L 18 47 C 9.169 47 2 39.831 2 31 L 2 19 C 2 10.169 9.169 3 18 3 Z" style="stroke:none;fill:#000000;stroke-miterlimit:10;opacity:0.15;"/><defs><linearGradient id="_lgradient_76" x1="0.4999999999999998" y1="-1.1102230246251565e-16" x2="0.4999999999999996" y2="1.0000000000000004"><stop offset="0%" style="stop-color:#D0EEAB"/><stop offset="100%" style="stop-color:#4DB5C8"/></linearGradient></defs><path d="M 18 2 L 30 2 C 38.831 2 46 9.169 46 18 L 46 30 C 46 38.831 38.831 46 30 46 L 18 46 C 9.169 46 2 38.831 2 30 L 2 18 C 2 9.169 9.169 2 18 2 Z" style="stroke:none;fill:url(#_lgradient_76);stroke-miterlimit:10;"/><g id="3618325"><path d=" M 34.242 25.848 L 30.277 28.137 L 32.425 31.856 L 28.13 31.856 L 28.13 30.014 L 24 34.145 L 28.13 38.275 L 28.13 36.434 L 35.647 36.434 L 38 32.358 L 34.242 25.848 Z  M 26.148 20.984 L 26.149 20.985 L 24.554 21.905 L 30.196 23.416 L 31.707 17.775 L 30.11 18.697 L 30.112 18.695 L 26.354 12.186 L 21.646 12.185 L 17.888 18.695 L 21.852 20.984 L 24 17.264 L 26.148 20.984 Z  M 17.723 28.137 L 19.317 29.057 L 17.805 23.415 L 12.163 24.927 L 13.758 25.848 L 10 32.358 L 12.353 36.434 L 19.87 36.434 L 19.87 31.856 L 15.575 31.856 L 17.723 28.137 Z " fill-rule="evenodd" fill="rgb(0,0,0)" fill-opacity="0.15"/><path d=" M 34.242 24.387 L 30.277 26.676 L 32.425 30.395 L 28.13 30.395 L 28.13 28.554 L 24 32.684 L 28.13 36.815 L 28.13 34.973 L 35.647 34.973 L 38 30.897 L 34.242 24.387 Z  M 26.148 19.524 L 26.149 19.524 L 24.554 20.445 L 30.196 21.956 L 31.707 16.314 L 30.11 17.236 L 30.112 17.235 L 26.354 10.725 L 21.646 10.725 L 17.888 17.235 L 21.852 19.524 L 24 15.804 L 26.148 19.524 Z  M 17.723 26.676 L 19.317 27.596 L 17.805 21.954 L 12.163 23.467 L 13.758 24.387 L 10 30.897 L 12.353 34.973 L 19.87 34.973 L 19.87 30.395 L 15.575 30.395 L 17.723 26.676 Z " fill-rule="evenodd" fill="rgb(255,255,255)"/><g id="Group"><path d=" M 17.723 27.412 L 19.317 28.332 L 17.805 22.69 L 12.163 24.203 L 13.758 25.123 L 10 31.633 L 12.353 35.709 L 19.87 35.709 L 19.87 31.131 L 15.575 31.131 L 17.723 27.412 Z " fill="rgb(247,247,247)"/><path d=" M 26.148 20.26 L 26.149 20.26 L 24.554 21.18 L 30.196 22.692 L 31.707 17.05 L 30.11 17.972 L 30.112 17.971 L 26.354 11.461 L 21.646 11.461 L 17.888 17.971 L 21.852 20.26 L 24 16.539 L 26.148 20.26 Z " fill="rgb(247,247,247)"/><path d=" M 34.242 25.123 L 30.277 27.412 L 32.425 31.131 L 28.13 31.131 L 28.13 29.29 L 24 33.42 L 28.13 37.55 L 28.13 35.709 L 35.647 35.709 L 38 31.633 L 34.242 25.123 Z " fill="rgb(247,247,247)"/></g></g></g></g></svg>