<?xml version="1.0" standalone="no"?><!-- Generator: Gravit.io --><svg xmlns="http://www.w3.org/2000/svg" xmlns:xlink="http://www.w3.org/1999/xlink" style="isolation:isolate" viewBox="0 0 256 256" width="256" height="256"><defs><clipPath id="_clipPath_csJ1arOTf6TIehUjhbTxMXy0cam9LNnY"><rect width="256" height="256"/></clipPath></defs><g clip-path="url(#_clipPath_csJ1arOTf6TIehUjhbTxMXy0cam9LNnY)"><g style="isolation:isolate" id="Icon"><path d=" M 3.013 129.5 C 3.003 129.999 3 130.499 3 131 C 3 199.989 59.011 256 128 256 C 196.989 256 253 199.989 253 131 C 253 130.499 252.997 129.999 252.987 129.5 C 252.186 197.8 196.488 253 128 253 C 59.512 253 3.814 197.8 3.013 129.5 Z " fill="rgb(0,0,0)" fill-opacity="0.15"/><path d=" M 3 128 C 3 59.011 59.011 3 128 3 C 196.989 3 253 59.011 253 128 C 253 196.989 196.989 253 128 253 C 59.011 253 3 196.989 3 128 Z " fill="rgb(233,30,99)"/><clipPath id="_clipPath_DbbxDPm3RYq02QPvpT2oiQuTC4zgE0y4"><path d=" M 3 128 C 3 59.011 59.011 3 128 3 C 196.989 3 253 59.011 253 128 C 253 196.989 196.989 253 128 253 C 59.011 253 3 196.989 3 128 Z " fill="rgb(233,30,99)"/></clipPath><g clip-path="url(#_clipPath_DbbxDPm3RYq02QPvpT2oiQuTC4zgE0y4)"><path d=" M 142.112 3.789 C 137.48 3.268 132.771 3 128 3 C 59.011 3 3 59.011 3 128 C 3 128 3 128 3 128 C 3 151.336 9.409 173.187 20.56 191.888 L 162 46 L 48 93 L 142.112 3.789 Z " fill="rgb(255,238,88)"/><path d=" M 226.434 50.973 C 228.641 53.801 230.735 56.721 232.695 59.737 C 235.094 63.734 238.066 69.099 241.327 75.256 C 248.821 91.279 253 109.156 253 128 C 253 196.989 196.989 253 128 253 C 124.534 253 121.101 252.859 117.707 252.579 C 143.623 172.533 152.854 136.45 226 51 C 226.098 50.886 226.24 50.871 226.434 50.973 Z " fill="rgb(255,238,88)"/></g></g></g></svg>