<?xml version="1.0" standalone="no"?><!-- Generator: Gravit.io --><svg xmlns="http://www.w3.org/2000/svg" xmlns:xlink="http://www.w3.org/1999/xlink" style="isolation:isolate" viewBox="0 0 256 256" width="256" height="256"><defs><clipPath id="_clipPath_nKtz5WwT8mQieDCBcylM47JeOIgzI3R7"><rect width="256" height="256"/></clipPath></defs><g clip-path="url(#_clipPath_nKtz5WwT8mQieDCBcylM47JeOIgzI3R7)"><g style="isolation:isolate" id="Icon"><path d=" M 3.013 128 C 3.003 128.499 3 128.999 3 129.5 C 3 198.489 59.011 254.5 128 254.5 C 196.989 254.5 253 198.489 253 129.5 C 253 128.999 252.997 128.499 252.987 128 C 252.186 196.3 196.488 251.5 128 251.5 C 59.512 251.5 3.814 196.3 3.013 128 Z " fill="rgb(0,0,0)" fill-opacity="0.15"/><path d=" M 3 126.5 C 3 57.511 59.011 1.5 128 1.5 C 196.989 1.5 253 57.511 253 126.5 C 253 195.489 196.989 251.5 128 251.5 C 59.011 251.5 3 195.489 3 126.5 Z " fill="rgb(233,30,99)"/><clipPath id="_clipPath_WikaRl4HgbfU8Lt9HIbIr2hEiyWnqfGw"><path d=" M 3 126.5 C 3 57.511 59.011 1.5 128 1.5 C 196.989 1.5 253 57.511 253 126.5 C 253 195.489 196.989 251.5 128 251.5 C 59.011 251.5 3 195.489 3 126.5 Z " fill="rgb(233,30,99)"/></clipPath><g clip-path="url(#_clipPath_WikaRl4HgbfU8Lt9HIbIr2hEiyWnqfGw)"><linearGradient id="_lgradient_12" x1="28.067866023109534%" y1="23.626698272399814%" x2="65.05758057833798%" y2="55.29579816136649%"><stop offset="1.3043478260869565%" stop-opacity="1" style="stop-color:rgb(255,245,157)"/><stop offset="98.69565217391305%" stop-opacity="1" style="stop-color:rgb(255,238,88)"/></linearGradient><path d=" M 142.112 2.289 C 137.48 1.768 132.771 1.5 128 1.5 C 59.011 1.5 3 57.511 3 126.5 C 3 126.5 3 126.5 3 126.5 C 3 149.836 9.409 171.687 20.56 190.388 L 162 44.5 L 48 91.5 L 142.112 2.289 Z " fill="url(#_lgradient_12)"/><linearGradient id="_lgradient_13" x1="8.341655281255566%" y1="38.393578453223675%" x2="90.81718425804985%" y2="94.8562224460353%"><stop offset="0%" stop-opacity="1" style="stop-color:rgb(255,245,157)"/><stop offset="98.26086956521739%" stop-opacity="1" style="stop-color:rgb(253,216,53)"/></linearGradient><path d=" M 226.434 49.473 C 228.641 52.301 230.735 55.221 232.695 58.237 C 235.094 62.234 238.066 67.599 241.327 73.756 C 248.821 89.779 253 107.656 253 126.5 C 253 195.489 196.989 251.5 128 251.5 C 124.534 251.5 121.101 251.359 117.707 251.079 C 143.623 171.033 152.854 134.95 226 49.5 C 226.098 49.386 226.24 49.371 226.434 49.473 Z " fill="url(#_lgradient_13)"/></g></g></g></svg>