<?xml version="1.0" standalone="no"?><!-- Generator: Gravit.io --><svg xmlns="http://www.w3.org/2000/svg" xmlns:xlink="http://www.w3.org/1999/xlink" style="isolation:isolate" viewBox="0 0 48 48" width="48" height="48"><defs><clipPath id="_clipPath_8VKqj2SJd1Da7Slv4xdsVcynSopul9My"><rect width="48" height="48"/></clipPath></defs><g clip-path="url(#_clipPath_8VKqj2SJd1Da7Slv4xdsVcynSopul9My)"><g style="isolation:isolate" id="Design"><defs><filter id="sbEHI44Ene4ynXZVsNALUQUZK9g3DFTx" x="-200%" y="-200%" width="400%" height="400%"><feOffset xmlns="http://www.w3.org/2000/svg" in="SourceAlpha" result="offOut" dx="0" dy="1"/><feGaussianBlur xmlns="http://www.w3.org/2000/svg" in="offOut" result="blurOut" stdDeviation="0.5"/><feComponentTransfer xmlns="http://www.w3.org/2000/svg" in="blurOut" result="opacOut"><feFuncA xmlns="http://www.w3.org/2000/svg" type="table" tableValues="0 0.5"/></feComponentTransfer><feBlend xmlns="http://www.w3.org/2000/svg" in="SourceGraphic" in2="opacOut" mode="normal"/></filter></defs><g filter="url(#sbEHI44Ene4ynXZVsNALUQUZK9g3DFTx)"><linearGradient id="_lgradient_18" x1="49.728141592920366%" y1="18.43008849557522%" x2="49.72814159292037%" y2="82.9511504424779%"><stop offset="0%" stop-opacity="1" style="stop-color:rgb(233,30,99)"/><stop offset="100%" stop-opacity="1" style="stop-color:rgb(194,24,91)"/></linearGradient><path d=" M 2 24 C 2 11.858 11.858 2 24 2 C 36.142 2 46 11.858 46 24 C 46 36.142 36.142 46 24 46 C 11.858 46 2 36.142 2 24 Z " fill="url(#_lgradient_18)"/></g><linearGradient id="_lgradient_19" x1="28.067866023109534%" y1="23.626698272399814%" x2="65.05758057833798%" y2="55.29579816136649%"><stop offset="1.3043478260869565%" stop-opacity="1" style="stop-color:rgb(255,245,157)"/><stop offset="98.69565217391305%" stop-opacity="1" style="stop-color:rgb(255,238,88)"/></linearGradient><path d=" M 27.657 2.303 C 26.467 2.104 25.246 2 24 2 C 11.858 2 2 11.858 2 24 C 2 27.879 3.006 31.525 4.771 34.691 L 31 11 L 11 17 L 27.657 2.303 Z " fill="url(#_lgradient_19)"/><linearGradient id="_lgradient_20" x1="8.341655281255566%" y1="38.393578453223675%" x2="90.81718425804985%" y2="94.8562224460353%"><stop offset="0%" stop-opacity="1" style="stop-color:rgb(255,245,157)"/><stop offset="98.26086956521739%" stop-opacity="1" style="stop-color:rgb(253,216,53)"/></linearGradient><path d=" M 45.386 18.848 C 45.789 20.5 46 22.225 46 24 C 46 36.142 36.142 46 24 46 C 21.204 46 18.529 45.477 16.071 44.518 C 22.49 32.871 32.869 23.711 45.386 18.848 Z " fill="url(#_lgradient_20)"/></g></g></svg>