<?xml version="1.0" standalone="no"?><!-- Generator: Gravit.io --><svg xmlns="http://www.w3.org/2000/svg" xmlns:xlink="http://www.w3.org/1999/xlink" style="isolation:isolate" viewBox="0 0 256 256" width="256" height="256"><defs><clipPath id="_clipPath_6dvT3sG2u54YmNauy4YoK4P2JR53CnKy"><rect width="256" height="256"/></clipPath></defs><g clip-path="url(#_clipPath_6dvT3sG2u54YmNauy4YoK4P2JR53CnKy)"><g style="isolation:isolate" id="Icon"><path d=" M 3.013 128 C 3.003 128.499 3 128.999 3 129.5 C 3 198.489 59.011 254.5 128 254.5 C 196.989 254.5 253 198.489 253 129.5 C 253 128.999 252.997 128.499 252.987 128 C 252.186 196.3 196.488 251.5 128 251.5 C 59.512 251.5 3.814 196.3 3.013 128 Z " fill="rgb(0,0,0)" fill-opacity="0.15"/><linearGradient id="_lgradient_6" x1="50%" y1="-2.242152466367714%" x2="50.000000000000014%" y2="100.89686098654704%"><stop offset="1.7391304347826086%" stop-opacity="1" style="stop-color:rgb(129,199,132)"/><stop offset="27.82608695652174%" stop-opacity="1" style="stop-color:rgb(102,187,106)"/><stop offset="72.60869565217392%" stop-opacity="1" style="stop-color:rgb(76,175,80)"/><stop offset="99.1304347826087%" stop-opacity="1" style="stop-color:rgb(67,160,71)"/></linearGradient><path d=" M 3 126.5 C 3 57.511 59.011 1.5 128 1.5 C 196.989 1.5 253 57.511 253 126.5 C 253 195.489 196.989 251.5 128 251.5 C 59.011 251.5 3 195.489 3 126.5 Z " fill="url(#_lgradient_6)"/><linearGradient id="_lgradient_7" x1="50%" y1="0%" x2="50.000000000000014%" y2="100.00000000000003%"><stop offset="2.1739130434782608%" stop-opacity="1" style="stop-color:rgb(129,199,132)"/><stop offset="99.1304347826087%" stop-opacity="1" style="stop-color:rgb(56,142,60)"/></linearGradient><path d=" M 3 126.5 C 3 57.511 59.011 1.5 128 1.5 C 196.989 1.5 253 57.511 253 126.5 C 253 195.489 196.989 251.5 128 251.5 C 59.011 251.5 3 195.489 3 126.5 Z  M 8 126.5 C 8 94.7 20.7 64.1 43.1 41.6 C 65.6 19.2 96.2 6.5 128 6.5 C 159.8 6.5 190.4 19.2 212.9 41.6 C 235.3 64.1 248 94.7 248 126.5 L 248 126.5 C 248 158.3 235.3 188.9 212.9 211.4 C 190.4 233.8 159.8 246.5 128 246.5 L 128 246.5 C 96.2 246.5 65.6 233.8 43.1 211.4 C 20.7 188.9 8 158.3 8 126.5 Z " fill-rule="evenodd" fill="url(#_lgradient_7)"/><g id="Group"><path d=" M 154.667 62.5 L 106.689 110.478 L 76.089 86.678 L 64 92.722 L 64 153.167 L 76.089 159.211 L 106.689 135.411 L 154.667 183.389 L 184.889 171.3 L 184.889 74.589 L 154.667 62.5 Z  M 154.667 98.094 L 154.667 147.795 L 122.721 122.944 L 154.667 98.094 Z  M 76.089 104.811 L 94.222 122.944 L 76.089 141.078 L 76.089 104.811 Z  M 161.778 69.611 L 113.8 117.589 L 83.2 93.789 L 71.111 99.833 L 71.111 160.278 L 83.2 166.322 L 113.8 142.522 L 161.778 190.5 L 192 178.411 L 192 81.7 L 161.778 69.611 Z  M 161.778 105.205 L 161.778 154.906 L 129.832 130.056 L 161.778 105.205 Z  M 83.2 111.922 L 101.333 130.056 L 83.2 148.189 L 83.2 111.922 Z " fill-rule="evenodd" fill="rgb(0,0,0)" fill-opacity="0.15"/><path d=" M 154.667 62.5 L 106.689 110.478 L 76.089 86.678 L 64 92.722 L 64 153.167 L 76.089 159.211 L 106.689 135.411 L 154.667 183.389 L 184.889 171.3 L 184.889 74.589 L 154.667 62.5 Z  M 154.667 98.094 L 154.667 147.795 L 122.721 122.944 L 154.667 98.094 Z  M 76.089 104.811 L 94.222 122.944 L 76.089 141.078 L 76.089 104.811 Z " fill-rule="evenodd" fill="rgb(255,255,255)"/><clipPath id="_clipPath_4ObTFp8KHw9yxDlBGd1Cy9xWglf2UZnC"><path d=" M 154.667 62.5 L 106.689 110.478 L 76.089 86.678 L 64 92.722 L 64 153.167 L 76.089 159.211 L 106.689 135.411 L 154.667 183.389 L 184.889 171.3 L 184.889 74.589 L 154.667 62.5 Z  M 154.667 98.094 L 154.667 147.795 L 122.721 122.944 L 154.667 98.094 Z  M 76.089 104.811 L 94.222 122.944 L 76.089 141.078 L 76.089 104.811 Z " fill-rule="evenodd" fill="rgb(255,255,255)"/></clipPath><g clip-path="url(#_clipPath_4ObTFp8KHw9yxDlBGd1Cy9xWglf2UZnC)"><path d=" M 154.667 67.5 L 106.689 115.478 L 76.089 91.678 L 64 97.722 L 64 158.167 L 76.089 164.211 L 106.689 140.411 L 154.667 188.389 L 184.889 176.3 L 184.889 79.589 L 154.667 67.5 Z  M 154.667 103.094 L 154.667 152.795 L 122.721 127.944 L 154.667 103.094 Z  M 76.089 109.811 L 94.222 127.944 L 76.089 146.078 L 76.089 109.811 Z " fill-rule="evenodd" fill="rgb(247,247,247)"/></g></g></g></g></svg>