<?xml version="1.0" standalone="no"?><!-- Generator: Gravit.io --><svg xmlns="http://www.w3.org/2000/svg" xmlns:xlink="http://www.w3.org/1999/xlink" style="isolation:isolate" viewBox="0 0 48 48" width="48" height="48"><defs><clipPath id="_clipPath_CWfWt38MaQj7ni2wIzVgVffzb1nTvhlC"><rect width="48" height="48"/></clipPath></defs><g clip-path="url(#_clipPath_CWfWt38MaQj7ni2wIzVgVffzb1nTvhlC)"><g style="isolation:isolate" id="Design"><defs><filter id="ZvsyS36hfoS3fIsnDQhHkNTzKZs9YYmW" x="-200%" y="-200%" width="400%" height="400%"><feOffset xmlns="http://www.w3.org/2000/svg" in="SourceAlpha" result="offOut" dx="0" dy="1"/><feGaussianBlur xmlns="http://www.w3.org/2000/svg" in="offOut" result="blurOut" stdDeviation="0.5"/><feComponentTransfer xmlns="http://www.w3.org/2000/svg" in="blurOut" result="opacOut"><feFuncA xmlns="http://www.w3.org/2000/svg" type="table" tableValues="0 0.5"/></feComponentTransfer><feBlend xmlns="http://www.w3.org/2000/svg" in="SourceGraphic" in2="opacOut" mode="normal"/></filter></defs><g filter="url(#ZvsyS36hfoS3fIsnDQhHkNTzKZs9YYmW)"><linearGradient id="_lgradient_33" x1="50%" y1="-2.242152466367714%" x2="50.000000000000014%" y2="100.89686098654704%"><stop offset="1.7391304347826086%" stop-opacity="1" style="stop-color:rgb(129,199,132)"/><stop offset="27.82608695652174%" stop-opacity="1" style="stop-color:rgb(102,187,106)"/><stop offset="72.60869565217392%" stop-opacity="1" style="stop-color:rgb(76,175,80)"/><stop offset="99.1304347826087%" stop-opacity="1" style="stop-color:rgb(67,160,71)"/></linearGradient><path d=" M 2 24 C 2 11.858 11.858 2 24 2 C 36.142 2 46 11.858 46 24 C 46 36.142 36.142 46 24 46 C 11.858 46 2 36.142 2 24 Z " fill="url(#_lgradient_33)"/></g><linearGradient id="_lgradient_34" x1="49.99205849185465%" y1="13.921728495719526%" x2="50.357367866540315%" y2="84.97440187207816%"><stop offset="2.1739130434782608%" stop-opacity="1" style="stop-color:rgb(129,199,132)"/><stop offset="99.1304347826087%" stop-opacity="1" style="stop-color:rgb(56,142,60)"/></linearGradient><path d=" M 2 24 C 2 11.858 11.858 2 24 2 C 36.142 2 46 11.858 46 24 C 46 36.142 36.142 46 24 46 C 11.858 46 2 36.142 2 24 Z  M 4 24 C 4 18.7 6.1 13.6 9.9 9.9 C 13.6 6.1 18.7 4 24 4 C 29.3 4 34.4 6.1 38.1 9.9 C 41.9 13.6 44 18.7 44 24 C 44 29.3 41.9 34.4 38.1 38.1 C 34.4 41.9 29.3 44 24 44 C 18.7 44 13.6 41.9 9.9 38.1 C 6.1 34.4 4 29.3 4 24 Z " fill-rule="evenodd" fill="url(#_lgradient_34)"/><g id="Group"><path d=" M 29.485 14.253 L 20.778 22.96 L 15.224 18.641 L 13.03 19.738 L 13.03 30.708 L 15.224 31.805 L 20.778 27.485 L 29.485 36.193 L 34.97 33.999 L 34.97 16.447 L 29.485 14.253 Z  M 29.485 20.713 L 29.485 29.733 L 23.687 25.223 L 29.485 20.713 Z  M 15.224 21.932 L 18.515 25.223 L 15.224 28.514 L 15.224 21.932 Z " fill-rule="evenodd" fill="rgb(0,0,0)" fill-opacity="0.15"/><path d=" M 29.485 11.807 L 20.778 20.515 L 15.224 16.195 L 13.03 17.292 L 13.03 28.262 L 15.224 29.359 L 20.778 25.04 L 29.485 33.747 L 34.97 31.553 L 34.97 14.001 L 29.485 11.807 Z  M 29.485 18.267 L 29.485 27.287 L 23.687 22.777 L 29.485 18.267 Z  M 15.224 19.486 L 18.515 22.777 L 15.224 26.068 L 15.224 19.486 Z " fill-rule="evenodd" fill="rgb(255,255,255)"/><path d=" M 29.485 13.03 L 20.778 21.737 L 15.224 17.418 L 13.03 18.515 L 13.03 29.485 L 15.224 30.582 L 20.778 26.263 L 29.485 34.97 L 34.97 32.776 L 34.97 15.224 L 29.485 13.03 Z  M 29.485 19.49 L 29.485 28.51 L 23.687 24 L 29.485 19.49 Z  M 15.224 20.709 L 18.515 24 L 15.224 27.291 L 15.224 20.709 Z " fill-rule="evenodd" fill="rgb(247,247,247)"/></g></g><g style="opacity:0.5;" id="Grid"><path d=" M 48.03 33.057 C 48.03 33.627 48.03 34.198 48.027 34.77 C 48.024 35.341 48.019 35.731 48.005 36.211 C 47.992 36.692 47.914 38.314 47.726 39.349 C 47.538 40.384 47.224 41.379 46.732 42.334 C 46.239 43.289 45.619 44.131 44.866 44.875 C 44.113 45.619 43.244 46.244 42.296 46.721 C 41.348 47.198 40.343 47.516 39.28 47.705 C 38.217 47.893 37.165 47.953 36.106 47.981 C 35.048 48.009 33.494 48.006 32.917 48.006 Q 32.917 48.006 21.79 48.006 Q 15.162 48.006 15.162 48.006 C 12.945 47.999 12.459 47.994 11.973 47.981 C 11.487 47.968 9.846 47.891 8.799 47.705 C 7.752 47.518 6.748 47.207 5.783 46.721 C 4.818 46.235 3.966 45.619 3.213 44.875 C 2.461 44.131 1.83 43.272 1.347 42.334 C 0.863 41.396 0.544 40.4 0.352 39.349 C 0.161 38.298 0.102 37.257 0.074 36.211 C 0.046 35.165 0.055 35.25 0.052 34.77 C 0.05 34.289 0.048 33.627 0.048 33.057 Q 0.048 33.057 0.048 26.501 L 0.048 21.505 Q 0.048 14.949 0.048 14.949 C 0.048 14.378 0.048 13.807 0.052 13.237 C 0.056 12.667 0.061 12.275 0.074 11.794 C 0.087 11.314 0.164 9.691 0.352 8.656 C 0.541 7.62 0.855 6.627 1.347 5.672 C 1.838 4.716 2.461 3.874 3.213 3.131 C 3.966 2.387 4.834 1.762 5.783 1.285 C 6.732 0.807 7.736 0.49 8.799 0.301 C 9.862 0.113 10.914 0.053 11.973 0.025 C 13.032 -0.003 14.585 0 15.162 0 Q 15.162 0 21.79 0 L 32.443 0 L 26.288 0.003 Q 32.917 0 32.917 0 C 35.134 0.007 35.62 0.012 36.106 0.025 C 36.593 0.038 38.233 0.115 39.28 0.301 C 40.327 0.487 41.331 0.798 42.296 1.285 C 43.261 1.771 44.113 2.385 44.866 3.131 C 45.619 3.876 46.249 4.733 46.732 5.672 C 47.214 6.61 47.535 7.604 47.726 8.656 C 47.917 9.707 47.977 10.747 48.005 11.794 C 48.034 12.842 48.024 12.756 48.027 13.237 C 48.029 13.718 48.03 14.378 48.03 14.949 Q 48.03 14.949 48.03 21.505 L 48.03 26.501 Q 48.03 33.057 48.03 33.057 Z " fill-rule="evenodd" fill="none" vector-effect="non-scaling-stroke" stroke-width="0.047" stroke="rgb(0,0,0)" stroke-linejoin="miter" stroke-linecap="square" stroke-miterlimit="3"/><path d=" M 13.78 24.003 C 13.78 18.338 18.377 13.739 24.039 13.739 C 29.701 13.739 34.297 18.338 34.297 24.003 C 34.297 29.668 29.701 34.267 24.039 34.267 C 18.377 34.267 13.78 29.668 13.78 24.003 Z " fill="none" vector-effect="non-scaling-stroke" stroke-width="0.056" stroke="rgb(0,0,0)" stroke-linejoin="miter" stroke-linecap="square" stroke-miterlimit="3"/><path d=" M 9.895 24.003 C 9.895 16.193 16.232 9.852 24.039 9.852 C 31.845 9.852 38.183 16.193 38.183 24.003 C 38.183 31.813 31.845 38.154 24.039 38.154 C 16.232 38.154 9.895 31.813 9.895 24.003 Z " fill="none" vector-effect="non-scaling-stroke" stroke-width="0.056" stroke="rgb(0,0,0)" stroke-linejoin="miter" stroke-linecap="square" stroke-miterlimit="3"/><path d=" M 2.03 24.003 C 2.03 11.861 11.888 2.003 24.03 2.003 C 36.172 2.003 46.03 11.861 46.03 24.003 C 46.03 36.145 36.172 46.003 24.03 46.003 C 11.888 46.003 2.03 36.145 2.03 24.003 Z " fill="none" vector-effect="non-scaling-stroke" stroke-width="0.056" stroke="rgb(0,0,0)" stroke-linejoin="miter" stroke-linecap="square" stroke-miterlimit="3"/><line x1="24.027" y1="0" x2="24.027" y2="48.006" vector-effect="non-scaling-stroke" stroke-width="0.047" stroke="rgb(0,0,0)" stroke-linejoin="miter" stroke-linecap="square" stroke-miterlimit="3"/><line x1="8.969" y1="0" x2="8.969" y2="48.006" vector-effect="non-scaling-stroke" stroke-width="0.047" stroke="rgb(0,0,0)" stroke-linejoin="miter" stroke-linecap="square" stroke-miterlimit="3"/><line x1="39.109" y1="0" x2="39.109" y2="48.006" vector-effect="non-scaling-stroke" stroke-width="0.047" stroke="rgb(0,0,0)" stroke-linejoin="miter" stroke-linecap="square" stroke-miterlimit="3"/><line x1="0.048" y1="24.003" x2="48.03" y2="24.003" vector-effect="non-scaling-stroke" stroke-width="0.047" stroke="rgb(0,0,0)" stroke-linejoin="miter" stroke-linecap="square" stroke-miterlimit="3"/><line x1="0.048" y1="39.08" x2="48.03" y2="39.08" vector-effect="non-scaling-stroke" stroke-width="0.047" stroke="rgb(0,0,0)" stroke-linejoin="miter" stroke-linecap="square" stroke-miterlimit="3"/><line x1="0.048" y1="8.925" x2="48.03" y2="8.925" vector-effect="non-scaling-stroke" stroke-width="0.047" stroke="rgb(0,0,0)" stroke-linejoin="miter" stroke-linecap="square" stroke-miterlimit="3"/><line x1="0.048" y1="0" x2="48.025" y2="48" vector-effect="non-scaling-stroke" stroke-width="0.047" stroke="rgb(0,0,0)" stroke-linejoin="miter" stroke-linecap="square" stroke-miterlimit="3"/><line x1="48.007" y1="0" x2="0.03" y2="48" vector-effect="non-scaling-stroke" stroke-width="0.047" stroke="rgb(0,0,0)" stroke-linejoin="miter" stroke-linecap="square" stroke-miterlimit="3"/></g></g></svg>