<?xml version="1.0" standalone="no"?><!-- Generator: Gravit.io --><svg xmlns="http://www.w3.org/2000/svg" xmlns:xlink="http://www.w3.org/1999/xlink" style="isolation:isolate" viewBox="0 0 256 256" width="256" height="256"><defs><clipPath id="_clipPath_4ttOyYongUiC5IwNbR6RRLDgeV9LQJh5"><rect width="256" height="256"/></clipPath></defs><g clip-path="url(#_clipPath_4ttOyYongUiC5IwNbR6RRLDgeV9LQJh5)"><g style="isolation:isolate" id="Icon"><path d=" M 3.013 129.5 C 3.003 129.999 3 130.499 3 131 C 3 199.989 59.011 256 128 256 C 196.989 256 253 199.989 253 131 C 253 130.499 252.997 129.999 252.987 129.5 C 252.186 197.8 196.488 253 128 253 C 59.512 253 3.814 197.8 3.013 129.5 Z " fill="rgb(0,0,0)" fill-opacity="0.15"/><linearGradient id="_lgradient_21" x1="50.000000000000014%" y1="-0.8849557522123852%" x2="50.00000000000002%" y2="100.88495575221239%"><stop offset="0.8695652173913043%" stop-opacity="1" style="stop-color:rgb(186,104,200)"/><stop offset="25.217391304347824%" stop-opacity="1" style="stop-color:rgb(171,71,188)"/><stop offset="77.39130434782608%" stop-opacity="1" style="stop-color:rgb(156,39,176)"/><stop offset="99.1304347826087%" stop-opacity="1" style="stop-color:rgb(142,36,170)"/></linearGradient><path d=" M 3 128 C 3 59.011 59.011 3 128 3 C 196.989 3 253 59.011 253 128 C 253 196.989 196.989 253 128 253 C 59.011 253 3 196.989 3 128 Z " fill="url(#_lgradient_21)"/><linearGradient id="_lgradient_22" x1="50%" y1="-1.7857142857142905%" x2="50.000000000000014%" y2="100.89285714285711%"><stop offset="1.7391304347826086%" stop-opacity="1" style="stop-color:rgb(186,104,200)"/><stop offset="99.1304347826087%" stop-opacity="1" style="stop-color:rgb(123,31,162)"/></linearGradient><path d=" M 3 128 C 3 59.011 59.011 3 128 3 C 196.989 3 253 59.011 253 128 C 253 196.989 196.989 253 128 253 C 59.011 253 3 196.989 3 128 Z  M 8 128 C 8 96.2 20.7 65.6 43.1 43.1 C 65.6 20.7 96.2 8 128 8 C 159.8 8 190.4 20.7 212.9 43.1 C 235.3 65.6 248 96.2 248 128 L 248 128 C 248 159.8 235.3 190.4 212.9 212.9 C 190.4 235.3 159.8 248 128 248 L 128 248 C 96.2 248 65.6 235.3 43.1 212.9 C 20.7 190.4 8 159.8 8 128 Z " fill-rule="evenodd" fill="url(#_lgradient_22)"/><g id="Group"><path d=" M 154.667 64 L 106.689 111.978 L 76.089 88.178 L 64 94.222 L 64 154.667 L 76.089 160.711 L 106.689 136.911 L 154.667 184.889 L 184.889 172.8 L 184.889 76.089 L 154.667 64 Z  M 154.667 99.594 L 154.667 149.295 L 122.721 124.444 L 154.667 99.594 Z  M 76.089 106.311 L 94.222 124.444 L 76.089 142.578 L 76.089 106.311 Z  M 161.778 71.111 L 113.8 119.089 L 83.2 95.289 L 71.111 101.333 L 71.111 161.778 L 83.2 167.822 L 113.8 144.022 L 161.778 192 L 192 179.911 L 192 83.2 L 161.778 71.111 Z  M 161.778 106.705 L 161.778 156.406 L 129.832 131.556 L 161.778 106.705 Z  M 83.2 113.422 L 101.333 131.556 L 83.2 149.689 L 83.2 113.422 Z " fill-rule="evenodd" fill="rgb(0,0,0)" fill-opacity="0.15"/><path d=" M 154.667 64 L 106.689 111.978 L 76.089 88.178 L 64 94.222 L 64 154.667 L 76.089 160.711 L 106.689 136.911 L 154.667 184.889 L 184.889 172.8 L 184.889 76.089 L 154.667 64 Z  M 154.667 99.594 L 154.667 149.295 L 122.721 124.444 L 154.667 99.594 Z  M 76.089 106.311 L 94.222 124.444 L 76.089 142.578 L 76.089 106.311 Z " fill-rule="evenodd" fill="rgb(255,255,255)"/><clipPath id="_clipPath_Y1y8AIGo2GtJf87v9o053Ncx2KlxJZCc"><path d=" M 154.667 64 L 106.689 111.978 L 76.089 88.178 L 64 94.222 L 64 154.667 L 76.089 160.711 L 106.689 136.911 L 154.667 184.889 L 184.889 172.8 L 184.889 76.089 L 154.667 64 Z  M 154.667 99.594 L 154.667 149.295 L 122.721 124.444 L 154.667 99.594 Z  M 76.089 106.311 L 94.222 124.444 L 76.089 142.578 L 76.089 106.311 Z " fill-rule="evenodd" fill="rgb(255,255,255)"/></clipPath><g clip-path="url(#_clipPath_Y1y8AIGo2GtJf87v9o053Ncx2KlxJZCc)"><path d=" M 154.667 69 L 106.689 116.978 L 76.089 93.178 L 64 99.222 L 64 159.667 L 76.089 165.711 L 106.689 141.911 L 154.667 189.889 L 184.889 177.8 L 184.889 81.089 L 154.667 69 Z  M 154.667 104.594 L 154.667 154.295 L 122.721 129.444 L 154.667 104.594 Z  M 76.089 111.311 L 94.222 129.444 L 76.089 147.578 L 76.089 111.311 Z " fill-rule="evenodd" fill="rgb(247,247,247)"/></g></g></g></g></svg>