<?xml version="1.0" standalone="no"?><!-- Generator: Gravit.io --><svg xmlns="http://www.w3.org/2000/svg" xmlns:xlink="http://www.w3.org/1999/xlink" style="isolation:isolate" viewBox="0 0 48 48" width="48" height="48"><defs><clipPath id="_clipPath_Bf5ZVOLyIiHP7jxoVDQi0mTSgdKcbrk1"><rect width="48" height="48"/></clipPath></defs><g clip-path="url(#_clipPath_Bf5ZVOLyIiHP7jxoVDQi0mTSgdKcbrk1)"><g style="isolation:isolate" id="Design"><defs><filter id="CYUllqvrrIUP2WpvvNHrQyxly2dJ3APq" x="-200%" y="-200%" width="400%" height="400%"><feOffset xmlns="http://www.w3.org/2000/svg" in="SourceAlpha" result="offOut" dx="0" dy="1"/><feGaussianBlur xmlns="http://www.w3.org/2000/svg" in="offOut" result="blurOut" stdDeviation="0.5"/><feComponentTransfer xmlns="http://www.w3.org/2000/svg" in="blurOut" result="opacOut"><feFuncA xmlns="http://www.w3.org/2000/svg" type="table" tableValues="0 0.5"/></feComponentTransfer><feBlend xmlns="http://www.w3.org/2000/svg" in="SourceGraphic" in2="opacOut" mode="normal"/></filter></defs><g filter="url(#CYUllqvrrIUP2WpvvNHrQyxly2dJ3APq)"><linearGradient id="_lgradient_35" x1="50%" y1="-0.8849557522123852%" x2="50.000000000000014%" y2="100.88495575221239%"><stop offset="0.8695652173913043%" stop-opacity="1" style="stop-color:rgb(186,104,200)"/><stop offset="25.217391304347824%" stop-opacity="1" style="stop-color:rgb(171,71,188)"/><stop offset="77.39130434782608%" stop-opacity="1" style="stop-color:rgb(156,39,176)"/><stop offset="99.1304347826087%" stop-opacity="1" style="stop-color:rgb(142,36,170)"/></linearGradient><path d=" M 2 24 C 2 11.858 11.858 2 24 2 C 36.142 2 46 11.858 46 24 C 46 36.142 36.142 46 24 46 C 11.858 46 2 36.142 2 24 Z " fill="url(#_lgradient_35)"/></g><linearGradient id="_lgradient_36" x1="50.17786897501071%" y1="15.341070204111103%" x2="50.000000000000014%" y2="84.88783943329399%"><stop offset="0.43478260869565216%" stop-opacity="1" style="stop-color:rgb(181,93,196)"/><stop offset="100%" stop-opacity="1" style="stop-color:rgb(123,31,162)"/></linearGradient><path d=" M 2 24 C 2 11.858 11.858 2 24 2 C 36.142 2 46 11.858 46 24 C 46 36.142 36.142 46 24 46 C 11.858 46 2 36.142 2 24 Z  M 4 24 C 4 18.7 6.1 13.6 9.9 9.9 C 13.6 6.1 18.7 4 24 4 C 29.3 4 34.4 6.1 38.1 9.9 C 41.9 13.6 44 18.7 44 24 C 44 29.3 41.9 34.4 38.1 38.1 C 34.4 41.9 29.3 44 24 44 C 18.7 44 13.6 41.9 9.9 38.1 C 6.1 34.4 4 29.3 4 24 Z " fill-rule="evenodd" fill="url(#_lgradient_36)"/><g id="Group"><path d=" M 29.485 14.253 L 20.778 22.96 L 15.224 18.641 L 13.03 19.738 L 13.03 30.708 L 15.224 31.805 L 20.778 27.485 L 29.485 36.193 L 34.97 33.999 L 34.97 16.447 L 29.485 14.253 Z  M 29.485 20.713 L 29.485 29.733 L 23.687 25.223 L 29.485 20.713 Z  M 15.224 21.932 L 18.515 25.223 L 15.224 28.514 L 15.224 21.932 Z " fill-rule="evenodd" fill="rgb(0,0,0)" fill-opacity="0.15"/><path d=" M 29.485 11.807 L 20.778 20.515 L 15.224 16.195 L 13.03 17.292 L 13.03 28.262 L 15.224 29.359 L 20.778 25.04 L 29.485 33.747 L 34.97 31.553 L 34.97 14.001 L 29.485 11.807 Z  M 29.485 18.267 L 29.485 27.287 L 23.687 22.777 L 29.485 18.267 Z  M 15.224 19.486 L 18.515 22.777 L 15.224 26.068 L 15.224 19.486 Z " fill-rule="evenodd" fill="rgb(255,255,255)"/><path d=" M 29.485 13.03 L 20.778 21.737 L 15.224 17.418 L 13.03 18.515 L 13.03 29.485 L 15.224 30.582 L 20.778 26.263 L 29.485 34.97 L 34.97 32.776 L 34.97 15.224 L 29.485 13.03 Z  M 29.485 19.49 L 29.485 28.51 L 23.687 24 L 29.485 19.49 Z  M 15.224 20.709 L 18.515 24 L 15.224 27.291 L 15.224 20.709 Z " fill-rule="evenodd" fill="rgb(247,247,247)"/></g></g></g></svg>