<?xml version="1.0" standalone="no"?><!-- Generator: Gravit.io --><svg xmlns="http://www.w3.org/2000/svg" xmlns:xlink="http://www.w3.org/1999/xlink" style="isolation:isolate" viewBox="0 0 48 48" width="48" height="48"><defs><clipPath id="_clipPath_d3nyQHSiEhPGdadIhrjYHquVbPxvPiZc"><rect width="48" height="48"/></clipPath></defs><g clip-path="url(#_clipPath_d3nyQHSiEhPGdadIhrjYHquVbPxvPiZc)"><g style="isolation:isolate" id="Design"><path d="M 18 3 L 30 3 C 38.831 3 46 10.169 46 19 L 46 31 C 46 39.831 38.831 47 30 47 L 18 47 C 9.169 47 2 39.831 2 31 L 2 19 C 2 10.169 9.169 3 18 3 Z" style="stroke:none;fill:#000000;stroke-miterlimit:10;opacity:0.15;"/><defs><linearGradient id="_lgradient_43" x1="0.5" y1="-0.008849557522123852" x2="0.5000000000000001" y2="1.008849557522124"><stop offset="0.8695652173913043%" style="stop-color:#BA68C8"/><stop offset="50.28458498023717%" style="stop-color:#AB47BC"/><stop offset="77.39130434782608%" style="stop-color:#9C27B0"/><stop offset="99.1304347826087%" style="stop-color:#8E24AA"/></linearGradient></defs><path d="M 18 2 L 30 2 C 38.831 2 46 9.169 46 18 L 46 30 C 46 38.831 38.831 46 30 46 L 18 46 C 9.169 46 2 38.831 2 30 L 2 18 C 2 9.169 9.169 2 18 2 Z" style="stroke:none;fill:url(#_lgradient_43);stroke-miterlimit:10;"/><defs><linearGradient id="_lgradient_44" x1="0.4990173543270887" y1="0.1343710493046776" x2="0.5000086196988852" y2="1.0075932364096076"><stop offset="1.7391304347826086%" style="stop-color:#81C784"/><stop offset="51.30739095456298%" style="stop-color:#66BB6A"/><stop offset="99.1304347826087%" style="stop-color:#43A047"/></linearGradient></defs><path d="M 18 2 L 30 2 C 38.831 2 46 9.169 46 18 L 46 30 C 46 38.831 38.831 46 30 46 L 18 46 C 9.169 46 2 38.831 2 30 L 2 18 C 2 9.169 9.169 2 18 2 Z" style="stroke:none;fill:url(#_lgradient_44);stroke-miterlimit:10;"/><g id="Group"><path d=" M 29.485 14.253 L 20.778 22.96 L 15.224 18.641 L 13.03 19.738 L 13.03 30.708 L 15.224 31.805 L 20.778 27.485 L 29.485 36.193 L 34.97 33.999 L 34.97 16.447 L 29.485 14.253 Z  M 29.485 20.713 L 29.485 29.733 L 23.687 25.223 L 29.485 20.713 Z  M 15.224 21.932 L 18.515 25.223 L 15.224 28.514 L 15.224 21.932 Z " fill-rule="evenodd" fill="rgb(0,0,0)" fill-opacity="0.15"/><path d=" M 29.485 11.807 L 20.778 20.515 L 15.224 16.195 L 13.03 17.292 L 13.03 28.262 L 15.224 29.359 L 20.778 25.04 L 29.485 33.747 L 34.97 31.553 L 34.97 14.001 L 29.485 11.807 Z  M 29.485 18.267 L 29.485 27.287 L 23.687 22.777 L 29.485 18.267 Z  M 15.224 19.486 L 18.515 22.777 L 15.224 26.068 L 15.224 19.486 Z " fill-rule="evenodd" fill="rgb(255,255,255)"/><path d=" M 29.485 13.03 L 20.778 21.737 L 15.224 17.418 L 13.03 18.515 L 13.03 29.485 L 15.224 30.582 L 20.778 26.263 L 29.485 34.97 L 34.97 32.776 L 34.97 15.224 L 29.485 13.03 Z  M 29.485 19.49 L 29.485 28.51 L 23.687 24 L 29.485 19.49 Z  M 15.224 20.709 L 18.515 24 L 15.224 27.291 L 15.224 20.709 Z " fill-rule="evenodd" fill="rgb(247,247,247)"/></g></g></g></svg>