<?xml version="1.0" standalone="no"?><!-- Generator: Gravit.io --><svg xmlns="http://www.w3.org/2000/svg" xmlns:xlink="http://www.w3.org/1999/xlink" style="isolation:isolate" viewBox="0 0 48 48" width="48" height="48"><defs><clipPath id="_clipPath_PXFeBw9p4JdLkOsIDZcnT9oo7FQZvMjD"><rect width="48" height="48"/></clipPath></defs><g clip-path="url(#_clipPath_PXFeBw9p4JdLkOsIDZcnT9oo7FQZvMjD)"><g style="isolation:isolate" id="Design"><defs><filter id="BEwb4szpcGvbTJctzO4F5aAuIPxKNydV" x="-200%" y="-200%" width="400%" height="400%"><feOffset xmlns="http://www.w3.org/2000/svg" in="SourceAlpha" result="offOut" dx="0" dy="1"/><feGaussianBlur xmlns="http://www.w3.org/2000/svg" in="offOut" result="blurOut" stdDeviation="0.5"/><feComponentTransfer xmlns="http://www.w3.org/2000/svg" in="blurOut" result="opacOut"><feFuncA xmlns="http://www.w3.org/2000/svg" type="table" tableValues="0 0.5"/></feComponentTransfer><feBlend xmlns="http://www.w3.org/2000/svg" in="SourceGraphic" in2="opacOut" mode="normal"/></filter></defs><g filter="url(#BEwb4szpcGvbTJctzO4F5aAuIPxKNydV)"><path d=" M 2 24 C 2 11.858 11.858 2 24 2 C 36.142 2 46 11.858 46 24 C 46 36.142 36.142 46 24 46 C 11.858 46 2 36.142 2 24 Z " fill="rgb(144,202,249)"/></g><g id="Group items"><g id="Group 2"><path d=" M 24.342 45.998 C 24.272 46 24.202 46 24.131 46 C 14.31 46 5.983 39.55 3.159 30.658 L 6.118 25.534 L 6.965 24.065 L 10.051 18.72 L 19.748 35.516 L 25.3 45.132 C 24.99 45.43 24.671 45.72 24.342 45.998 Z " fill="rgb(156,204,101)"/><path d=" M 5.686 26.28 L 6.118 25.534 L 6.965 24.065 L 10.051 18.72 L 13.994 25.549 L 11.635 24.643 L 10.051 30.512 L 8.819 24.643 L 5.651 26.347 L 5.686 26.28 Z " fill="rgb(255,255,255)"/><path d=" M 17.5 44.981 C 13.078 43.583 9.259 40.825 6.533 37.198 L 15.717 28.015 L 14.434 30.236 L 8.883 39.852 C 11.294 42.172 14.232 43.948 17.5 44.981 L 17.5 44.981 Z " fill="rgb(139,195,74)"/></g><g id="Group 1"><path d=" M 39.38 39.852 C 35.425 43.658 30.049 46 24.131 46 C 18.214 46 12.838 43.658 8.883 39.852 L 14.434 30.236 L 20.198 20.254 L 24.131 13.44 L 33.828 30.236 L 39.38 39.852 Z " fill="rgb(156,204,101)"/><path d=" M 15.495 28.399 L 20.198 20.254 L 24.131 13.44 L 31.513 26.225 L 26.442 22.082 L 24.342 31.568 L 21.812 22.082 L 15.495 28.399 Z " fill="rgb(255,255,255)"/></g><g id="Group 3"><path d=" M 26.897 45.828 C 25.991 45.941 25.068 46 24.131 46 C 21.672 46 19.307 45.596 17.098 44.85 L 32.931 29.016 L 26.897 45.828 Z " fill="rgb(139,195,74)"/><path d=" M 44.841 31.435 C 41.79 39.923 33.665 46 24.131 46 C 23.814 46 23.498 45.993 23.184 45.98 L 28.514 36.748 L 34.278 26.766 L 38.211 19.952 L 44.841 31.435 Z " fill="rgb(156,204,101)"/><path d=" M 32.931 29.016 L 34.278 26.766 L 38.211 19.952 L 42.787 27.96 L 39.619 26.766 L 38.211 31.656 L 37.155 26.766 L 32.931 29.016 Z " fill="rgb(255,255,255)"/></g></g><g id="Sol"><path d=" M 27.288 11.74 C 27.288 8.777 29.693 6.372 32.656 6.372 C 35.619 6.372 38.024 8.777 38.024 11.74 C 38.024 14.703 35.619 17.108 32.656 17.108 C 29.693 17.108 27.288 14.703 27.288 11.74 Z " fill="rgb(100,181,246)"/><path d=" M 27.288 11.388 C 27.288 8.425 29.693 6.02 32.656 6.02 C 35.619 6.02 38.024 8.425 38.024 11.388 C 38.024 14.351 35.619 16.756 32.656 16.756 C 29.693 16.756 27.288 14.351 27.288 11.388 Z " fill="rgb(255,245,157)"/></g></g></g></svg>