<?xml version="1.0" standalone="no"?><!-- Generator: Gravit.io --><svg xmlns="http://www.w3.org/2000/svg" xmlns:xlink="http://www.w3.org/1999/xlink" style="isolation:isolate" viewBox="0 0 48 48" width="48" height="48"><defs><clipPath id="_clipPath_GbZB9DHxHtnnKpo49knwI4KSoKV1ZPbI"><rect width="48" height="48"/></clipPath></defs><g clip-path="url(#_clipPath_GbZB9DHxHtnnKpo49knwI4KSoKV1ZPbI)"><g style="isolation:isolate" id="Design"><defs><filter id="rM1MP5noq4vfJ8E8G6FmnpcetyeTS1vq" x="-200%" y="-200%" width="400%" height="400%"><feOffset xmlns="http://www.w3.org/2000/svg" in="SourceAlpha" result="offOut" dx="0" dy="1"/><feGaussianBlur xmlns="http://www.w3.org/2000/svg" in="offOut" result="blurOut" stdDeviation="0.5"/><feComponentTransfer xmlns="http://www.w3.org/2000/svg" in="blurOut" result="opacOut"><feFuncA xmlns="http://www.w3.org/2000/svg" type="table" tableValues="0 0.5"/></feComponentTransfer><feBlend xmlns="http://www.w3.org/2000/svg" in="SourceGraphic" in2="opacOut" mode="normal"/></filter></defs><g filter="url(#rM1MP5noq4vfJ8E8G6FmnpcetyeTS1vq)"><path d=" M 2 24 C 2 11.858 11.858 2 24 2 C 36.142 2 46 11.858 46 24 C 46 36.142 36.142 46 24 46 C 11.858 46 2 36.142 2 24 Z " fill="rgb(41,182,246)"/></g><g id="Group"><path d=" M 35 18.177 C 34.192 18.538 33.32 18.779 32.409 18.886 C 33.341 18.327 34.055 17.443 34.394 16.39 C 33.521 16.906 32.555 17.284 31.528 17.486 C 30.703 16.61 29.531 16.064 28.233 16.064 C 25.741 16.064 23.722 18.083 23.722 20.575 C 23.722 20.927 23.76 21.271 23.838 21.602 C 20.087 21.413 16.762 19.617 14.537 16.885 C 14.15 17.551 13.927 18.329 13.927 19.154 C 13.927 20.717 14.722 22.1 15.934 22.909 C 15.195 22.887 14.499 22.681 13.889 22.346 C 13.889 22.363 13.889 22.384 13.889 22.401 C 13.889 24.588 15.444 26.414 17.511 26.826 C 17.132 26.929 16.733 26.985 16.321 26.985 C 16.029 26.985 15.749 26.955 15.47 26.903 C 16.046 28.694 17.713 30 19.685 30.039 C 18.138 31.251 16.196 31.973 14.078 31.973 C 13.713 31.973 13.357 31.952 13 31.908 C 15.002 33.193 17.373 33.936 19.921 33.936 C 28.221 33.936 32.762 27.058 32.762 21.095 C 32.762 20.898 32.758 20.704 32.749 20.511 C 33.629 19.879 34.394 19.085 35 18.178 L 35 18.177 Z " fill="rgb(0,0,0)" fill-opacity="0.15"/><path d=" M 35 17.177 C 34.192 17.538 33.32 17.779 32.409 17.886 C 33.341 17.327 34.055 16.443 34.394 15.39 C 33.521 15.906 32.555 16.284 31.528 16.486 C 30.703 15.61 29.531 15.064 28.233 15.064 C 25.741 15.064 23.722 17.083 23.722 19.575 C 23.722 19.927 23.76 20.271 23.838 20.602 C 20.087 20.413 16.762 18.617 14.537 15.885 C 14.15 16.551 13.927 17.329 13.927 18.154 C 13.927 19.717 14.722 21.1 15.934 21.909 C 15.195 21.887 14.499 21.681 13.889 21.346 C 13.889 21.363 13.889 21.384 13.889 21.401 C 13.889 23.588 15.444 25.414 17.511 25.826 C 17.132 25.929 16.733 25.985 16.321 25.985 C 16.029 25.985 15.749 25.955 15.47 25.903 C 16.046 27.694 17.713 29 19.685 29.039 C 18.138 30.251 16.196 30.973 14.078 30.973 C 13.713 30.973 13.357 30.952 13 30.908 C 15.002 32.193 17.373 32.936 19.921 32.936 C 28.221 32.936 32.762 26.058 32.762 20.095 C 32.762 19.898 32.758 19.704 32.749 19.511 C 33.629 18.879 34.394 18.085 35 17.178 L 35 17.177 Z " fill="rgb(255,255,255)"/></g></g></g></svg>