<?xml version="1.0" standalone="no"?><!-- Generator: Gravit.io --><svg xmlns="http://www.w3.org/2000/svg" xmlns:xlink="http://www.w3.org/1999/xlink" style="isolation:isolate" viewBox="0 0 48 48" width="48" height="48"><defs><clipPath id="_clipPath_hcxMz7fL0WawpwOFV78dIzjb2C0kBsRF"><rect width="48" height="48"/></clipPath></defs><g clip-path="url(#_clipPath_hcxMz7fL0WawpwOFV78dIzjb2C0kBsRF)"><g style="isolation:isolate" id="Design"><defs><filter id="IC0HMc4qFE7uYFO52Xn9eciXxXiYD4Nc" x="-200%" y="-200%" width="400%" height="400%"><feOffset xmlns="http://www.w3.org/2000/svg" in="SourceAlpha" result="offOut" dx="0" dy="1"/><feGaussianBlur xmlns="http://www.w3.org/2000/svg" in="offOut" result="blurOut" stdDeviation="0.5"/><feComponentTransfer xmlns="http://www.w3.org/2000/svg" in="blurOut" result="opacOut"><feFuncA xmlns="http://www.w3.org/2000/svg" type="table" tableValues="0 0.5"/></feComponentTransfer><feBlend xmlns="http://www.w3.org/2000/svg" in="SourceGraphic" in2="opacOut" mode="normal"/></filter></defs><g filter="url(#IC0HMc4qFE7uYFO52Xn9eciXxXiYD4Nc)"><linearGradient id="_lgradient_5" x1="50.096540627514074%" y1="15.534995977473843%" x2="50.096540627514074%" y2="99.33226065969428%"><stop offset="0%" stop-opacity="1" style="stop-color:rgb(79,195,247)"/><stop offset="100%" stop-opacity="1" style="stop-color:rgb(3,155,229)"/></linearGradient><path d=" M 2 24 C 2 11.858 11.858 2 24 2 C 36.142 2 46 11.858 46 24 C 46 36.142 36.142 46 24 46 C 11.858 46 2 36.142 2 24 Z " fill="url(#_lgradient_5)"/></g><g id="Group"><path d=" M 35 17.677 C 34.192 18.038 33.32 18.279 32.409 18.386 C 33.341 17.827 34.055 16.943 34.394 15.89 C 33.521 16.406 32.555 16.784 31.528 16.986 C 30.703 16.11 29.531 15.564 28.233 15.564 C 25.741 15.564 23.722 17.583 23.722 20.075 C 23.722 20.427 23.76 20.771 23.838 21.102 C 20.087 20.913 16.762 19.117 14.537 16.385 C 14.15 17.051 13.927 17.829 13.927 18.654 C 13.927 20.217 14.722 21.6 15.934 22.409 C 15.195 22.387 14.499 22.181 13.889 21.846 C 13.889 21.863 13.889 21.884 13.889 21.901 C 13.889 24.088 15.444 25.914 17.511 26.326 C 17.132 26.429 16.733 26.485 16.321 26.485 C 16.029 26.485 15.749 26.455 15.47 26.403 C 16.046 28.194 17.713 29.5 19.685 29.539 C 18.138 30.751 16.196 31.473 14.078 31.473 C 13.713 31.473 13.357 31.452 13 31.408 C 15.002 32.693 17.373 33.436 19.921 33.436 C 28.221 33.436 32.762 26.558 32.762 20.595 C 32.762 20.398 32.758 20.204 32.749 20.011 C 33.629 19.379 34.394 18.585 35 17.678 L 35 17.677 Z " fill="rgb(0,0,0)" fill-opacity="0.15"/><path d=" M 35 16.677 C 34.192 17.038 33.32 17.279 32.409 17.386 C 33.341 16.827 34.055 15.943 34.394 14.89 C 33.521 15.406 32.555 15.784 31.528 15.986 C 30.703 15.11 29.531 14.564 28.233 14.564 C 25.741 14.564 23.722 16.583 23.722 19.075 C 23.722 19.427 23.76 19.771 23.838 20.102 C 20.087 19.913 16.762 18.117 14.537 15.385 C 14.15 16.051 13.927 16.829 13.927 17.654 C 13.927 19.217 14.722 20.6 15.934 21.409 C 15.195 21.387 14.499 21.181 13.889 20.846 C 13.889 20.863 13.889 20.884 13.889 20.901 C 13.889 23.088 15.444 24.914 17.511 25.326 C 17.132 25.429 16.733 25.485 16.321 25.485 C 16.029 25.485 15.749 25.455 15.47 25.403 C 16.046 27.194 17.713 28.5 19.685 28.539 C 18.138 29.751 16.196 30.473 14.078 30.473 C 13.713 30.473 13.357 30.452 13 30.408 C 15.002 31.693 17.373 32.436 19.921 32.436 C 28.221 32.436 32.762 25.558 32.762 19.595 C 32.762 19.398 32.758 19.204 32.749 19.011 C 33.629 18.379 34.394 17.585 35 16.678 L 35 16.677 Z " fill="rgb(247,247,247)"/></g></g></g></svg>