<?xml version="1.0" standalone="no"?><!-- Generator: Gravit.io --><svg xmlns="http://www.w3.org/2000/svg" xmlns:xlink="http://www.w3.org/1999/xlink" style="isolation:isolate" viewBox="0 0 48 48" width="48" height="48"><defs><clipPath id="_clipPath_0BIKZDpuZTXRi3ef0cR0nOVIUs7Ri4Yn"><rect width="48" height="48"/></clipPath></defs><g clip-path="url(#_clipPath_0BIKZDpuZTXRi3ef0cR0nOVIUs7Ri4Yn)"><g style="isolation:isolate" id="Design"><defs><filter id="hh5g817BWr4pIFQaL16ZW8mBN1C8PoHl" x="-200%" y="-200%" width="400%" height="400%"><feOffset xmlns="http://www.w3.org/2000/svg" in="SourceAlpha" result="offOut" dx="0" dy="1"/><feGaussianBlur xmlns="http://www.w3.org/2000/svg" in="offOut" result="blurOut" stdDeviation="0.5"/><feComponentTransfer xmlns="http://www.w3.org/2000/svg" in="blurOut" result="opacOut"><feFuncA xmlns="http://www.w3.org/2000/svg" type="table" tableValues="0 0.5"/></feComponentTransfer><feBlend xmlns="http://www.w3.org/2000/svg" in="SourceGraphic" in2="opacOut" mode="normal"/></filter></defs><g filter="url(#hh5g817BWr4pIFQaL16ZW8mBN1C8PoHl)"><linearGradient id="_lgradient_59" x1="49.999999999999986%" y1="-1.3877787807814457e-14%" x2="49.999999999999986%" y2="33.1053901850362%"><stop offset="0%" stop-opacity="1" style="stop-color:rgb(30,136,229)"/><stop offset="100%" stop-opacity="1" style="stop-color:rgb(21,101,192)"/></linearGradient><path d=" M 2 24 C 2 11.858 11.858 2 24 2 C 36.142 2 46 11.858 46 24 C 46 36.142 36.142 46 24 46 C 11.858 46 2 36.142 2 24 Z " fill="url(#_lgradient_59)"/></g><g id="Group"><g id="Group"><path d="M 25.396 10.835 L 36.604 10.835 C 37.707 10.835 38.604 11.732 38.604 12.835 L 38.604 19.455 C 38.604 20.559 37.707 21.455 36.604 21.455 L 25.396 21.455 C 24.293 21.455 23.396 20.559 23.396 19.455 L 23.396 12.835 C 23.396 11.732 24.293 10.835 25.396 10.835 Z" style="stroke:none;fill:#03A9F4;stroke-miterlimit:10;"/><path d="M 25.396 11.835 L 36.604 11.835 C 37.707 11.835 38.604 12.732 38.604 13.835 L 38.604 20.455 C 38.604 21.559 37.707 22.455 36.604 22.455 L 25.396 22.455 C 24.293 22.455 23.396 21.559 23.396 20.455 L 23.396 13.835 C 23.396 12.732 24.293 11.835 25.396 11.835 Z" style="stroke:none;fill:#039BE5;stroke-miterlimit:10;"/></g><g id="Group"><path d="M 21.37 10.835 L 28.926 10.835 C 30.029 10.835 30.926 11.732 30.926 12.835 L 30.926 19.455 C 30.926 20.559 30.029 21.455 28.926 21.455 L 21.37 21.455 C 20.266 21.455 19.37 20.559 19.37 19.455 L 19.37 12.835 C 19.37 11.732 20.266 10.835 21.37 10.835 Z" style="stroke:none;fill:#FFC107;stroke-miterlimit:10;"/><path d="M 21.37 11.835 L 28.926 11.835 C 30.029 11.835 30.926 12.732 30.926 13.835 L 30.926 20.455 C 30.926 21.559 30.029 22.455 28.926 22.455 L 21.37 22.455 C 20.266 22.455 19.37 21.559 19.37 20.455 L 19.37 13.835 C 19.37 12.732 20.266 11.835 21.37 11.835 Z" style="stroke:none;fill:#FFB300;stroke-miterlimit:10;"/></g><g id="Group"><path d="M 11.396 10.835 L 22.604 10.835 C 23.707 10.835 24.604 11.732 24.604 12.835 L 24.604 19.455 C 24.604 20.559 23.707 21.455 22.604 21.455 L 11.396 21.455 C 10.293 21.455 9.396 20.559 9.396 19.455 L 9.396 12.835 C 9.396 11.732 10.293 10.835 11.396 10.835 Z" style="stroke:none;fill:#FFEB3B;stroke-miterlimit:10;"/><path d="M 11.396 11.835 L 22.604 11.835 C 23.707 11.835 24.604 12.732 24.604 13.835 L 24.604 20.455 C 24.604 21.559 23.707 22.455 22.604 22.455 L 11.396 22.455 C 10.293 22.455 9.396 21.559 9.396 20.455 L 9.396 13.835 C 9.396 12.732 10.293 11.835 11.396 11.835 Z" style="stroke:none;fill:#FDD835;stroke-miterlimit:10;"/></g></g><linearGradient id="_lgradient_60" x1="50%" y1="0%" x2="49.999999999999986%" y2="100%"><stop offset="2.1739130434782608%" stop-opacity="1" style="stop-color:rgb(100,181,246)"/><stop offset="98.26086956521739%" stop-opacity="1" style="stop-color:rgb(33,150,243)"/></linearGradient><path d=" M 44.623 16.327 C 45.513 18.716 46 21.302 46 24 C 46 36.141 36.142 46 24 46 C 11.858 46 2 36.141 2 24 C 2 21.302 2.487 18.716 3.377 16.327 L 44.623 16.327 Z " fill="url(#_lgradient_60)"/><path d=" M 31.245 38.08 L 31.745 38.58 L 30.416 39.908 L 26.014 35.506 L 26.014 34.8 L 25.765 34.551 C 24.769 35.423 23.44 35.922 22.028 35.922 C 18.83 35.922 16.255 33.389 16.255 30.191 C 16.255 30.023 16.262 29.856 16.272 29.691 C 16.527 32.648 18.998 34.922 22.028 34.922 C 23.44 34.922 24.769 34.423 25.765 33.551 L 26.014 33.8 L 26.014 34.506 L 30.416 38.908 L 31.245 38.08 Z  M 27.743 29.719 C 27.752 29.875 27.758 30.032 27.758 30.191 C 27.758 31.273 27.466 32.305 26.937 33.177 L 26.637 33.177 L 26.388 32.929 C 27.151 32.057 27.628 30.931 27.743 29.719 Z " fill-rule="evenodd" fill="rgb(0,0,0)" fill-opacity="0.15"/><path d=" M 22.028 33.177 C 24.228 33.177 26.014 31.392 26.014 29.191 C 26.014 26.99 24.228 25.204 22.028 25.204 C 19.827 25.204 18.041 26.99 18.041 29.191 C 18.041 31.392 19.827 33.177 22.028 33.177 Z  M 27.343 33.177 L 31.745 37.58 L 30.416 38.908 L 26.014 34.506 L 26.014 33.8 L 25.765 33.551 C 24.769 34.423 23.44 34.922 22.028 34.922 C 18.83 34.922 16.255 32.389 16.255 29.191 C 16.255 25.993 18.829 23.418 22.028 23.418 C 25.226 23.418 27.758 25.993 27.758 29.191 C 27.758 30.603 27.26 31.932 26.388 32.929 L 26.637 33.177 L 27.343 33.177 Z " fill="rgb(247,247,247)"/></g></g></svg>