<?xml version="1.0" standalone="no"?><!-- Generator: Gravit.io --><svg xmlns="http://www.w3.org/2000/svg" xmlns:xlink="http://www.w3.org/1999/xlink" style="isolation:isolate" viewBox="0 0 48 48" width="48" height="48"><defs><clipPath id="_clipPath_ut62DiT9okEZ5f1T6Ow8fvReCMxf1aMG"><rect width="48" height="48"/></clipPath></defs><g clip-path="url(#_clipPath_ut62DiT9okEZ5f1T6Ow8fvReCMxf1aMG)"><g style="isolation:isolate" id="Design"><path d="M 18 3 L 30 3 C 38.831 3 46 10.169 46 19 L 46 31 C 46 39.831 38.831 47 30 47 L 18 47 C 9.169 47 2 39.831 2 31 L 2 19 C 2 10.169 9.169 3 18 3 Z" style="stroke:none;fill:#000000;stroke-miterlimit:10;opacity:0.15;"/><defs><linearGradient id="_lgradient_2" x1="0.5009783938035058" y1="0.14398695474928658" x2="0.49998268329551293" y2="1.0151506733672695"><stop offset="1.3043478260869565%" style="stop-color:#64B5F6"/><stop offset="98.26086956521739%" style="stop-color:#1E88E5"/></linearGradient></defs><path d="M 18 2 L 30 2 C 38.831 2 46 9.169 46 18 L 46 30 C 46 38.831 38.831 46 30 46 L 18 46 C 9.169 46 2 38.831 2 30 L 2 18 C 2 9.169 9.169 2 18 2 Z" style="stroke:none;fill:url(#_lgradient_2);stroke-miterlimit:10;"/><g id="Group"><path d=" M 16.449 31.942 L 16.338 25.53 L 16.226 19.117 C 16.192 17.165 17.55 16.349 19.258 17.295 L 24.867 20.405 L 30.476 23.514 C 32.184 24.46 32.211 26.045 30.538 27.051 L 25.041 30.354 L 19.543 33.657 C 17.87 34.662 16.484 33.894 16.449 31.942 Z " fill="rgb(0,0,0)" fill-opacity="0.15"/><path d=" M 16.449 29.942 L 16.338 23.53 L 16.226 17.117 C 16.192 15.165 17.55 14.349 19.258 15.295 L 24.867 18.405 L 30.476 21.514 C 32.184 22.46 32.211 24.045 30.538 25.051 L 25.041 28.354 L 19.543 31.657 C 17.87 32.662 16.484 31.894 16.449 29.942 Z " fill="rgb(255,255,255)"/><path d=" M 16.449 30.942 L 16.338 24.53 L 16.226 18.117 C 16.192 16.165 17.55 15.349 19.258 16.295 L 24.867 19.405 L 30.476 22.514 C 32.184 23.46 32.211 25.045 30.538 26.051 L 25.041 29.354 L 19.543 32.657 C 17.87 33.662 16.484 32.894 16.449 30.942 Z " fill="rgb(247,247,247)"/></g></g></g></svg>