<?xml version="1.0" standalone="no"?><!-- Generator: Gravit.io --><svg xmlns="http://www.w3.org/2000/svg" xmlns:xlink="http://www.w3.org/1999/xlink" style="isolation:isolate" viewBox="0 0 48 48" width="48" height="48"><defs><clipPath id="_clipPath_OW6fvo0PKy3Iap3LLqIFZydTIamMvkf1"><rect width="48" height="48"/></clipPath></defs><g clip-path="url(#_clipPath_OW6fvo0PKy3Iap3LLqIFZydTIamMvkf1)"><g style="isolation:isolate" id="Design"><path d="M 18 3 L 30 3 C 38.831 3 46 10.169 46 19 L 46 31 C 46 39.831 38.831 47 30 47 L 18 47 C 9.169 47 2 39.831 2 31 L 2 19 C 2 10.169 9.169 3 18 3 Z" style="stroke:none;fill:#000000;stroke-miterlimit:10;opacity:0.15;"/><defs><linearGradient id="_lgradient_4" x1="0.500965406275141" y1="0.14376508447304914" x2="0.500965406275141" y2="1.0000000000000002"><stop offset="0%" style="stop-color:#F48FB1"/><stop offset="100%" style="stop-color:#F06292"/></linearGradient></defs><path d="M 18 2 L 30 2 C 38.831 2 46 9.169 46 18 L 46 30 C 46 38.831 38.831 46 30 46 L 18 46 C 9.169 46 2 38.831 2 30 L 2 18 C 2 9.169 9.169 2 18 2 Z" style="stroke:none;fill:url(#_lgradient_4);stroke-miterlimit:10;"/><g id="Group"><path d=" M 15.834 17.359 L 32.115 17.359 L 32.115 33.641 L 15.834 33.641 L 15.834 17.359 Z  M 34.558 19.801 L 37 19.801 L 37 31.199 L 34.558 31.199 L 34.558 19.801 Z  M 11 19.801 L 13.442 19.801 L 13.442 31.199 L 11 31.199 L 11 19.801 Z " fill-rule="evenodd" fill="rgb(0,0,0)" fill-opacity="0.15"/><path d=" M 15.834 15.359 L 32.115 15.359 L 32.115 31.641 L 15.834 31.641 L 15.834 15.359 Z  M 34.558 17.801 L 37 17.801 L 37 29.199 L 34.558 29.199 L 34.558 17.801 Z  M 11 17.801 L 13.442 17.801 L 13.442 29.199 L 11 29.199 L 11 17.801 Z " fill-rule="evenodd" fill="rgb(255,255,255)"/><g id="Group"><rect x="15.834" y="16.359" width="16.282" height="16.282" transform="matrix(1,0,0,1,0,0)" fill="rgb(247,247,247)"/><rect x="34.558" y="18.801" width="2.442" height="11.397" transform="matrix(1,0,0,1,0,0)" fill="rgb(247,247,247)"/><rect x="11" y="18.801" width="2.442" height="11.397" transform="matrix(1,0,0,1,0,0)" fill="rgb(247,247,247)"/></g></g></g></g></svg>