<?xml version="1.0" standalone="no"?><!-- Generator: Gravit.io --><svg xmlns="http://www.w3.org/2000/svg" xmlns:xlink="http://www.w3.org/1999/xlink" style="isolation:isolate" viewBox="0 0 48 48" width="48" height="48"><defs><clipPath id="_clipPath_lS7SMh9xjB9hzekKFKIAIrnjxYU1jDp2"><rect width="48" height="48"/></clipPath></defs><g clip-path="url(#_clipPath_lS7SMh9xjB9hzekKFKIAIrnjxYU1jDp2)"><g style="isolation:isolate" id="Design"><defs><filter id="nbnsPFwwK40zJj6St2vkFxUzCU0f1Od1" x="-200%" y="-200%" width="400%" height="400%"><feOffset xmlns="http://www.w3.org/2000/svg" in="SourceAlpha" result="offOut" dx="0" dy="1"/><feGaussianBlur xmlns="http://www.w3.org/2000/svg" in="offOut" result="blurOut" stdDeviation="0.5"/><feComponentTransfer xmlns="http://www.w3.org/2000/svg" in="blurOut" result="opacOut"><feFuncA xmlns="http://www.w3.org/2000/svg" type="table" tableValues="0 0.5"/></feComponentTransfer><feBlend xmlns="http://www.w3.org/2000/svg" in="SourceGraphic" in2="opacOut" mode="normal"/></filter></defs><g filter="url(#nbnsPFwwK40zJj6St2vkFxUzCU0f1Od1)"><linearGradient id="_lgradient_46" x1="50%" y1="-1.769911504424776%" x2="50.000000000000014%" y2="100.00000000000004%"><stop offset="0%" stop-opacity="1" style="stop-color:rgb(77,208,225)"/><stop offset="22.608695652173914%" stop-opacity="1" style="stop-color:rgb(38,198,218)"/><stop offset="72.17391304347827%" stop-opacity="1" style="stop-color:rgb(0,188,212)"/><stop offset="100%" stop-opacity="1" style="stop-color:rgb(0,172,193)"/></linearGradient><path d=" M 2 24 C 2 11.858 11.858 2 24 2 C 36.142 2 46 11.858 46 24 C 46 36.142 36.142 46 24 46 C 11.858 46 2 36.142 2 24 Z " fill="url(#_lgradient_46)"/></g><g id="Group"><path d=" M 13 24.604 C 13 25.191 13.249 25.438 13.833 25.438 C 17.976 25.438 21.333 28.796 21.333 32.938 C 21.333 33.456 21.616 33.771 22.167 33.771 C 22.733 33.771 23 33.44 23 32.938 C 23 27.875 18.896 23.771 13.833 23.771 C 13.279 23.771 13 24.041 13 24.604 Z  M 13 28.229 C 13 28.771 13.222 29.02 13.791 29.02 C 15.976 29.02 17.748 30.792 17.748 32.977 C 17.748 33.442 18.015 33.768 18.539 33.768 C 19.05 33.768 19.33 33.484 19.33 32.977 C 19.33 29.918 16.85 27.438 13.791 27.438 C 13.28 27.438 13 27.664 13 28.229 Z  M 14.335 31.104 C 13.598 31.104 13 31.702 13 32.439 C 13 33.177 13.598 33.774 14.335 33.774 C 15.072 33.774 15.67 33.177 15.67 32.439 C 15.67 31.702 15.072 31.104 14.335 31.104 Z " fill-rule="evenodd" fill="rgb(0,0,0)" fill-opacity="0.15"/><path d=" M 13 23.604 C 13 24.191 13.249 24.438 13.833 24.438 C 17.976 24.438 21.333 27.796 21.333 31.938 C 21.333 32.456 21.616 32.771 22.167 32.771 C 22.733 32.771 23 32.44 23 31.938 C 23 26.875 18.896 22.771 13.833 22.771 C 13.279 22.771 13 23.041 13 23.604 Z  M 13 27.229 C 13 27.771 13.222 28.02 13.791 28.02 C 15.976 28.02 17.748 29.792 17.748 31.977 C 17.748 32.442 18.015 32.768 18.539 32.768 C 19.05 32.768 19.33 32.484 19.33 31.977 C 19.33 28.918 16.85 26.438 13.791 26.438 C 13.28 26.438 13 26.664 13 27.229 Z  M 14.335 30.104 C 13.598 30.104 13 30.702 13 31.439 C 13 32.177 13.598 32.774 14.335 32.774 C 15.072 32.774 15.67 32.177 15.67 31.439 C 15.67 30.702 15.072 30.104 14.335 30.104 Z " fill-rule="evenodd" fill="rgb(255,255,255)"/><path d=" M 23.511 28.976 L 34 28.976 C 34.552 28.976 35 28.527 35 27.976 L 35 17.226 C 35 16.674 34.552 16.226 34 16.226 L 19 16.226 L 19 16.226 C 18.448 16.226 18 16.674 18 17.226 L 18 23.333 C 18.712 23.595 19.383 23.943 20 24.365 L 20 18.215 L 33 18.215 L 33 27.015 L 33 27.015 L 22.567 27.015 C 22.955 27.623 23.274 28.281 23.511 28.976 Z " fill="rgb(0,0,0)" fill-opacity="0.15"/><path d=" M 23.511 27.976 L 34 27.976 C 34.552 27.976 35 27.527 35 26.976 L 35 16.226 C 35 15.674 34.552 15.226 34 15.226 L 19 15.226 L 19 15.226 C 18.448 15.226 18 15.674 18 16.226 L 18 22.333 C 18.712 22.595 19.383 22.943 20 23.365 L 20 17.215 L 33 17.215 L 33 26.015 L 33 26.015 L 22.567 26.015 C 22.955 26.623 23.274 27.281 23.511 27.976 Z " fill="rgb(255,255,255)"/></g></g></g></svg>