<?xml version="1.0" standalone="no"?><!-- Generator: Gravit.io --><svg xmlns="http://www.w3.org/2000/svg" xmlns:xlink="http://www.w3.org/1999/xlink" style="isolation:isolate" viewBox="0 0 48 48" width="48" height="48"><defs><clipPath id="_clipPath_SfiqCUd8zaXdjOZ1YBWIDw3YNSRvFsa5"><rect width="48" height="48"/></clipPath></defs><g clip-path="url(#_clipPath_SfiqCUd8zaXdjOZ1YBWIDw3YNSRvFsa5)"><g style="isolation:isolate" id="Design"><defs><filter id="BUp3JQGDEkCZHq487OZJIPQeCywqu8Jb" x="-200%" y="-200%" width="400%" height="400%"><feOffset xmlns="http://www.w3.org/2000/svg" in="SourceAlpha" result="offOut" dx="0" dy="1"/><feGaussianBlur xmlns="http://www.w3.org/2000/svg" in="offOut" result="blurOut" stdDeviation="0.5"/><feComponentTransfer xmlns="http://www.w3.org/2000/svg" in="blurOut" result="opacOut"><feFuncA xmlns="http://www.w3.org/2000/svg" type="table" tableValues="0 0.5"/></feComponentTransfer><feBlend xmlns="http://www.w3.org/2000/svg" in="SourceGraphic" in2="opacOut" mode="normal"/></filter></defs><g filter="url(#BUp3JQGDEkCZHq487OZJIPQeCywqu8Jb)"><linearGradient id="_lgradient_0" x1="50.096540627514074%" y1="14.923409818743833%" x2="50.096540627514074%" y2="101.06999195494772%"><stop offset="1.7391304347826086%" stop-opacity="1" style="stop-color:rgb(229,115,115)"/><stop offset="100%" stop-opacity="1" style="stop-color:rgb(229,57,53)"/></linearGradient><path d=" M 2 24 C 2 11.858 11.858 2 24 2 C 36.142 2 46 11.858 46 24 C 46 36.142 36.142 46 24 46 C 11.858 46 2 36.142 2 24 Z " fill="url(#_lgradient_0)"/></g><g id="Group"><path d=" M 35.02 21.777 L 35.02 24.846 L 35.02 27.916 C 35.02 28.85 34.363 29.229 33.554 28.762 L 30.896 27.227 L 28.238 25.693 C 27.429 25.226 27.429 24.467 28.238 24 L 30.896 22.465 L 33.554 20.931 C 34.363 20.464 35.02 20.843 35.02 21.777 Z  M 14.673 19.886 L 24.515 19.886 C 25.449 19.886 26.208 20.645 26.208 21.579 L 26.208 28.114 C 26.208 29.048 25.449 29.807 24.515 29.807 L 14.673 29.807 C 13.739 29.807 12.98 29.048 12.98 28.114 L 12.98 21.579 C 12.98 20.645 13.739 19.886 14.673 19.886 Z " fill-rule="evenodd" fill="rgb(0,0,0)" fill-opacity="0.15"/><path d=" M 35.02 20.084 L 35.02 23.154 L 35.02 26.223 C 35.02 27.157 34.363 27.536 33.554 27.069 L 30.896 25.535 L 28.238 24 C 27.429 23.533 27.429 22.774 28.238 22.307 L 30.896 20.773 L 33.554 19.238 C 34.363 18.771 35.02 19.15 35.02 20.084 Z  M 14.673 18.193 L 24.515 18.193 C 25.449 18.193 26.208 18.952 26.208 19.886 L 26.208 26.421 C 26.208 27.355 25.449 28.114 24.515 28.114 L 14.673 28.114 C 13.739 28.114 12.98 27.355 12.98 26.421 L 12.98 19.886 C 12.98 18.952 13.739 18.193 14.673 18.193 Z " fill-rule="evenodd" fill="rgb(255,255,255)"/><g id="Group"><path d="M 14.673 19.04 L 24.515 19.04 C 25.449 19.04 26.208 19.798 26.208 20.732 L 26.208 27.268 C 26.208 28.202 25.449 28.96 24.515 28.96 L 14.673 28.96 C 13.739 28.96 12.98 28.202 12.98 27.268 L 12.98 20.732 C 12.98 19.798 13.739 19.04 14.673 19.04 Z" style="stroke:none;fill:#F7F7F7;stroke-miterlimit:10;"/><path d=" M 35.02 20.931 L 35.02 24 L 35.02 27.069 C 35.02 28.003 34.363 28.383 33.554 27.916 L 30.896 26.381 L 28.238 24.846 C 27.429 24.379 27.429 23.621 28.238 23.154 L 30.896 21.619 L 33.554 20.084 C 34.363 19.617 35.02 19.997 35.02 20.931 Z " fill="rgb(247,247,247)"/></g></g></g></g></svg>