<?xml version="1.0" standalone="no"?><!-- Generator: Gravit.io --><svg xmlns="http://www.w3.org/2000/svg" xmlns:xlink="http://www.w3.org/1999/xlink" style="isolation:isolate" viewBox="0 0 48 48" width="48" height="48"><defs><clipPath id="_clipPath_DyTkuOonxJKBKSVRk5DMaxrobHMvM0aN"><rect width="48" height="48"/></clipPath></defs><g clip-path="url(#_clipPath_DyTkuOonxJKBKSVRk5DMaxrobHMvM0aN)"><g style="isolation:isolate" id="Design"><g id="Group"><defs><filter id="eDvulzi6ICrjKAgeoocv2k9e5B0f9r4Y" x="-200%" y="-200%" width="400%" height="400%"><feOffset xmlns="http://www.w3.org/2000/svg" in="SourceAlpha" result="offOut" dx="0" dy="1"/><feGaussianBlur xmlns="http://www.w3.org/2000/svg" in="offOut" result="blurOut" stdDeviation="0.5"/><feComponentTransfer xmlns="http://www.w3.org/2000/svg" in="blurOut" result="opacOut"><feFuncA xmlns="http://www.w3.org/2000/svg" type="table" tableValues="0 0.5"/></feComponentTransfer><feBlend xmlns="http://www.w3.org/2000/svg" in="SourceGraphic" in2="opacOut" mode="normal"/></filter></defs><g filter="url(#eDvulzi6ICrjKAgeoocv2k9e5B0f9r4Y)"><path d=" M 2 24 C 2 11.858 11.858 2 24 2 C 36.142 2 46 11.858 46 24 C 46 36.142 36.142 46 24 46 C 11.858 46 2 36.142 2 24 Z " fill="rgb(142,36,170)"/></g><g id="Group"><g id="Group"><path d=" M 17.341 35.845 C 17.341 34.96 18.06 34.242 18.944 34.242 C 19.829 34.242 20.547 34.96 20.547 35.845 C 20.547 36.73 19.829 37.448 18.944 37.448 C 18.06 37.448 17.341 36.73 17.341 35.845 Z " fill="rgb(255,255,255)" fill-opacity="0.3"/><path d=" M 23.753 38.147 C 23.753 37.76 24.068 37.445 24.455 37.445 C 24.842 37.445 25.156 37.76 25.156 38.147 C 25.156 38.534 24.842 38.848 24.455 38.848 C 24.068 38.848 23.753 38.534 23.753 38.147 Z " fill="rgb(255,255,255)" fill-opacity="0.3"/></g><g id="Group"><path d=" M 34.758 10.755 C 34.758 9.87 35.476 9.152 36.361 9.152 C 37.245 9.152 37.963 9.87 37.963 10.755 C 37.963 11.639 37.245 12.357 36.361 12.357 C 35.476 12.357 34.758 11.639 34.758 10.755 Z " fill="rgb(255,255,255)" fill-opacity="0.3"/><path d=" M 34.024 13.95 C 34.024 13.562 34.339 13.248 34.726 13.248 C 35.113 13.248 35.427 13.562 35.427 13.95 C 35.427 14.337 35.113 14.651 34.726 14.651 C 34.339 14.651 34.024 14.337 34.024 13.95 Z " fill="rgb(255,255,255)" fill-opacity="0.3"/></g><path d=" M 35.794 32.413 C 35.794 31.528 36.512 30.81 37.397 30.81 C 38.282 30.81 39 31.528 39 32.413 C 39 33.298 38.282 34.016 37.397 34.016 C 36.512 34.016 35.794 33.298 35.794 32.413 Z " fill="rgb(255,255,255)" fill-opacity="0.3"/><path d=" M 11.568 11.344 C 11.568 10.46 12.286 9.742 13.171 9.742 C 14.055 9.742 14.774 10.46 14.774 11.344 C 14.774 12.229 14.055 12.947 13.171 12.947 C 12.286 12.947 11.568 12.229 11.568 11.344 Z " fill="rgb(255,255,255)" fill-opacity="0.3"/><g id="Group"><path d=" M 9 26.711 C 9 25.972 9.6 25.371 10.34 25.371 C 11.079 25.371 11.679 25.972 11.679 26.711 C 11.679 27.451 11.079 28.051 10.34 28.051 C 9.6 28.051 9 27.451 9 26.711 Z " fill="rgb(255,255,255)" fill-opacity="0.3"/><path d=" M 11.983 23.665 C 11.983 22.186 13.183 20.986 14.662 20.986 C 16.141 20.986 17.341 22.186 17.341 23.665 C 17.341 25.144 16.141 26.344 14.662 26.344 C 13.183 26.344 11.983 25.144 11.983 23.665 Z " fill="rgb(255,255,255)" fill-opacity="0.3"/></g></g><path d=" M 4.343 14.131 C 7.958 6.938 15.407 2 24 2 C 32.593 2 40.042 6.937 43.657 14.131 C 39.183 20.117 32.041 24 24 24 C 15.959 24 8.817 20.118 4.343 14.131 Z " fill="rgb(0,0,0)" fill-opacity="0.15"/><path d=" M 4.879 13.145 C 8.654 6.488 15.807 2 24 2 C 32.191 2 39.342 6.486 43.118 13.14 C 38.863 19.11 31.881 23 23.997 23 C 16.116 23 9.135 19.112 4.879 13.145 Z " fill="rgb(171,71,188)"/><path d=" M 8.865 8.053 C 12.803 4.3 18.135 2 24 2 C 29.865 2 35.196 4.3 39.135 8.052 C 35.474 12.309 30.049 15 24 15 C 17.951 15 12.525 12.309 8.865 8.053 Z " fill="rgb(0,0,0)" fill-opacity="0.15"/><path d=" M 9.595 7.39 C 13.45 4.03 18.49 2 24 2 C 29.5 2 34.531 4.022 38.383 7.372 C 34.905 11.432 29.741 14 23.981 14 C 18.23 14 13.072 11.439 9.595 7.39 Z " fill="rgb(206,147,216)"/></g><g id="Group"><path d=" M 10 24.5 L 18.41 24.09 L 23.261 13.387 L 25.813 26.414 L 27.29 23.09 L 38 24.5 L 29.103 25.91 L 24.739 35.613 L 22.187 22.586 L 19.71 27.91 L 10 24.5 Z " fill="rgb(0,0,0)" fill-opacity="0.15"/><path d=" M 10 23.5 L 18.41 23.09 L 23.261 12.387 L 25.813 25.414 L 27.29 22.09 L 38 23.5 L 29.103 24.91 L 24.739 34.613 L 22.187 21.586 L 19.71 26.91 L 10 23.5 Z " fill="rgb(247,247,247)"/></g></g></g></svg>