<?xml version="1.0" standalone="no"?><!-- Generator: Gravit.io --><svg xmlns="http://www.w3.org/2000/svg" xmlns:xlink="http://www.w3.org/1999/xlink" style="isolation:isolate" viewBox="0 0 48 48" width="48" height="48"><defs><clipPath id="_clipPath_soIC159L30Yei5lr5Ixv9QaegKkduIGA"><rect width="48" height="48"/></clipPath></defs><g clip-path="url(#_clipPath_soIC159L30Yei5lr5Ixv9QaegKkduIGA)"><g style="isolation:isolate" id="Design"><defs><filter id="l4nD7IglvepZQXcXLarfw6lYAK3S2vAp" x="-200%" y="-200%" width="400%" height="400%"><feOffset xmlns="http://www.w3.org/2000/svg" in="SourceAlpha" result="offOut" dx="0" dy="1"/><feGaussianBlur xmlns="http://www.w3.org/2000/svg" in="offOut" result="blurOut" stdDeviation="0.5"/><feComponentTransfer xmlns="http://www.w3.org/2000/svg" in="blurOut" result="opacOut"><feFuncA xmlns="http://www.w3.org/2000/svg" type="table" tableValues="0 0.5"/></feComponentTransfer><feBlend xmlns="http://www.w3.org/2000/svg" in="SourceGraphic" in2="opacOut" mode="normal"/></filter></defs><g filter="url(#l4nD7IglvepZQXcXLarfw6lYAK3S2vAp)"><radialGradient id="_rgradient_1" fx="50%" fy="50%" cx="50%" cy="50%" r="50%"><stop offset="1.3043478260869565%" stop-opacity="1" style="stop-color:rgb(129,212,250)"/><stop offset="98.26086956521739%" stop-opacity="1" style="stop-color:rgb(3,169,244)"/></radialGradient><path d=" M 2 24 C 2 11.858 11.858 2 24 2 C 36.142 2 46 11.858 46 24 C 46 36.142 36.142 46 24 46 C 11.858 46 2 36.142 2 24 Z " fill="url(#_rgradient_1)"/></g><g id="Group"><path d=" M 16.449 31.442 L 16.338 25.03 L 16.226 18.617 C 16.192 16.665 17.55 15.849 19.258 16.795 L 24.867 19.905 L 30.476 23.014 C 32.184 23.96 32.211 25.545 30.538 26.551 L 25.041 29.854 L 19.543 33.157 C 17.87 34.162 16.484 33.394 16.449 31.442 Z " fill="rgb(0,0,0)" fill-opacity="0.15"/><path d=" M 16.449 29.442 L 16.338 23.03 L 16.226 16.617 C 16.192 14.665 17.55 13.849 19.258 14.795 L 24.867 17.905 L 30.476 21.014 C 32.184 21.96 32.211 23.545 30.538 24.551 L 25.041 27.854 L 19.543 31.157 C 17.87 32.162 16.484 31.394 16.449 29.442 Z " fill="rgb(255,255,255)"/><path d=" M 16.449 30.442 L 16.338 24.03 L 16.226 17.617 C 16.192 15.665 17.55 14.849 19.258 15.795 L 24.867 18.905 L 30.476 22.014 C 32.184 22.96 32.211 24.545 30.538 25.551 L 25.041 28.854 L 19.543 32.157 C 17.87 33.162 16.484 32.394 16.449 30.442 Z " fill="rgb(247,247,247)"/></g></g></g></svg>