<?xml version="1.0" standalone="no"?><!-- Generator: Gravit.io --><svg xmlns="http://www.w3.org/2000/svg" xmlns:xlink="http://www.w3.org/1999/xlink" style="isolation:isolate" viewBox="0 0 256 256" width="256" height="256"><defs><clipPath id="_clipPath_FqdVn5SZMI35lxnGHZ7djC74DH5k113f"><rect width="256" height="256"/></clipPath></defs><g clip-path="url(#_clipPath_FqdVn5SZMI35lxnGHZ7djC74DH5k113f)"><g style="isolation:isolate" id="Icon"><path d=" M 3.013 129.5 C 3.003 129.999 3 130.499 3 131 C 3 199.989 59.011 256 128 256 C 196.989 256 253 199.989 253 131 C 253 130.499 252.997 129.999 252.987 129.5 C 252.186 197.8 196.488 253 128 253 C 59.512 253 3.814 197.8 3.013 129.5 Z " fill="rgb(0,0,0)" fill-opacity="0.15"/><linearGradient id="_lgradient_1" x1="50%" y1="-1.769911504424776%" x2="50.000000000000014%" y2="100.00000000000004%"><stop offset="0%" stop-opacity="1" style="stop-color:rgb(77,208,225)"/><stop offset="22.608695652173914%" stop-opacity="1" style="stop-color:rgb(38,198,218)"/><stop offset="72.17391304347827%" stop-opacity="1" style="stop-color:rgb(0,188,212)"/><stop offset="100%" stop-opacity="1" style="stop-color:rgb(0,172,193)"/></linearGradient><path d=" M 3 128 C 3 59.011 59.011 3 128 3 C 196.989 3 253 59.011 253 128 C 253 196.989 196.989 253 128 253 C 59.011 253 3 196.989 3 128 Z " fill="url(#_lgradient_1)"/><g id="Group"><path d=" M 159.704 84.778 C 154.931 89.651 137.859 106.785 128.741 115.75 L 154.329 141.261 L 123.738 172.319 C 111.171 160.284 98.821 148.161 86.321 136.144 L 86.073 135.924 C 79.885 130.763 76.307 122.377 77.595 114.605 C 78.968 104.184 89.236 95.176 99.583 95.395 C 101.589 95.368 103.613 95.814 105.149 96.14 C 110.041 97.189 114.579 101.603 118.773 105.849 C 118.765 105.858 121.046 108.141 121.046 108.141 L 127.003 114.07 L 139.014 102.059 C 140.859 100.215 141.878 96.681 139.014 93.848 C 137.549 92.383 135.939 91.931 134.47 92.072 C 133 92.214 131.671 92.946 130.775 93.848 C 128.886 95.737 126.879 97.744 125.189 99.433 C 120.865 95.124 114.168 88.612 107.164 87.088 C 104.662 86.449 102.085 86.121 99.507 86.115 C 83.879 85.806 70.43 98.005 68.391 113.134 C 66.519 124.579 71.52 135.941 80.096 143.094 L 79.848 142.875 C 92.387 154.928 105.887 167.913 118.563 179.938 C 120.349 181.494 121.803 181.752 123.681 181.752 C 125.129 181.771 126.776 181.278 128.464 179.652 L 156.763 151.286 C 156.763 151.286 175.718 132.396 185.072 123.102 C 187.068 121.105 187.211 118.31 185.215 116.314 C 183.219 114.319 180.364 114.386 178.369 116.38 L 158.148 136.602 C 157.618 136.714 156.499 135.551 156.553 134.893 L 186.427 105.009 C 188.423 103.013 188.572 100.16 186.571 98.164 C 184.574 96.167 181.912 96.446 179.916 98.441 L 156.257 122.109 C 155.638 122.216 154.292 121.049 154.462 120.257 L 182.465 92.244 C 184.071 90.526 185.028 87.475 182.971 85.322 C 180.975 83.326 177.912 83.461 175.915 85.465 L 147.025 114.366 C 146.332 114.366 145.274 113.394 145.287 112.676 L 166.435 91.528 C 168.429 89.533 168.792 86.745 166.616 84.683 C 165.528 83.651 164.261 83.204 163.036 83.25 C 161.811 83.297 160.627 83.834 159.704 84.778 Z " fill-rule="evenodd" fill="rgb(0,0,0)" fill-opacity="0.15"/><path d=" M 159.704 81.778 C 154.931 86.651 137.859 103.785 128.741 112.75 L 154.329 138.261 L 123.738 169.319 C 111.171 157.284 98.821 145.161 86.321 133.144 L 86.073 132.924 C 79.885 127.763 76.307 119.377 77.595 111.605 C 78.968 101.184 89.236 92.176 99.583 92.395 C 101.589 92.368 103.613 92.814 105.149 93.14 C 110.041 94.189 114.579 98.603 118.773 102.849 C 118.765 102.858 121.046 105.141 121.046 105.141 L 127.003 111.07 L 139.014 99.059 C 140.859 97.215 141.878 93.681 139.014 90.848 C 137.549 89.383 135.939 88.931 134.47 89.072 C 133 89.214 131.671 89.946 130.775 90.848 C 128.886 92.737 126.879 94.744 125.189 96.433 C 120.865 92.124 114.168 85.612 107.164 84.088 C 104.662 83.449 102.085 83.121 99.507 83.115 C 83.879 82.806 70.43 95.005 68.391 110.134 C 66.519 121.579 71.52 132.941 80.096 140.094 L 79.848 139.875 C 92.387 151.928 105.887 164.913 118.563 176.938 C 120.349 178.494 121.803 178.752 123.681 178.752 C 125.129 178.771 126.776 178.278 128.464 176.652 L 156.763 148.286 C 156.763 148.286 175.718 129.396 185.072 120.102 C 187.068 118.105 187.211 115.31 185.215 113.314 C 183.219 111.319 180.364 111.386 178.369 113.38 L 158.148 133.602 C 157.618 133.714 156.499 132.551 156.553 131.893 L 186.427 102.009 C 188.423 100.013 188.572 97.16 186.571 95.164 C 184.574 93.167 181.912 93.446 179.916 95.441 L 156.257 119.109 C 155.638 119.216 154.292 118.049 154.462 117.257 L 182.465 89.244 C 184.071 87.526 185.028 84.475 182.971 82.322 C 180.975 80.326 177.912 80.461 175.915 82.465 L 147.025 111.366 C 146.332 111.366 145.274 110.394 145.287 109.676 L 166.435 88.528 C 168.429 86.533 168.792 83.745 166.616 81.683 C 165.528 80.651 164.261 80.204 163.036 80.25 C 161.811 80.297 160.627 80.834 159.704 81.778 Z " fill-rule="evenodd" fill="rgb(247,247,247)"/></g></g></g></svg>