<?xml version="1.0" standalone="no"?><!-- Generator: Gravit.io --><svg xmlns="http://www.w3.org/2000/svg" xmlns:xlink="http://www.w3.org/1999/xlink" style="isolation:isolate" viewBox="0 0 256 256" width="256" height="256"><defs><clipPath id="_clipPath_Yk75opCbD085yN05Y9ERcz2qmjBUMg2I"><rect width="256" height="256"/></clipPath></defs><g clip-path="url(#_clipPath_Yk75opCbD085yN05Y9ERcz2qmjBUMg2I)"><g style="isolation:isolate" id="Icon"><path d=" M 3.013 128 C 3.003 128.499 3 128.999 3 129.5 C 3 198.489 59.011 254.5 128 254.5 C 196.989 254.5 253 198.489 253 129.5 C 253 128.999 252.997 128.499 252.987 128 C 252.186 196.3 196.488 251.5 128 251.5 C 59.512 251.5 3.814 196.3 3.013 128 Z " fill="rgb(0,0,0)" fill-opacity="0.15"/><linearGradient id="_lgradient_4" x1="50.459165613147924%" y1="-0.35136219974715166%" x2="49.99393173198482%" y2="101.32622945638437%"><stop offset="1.3043478260869565%" stop-opacity="1" style="stop-color:rgb(171,71,188)"/><stop offset="26.956521739130434%" stop-opacity="1" style="stop-color:rgb(156,39,176)"/><stop offset="83.91304347826087%" stop-opacity="1" style="stop-color:rgb(142,36,170)"/><stop offset="98.69565217391305%" stop-opacity="1" style="stop-color:rgb(123,31,162)"/></linearGradient><path d=" M 3 126.5 C 3 57.511 59.011 1.5 128 1.5 C 196.989 1.5 253 57.511 253 126.5 C 253 195.489 196.989 251.5 128 251.5 C 59.011 251.5 3 195.489 3 126.5 Z " fill="url(#_lgradient_4)"/><g id="Group"><path d=" M 62.435 126.5 C 61.325 127.737 60.5 128.992 60.5 129.714 C 60.5 131.495 65.518 136.513 67.299 136.513 Q 69.079 136.513 112.137 136.513 L 119.259 120.488 L 131.561 183.293 L 152.604 136.513 Q 186.921 136.513 188.701 136.513 C 190.482 136.513 195.5 131.495 195.5 129.714 C 195.5 128.992 194.675 127.737 193.565 126.5 C 191.962 128.311 189.76 130.084 188.701 130.084 Q 186.921 130.084 152.604 130.084 L 131.561 176.865 L 119.259 114.059 L 112.137 130.084 Q 69.079 130.084 67.299 130.084 C 66.24 130.084 64.038 128.311 62.435 126.5 Z " fill="rgb(0,0,0)" fill-opacity="0.15"/><path d=" M 67.299 130.084 C 65.518 130.084 60.5 125.066 60.5 123.286 C 60.5 121.505 65.518 116.487 67.299 116.487 Q 69.079 116.487 103.396 116.487 L 124.439 69.707 L 136.741 132.512 L 143.863 116.487 Q 186.921 116.487 188.701 116.487 C 190.482 116.487 195.5 121.505 195.5 123.286 C 195.5 125.066 190.482 130.084 188.701 130.084 Q 186.921 130.084 152.604 130.084 L 131.561 176.865 L 119.259 114.059 L 112.137 130.084 Q 69.079 130.084 67.299 130.084 Z " fill="rgb(255,255,255)"/></g></g></g></svg>