<?xml version="1.0" standalone="no"?><!-- Generator: Gravit.io --><svg xmlns="http://www.w3.org/2000/svg" xmlns:xlink="http://www.w3.org/1999/xlink" style="isolation:isolate" viewBox="0 0 256 256" width="256" height="256"><defs><clipPath id="_clipPath_EOOYsR9vJqXlj96B4tJsxrD3ylSxTcmW"><rect width="256" height="256"/></clipPath></defs><g clip-path="url(#_clipPath_EOOYsR9vJqXlj96B4tJsxrD3ylSxTcmW)"><g style="isolation:isolate" id="Icon"><path d=" M 3.013 128 C 3.003 128.499 3 128.999 3 129.5 C 3 198.489 59.011 254.5 128 254.5 C 196.989 254.5 253 198.489 253 129.5 C 253 128.999 252.997 128.499 252.987 128 C 252.186 196.3 196.488 251.5 128 251.5 C 59.512 251.5 3.814 196.3 3.013 128 Z " fill="rgb(0,0,0)" fill-opacity="0.15"/><linearGradient id="_lgradient_11" x1="50%" y1="-1.769911504424776%" x2="50.000000000000014%" y2="100.00000000000004%"><stop offset="0%" stop-opacity="1" style="stop-color:rgb(77,208,225)"/><stop offset="22.608695652173914%" stop-opacity="1" style="stop-color:rgb(38,198,218)"/><stop offset="72.17391304347827%" stop-opacity="1" style="stop-color:rgb(0,188,212)"/><stop offset="100%" stop-opacity="1" style="stop-color:rgb(0,172,193)"/></linearGradient><path d=" M 3 126.5 C 3 57.511 59.011 1.5 128 1.5 C 196.989 1.5 253 57.511 253 126.5 C 253 195.489 196.989 251.5 128 251.5 C 59.011 251.5 3 195.489 3 126.5 Z " fill="url(#_lgradient_11)"/><g id="Group"><path d=" M 159.704 83.278 C 154.931 88.151 137.859 105.285 128.741 114.25 L 154.329 139.761 L 123.738 170.819 C 111.171 158.784 98.821 146.661 86.321 134.644 L 86.073 134.424 C 79.885 129.263 76.307 120.877 77.595 113.105 C 78.968 102.684 89.236 93.676 99.583 93.895 C 101.589 93.868 103.613 94.314 105.149 94.64 C 110.041 95.689 114.579 100.103 118.773 104.349 C 118.765 104.358 121.046 106.641 121.046 106.641 L 127.003 112.57 L 139.014 100.559 C 140.859 98.715 141.878 95.181 139.014 92.348 C 137.549 90.883 135.939 90.431 134.47 90.572 C 133 90.714 131.671 91.446 130.775 92.348 C 128.886 94.237 126.879 96.244 125.189 97.933 C 120.865 93.624 114.168 87.112 107.164 85.588 C 104.662 84.949 102.085 84.621 99.507 84.615 C 83.879 84.306 70.43 96.505 68.391 111.634 C 66.519 123.079 71.52 134.441 80.096 141.594 L 79.848 141.375 C 92.387 153.428 105.887 166.413 118.563 178.438 C 120.349 179.994 121.803 180.252 123.681 180.252 C 125.129 180.271 126.776 179.778 128.464 178.152 L 156.763 149.786 C 156.763 149.786 175.718 130.896 185.072 121.602 C 187.068 119.605 187.211 116.81 185.215 114.814 C 183.219 112.819 180.364 112.886 178.369 114.88 L 158.148 135.102 C 157.618 135.214 156.499 134.051 156.553 133.393 L 186.427 103.509 C 188.423 101.513 188.572 98.66 186.571 96.664 C 184.574 94.667 181.912 94.946 179.916 96.941 L 156.257 120.609 C 155.638 120.716 154.292 119.549 154.462 118.757 L 182.465 90.744 C 184.071 89.026 185.028 85.975 182.971 83.822 C 180.975 81.826 177.912 81.961 175.915 83.965 L 147.025 112.866 C 146.332 112.866 145.274 111.894 145.287 111.176 L 166.435 90.028 C 168.429 88.033 168.792 85.245 166.616 83.183 C 165.528 82.151 164.261 81.704 163.036 81.75 C 161.811 81.797 160.627 82.334 159.704 83.278 Z " fill-rule="evenodd" fill="rgb(0,0,0)" fill-opacity="0.15"/><path d=" M 159.704 80.278 C 154.931 85.151 137.859 102.285 128.741 111.25 L 154.329 136.761 L 123.738 167.819 C 111.171 155.784 98.821 143.661 86.321 131.644 L 86.073 131.424 C 79.885 126.263 76.307 117.877 77.595 110.105 C 78.968 99.684 89.236 90.676 99.583 90.895 C 101.589 90.868 103.613 91.314 105.149 91.64 C 110.041 92.689 114.579 97.103 118.773 101.349 C 118.765 101.358 121.046 103.641 121.046 103.641 L 127.003 109.57 L 139.014 97.559 C 140.859 95.715 141.878 92.181 139.014 89.348 C 137.549 87.883 135.939 87.431 134.47 87.572 C 133 87.714 131.671 88.446 130.775 89.348 C 128.886 91.237 126.879 93.244 125.189 94.933 C 120.865 90.624 114.168 84.112 107.164 82.588 C 104.662 81.949 102.085 81.621 99.507 81.615 C 83.879 81.306 70.43 93.505 68.391 108.634 C 66.519 120.079 71.52 131.441 80.096 138.594 L 79.848 138.375 C 92.387 150.428 105.887 163.413 118.563 175.438 C 120.349 176.994 121.803 177.252 123.681 177.252 C 125.129 177.271 126.776 176.778 128.464 175.152 L 156.763 146.786 C 156.763 146.786 175.718 127.896 185.072 118.602 C 187.068 116.605 187.211 113.81 185.215 111.814 C 183.219 109.819 180.364 109.886 178.369 111.88 L 158.148 132.102 C 157.618 132.214 156.499 131.051 156.553 130.393 L 186.427 100.509 C 188.423 98.513 188.572 95.66 186.571 93.664 C 184.574 91.667 181.912 91.946 179.916 93.941 L 156.257 117.609 C 155.638 117.716 154.292 116.549 154.462 115.757 L 182.465 87.744 C 184.071 86.026 185.028 82.975 182.971 80.822 C 180.975 78.826 177.912 78.961 175.915 80.965 L 147.025 109.866 C 146.332 109.866 145.274 108.894 145.287 108.176 L 166.435 87.028 C 168.429 85.033 168.792 82.245 166.616 80.183 C 165.528 79.151 164.261 78.704 163.036 78.75 C 161.811 78.797 160.627 79.334 159.704 80.278 Z " fill-rule="evenodd" fill="rgb(247,247,247)"/></g></g></g></svg>