<?xml version="1.0" standalone="no"?><!-- Generator: Gravit.io --><svg xmlns="http://www.w3.org/2000/svg" xmlns:xlink="http://www.w3.org/1999/xlink" style="isolation:isolate" viewBox="0 0 256 256" width="256" height="256"><defs><clipPath id="_clipPath_BR3dPHULbzFodwxbkXcXXOgVowCemRym"><rect width="256" height="256"/></clipPath></defs><g clip-path="url(#_clipPath_BR3dPHULbzFodwxbkXcXXOgVowCemRym)"><g style="isolation:isolate" id="Icon"><path d=" M 3.013 129.5 C 3.003 129.999 3 130.499 3 131 C 3 199.989 59.011 256 128 256 C 196.989 256 253 199.989 253 131 C 253 130.499 252.997 129.999 252.987 129.5 C 252.186 197.8 196.488 253 128 253 C 59.512 253 3.814 197.8 3.013 129.5 Z " fill="rgb(0,0,0)" fill-opacity="0.15"/><linearGradient id="_lgradient_18" x1="50.459165613147924%" y1="-0.35136219974715166%" x2="49.99393173198482%" y2="101.32622945638437%"><stop offset="1.3043478260869565%" stop-opacity="1" style="stop-color:rgb(171,71,188)"/><stop offset="26.956521739130434%" stop-opacity="1" style="stop-color:rgb(156,39,176)"/><stop offset="83.91304347826087%" stop-opacity="1" style="stop-color:rgb(142,36,170)"/><stop offset="98.69565217391305%" stop-opacity="1" style="stop-color:rgb(123,31,162)"/></linearGradient><path d=" M 3 128 C 3 59.011 59.011 3 128 3 C 196.989 3 253 59.011 253 128 C 253 196.989 196.989 253 128 253 C 59.011 253 3 196.989 3 128 Z " fill="url(#_lgradient_18)"/><g id="Group"><path d=" M 62.435 128 C 61.325 129.237 60.5 130.492 60.5 131.214 C 60.5 132.995 65.518 138.013 67.299 138.013 Q 69.079 138.013 112.137 138.013 L 119.259 121.988 L 131.561 184.793 L 152.604 138.013 Q 186.921 138.013 188.701 138.013 C 190.482 138.013 195.5 132.995 195.5 131.214 C 195.5 130.492 194.675 129.237 193.565 128 C 191.962 129.811 189.76 131.584 188.701 131.584 Q 186.921 131.584 152.604 131.584 L 131.561 178.365 L 119.259 115.559 L 112.137 131.584 Q 69.079 131.584 67.299 131.584 C 66.24 131.584 64.038 129.811 62.435 128 Z " fill="rgb(0,0,0)" fill-opacity="0.15"/><path d=" M 67.299 131.584 C 65.518 131.584 60.5 126.566 60.5 124.786 C 60.5 123.005 65.518 117.987 67.299 117.987 Q 69.079 117.987 103.396 117.987 L 124.439 71.207 L 136.741 134.012 L 143.863 117.987 Q 186.921 117.987 188.701 117.987 C 190.482 117.987 195.5 123.005 195.5 124.786 C 195.5 126.566 190.482 131.584 188.701 131.584 Q 186.921 131.584 152.604 131.584 L 131.561 178.365 L 119.259 115.559 L 112.137 131.584 Q 69.079 131.584 67.299 131.584 Z " fill="rgb(255,255,255)"/></g></g></g></svg>