<?xml version="1.0" standalone="no"?><!-- Generator: Gravit.io --><svg xmlns="http://www.w3.org/2000/svg" xmlns:xlink="http://www.w3.org/1999/xlink" style="isolation:isolate" viewBox="0 0 48 48" width="48" height="48"><defs><clipPath id="_clipPath_WipGhFgDlGIFE3Tf1burfgIoa8u22QrG"><rect width="48" height="48"/></clipPath></defs><g clip-path="url(#_clipPath_WipGhFgDlGIFE3Tf1burfgIoa8u22QrG)"><g style="isolation:isolate" id="Design"><defs><filter id="Q2fOei0IzOAgQi5ZP78kQUwsOBUbHX4z" x="-200%" y="-200%" width="400%" height="400%"><feOffset xmlns="http://www.w3.org/2000/svg" in="SourceAlpha" result="offOut" dx="0" dy="1"/><feGaussianBlur xmlns="http://www.w3.org/2000/svg" in="offOut" result="blurOut" stdDeviation="0.5"/><feComponentTransfer xmlns="http://www.w3.org/2000/svg" in="blurOut" result="opacOut"><feFuncA xmlns="http://www.w3.org/2000/svg" type="table" tableValues="0 0.5"/></feComponentTransfer><feBlend xmlns="http://www.w3.org/2000/svg" in="SourceGraphic" in2="opacOut" mode="normal"/></filter></defs><g filter="url(#Q2fOei0IzOAgQi5ZP78kQUwsOBUbHX4z)"><linearGradient id="_lgradient_49" x1="50.211416490486286%" y1="0%" x2="50.21141649048629%" y2="100%"><stop offset="0%" stop-opacity="1" style="stop-color:rgb(79,195,247)"/><stop offset="100%" stop-opacity="1" style="stop-color:rgb(3,169,244)"/></linearGradient><path d=" M 2 24 C 2 11.858 11.858 2 24 2 C 36.142 2 46 11.858 46 24 C 46 36.142 36.142 46 24 46 C 11.858 46 2 36.142 2 24 Z " fill="url(#_lgradient_49)"/></g><g id="Group"><g id="Group"><g id="Group"><linearGradient id="_lgradient_50" x1="27.78496684352264%" y1="1.3970901611319662%" x2="27.784966843522664%" y2="77.28408989459858%"><stop offset="0%" stop-opacity="1" style="stop-color:rgb(156,204,101)"/><stop offset="100%" stop-opacity="1" style="stop-color:rgb(124,179,66)"/></linearGradient><path d=" M 26.233 45.888 C 25.499 45.962 24.754 46 24 46 C 13.098 46 4.038 38.054 2.301 27.642 L 9 16.039 L 19.093 33.519 L 26.233 45.888 Z " fill="url(#_lgradient_50)"/><linearGradient id="_lgradient_51" x1="50%" y1="1.6653345369377348e-14%" x2="50.000000000000064%" y2="98.59287449815622%"><stop offset="0%" stop-opacity="1" style="stop-color:rgb(255,255,255)"/><stop offset="100%" stop-opacity="1" style="stop-color:rgb(247,247,247)"/></linearGradient><path d=" M 9.011 16.039 L 3.632 25.517 L 7.209 23.728 L 9.011 29.036 L 10.749 23.788 L 14.541 25.561 L 9.011 16.039 Z " fill="url(#_lgradient_51)"/></g><path d=" M 15.634 27.529 L 15.031 26.485 L 5.544 35.972 C 6.426 37.328 7.453 38.58 8.603 39.708 L 13.908 30.519 L 15.634 27.529 Z " fill="rgb(114,159,65)"/></g><g id="Group"><g id="Group"><linearGradient id="_lgradient_52" x1="50%" y1="0%" x2="49.999999999999986%" y2="99.5788320756989%"><stop offset="0%" stop-opacity="1" style="stop-color:rgb(156,204,101)"/><stop offset="100%" stop-opacity="1" style="stop-color:rgb(124,179,66)"/></linearGradient><path d=" M 39.397 39.708 C 35.428 43.599 29.992 46 24 46 C 18.008 46 12.572 43.599 8.603 39.708 L 13.908 30.519 L 24 13.039 L 34.093 30.519 L 39.397 39.708 Z " fill="url(#_lgradient_52)"/><linearGradient id="_lgradient_53" x1="50%" y1="1.6653345369377348e-14%" x2="50.000000000000064%" y2="98.59287449815622%"><stop offset="0%" stop-opacity="1" style="stop-color:rgb(255,255,255)"/><stop offset="100%" stop-opacity="1" style="stop-color:rgb(247,247,247)"/></linearGradient><path d=" M 24 13.039 L 17.808 23.949 L 21.925 21.891 L 24 28 L 26 21.959 L 30.365 24 L 24 13.039 Z " fill="url(#_lgradient_53)"/></g><path d=" M 21.848 45.896 C 19.608 45.678 17.465 45.123 15.472 44.284 L 32.315 27.441 L 32.409 27.604 L 29.016 33.481 L 21.848 45.896 Z " fill="rgb(0,0,0)" fill-opacity="0.15"/></g><g id="Group"><linearGradient id="_lgradient_54" x1="50%" y1="0%" x2="49.999999999999986%" y2="99.5788320756989%"><stop offset="0%" stop-opacity="1" style="stop-color:rgb(156,204,101)"/><stop offset="100%" stop-opacity="1" style="stop-color:rgb(124,179,66)"/></linearGradient><path d=" M 45.728 27.465 C 44.064 37.963 34.963 46 24 46 C 23.274 46 22.556 45.965 21.848 45.896 L 29.016 33.481 L 39.109 16 L 45.728 27.465 Z " fill="url(#_lgradient_54)"/><linearGradient id="_lgradient_55" x1="50%" y1="1.6653345369377348e-14%" x2="50.000000000000064%" y2="98.59287449815622%"><stop offset="0%" stop-opacity="1" style="stop-color:rgb(255,255,255)"/><stop offset="100%" stop-opacity="1" style="stop-color:rgb(247,247,247)"/></linearGradient><path d=" M 39.109 16 L 32.916 26.911 L 37.034 24.852 L 39.109 30.961 L 41.109 24.921 L 45.474 26.961 L 39.109 16 Z " fill="url(#_lgradient_55)"/></g></g><path d=" M 26 13.5 C 26 10.464 28.464 8 31.5 8 C 34.536 8 37 10.464 37 13.5 C 37 16.536 34.536 19 31.5 19 C 28.464 19 26 16.536 26 13.5 Z " fill="rgb(0,0,0)" fill-opacity="0.15"/><linearGradient id="_lgradient_56" x1="49.04862579281187%" y1="5.285412262156475%" x2="49.048625792811876%" y2="97.37319687926812%"><stop offset="0%" stop-opacity="1" style="stop-color:rgb(255,245,157)"/><stop offset="98.26086956521739%" stop-opacity="1" style="stop-color:rgb(253,216,53)"/></linearGradient><path d=" M 26 12.5 C 26 9.464 28.464 7 31.5 7 C 34.536 7 37 9.464 37 12.5 C 37 15.536 34.536 18 31.5 18 C 28.464 18 26 15.536 26 12.5 Z " fill="url(#_lgradient_56)"/></g></g></svg>