<?xml version="1.0" standalone="no"?><!-- Generator: Gravit.io --><svg xmlns="http://www.w3.org/2000/svg" xmlns:xlink="http://www.w3.org/1999/xlink" style="isolation:isolate" viewBox="0 0 48 48" width="48" height="48"><defs><clipPath id="_clipPath_blKyVJ3hZisMPQjqankPTz1RjqbhbuGd"><rect width="48" height="48"/></clipPath></defs><g clip-path="url(#_clipPath_blKyVJ3hZisMPQjqankPTz1RjqbhbuGd)"><g style="isolation:isolate" id="Design"><defs><filter id="reYZf5DJtfV4qZhP7kjuvteGCb5OtAvb" x="-200%" y="-200%" width="400%" height="400%"><feOffset xmlns="http://www.w3.org/2000/svg" in="SourceAlpha" result="offOut" dx="0" dy="1"/><feGaussianBlur xmlns="http://www.w3.org/2000/svg" in="offOut" result="blurOut" stdDeviation="0.5"/><feComponentTransfer xmlns="http://www.w3.org/2000/svg" in="blurOut" result="opacOut"><feFuncA xmlns="http://www.w3.org/2000/svg" type="table" tableValues="0 0.5"/></feComponentTransfer><feBlend xmlns="http://www.w3.org/2000/svg" in="SourceGraphic" in2="opacOut" mode="normal"/></filter></defs><g filter="url(#reYZf5DJtfV4qZhP7kjuvteGCb5OtAvb)"><linearGradient id="_lgradient_2" x1="50%" y1="-1.339285714285715%" x2="49.999999999999964%" y2="101.33928571428574%"><stop offset="1.3043478260869565%" stop-opacity="1" style="stop-color:rgb(255,255,255)"/><stop offset="18.695652173913043%" stop-opacity="1" style="stop-color:rgb(245,245,245)"/><stop offset="81.30434782608695%" stop-opacity="1" style="stop-color:rgb(238,238,238)"/><stop offset="98.69565217391305%" stop-opacity="1" style="stop-color:rgb(224,224,224)"/></linearGradient><path d=" M 2 24 C 2 11.858 11.858 2 24 2 C 36.142 2 46 11.858 46 24 C 46 36.142 36.142 46 24 46 C 11.858 46 2 36.142 2 24 Z " fill="url(#_lgradient_2)"/></g><linearGradient id="_lgradient_3" x1="50%" y1="-1.3452914798206261%" x2="50.000000000000014%" y2="101.7937219730942%"><stop offset="1.3043478260869565%" stop-opacity="1" style="stop-color:rgb(255,255,255)"/><stop offset="97.82608695652173%" stop-opacity="1" style="stop-color:rgb(224,224,224)"/></linearGradient><path d=" M 2 24 C 2 11.858 11.858 2 24 2 C 36.142 2 46 11.858 46 24 C 46 36.142 36.142 46 24 46 C 11.858 46 2 36.142 2 24 Z  M 4 24 C 4 18.7 6.1 13.6 9.9 9.9 C 13.6 6.1 18.7 4 24 4 C 29.3 4 34.4 6.1 38.1 9.9 C 41.9 13.6 44 18.7 44 24 C 44 29.3 41.9 34.4 38.1 38.1 C 34.4 41.9 29.3 44 24 44 C 18.7 44 13.6 41.9 9.9 38.1 C 6.1 34.4 4 29.3 4 24 Z " fill-rule="evenodd" fill="url(#_lgradient_3)"/><g id="deluge"><path d=" M 24.019 11.671 C 21.138 15.704 11.35 27.077 15.519 33.651 C 18.745 38.737 29.711 38.763 32.899 33.651 C 37.047 27.001 26.471 15.704 24.019 11.671 Z " fill="rgb(0,0,0)" fill-opacity="0.15"/><g id="Group"><path d=" M 38.004 27.879 C 38.004 27.422 37.632 27.05 37.175 27.05 C 36.717 27.05 36.345 27.422 36.345 27.879 C 36.345 28.337 36.717 28.709 37.175 28.709 C 37.632 28.709 38.004 28.337 38.004 27.879 Z  M 34.48 29.63 L 31.943 29.63 C 31.423 29.63 31 29.961 31 30.368 L 31 30.368 C 31 30.775 31.423 31.105 31.943 31.105 L 34.48 31.105 C 35.001 31.105 35.424 30.775 35.424 30.368 L 35.424 30.368 C 35.424 29.961 35.001 29.63 34.48 29.63 Z  M 34.665 27.234 L 32.127 27.234 C 31.607 27.234 31.184 27.565 31.184 27.972 L 31.184 27.972 C 31.184 28.378 31.607 28.709 32.127 28.709 L 34.665 28.709 C 35.185 28.709 35.608 28.378 35.608 27.972 L 35.608 27.972 C 35.608 27.565 35.185 27.234 34.665 27.234 Z " fill-rule="evenodd" fill="rgb(0,0,0)" fill-opacity="0.15"/><path d=" M 38 27.62 C 38 27.162 37.628 26.79 37.171 26.79 C 36.713 26.79 36.341 27.162 36.341 27.62 C 36.341 28.078 36.713 28.449 37.171 28.449 C 37.628 28.449 38 28.078 38 27.62 Z  M 33.208 29.371 L 33.208 29.371 C 31.987 29.371 30.996 29.701 30.996 30.108 L 30.996 30.108 C 30.996 30.515 31.987 30.845 33.208 30.845 L 33.208 30.845 C 34.429 30.845 35.42 30.515 35.42 30.108 L 35.42 30.108 C 35.42 29.701 34.429 29.371 33.208 29.371 Z  M 33.392 26.975 L 33.392 26.975 C 32.171 26.975 31.18 27.305 31.18 27.712 L 31.18 27.712 C 31.18 28.119 32.171 28.449 33.392 28.449 L 33.392 28.449 C 34.613 28.449 35.604 28.119 35.604 27.712 L 35.604 27.712 C 35.604 27.305 34.613 26.975 33.392 26.975 Z " fill="rgb(74,134,232)"/></g><g id="Group"><path d=" M 14.592 16.829 C 14.592 16.372 14.964 16 15.422 16 C 15.879 16 16.251 16.372 16.251 16.829 C 16.251 17.287 15.879 17.659 15.422 17.659 C 14.964 17.659 14.592 17.287 14.592 16.829 Z  M 18.116 18.58 L 20.653 18.58 C 21.173 18.58 21.596 18.911 21.596 19.318 L 21.596 19.318 C 21.596 19.725 21.173 20.055 20.653 20.055 L 18.116 20.055 C 17.595 20.055 17.173 19.725 17.173 19.318 L 17.173 19.318 C 17.173 18.911 17.595 18.58 18.116 18.58 Z  M 17.931 16.184 L 20.469 16.184 C 20.989 16.184 21.412 16.515 21.412 16.922 L 21.412 16.922 C 21.412 17.328 20.989 17.659 20.469 17.659 L 17.931 17.659 C 17.411 17.659 16.988 17.328 16.988 16.922 L 16.988 16.922 C 16.988 16.515 17.411 16.184 17.931 16.184 Z " fill-rule="evenodd" fill="rgb(0,0,0)" fill-opacity="0.15"/><path d=" M 14.592 16.377 C 14.592 15.919 14.964 15.547 15.422 15.547 C 15.879 15.547 16.251 15.919 16.251 16.377 C 16.251 16.834 15.879 17.206 15.422 17.206 C 14.964 17.206 14.592 16.834 14.592 16.377 Z  M 19.384 18.128 L 19.384 18.128 C 20.605 18.128 21.596 18.458 21.596 18.865 L 21.596 18.865 C 21.596 19.272 20.605 19.602 19.384 19.602 L 19.384 19.602 C 18.164 19.602 17.173 19.272 17.173 18.865 L 17.173 18.865 C 17.173 18.458 18.164 18.128 19.384 18.128 Z  M 19.2 15.732 L 19.2 15.732 C 20.421 15.732 21.412 16.062 21.412 16.469 L 21.412 16.469 C 21.412 16.876 20.421 17.206 19.2 17.206 L 19.2 17.206 C 17.979 17.206 16.988 16.876 16.988 16.469 L 16.988 16.469 C 16.988 16.062 17.979 15.732 19.2 15.732 Z " fill="rgb(100,181,246)"/></g><path d=" M 24.019 10.525 C 21.138 14.558 11.35 25.931 15.519 32.504 C 18.745 37.591 29.711 37.617 32.899 32.504 C 37.047 25.854 26.471 14.558 24.019 10.525 Z " fill="rgb(74,134,232)"/><path d=" M 14.531 29.378 C 14.604 30.498 14.915 31.552 15.519 32.504 C 15.759 32.883 16.043 33.234 16.373 33.549 C 17.549 33.993 18.825 34.23 20.156 34.23 C 26.241 34.23 31.18 29.29 31.18 23.206 C 31.18 22.793 31.158 22.387 31.112 21.987 C 29.229 18.697 26.789 15.588 25.21 13.407 C 24.606 13.095 23.97 12.837 23.307 12.64 C 20.536 16.336 14.848 23.521 14.531 29.378 Z " fill="rgb(0,0,0)" fill-opacity="0.15"/><path d=" M 23.307 11.494 C 23.97 11.69 24.606 11.948 25.21 12.26 C 26.789 14.441 29.229 17.551 31.112 20.841 C 31.158 21.24 31.18 21.647 31.18 22.059 C 31.18 28.144 26.241 33.083 20.156 33.083 C 18.367 33.083 16.677 32.656 15.182 31.898 C 12.172 25.745 19.92 16.012 23.307 11.494 Z " fill="rgb(66,165,245)"/><path d=" M 28.881 18.478 C 28.574 24.287 23.76 28.908 17.875 28.908 C 16.74 28.908 15.644 28.736 14.614 28.414 C 15.545 22.165 21.81 14.762 24.019 11.671 C 24.92 13.154 26.92 15.618 28.881 18.478 Z " fill="rgb(0,0,0)" fill-opacity="0.15"/><path d=" M 28.881 17.332 C 28.574 23.14 23.76 27.761 17.875 27.761 C 16.74 27.761 15.644 27.589 14.614 27.268 C 15.545 21.019 21.81 13.616 24.019 10.525 C 24.92 12.008 26.92 14.472 28.881 17.332 Z " fill="rgb(100,181,246)"/></g></g></g></svg>