<?xml version="1.0" standalone="no"?><!-- Generator: Gravit.io --><svg xmlns="http://www.w3.org/2000/svg" xmlns:xlink="http://www.w3.org/1999/xlink" style="isolation:isolate" viewBox="0 0 256 256" width="256" height="256"><defs><clipPath id="_clipPath_KHNv06BzKLPY5MkjoThDsmHd0gcTglFb"><rect width="256" height="256"/></clipPath></defs><g clip-path="url(#_clipPath_KHNv06BzKLPY5MkjoThDsmHd0gcTglFb)"><g style="isolation:isolate" id="Icon"><path d=" M 3.013 129.5 C 3.003 129.999 3 130.499 3 131 C 3 199.989 59.011 256 128 256 C 196.989 256 253 199.989 253 131 C 253 130.499 252.997 129.999 252.987 129.5 C 252.186 197.8 196.488 253 128 253 C 59.512 253 3.814 197.8 3.013 129.5 Z " fill="rgb(0,0,0)" fill-opacity="0.15"/><linearGradient id="_lgradient_16" x1="50.000000000000014%" y1="-1.339285714285715%" x2="49.99999999999997%" y2="101.33928571428574%"><stop offset="1.3043478260869565%" stop-opacity="1" style="stop-color:rgb(255,255,255)"/><stop offset="18.695652173913043%" stop-opacity="1" style="stop-color:rgb(245,245,245)"/><stop offset="81.30434782608695%" stop-opacity="1" style="stop-color:rgb(238,238,238)"/><stop offset="98.69565217391305%" stop-opacity="1" style="stop-color:rgb(224,224,224)"/></linearGradient><path d=" M 3 128 C 3 59.011 59.011 3 128 3 C 196.989 3 253 59.011 253 128 C 253 196.989 196.989 253 128 253 C 59.011 253 3 196.989 3 128 Z " fill="url(#_lgradient_16)"/><linearGradient id="_lgradient_17" x1="50%" y1="-1.3452914798206261%" x2="50.000000000000014%" y2="101.7937219730942%"><stop offset="1.3043478260869565%" stop-opacity="1" style="stop-color:rgb(255,255,255)"/><stop offset="97.82608695652173%" stop-opacity="1" style="stop-color:rgb(224,224,224)"/></linearGradient><path d=" M 3 128 C 3 59.011 59.011 3 128 3 C 196.989 3 253 59.011 253 128 C 253 196.989 196.989 253 128 253 C 59.011 253 3 196.989 3 128 Z  M 8 128 C 8 96.2 20.7 65.6 43.1 43.1 C 65.6 20.7 96.2 8 128 8 C 159.8 8 190.4 20.7 212.9 43.1 C 235.3 65.6 248 96.2 248 128 L 248 128 C 248 159.8 235.3 190.4 212.9 212.9 C 190.4 235.3 159.8 248 128 248 L 128 248 C 96.2 248 65.6 235.3 43.1 212.9 C 20.7 190.4 8 159.8 8 128 Z " fill-rule="evenodd" fill="url(#_lgradient_17)"/><g id="deluge"><g opacity="0.15"><path d=" M 75.588 155.666 C 75.172 163.921 76.707 171.686 81.028 178.501 C 98.531 206.096 158.028 206.236 175.328 178.501 C 179.408 171.948 180.832 164.553 180.393 156.722 C 180.067 162.696 178.527 168.362 175.322 173.501 C 158.022 201.236 98.528 201.097 81.023 173.501 C 77.589 168.082 75.924 162.056 75.585 155.666 L 75.588 155.666 Z " fill="rgb(0,0,0)"/></g><path d=" M 127.144 56.75 C 111.512 78.632 58.407 140.337 81.027 176 C 98.53 203.597 158.025 203.739 175.325 176 C 197.829 139.92 140.449 78.632 127.144 56.75 Z " fill="rgb(74,134,232)"/><path d=" M 123.283 62.009 C 126.878 63.073 130.329 64.473 133.605 66.166 C 142.176 78 155.41 94.87 165.627 112.719 C 165.877 114.888 166 117.095 166 119.33 C 166 152.342 139.199 179.143 106.188 179.143 C 96.48 179.143 87.309 176.825 79.199 172.713 C 62.867 139.327 104.906 86.521 123.283 62.009 Z " fill="rgb(66,165,245)"/><path d=" M 153.527 93.68 C 151.86 125.196 125.741 150.268 93.813 150.268 C 87.652 150.268 81.709 149.335 76.12 147.591 C 81.169 113.686 115.163 73.521 127.144 56.75 C 132.035 64.795 142.884 78.166 153.527 93.68 Z " fill="rgb(100,181,246)"/><path d=" M 203 149.5 C 203 147.016 200.984 145 198.5 145 C 196.016 145 194 147.016 194 149.5 C 194 151.984 196.016 154 198.5 154 C 200.984 154 203 151.984 203 149.5 Z  M 183.883 159 L 170.117 159 C 167.293 159 165 160.792 165 163 L 165 163 C 165 165.208 167.293 167 170.117 167 L 183.883 167 C 186.707 167 189 165.208 189 163 L 189 163 C 189 160.792 186.707 159 183.883 159 Z  M 184.883 146 L 171.117 146 C 168.293 146 166 147.792 166 150 L 166 150 C 166 152.208 168.293 154 171.117 154 L 184.883 154 C 187.707 154 190 152.208 190 150 L 190 150 C 190 147.792 187.707 146 184.883 146 Z " fill="rgb(74,134,232)"/><path d=" M 76 88.5 C 76 86.016 78.016 84 80.5 84 C 82.984 84 85 86.016 85 88.5 C 85 90.984 82.984 93 80.5 93 C 78.016 93 76 90.984 76 88.5 Z  M 95.117 98 L 108.883 98 C 111.707 98 114 99.792 114 102 L 114 102 C 114 104.208 111.707 106 108.883 106 L 95.117 106 C 92.293 106 90 104.208 90 102 L 90 102 C 90 99.792 92.293 98 95.117 98 Z  M 94.117 85 L 107.883 85 C 110.707 85 113 86.792 113 89 L 113 89 C 113 91.208 110.707 93 107.883 93 L 94.117 93 C 91.293 93 89 91.208 89 89 L 89 89 C 89 86.792 91.293 85 94.117 85 Z " fill="rgb(100,181,246)"/></g></g></g></svg>