<?xml version="1.0" standalone="no"?><!-- Generator: Gravit.io --><svg xmlns="http://www.w3.org/2000/svg" xmlns:xlink="http://www.w3.org/1999/xlink" style="isolation:isolate" viewBox="0 0 256 256" width="256" height="256"><defs><clipPath id="_clipPath_9QpJZQMaYRfT7IZfol1mAJYPLTHgxZl2"><rect width="256" height="256"/></clipPath></defs><g clip-path="url(#_clipPath_9QpJZQMaYRfT7IZfol1mAJYPLTHgxZl2)"><g style="isolation:isolate" id="Icon"><path d=" M 3.013 128 C 3.003 128.499 3 128.999 3 129.5 C 3 198.489 59.011 254.5 128 254.5 C 196.989 254.5 253 198.489 253 129.5 C 253 128.999 252.997 128.499 252.987 128 C 252.186 196.3 196.488 251.5 128 251.5 C 59.512 251.5 3.814 196.3 3.013 128 Z " fill="rgb(0,0,0)" fill-opacity="0.15"/><linearGradient id="_lgradient_2" x1="50%" y1="-1.339285714285715%" x2="49.999999999999964%" y2="101.33928571428574%"><stop offset="1.3043478260869565%" stop-opacity="1" style="stop-color:rgb(255,255,255)"/><stop offset="18.695652173913043%" stop-opacity="1" style="stop-color:rgb(245,245,245)"/><stop offset="81.30434782608695%" stop-opacity="1" style="stop-color:rgb(238,238,238)"/><stop offset="98.69565217391305%" stop-opacity="1" style="stop-color:rgb(224,224,224)"/></linearGradient><path d=" M 3 126.5 C 3 57.511 59.011 1.5 128 1.5 C 196.989 1.5 253 57.511 253 126.5 C 253 195.489 196.989 251.5 128 251.5 C 59.011 251.5 3 195.489 3 126.5 Z " fill="url(#_lgradient_2)"/><linearGradient id="_lgradient_3" x1="50%" y1="-1.3452914798206261%" x2="50.000000000000014%" y2="101.7937219730942%"><stop offset="1.3043478260869565%" stop-opacity="1" style="stop-color:rgb(255,255,255)"/><stop offset="97.82608695652173%" stop-opacity="1" style="stop-color:rgb(224,224,224)"/></linearGradient><path d=" M 3 126.5 C 3 57.511 59.011 1.5 128 1.5 C 196.989 1.5 253 57.511 253 126.5 C 253 195.489 196.989 251.5 128 251.5 C 59.011 251.5 3 195.489 3 126.5 Z  M 8 126.5 C 8 94.7 20.7 64.1 43.1 41.6 C 65.6 19.2 96.2 6.5 128 6.5 C 159.8 6.5 190.4 19.2 212.9 41.6 C 235.3 64.1 248 94.7 248 126.5 L 248 126.5 C 248 158.3 235.3 188.9 212.9 211.4 C 190.4 233.8 159.8 246.5 128 246.5 L 128 246.5 C 96.2 246.5 65.6 233.8 43.1 211.4 C 20.7 188.9 8 158.3 8 126.5 Z " fill-rule="evenodd" fill="url(#_lgradient_3)"/><g id="deluge"><g opacity="0.15"><path d=" M 75.588 154.166 C 75.172 162.421 76.707 170.186 81.028 177.001 C 98.531 204.596 158.028 204.736 175.328 177.001 C 179.408 170.448 180.832 163.053 180.393 155.222 C 180.067 161.196 178.527 166.862 175.322 172.001 C 158.022 199.736 98.528 199.597 81.023 172.001 C 77.589 166.582 75.924 160.556 75.585 154.166 L 75.588 154.166 Z " fill="rgb(0,0,0)"/></g><path d=" M 127.144 55.25 C 111.512 77.132 58.407 138.837 81.027 174.5 C 98.53 202.097 158.025 202.239 175.325 174.5 C 197.829 138.42 140.449 77.132 127.144 55.25 Z " fill="rgb(74,134,232)"/><path d=" M 123.283 60.509 C 126.878 61.573 130.329 62.973 133.605 64.666 C 142.176 76.5 155.41 93.37 165.627 111.219 C 165.877 113.388 166 115.595 166 117.83 C 166 150.842 139.199 177.643 106.188 177.643 C 96.48 177.643 87.309 175.325 79.199 171.213 C 62.867 137.827 104.906 85.021 123.283 60.509 Z " fill="rgb(66,165,245)"/><path d=" M 153.527 92.18 C 151.86 123.696 125.741 148.768 93.813 148.768 C 87.652 148.768 81.709 147.835 76.12 146.091 C 81.169 112.186 115.163 72.021 127.144 55.25 C 132.035 63.295 142.884 76.666 153.527 92.18 Z " fill="rgb(100,181,246)"/><path d=" M 203 148 C 203 145.516 200.984 143.5 198.5 143.5 C 196.016 143.5 194 145.516 194 148 C 194 150.484 196.016 152.5 198.5 152.5 C 200.984 152.5 203 150.484 203 148 Z  M 183.883 157.5 L 170.117 157.5 C 167.293 157.5 165 159.292 165 161.5 L 165 161.5 C 165 163.708 167.293 165.5 170.117 165.5 L 183.883 165.5 C 186.707 165.5 189 163.708 189 161.5 L 189 161.5 C 189 159.292 186.707 157.5 183.883 157.5 Z  M 184.883 144.5 L 171.117 144.5 C 168.293 144.5 166 146.292 166 148.5 L 166 148.5 C 166 150.708 168.293 152.5 171.117 152.5 L 184.883 152.5 C 187.707 152.5 190 150.708 190 148.5 L 190 148.5 C 190 146.292 187.707 144.5 184.883 144.5 Z " fill="rgb(74,134,232)"/><path d=" M 76 87 C 76 84.516 78.016 82.5 80.5 82.5 C 82.984 82.5 85 84.516 85 87 C 85 89.484 82.984 91.5 80.5 91.5 C 78.016 91.5 76 89.484 76 87 Z  M 95.117 96.5 L 108.883 96.5 C 111.707 96.5 114 98.292 114 100.5 L 114 100.5 C 114 102.708 111.707 104.5 108.883 104.5 L 95.117 104.5 C 92.293 104.5 90 102.708 90 100.5 L 90 100.5 C 90 98.292 92.293 96.5 95.117 96.5 Z  M 94.117 83.5 L 107.883 83.5 C 110.707 83.5 113 85.292 113 87.5 L 113 87.5 C 113 89.708 110.707 91.5 107.883 91.5 L 94.117 91.5 C 91.293 91.5 89 89.708 89 87.5 L 89 87.5 C 89 85.292 91.293 83.5 94.117 83.5 Z " fill="rgb(100,181,246)"/></g></g></g></svg>