<?xml version="1.0" standalone="no"?><!-- Generator: Gravit.io --><svg xmlns="http://www.w3.org/2000/svg" xmlns:xlink="http://www.w3.org/1999/xlink" style="isolation:isolate" viewBox="0 0 256 256" width="256" height="256"><defs><clipPath id="_clipPath_Mzyx8foidCZKsp3RpCftrzrVHoxLIzfN"><rect width="256" height="256"/></clipPath></defs><g clip-path="url(#_clipPath_Mzyx8foidCZKsp3RpCftrzrVHoxLIzfN)"><g style="isolation:isolate" id="Icon"><path d=" M 3.013 128 C 3.003 128.499 3 128.999 3 129.5 C 3 198.489 59.011 254.5 128 254.5 C 196.989 254.5 253 198.489 253 129.5 C 253 128.999 252.997 128.499 252.987 128 C 252.186 196.3 196.488 251.5 128 251.5 C 59.512 251.5 3.814 196.3 3.013 128 Z " fill="rgb(0,0,0)" fill-opacity="0.15"/><linearGradient id="_lgradient_40" x1="50.00000000000002%" y1="-1.79372197309417%" x2="50.000000000000036%" y2="101.34529147982066%"><stop offset="1.7391304347826086%" stop-opacity="1" style="stop-color:rgb(229,115,115)"/><stop offset="19.60830319353597%" stop-opacity="1" style="stop-color:rgb(239,83,80)"/><stop offset="81.63851173528279%" stop-opacity="1" style="stop-color:rgb(233,30,99)"/><stop offset="98.69565217391305%" stop-opacity="1" style="stop-color:rgb(216,27,96)"/></linearGradient><path d=" M 3 126.5 C 3 57.511 59.011 1.5 128 1.5 C 196.989 1.5 253 57.511 253 126.5 C 253 195.489 196.989 251.5 128 251.5 C 59.011 251.5 3 195.489 3 126.5 Z " fill="url(#_lgradient_40)"/><g id="Group"><path d=" M 82.124 163.576 L 60.5 177.052 C 65.904 171.663 71.006 166.55 75.805 161.711 L 75.711 161.68 L 76.408 160.985 C 74.836 160.085 73.336 159.121 71.908 158.093 C 37.683 133.446 111.838 67.09 146.063 87.945 C 148.599 90.336 149.866 93.428 149.866 97.22 C 149.866 101.011 149.866 102.907 146.063 106.904 C 114.373 137.238 97.894 153.037 96.627 154.301 C 95.359 155.565 93.458 156.829 90.923 158.093 L 88.828 159.398 L 88.592 158.928 C 96.828 169.323 113.21 170.27 137.739 161.768 C 148.306 158.105 167.56 148.664 195.5 133.446 L 195.5 158.093 C 143.518 172.429 105.528 174.257 81.531 163.576 L 82.124 163.576 Z  M 84.14 153.276 C 114.495 122.426 130.699 104.441 132.754 99.32 C 136.556 89.841 73.81 99.32 83.317 146.717 C 83.732 148.785 84.279 150.699 84.96 152.458 L 84.14 153.276 Z " fill-rule="evenodd" fill="rgb(0,0,0)" fill-opacity="0.15"/><path d=" M 82.124 158.576 L 60.5 172.052 C 65.904 166.663 71.006 161.55 75.805 156.711 L 75.711 156.68 L 76.408 155.985 C 74.836 155.085 73.336 154.121 71.908 153.093 C 37.683 128.446 111.838 62.09 146.063 82.945 C 148.599 85.336 149.866 88.428 149.866 92.22 C 149.866 96.011 149.866 97.907 146.063 101.904 C 114.373 132.238 97.894 148.037 96.627 149.301 C 95.359 150.565 93.458 151.829 90.923 153.093 L 88.828 154.398 L 88.592 153.928 C 96.828 164.323 113.21 165.27 137.739 156.768 C 148.306 153.105 167.56 143.664 195.5 128.446 L 195.5 153.093 C 143.518 167.429 105.528 169.257 81.531 158.576 L 82.124 158.576 Z  M 84.14 148.276 C 114.495 117.426 130.699 99.441 132.754 94.32 C 136.556 84.841 73.81 94.32 83.317 141.717 C 83.732 143.785 84.279 145.699 84.96 147.458 L 84.14 148.276 Z " fill-rule="evenodd" fill="rgb(255,255,255)"/><path d=" M 82.124 160.576 L 60.5 174.052 C 65.904 168.663 71.006 163.55 75.805 158.711 L 75.711 158.68 L 76.408 157.985 C 74.836 157.085 73.336 156.121 71.908 155.093 C 37.683 130.446 111.838 64.09 146.063 84.945 C 148.599 87.336 149.866 90.428 149.866 94.22 C 149.866 98.011 149.866 99.907 146.063 103.904 C 114.373 134.238 97.894 150.037 96.627 151.301 C 95.359 152.565 93.458 153.829 90.923 155.093 L 88.828 156.398 L 88.592 155.928 C 96.828 166.323 113.21 167.27 137.739 158.768 C 148.306 155.105 167.56 145.664 195.5 130.446 L 195.5 155.093 C 143.518 169.429 105.528 171.257 81.531 160.576 L 82.124 160.576 Z  M 84.14 150.276 C 114.495 119.426 130.699 101.441 132.754 96.32 C 136.556 86.841 73.81 96.32 83.317 143.717 C 83.732 145.785 84.279 147.699 84.96 149.458 L 84.14 150.276 Z " fill-rule="evenodd" fill="rgb(247,247,247)"/></g></g></g></svg>