<?xml version="1.0" standalone="no"?><!-- Generator: Gravit.io --><svg xmlns="http://www.w3.org/2000/svg" xmlns:xlink="http://www.w3.org/1999/xlink" style="isolation:isolate" viewBox="0 0 48 48" width="48" height="48"><defs><clipPath id="_clipPath_ZahFJ8pKrTzPS1mdmsm8Ohz0A58B9ra4"><rect width="48" height="48"/></clipPath></defs><g clip-path="url(#_clipPath_ZahFJ8pKrTzPS1mdmsm8Ohz0A58B9ra4)"><g style="isolation:isolate" id="Design"><defs><filter id="ssoiiz5iuVhPbtXd63992zvXGL18PkSb" x="-200%" y="-200%" width="400%" height="400%"><feOffset xmlns="http://www.w3.org/2000/svg" in="SourceAlpha" result="offOut" dx="0" dy="1"/><feGaussianBlur xmlns="http://www.w3.org/2000/svg" in="offOut" result="blurOut" stdDeviation="0.5"/><feComponentTransfer xmlns="http://www.w3.org/2000/svg" in="blurOut" result="opacOut"><feFuncA xmlns="http://www.w3.org/2000/svg" type="table" tableValues="0 0.5"/></feComponentTransfer><feBlend xmlns="http://www.w3.org/2000/svg" in="SourceGraphic" in2="opacOut" mode="normal"/></filter></defs><g filter="url(#ssoiiz5iuVhPbtXd63992zvXGL18PkSb)"><path d=" M 2 24 C 2 11.858 11.858 2 24 2 C 36.142 2 46 11.858 46 24 C 46 36.142 36.142 46 24 46 C 11.858 46 2 36.142 2 24 Z " fill="rgb(239,83,80)"/></g><g id="Group"><path d=" M 14.485 31.379 L 10 34.174 C 11.121 33.056 12.179 31.996 13.174 30.992 L 13.155 30.985 L 13.3 30.841 C 12.973 30.655 12.662 30.455 12.366 30.241 C 5.268 25.13 20.648 11.367 27.746 15.692 C 28.272 16.188 28.535 16.829 28.535 17.616 C 28.535 18.402 28.535 18.796 27.746 19.624 C 21.174 25.916 17.756 29.193 17.493 29.455 C 17.23 29.717 16.836 29.979 16.31 30.241 L 15.875 30.512 L 15.826 30.415 C 17.535 32.571 20.932 32.767 26.02 31.004 C 28.212 30.244 32.205 28.286 38 25.13 L 38 30.241 C 27.219 33.215 19.339 33.594 14.362 31.379 L 14.485 31.379 Z  M 14.903 29.242 C 21.199 22.844 24.56 19.114 24.986 18.052 C 25.775 16.085 12.761 18.052 14.732 27.882 C 14.818 28.311 14.932 28.708 15.073 29.073 L 14.903 29.242 Z " fill-rule="evenodd" fill="rgb(0,0,0)" fill-opacity="0.15"/><path d=" M 14.485 30.342 L 10 33.137 C 11.121 32.019 12.179 30.959 13.174 29.955 L 13.155 29.948 L 13.3 29.804 C 12.973 29.618 12.662 29.418 12.366 29.204 C 5.268 24.093 20.648 10.33 27.746 14.655 C 28.272 15.151 28.535 15.792 28.535 16.579 C 28.535 17.365 28.535 17.759 27.746 18.587 C 21.174 24.879 17.756 28.156 17.493 28.418 C 17.23 28.68 16.836 28.942 16.31 29.204 L 15.875 29.475 L 15.826 29.378 C 17.535 31.534 20.932 31.73 26.02 29.967 C 28.212 29.207 32.205 27.249 38 24.093 L 38 29.204 C 27.219 32.178 19.339 32.557 14.362 30.342 L 14.485 30.342 Z  M 14.903 28.205 C 21.199 21.807 24.56 18.077 24.986 17.015 C 25.775 15.048 12.761 17.015 14.732 26.845 C 14.818 27.274 14.932 27.671 15.073 28.036 L 14.903 28.205 Z " fill-rule="evenodd" fill="rgb(255,255,255)"/><path d=" M 14.485 30.756 L 10 33.551 C 11.121 32.434 12.179 31.373 13.174 30.37 L 13.155 30.363 L 13.3 30.219 C 12.973 30.032 12.662 29.833 12.366 29.619 C 5.268 24.507 20.648 10.745 27.746 15.07 C 28.272 15.566 28.535 16.207 28.535 16.994 C 28.535 17.78 28.535 18.173 27.746 19.002 C 21.174 25.294 17.756 28.571 17.493 28.833 C 17.23 29.095 16.836 29.357 16.31 29.619 L 15.875 29.89 L 15.826 29.792 C 17.535 31.949 20.932 32.145 26.02 30.382 C 28.212 29.622 32.205 27.664 38 24.507 L 38 29.619 C 27.219 32.593 19.339 32.972 14.362 30.756 L 14.485 30.756 Z  M 14.903 28.62 C 21.199 22.222 24.56 18.491 24.986 17.429 C 25.775 15.463 12.761 17.429 14.732 27.26 C 14.818 27.689 14.932 28.086 15.073 28.451 L 14.903 28.62 Z " fill-rule="evenodd" fill="rgb(247,247,247)"/></g></g></g></svg>