<?xml version="1.0" standalone="no"?><!-- Generator: Gravit.io --><svg xmlns="http://www.w3.org/2000/svg" xmlns:xlink="http://www.w3.org/1999/xlink" style="isolation:isolate" viewBox="0 0 48 48" width="48" height="48"><defs><clipPath id="_clipPath_cncCAt8VdwqGL9XzUhAP6IjZqnu6FYFA"><rect width="48" height="48"/></clipPath></defs><g clip-path="url(#_clipPath_cncCAt8VdwqGL9XzUhAP6IjZqnu6FYFA)"><g style="isolation:isolate" id="Design"><path d="M 18 3 L 30 3 C 38.831 3 46 10.169 46 19 L 46 31 C 46 39.831 38.831 47 30 47 L 18 47 C 9.169 47 2 39.831 2 31 L 2 19 C 2 10.169 9.169 3 18 3 Z" style="stroke:none;fill:#000000;stroke-miterlimit:10;opacity:0.15;"/><defs><linearGradient id="_lgradient_51" x1="0.4990345937248592" y1="0.15148833467417547" x2="0.5000170868367281" y2="1.0112744048438047"><stop offset="0%" style="stop-color:#E57373"/><stop offset="98.26086956521739%" style="stop-color:#E53935"/></linearGradient></defs><path d="M 18 2 L 30 2 C 38.831 2 46 9.169 46 18 L 46 30 C 46 38.831 38.831 46 30 46 L 18 46 C 9.169 46 2 38.831 2 30 L 2 18 C 2 9.169 9.169 2 18 2 Z" style="stroke:none;fill:url(#_lgradient_51);stroke-miterlimit:10;"/><g id="Group"><path d=" M 14.485 31.879 L 10 34.674 C 11.121 33.556 12.179 32.496 13.174 31.492 L 13.155 31.485 L 13.3 31.341 C 12.973 31.155 12.662 30.955 12.366 30.741 C 5.268 25.63 20.648 11.867 27.746 16.192 C 28.272 16.688 28.535 17.329 28.535 18.116 C 28.535 18.902 28.535 19.296 27.746 20.124 C 21.174 26.416 17.756 29.693 17.493 29.955 C 17.23 30.217 16.836 30.479 16.31 30.741 L 15.875 31.012 L 15.826 30.915 C 17.535 33.071 20.932 33.267 26.02 31.504 C 28.212 30.744 32.205 28.786 38 25.63 L 38 30.741 C 27.219 33.715 19.339 34.094 14.362 31.879 L 14.485 31.879 Z  M 14.903 29.742 C 21.199 23.344 24.56 19.614 24.986 18.552 C 25.775 16.585 12.761 18.552 14.732 28.382 C 14.818 28.811 14.932 29.208 15.073 29.573 L 14.903 29.742 Z " fill-rule="evenodd" fill="rgb(0,0,0)" fill-opacity="0.15"/><path d=" M 14.485 30.842 L 10 33.637 C 11.121 32.519 12.179 31.459 13.174 30.455 L 13.155 30.448 L 13.3 30.304 C 12.973 30.118 12.662 29.918 12.366 29.704 C 5.268 24.593 20.648 10.83 27.746 15.155 C 28.272 15.651 28.535 16.292 28.535 17.079 C 28.535 17.865 28.535 18.259 27.746 19.087 C 21.174 25.379 17.756 28.656 17.493 28.918 C 17.23 29.18 16.836 29.442 16.31 29.704 L 15.875 29.975 L 15.826 29.878 C 17.535 32.034 20.932 32.23 26.02 30.467 C 28.212 29.707 32.205 27.749 38 24.593 L 38 29.704 C 27.219 32.678 19.339 33.057 14.362 30.842 L 14.485 30.842 Z  M 14.903 28.705 C 21.199 22.307 24.56 18.577 24.986 17.515 C 25.775 15.548 12.761 17.515 14.732 27.345 C 14.818 27.774 14.932 28.171 15.073 28.536 L 14.903 28.705 Z " fill-rule="evenodd" fill="rgb(255,255,255)"/><path d=" M 14.485 31.256 L 10 34.051 C 11.121 32.934 12.179 31.873 13.174 30.87 L 13.155 30.863 L 13.3 30.719 C 12.973 30.532 12.662 30.333 12.366 30.119 C 5.268 25.007 20.648 11.245 27.746 15.57 C 28.272 16.066 28.535 16.707 28.535 17.494 C 28.535 18.28 28.535 18.673 27.746 19.502 C 21.174 25.794 17.756 29.071 17.493 29.333 C 17.23 29.595 16.836 29.857 16.31 30.119 L 15.875 30.39 L 15.826 30.292 C 17.535 32.449 20.932 32.645 26.02 30.882 C 28.212 30.122 32.205 28.164 38 25.007 L 38 30.119 C 27.219 33.093 19.339 33.472 14.362 31.256 L 14.485 31.256 Z  M 14.903 29.12 C 21.199 22.722 24.56 18.991 24.986 17.929 C 25.775 15.963 12.761 17.929 14.732 27.76 C 14.818 28.189 14.932 28.586 15.073 28.951 L 14.903 29.12 Z " fill-rule="evenodd" fill="rgb(247,247,247)"/></g></g></g></svg>