<?xml version="1.0" standalone="no"?><!-- Generator: Gravit.io --><svg xmlns="http://www.w3.org/2000/svg" xmlns:xlink="http://www.w3.org/1999/xlink" style="isolation:isolate" viewBox="0 0 256 256" width="256" height="256"><defs><clipPath id="_clipPath_jbW2Bv1Y1eu4969I2195XfnnzajmVHQS"><rect width="256" height="256"/></clipPath></defs><g clip-path="url(#_clipPath_jbW2Bv1Y1eu4969I2195XfnnzajmVHQS)"><g style="isolation:isolate" id="Icon"><path d=" M 3.013 129.5 C 3.003 129.999 3 130.499 3 131 C 3 199.989 59.011 256 128 256 C 196.989 256 253 199.989 253 131 C 253 130.499 252.997 129.999 252.987 129.5 C 252.186 197.8 196.488 253 128 253 C 59.512 253 3.814 197.8 3.013 129.5 Z " fill="rgb(0,0,0)" fill-opacity="0.15"/><linearGradient id="_lgradient_1" x1="50%" y1="-1.769911504424776%" x2="50.000000000000014%" y2="100.00000000000004%"><stop offset="1.7391304347826086%" stop-opacity="1" style="stop-color:rgb(255,241,118)"/><stop offset="23.47826086956522%" stop-opacity="1" style="stop-color:rgb(255,238,88)"/><stop offset="72.60869565217392%" stop-opacity="1" style="stop-color:rgb(255,235,59)"/><stop offset="100%" stop-opacity="1" style="stop-color:rgb(253,216,53)"/></linearGradient><path d=" M 3 128 C 3 59.011 59.011 3 128 3 C 196.989 3 253 59.011 253 128 C 253 196.989 196.989 253 128 253 C 59.011 253 3 196.989 3 128 Z " fill="url(#_lgradient_1)"/><g id="Group items"><g id="Group"><rect x="73" y="71.2" width="110" height="11" transform="matrix(1,0,0,1,0,0)" fill="rgb(255,255,255)"/><rect x="73" y="77.8" width="110" height="11" transform="matrix(1,0,0,1,0,0)" fill="rgb(0,0,0)" fill-opacity="0.15"/><rect x="73" y="74.5" width="110" height="11" transform="matrix(1,0,0,1,0,0)" fill="rgb(247,247,247)"/></g><g id="Group"><rect x="73" y="104.2" width="110" height="11" transform="matrix(1,0,0,1,0,0)" fill="rgb(255,255,255)"/><rect x="73" y="110.8" width="110" height="11" transform="matrix(1,0,0,1,0,0)" fill="rgb(0,0,0)" fill-opacity="0.15"/><rect x="73" y="107.5" width="110" height="11" transform="matrix(1,0,0,1,0,0)" fill="rgb(247,247,247)"/></g><g id="Group"><rect x="73" y="137.2" width="110" height="11" transform="matrix(1,0,0,1,0,0)" fill="rgb(255,255,255)"/><rect x="73" y="143.8" width="110" height="11" transform="matrix(1,0,0,1,0,0)" fill="rgb(0,0,0)" fill-opacity="0.15"/><rect x="73" y="140.5" width="110" height="11" transform="matrix(1,0,0,1,0,0)" fill="rgb(247,247,247)"/></g><g id="Group"><rect x="73" y="170.2" width="71.5" height="11" transform="matrix(1,0,0,1,0,0)" fill="rgb(255,255,255)"/><rect x="73" y="176.8" width="71.5" height="11" transform="matrix(1,0,0,1,0,0)" fill="rgb(0,0,0)" fill-opacity="0.15"/><rect x="73" y="173.5" width="71.5" height="11" transform="matrix(1,0,0,1,0,0)" fill="rgb(247,247,247)"/></g></g></g></g></svg>