<?xml version="1.0" standalone="no"?><!-- Generator: Gravit.io --><svg xmlns="http://www.w3.org/2000/svg" xmlns:xlink="http://www.w3.org/1999/xlink" style="isolation:isolate" viewBox="0 0 256 256" width="256" height="256"><defs><clipPath id="_clipPath_KQLDw7jXysm9NycbBmQtPVUULl2BH4ex"><rect width="256" height="256"/></clipPath></defs><g clip-path="url(#_clipPath_KQLDw7jXysm9NycbBmQtPVUULl2BH4ex)"><g style="isolation:isolate" id="Icon"><path d=" M 3.013 128 C 3.003 128.499 3 128.999 3 129.5 C 3 198.489 59.011 254.5 128 254.5 C 196.989 254.5 253 198.489 253 129.5 C 253 128.999 252.997 128.499 252.987 128 C 252.186 196.3 196.488 251.5 128 251.5 C 59.512 251.5 3.814 196.3 3.013 128 Z " fill="rgb(0,0,0)" fill-opacity="0.15"/><linearGradient id="_lgradient_5" x1="50%" y1="-1.769911504424776%" x2="50.000000000000014%" y2="100.00000000000004%"><stop offset="1.7391304347826086%" stop-opacity="1" style="stop-color:rgb(255,241,118)"/><stop offset="23.47826086956522%" stop-opacity="1" style="stop-color:rgb(255,238,88)"/><stop offset="72.60869565217392%" stop-opacity="1" style="stop-color:rgb(255,235,59)"/><stop offset="100%" stop-opacity="1" style="stop-color:rgb(253,216,53)"/></linearGradient><path d=" M 3 126.5 C 3 57.511 59.011 1.5 128 1.5 C 196.989 1.5 253 57.511 253 126.5 C 253 195.489 196.989 251.5 128 251.5 C 59.011 251.5 3 195.489 3 126.5 Z " fill="url(#_lgradient_5)"/><g id="Group items"><g id="Group"><rect x="73" y="69.7" width="110" height="11" transform="matrix(1,0,0,1,0,0)" fill="rgb(255,255,255)"/><rect x="73" y="76.3" width="110" height="11" transform="matrix(1,0,0,1,0,0)" fill="rgb(0,0,0)" fill-opacity="0.15"/><rect x="73" y="73" width="110" height="11" transform="matrix(1,0,0,1,0,0)" fill="rgb(247,247,247)"/></g><g id="Group"><rect x="73" y="102.7" width="110" height="11" transform="matrix(1,0,0,1,0,0)" fill="rgb(255,255,255)"/><rect x="73" y="109.3" width="110" height="11" transform="matrix(1,0,0,1,0,0)" fill="rgb(0,0,0)" fill-opacity="0.15"/><rect x="73" y="106" width="110" height="11" transform="matrix(1,0,0,1,0,0)" fill="rgb(247,247,247)"/></g><g id="Group"><rect x="73" y="135.7" width="110" height="11" transform="matrix(1,0,0,1,0,0)" fill="rgb(255,255,255)"/><rect x="73" y="142.3" width="110" height="11" transform="matrix(1,0,0,1,0,0)" fill="rgb(0,0,0)" fill-opacity="0.15"/><rect x="73" y="139" width="110" height="11" transform="matrix(1,0,0,1,0,0)" fill="rgb(247,247,247)"/></g><g id="Group"><rect x="73" y="168.7" width="71.5" height="11" transform="matrix(1,0,0,1,0,0)" fill="rgb(255,255,255)"/><rect x="73" y="175.3" width="71.5" height="11" transform="matrix(1,0,0,1,0,0)" fill="rgb(0,0,0)" fill-opacity="0.15"/><rect x="73" y="172" width="71.5" height="11" transform="matrix(1,0,0,1,0,0)" fill="rgb(247,247,247)"/></g></g></g></g></svg>