<?xml version="1.0" standalone="no"?><!-- Generator: Gravit.io --><svg xmlns="http://www.w3.org/2000/svg" xmlns:xlink="http://www.w3.org/1999/xlink" style="isolation:isolate" viewBox="0 0 48 48" width="48" height="48"><defs><clipPath id="_clipPath_fXzJAPvT0mkXGjCeZ8nB9gDwOhuvjVcW"><rect width="48" height="48"/></clipPath></defs><g clip-path="url(#_clipPath_fXzJAPvT0mkXGjCeZ8nB9gDwOhuvjVcW)"><g style="isolation:isolate" id="Design"><path d="M 18 2 L 30 2 C 38.831 2 46 9.169 46 18 L 46 30 C 46 38.831 38.831 46 30 46 L 18 46 C 9.169 46 2 38.831 2 30 L 2 18 C 2 9.169 9.169 2 18 2 Z" style="stroke:none;fill:#EBEBEB;stroke-miterlimit:10;"/><linearGradient id="_lgradient_38" x1="0%" y1="50%" x2="100%" y2="50%"><stop offset="0%" stop-opacity="1" style="stop-color:rgb(244,67,54)"/><stop offset="100%" stop-opacity="1" style="stop-color:rgb(229,57,53)"/></linearGradient><path d=" M 45.372 13.551 C 43.443 6.882 37.287 2 30 2 L 18 2 C 11.731 2 6.299 5.613 3.676 10.869 L 14.738 29.772 L 45.372 13.551 Z " fill="url(#_lgradient_38)"/><linearGradient id="_lgradient_39" x1="0%" y1="50%" x2="100%" y2="50%"><stop offset="0%" stop-opacity="1" style="stop-color:rgb(255,235,59)"/><stop offset="100%" stop-opacity="1" style="stop-color:rgb(253,216,53)"/></linearGradient><path d=" M 45.181 12.936 C 45.712 14.527 46 16.23 46 18 L 46 30 C 46 38.831 38.831 46 30 46 L 22.509 46 L 23.902 12.891 L 45.181 12.936 Z " fill="url(#_lgradient_39)"/><linearGradient id="_lgradient_40" x1="0%" y1="50%" x2="100%" y2="50%"><stop offset="0%" stop-opacity="1" style="stop-color:rgb(76,175,80)"/><stop offset="100%" stop-opacity="1" style="stop-color:rgb(67,160,71)"/></linearGradient><path d=" M 24.113 46 L 18 46 C 9.169 46 2 38.831 2 30 L 2 18 C 2 15.438 2.603 13.016 3.676 10.869 L 14.738 29.772 L 34.076 29.026 L 24.113 46 Z " fill="url(#_lgradient_40)"/><g id="Group"><path d=" M 24 36.607 C 17.6 36.607 12.393 31.399 12.393 24.999 C 12.393 18.599 17.6 13.393 24 13.393 C 30.399 13.393 35.607 18.599 35.607 24.999 C 35.607 31.399 30.399 36.607 24 36.607 L 24 36.607 Z " fill-rule="evenodd" fill="rgb(0,0,0)" fill-opacity="0.15"/><path d=" M 24 34.607 C 17.6 34.607 12.393 29.399 12.393 22.999 C 12.393 16.599 17.6 11.393 24 11.393 C 30.399 11.393 35.607 16.599 35.607 22.999 C 35.607 29.399 30.399 34.607 24 34.607 L 24 34.607 Z " fill-rule="evenodd" fill="rgb(255,255,255)"/><path d=" M 24 35.607 C 17.6 35.607 12.393 30.399 12.393 23.999 C 12.393 17.599 17.6 12.393 24 12.393 C 30.399 12.393 35.607 17.599 35.607 23.999 C 35.607 30.399 30.399 35.607 24 35.607 L 24 35.607 Z " fill-rule="evenodd" fill="rgb(247,247,247)"/><path d=" M 15.964 24 C 15.964 19.565 19.565 15.964 24 15.964 C 28.435 15.964 32.036 19.565 32.036 24 C 32.036 28.435 28.435 32.036 24 32.036 C 19.565 32.036 15.964 28.435 15.964 24 Z " fill="rgb(79,195,247)"/><path d=" M 15.3 24 C 15.3 21.7 16.2 19.5 17.8 17.8 C 19.5 16.2 21.7 15.3 24 15.3 C 26.3 15.3 28.5 16.2 30.2 17.8 C 31.8 19.5 32.7 21.7 32.7 24 C 32.7 26.3 31.8 28.5 30.2 30.2 C 28.5 31.8 26.3 32.7 24 32.7 C 21.7 32.7 19.5 31.8 17.8 30.2 C 16.2 28.5 15.3 26.3 15.3 24 Z  M 16.7 24 C 16.7 22.1 17.4 20.2 18.8 18.8 C 20.2 17.4 22.1 16.7 24 16.7 C 25.9 16.7 27.8 17.4 29.2 18.8 C 30.6 20.2 31.3 22.1 31.3 24 C 31.3 25.9 30.6 27.8 29.2 29.2 C 27.8 30.6 25.9 31.3 24 31.3 C 22.1 31.3 20.2 30.6 18.8 29.2 C 17.4 27.8 16.7 25.9 16.7 24 Z " fill-rule="evenodd" fill="rgb(41,182,246)"/></g></g></g></svg>