<?xml version="1.0" standalone="no"?><!-- Generator: Gravit.io --><svg xmlns="http://www.w3.org/2000/svg" xmlns:xlink="http://www.w3.org/1999/xlink" style="isolation:isolate" viewBox="0 0 256 256" width="256" height="256"><defs><clipPath id="_clipPath_X59UMzuDNK2bqIpL0skIjlETTELcxN7Y"><rect width="256" height="256"/></clipPath></defs><g clip-path="url(#_clipPath_X59UMzuDNK2bqIpL0skIjlETTELcxN7Y)"><g style="isolation:isolate" id="Icon"><path d=" M 3.013 128 C 3.003 128.499 3 128.999 3 129.5 C 3 198.489 59.011 254.5 128 254.5 C 196.989 254.5 253 198.489 253 129.5 C 253 128.999 252.997 128.499 252.987 128 C 252.186 196.3 196.488 251.5 128 251.5 C 59.512 251.5 3.814 196.3 3.013 128 Z " fill="rgb(0,0,0)" fill-opacity="0.15"/><g id="google-chrome"><path d=" M 240.648 72.692 C 220.195 31.405 177.575 3 128.3 3 C 85.15 3 46.679 25.405 24.143 58.525 L 81.692 156.86 L 240.648 72.692 L 240.648 72.692 Z " fill-rule="evenodd" fill="rgb(239,83,80)"/><path d=" M 119.925 252.707 C 165.973 255.892 211.099 232.969 235.945 190.51 C 257.696 153.336 257.952 108.806 240.642 72.692 L 127.508 72.454 L 119.925 252.707 L 119.925 252.707 Z " fill-rule="evenodd" fill="rgb(255,213,79)"/><path d=" M 81.692 156.86 L 24.143 58.525 C 10.792 78.394 3 102.294 3 128.008 C 3 194.242 54.638 248.416 119.931 252.707 L 178.379 153.128 L 81.692 156.86 L 81.692 156.86 Z " fill-rule="evenodd" fill="rgb(102,187,106)"/><g id="Group"><path d=" M 128.086 189.771 C 96.084 189.771 70.049 163.73 70.049 131.729 C 70.049 99.727 96.084 73.698 128.086 73.698 C 160.082 73.698 186.123 99.727 186.123 131.729 C 186.123 163.73 160.082 189.771 128.086 189.771 L 128.086 189.771 Z " fill-rule="evenodd" fill="rgb(0,0,0)" fill-opacity="0.3"/><path d=" M 128.086 181.771 C 96.084 181.771 70.049 155.73 70.049 123.729 C 70.049 91.727 96.084 65.698 128.086 65.698 C 160.082 65.698 186.123 91.727 186.123 123.729 C 186.123 155.73 160.082 181.771 128.086 181.771 L 128.086 181.771 Z " fill-rule="evenodd" fill="rgb(255,255,255)"/><path d=" M 128.086 185.771 C 96.084 185.771 70.049 159.73 70.049 127.729 C 70.049 95.727 96.084 69.698 128.086 69.698 C 160.082 69.698 186.123 95.727 186.123 127.729 C 186.123 159.73 160.082 185.771 128.086 185.771 L 128.086 185.771 Z " fill-rule="evenodd" fill="rgb(247,247,247)"/></g><path d=" M 87.906 127.735 C 87.906 105.559 105.91 87.555 128.086 87.555 C 150.261 87.555 168.265 105.559 168.265 127.735 C 168.265 149.91 150.261 167.914 128.086 167.914 C 105.91 167.914 87.906 149.91 87.906 127.735 Z " fill="rgb(129,212,250)" vector-effect="non-scaling-stroke" stroke-width="7" stroke="rgb(79,195,247)" stroke-linejoin="miter" stroke-linecap="square" stroke-miterlimit="3"/></g></g></g></svg>