<?xml version="1.0" standalone="no"?><!-- Generator: Gravit.io --><svg xmlns="http://www.w3.org/2000/svg" xmlns:xlink="http://www.w3.org/1999/xlink" style="isolation:isolate" viewBox="0 0 256 256" width="256" height="256"><defs><clipPath id="_clipPath_UaQVwguc6NNMDfHUPG6qGrLg4qrwmo16"><rect width="256" height="256"/></clipPath></defs><g clip-path="url(#_clipPath_UaQVwguc6NNMDfHUPG6qGrLg4qrwmo16)"><g style="isolation:isolate" id="Icon"><path d=" M 3.013 128 C 3.003 128.499 3 128.999 3 129.5 C 3 198.489 59.011 254.5 128 254.5 C 196.989 254.5 253 198.489 253 129.5 C 253 128.999 252.997 128.499 252.987 128 C 252.186 196.3 196.488 251.5 128 251.5 C 59.512 251.5 3.814 196.3 3.013 128 Z " fill="rgb(0,0,0)" fill-opacity="0.15"/><path d=" M 3 126.5 C 3 57.511 59.011 1.5 128 1.5 C 196.989 1.5 253 57.511 253 126.5 C 253 195.489 196.989 251.5 128 251.5 C 59.011 251.5 3 195.489 3 126.5 Z " fill="rgb(144,202,249)"/><g id="Group 2"><path d=" M 129.198 251.49 C 128.8 251.498 128.4 251.5 128 251.5 C 72.196 251.5 24.883 214.853 8.837 164.332 L 25.649 135.214 L 30.466 126.87 L 48 96.5 L 103.097 191.93 L 134.642 246.568 C 132.879 248.264 131.066 249.909 129.198 251.49 Z " fill="rgb(156,204,101)"/><path d=" M 23.199 139.457 L 25.649 135.214 L 30.466 126.87 L 48 96.5 L 70.401 135.3 L 57 130.152 L 48 163.5 L 41 130.152 L 23 139.833 L 23.199 139.457 Z " fill="rgb(255,255,255)"/><path d=" M 90.32 245.711 C 65.197 237.767 43.495 222.095 28.011 201.489 L 80.189 149.311 L 72.903 161.93 L 41.358 216.568 C 55.059 229.75 71.755 239.841 90.32 245.711 L 90.32 245.711 Z " fill="rgb(139,195,74)"/></g><g id="Group 1"><path d=" M 214.642 216.568 C 192.165 238.195 161.624 251.5 128 251.5 C 94.376 251.5 63.835 238.195 41.358 216.568 L 72.903 161.93 L 105.649 105.214 L 128 66.5 L 183.097 161.93 L 214.642 216.568 Z " fill="rgb(156,204,101)"/><path d=" M 78.927 151.496 L 105.649 105.214 L 128 66.5 L 169.941 139.145 L 141.127 115.602 L 129.195 169.5 L 114.822 115.602 L 78.927 151.496 Z " fill="rgb(255,255,255)"/></g><g id="Group 3"><path d=" M 245.669 168.745 C 228.332 216.973 182.166 251.5 128 251.5 C 126.197 251.5 124.403 251.462 122.618 251.386 L 152.903 198.93 L 185.649 142.214 L 208 103.5 L 245.669 168.745 Z " fill="rgb(156,204,101)"/><path d=" M 143.711 250.52 C 138.564 251.167 133.321 251.5 128 251.5 C 114.027 251.5 100.586 249.202 88.036 244.964 L 178 155 L 143.711 250.52 Z " fill="rgb(139,195,74)"/><path d=" M 178 155 L 185.649 142.214 L 208 103.5 L 234 149 L 216 142.214 L 208 170 L 202 142.214 L 178 155 Z " fill="rgb(255,255,255)"/></g><g id="Sol"><path d=" M 141 54 C 141 37.167 154.667 23.5 171.5 23.5 C 188.333 23.5 202 37.167 202 54 C 202 70.833 188.333 84.5 171.5 84.5 C 154.667 84.5 141 70.833 141 54 Z " fill="rgb(100,181,246)"/><path d=" M 141 52 C 141 35.167 154.667 21.5 171.5 21.5 C 188.333 21.5 202 35.167 202 52 C 202 68.833 188.333 82.5 171.5 82.5 C 154.667 82.5 141 68.833 141 52 Z " fill="rgb(255,245,157)"/></g></g></g></svg>