<?xml version="1.0" standalone="no"?><!-- Generator: Gravit.io --><svg xmlns="http://www.w3.org/2000/svg" xmlns:xlink="http://www.w3.org/1999/xlink" style="isolation:isolate" viewBox="0 0 48 48" width="48" height="48"><defs><clipPath id="_clipPath_BvMYYOnMaOJAokAz5RzDWdB2tW9g2Gm8"><rect width="48" height="48"/></clipPath></defs><g clip-path="url(#_clipPath_BvMYYOnMaOJAokAz5RzDWdB2tW9g2Gm8)"><g style="isolation:isolate" id="Design"><path d="M 18 3 L 30 3 C 38.831 3 46 10.169 46 19 L 46 31 C 46 39.831 38.831 47 30 47 L 18 47 C 9.169 47 2 39.831 2 31 L 2 19 C 2 10.169 9.169 3 18 3 Z" style="stroke:none;fill:#000000;stroke-miterlimit:10;opacity:0.15;"/><defs><linearGradient id="_lgradient_0" x1="0.5" y1="0.13013859525487437" x2="0.5" y2="1"><stop offset="2.608695652173913%" style="stop-color:#81C784"/><stop offset="100%" style="stop-color:#00BCD4"/></linearGradient></defs><path d="M 18 2 L 30 2 C 38.831 2 46 9.169 46 18 L 46 30 C 46 38.831 38.831 46 30 46 L 18 46 C 9.169 46 2 38.831 2 30 L 2 18 C 2 9.169 9.169 2 18 2 Z" style="stroke:none;fill:url(#_lgradient_0);stroke-miterlimit:10;"/><g id="mailspring"><path d=" M 27.445 25.378 L 34.166 33.922 L 14.005 33.922 L 20.751 25.347 L 24.085 28.626 L 27.445 25.378 L 27.445 25.378 Z  M 24.085 26.576 L 14.005 16.666 L 34.166 16.666 L 24.085 26.576 Z  M 28.613 24.696 L 35.02 18.033 L 35.02 32.555 L 28.613 24.696 Z  M 19.472 24.44 L 12.98 32.555 L 12.98 18.033 L 19.472 24.44 Z " fill-rule="evenodd" fill="rgb(0,0,0)" fill-opacity="0.15"/><path d=" M 27.445 23.79 L 34.166 32.334 L 14.005 32.334 L 20.751 23.759 L 24.085 27.038 L 27.445 23.79 L 27.445 23.79 Z  M 24.085 24.987 L 14.005 15.078 L 34.166 15.078 L 24.085 24.987 Z  M 28.613 23.108 L 35.02 16.445 L 35.02 30.967 L 28.613 23.108 Z  M 19.472 22.852 L 12.98 30.967 L 12.98 16.445 L 19.472 22.852 Z " fill-rule="evenodd" fill="rgb(255,255,255)"/><path d=" M 27.445 24.447 L 34.166 32.991 L 14.005 32.991 L 20.751 24.416 L 24.085 27.695 L 27.445 24.447 L 27.445 24.447 Z  M 24.085 25.644 L 14.005 15.735 L 34.166 15.735 L 24.085 25.644 Z  M 28.613 23.765 L 35.02 17.102 L 35.02 31.624 L 28.613 23.765 Z  M 19.472 23.509 L 12.98 31.624 L 12.98 17.102 L 19.472 23.509 Z " fill-rule="evenodd" fill="rgb(247,247,247)"/></g></g></g></svg>