<?xml version="1.0" standalone="no"?><!-- Generator: Gravit.io --><svg xmlns="http://www.w3.org/2000/svg" xmlns:xlink="http://www.w3.org/1999/xlink" style="isolation:isolate" viewBox="0 0 256 256" width="256" height="256"><defs><clipPath id="_clipPath_CaYh24SBkEKjKW4JE4eiEmI071NpEaP8"><rect width="256" height="256"/></clipPath></defs><g clip-path="url(#_clipPath_CaYh24SBkEKjKW4JE4eiEmI071NpEaP8)"><g style="isolation:isolate" id="Icon"><path d=" M 3.013 128 C 3.003 128.499 3 128.999 3 129.5 C 3 198.489 59.011 254.5 128 254.5 C 196.989 254.5 253 198.489 253 129.5 C 253 128.999 252.997 128.499 252.987 128 C 252.186 196.3 196.488 251.5 128 251.5 C 59.512 251.5 3.814 196.3 3.013 128 Z " fill="rgb(0,0,0)" fill-opacity="0.15"/><path d=" M 3 126.5 C 3 57.511 59.011 1.5 128 1.5 C 196.989 1.5 253 57.511 253 126.5 C 253 195.489 196.989 251.5 128 251.5 C 59.011 251.5 3 195.489 3 126.5 Z " fill="rgb(79,195,247)"/><g id="Group Folha"><path d="M 62.5 31 L 193.5 31 C 196.811 31 199.5 33.689 199.5 37 L 199.5 135 C 199.5 138.311 196.811 141 193.5 141 L 62.5 141 C 59.189 141 56.5 138.311 56.5 135 L 56.5 37 C 56.5 33.689 59.189 31 62.5 31 Z" style="stroke:none;fill:#FFFFFF;stroke-miterlimit:10;"/><path d=" M 199.5 41 L 199.5 135 C 199.5 138.311 196.811 141 193.5 141 L 62.5 141 C 59.189 141 56.5 138.311 56.5 135 C 56.5 135 56.5 135 56.5 135 L 56.5 41 C 56.5 37.689 59.189 35 62.5 35 L 193.5 35 C 196.811 35 199.5 37.689 199.5 41 Z " fill="rgb(247,247,247)"/></g><path d=" M 252.278 113 C 252.755 117.435 253 121.939 253 126.5 C 253 195.489 196.989 251.5 128 251.5 C 59.011 251.5 3 195.489 3 126.5 C 3 126.5 3 126.5 3 126.5 C 3 105.37 8.254 85.458 17.526 68 L 92 68 L 128 113 L 252.278 113 Z " fill="rgb(129,212,250)"/><g id="Group"><path d="M 85.171 149 L 170.829 149 C 174.787 149 178 152.213 178 156.171 L 178 161.829 C 178 165.787 174.787 169 170.829 169 L 85.171 169 C 81.213 169 78 165.787 78 161.829 L 78 156.171 C 78 152.213 81.213 149 85.171 149 Z" style="stroke:none;fill:#4FC3F7;stroke-miterlimit:10;"/><path d="M 85.171 139 L 170.829 139 C 174.787 139 178 142.213 178 146.171 L 178 151.829 C 178 155.787 174.787 159 170.829 159 L 85.171 159 C 81.213 159 78 155.787 78 151.829 L 78 146.171 C 78 142.213 81.213 139 85.171 139 Z" style="stroke:none;fill:#FFFFFF;stroke-miterlimit:10;"/><path d="M 85.171 144 L 170.829 144 C 174.787 144 178 147.213 178 151.171 L 178 156.829 C 178 160.787 174.787 164 170.829 164 L 85.171 164 C 81.213 164 78 160.787 78 156.829 L 78 151.171 C 78 147.213 81.213 144 85.171 144 Z" style="stroke:none;fill:#F7F7F7;stroke-miterlimit:10;"/></g></g></g></svg>