<?xml version="1.0" standalone="no"?><!-- Generator: Gravit.io --><svg xmlns="http://www.w3.org/2000/svg" xmlns:xlink="http://www.w3.org/1999/xlink" style="isolation:isolate" viewBox="0 0 256 256" width="256" height="256"><defs><clipPath id="_clipPath_veMK87BOedv993clttwzUH0IOQatu3w2"><rect width="256" height="256"/></clipPath></defs><g clip-path="url(#_clipPath_veMK87BOedv993clttwzUH0IOQatu3w2)"><g style="isolation:isolate" id="Icon"><path d=" M 3.013 128 C 3.003 128.499 3 128.999 3 129.5 C 3 198.489 59.011 254.5 128 254.5 C 196.989 254.5 253 198.489 253 129.5 C 253 128.999 252.997 128.499 252.987 128 C 252.186 196.3 196.488 251.5 128 251.5 C 59.512 251.5 3.814 196.3 3.013 128 Z " fill="rgb(0,0,0)" fill-opacity="0.15"/><linearGradient id="_lgradient_10" x1="50%" y1="-1.769911504424776%" x2="50.000000000000014%" y2="100.00000000000004%"><stop offset="0%" stop-opacity="1" style="stop-color:rgb(77,208,225)"/><stop offset="22.608695652173914%" stop-opacity="1" style="stop-color:rgb(38,198,218)"/><stop offset="72.17391304347827%" stop-opacity="1" style="stop-color:rgb(0,188,212)"/><stop offset="100%" stop-opacity="1" style="stop-color:rgb(0,172,193)"/></linearGradient><path d=" M 3 126.5 C 3 57.511 59.011 1.5 128 1.5 C 196.989 1.5 253 57.511 253 126.5 C 253 195.489 196.989 251.5 128 251.5 C 59.011 251.5 3 195.489 3 126.5 Z " fill="url(#_lgradient_10)"/><g id="Group"><path d=" M 118.015 141.159 C 118.754 136.333 122.986 132.563 128 132.563 L 128 132.563 C 133.014 132.563 137.246 136.333 137.985 141.159 C 138.057 140.668 138.096 140.168 138.096 139.659 C 138.096 134.136 133.523 129.563 128 129.563 C 122.477 129.563 117.904 134.136 117.904 139.659 C 117.904 140.168 117.943 140.668 118.015 141.159 Z  M 180.472 147.727 C 180.492 148.171 180.5 148.619 180.5 149.068 C 180.5 177.635 157.307 200.828 128.739 200.828 L 127.261 200.828 C 98.693 200.828 75.5 177.635 75.5 149.068 C 75.5 148.619 75.508 148.171 75.528 147.727 L 75.528 147.727 C 76.404 175.528 99.248 197.828 127.261 197.828 L 128.739 197.828 C 156.752 197.828 179.596 175.528 180.472 147.727 Z  M 108.383 167.286 L 108.383 167.286 C 110.963 162.021 122.005 159.065 128 159.065 C 133.857 159.065 145.011 162.023 147.614 167.29 C 147.812 167.023 148.005 166.752 148.192 166.478 C 148.034 159.851 134.626 156.065 128 156.065 C 121.215 156.065 107.966 159.851 107.808 166.478 C 107.994 166.751 108.186 167.02 108.383 167.286 Z " fill-rule="evenodd" fill="rgb(0,0,0)" fill-opacity="0.15"/><path d=" M 137.985 138.159 L 137.985 138.159 C 137.246 142.985 133.014 146.755 128 146.755 C 122.986 146.755 118.754 142.985 118.015 138.159 C 117.943 138.65 117.904 139.15 117.904 139.659 C 117.904 145.182 122.477 149.755 128 149.755 C 133.523 149.755 138.096 145.182 138.096 139.659 C 138.096 139.15 138.057 138.65 137.985 138.159 Z  M 147.614 164.29 C 143.145 170.31 136.005 174.361 128 174.361 L 128 174.361 C 119.993 174.361 112.854 170.311 108.383 164.286 C 108.022 164.973 107.826 165.706 107.808 166.478 C 112.226 172.946 119.64 177.361 128 177.361 C 136.36 177.361 143.777 172.943 148.192 166.478 C 148.174 165.708 147.977 164.977 147.614 164.29 Z  M 180.472 144.727 C 180.491 144.176 180.5 143.623 180.5 143.068 C 180.5 122.663 163.933 106.096 143.528 106.096 L 112.472 106.096 L 112.472 106.096 C 92.067 106.096 75.5 122.663 75.5 143.068 C 75.5 143.623 75.509 144.176 75.528 144.727 C 76.231 124.941 92.516 109.096 112.472 109.096 L 143.528 109.096 C 163.484 109.096 179.769 124.941 180.472 144.727 Z " fill-rule="evenodd" fill="rgb(255,255,255)"/><path d=" M 112.472 109.096 L 143.528 109.096 C 163.933 109.096 180.5 125.663 180.5 146.068 C 180.5 174.635 157.307 197.828 128.739 197.828 L 127.261 197.828 C 98.693 197.828 75.5 174.635 75.5 146.068 C 75.5 125.663 92.067 109.096 112.472 109.096 Z  M 128 177.361 C 136.36 177.361 143.777 172.943 148.192 166.478 C 148.034 159.851 134.626 156.065 128 156.065 C 121.215 156.065 107.966 159.851 107.808 166.478 C 112.226 172.946 119.64 177.361 128 177.361 M 128 129.563 C 122.477 129.563 117.904 134.136 117.904 139.659 C 117.904 145.182 122.477 149.755 128 149.755 C 133.523 149.755 138.096 145.182 138.096 139.659 C 138.096 134.136 133.523 129.563 128 129.563 M 128 177.361 Z " fill-rule="evenodd" fill="rgb(247,247,247)"/><g id="Group"><path d=" M 102.749 103.077 L 91.654 103.077 C 91.654 79.949 107.94 61.172 128 61.172 C 148.06 61.172 164.346 79.949 164.346 103.077 L 153.656 103.077 L 153.251 103.077 C 151.097 85.096 140.604 74.855 128 74.855 C 115.396 74.855 104.903 85.096 102.749 103.077 Z " fill="rgb(0,0,0)" fill-opacity="0.15"/><path d=" M 102.749 97.077 L 91.654 97.077 C 91.654 73.949 107.94 55.172 128 55.172 C 148.06 55.172 164.346 73.949 164.346 97.077 L 153.656 97.077 L 153.251 97.077 C 151.097 79.096 140.604 68.855 128 68.855 C 115.396 68.855 104.903 79.096 102.749 97.077 Z " fill="rgb(255,255,255)"/><path d=" M 102.749 100.077 L 91.654 100.077 C 91.654 76.949 107.94 58.172 128 58.172 C 148.06 58.172 164.346 76.949 164.346 100.077 L 153.656 100.077 L 153.251 100.077 C 151.097 82.096 140.604 71.855 128 71.855 C 115.396 71.855 104.903 82.096 102.749 100.077 Z " fill="rgb(247,247,247)"/></g></g></g></g></svg>