<?xml version="1.0" standalone="no"?><!-- Generator: Gravit.io --><svg xmlns="http://www.w3.org/2000/svg" xmlns:xlink="http://www.w3.org/1999/xlink" style="isolation:isolate" viewBox="0 0 48 48" width="48" height="48"><defs><clipPath id="_clipPath_ztrVnj8Yw3apVJpVhK20En5CvZzFW9dn"><rect width="48" height="48"/></clipPath></defs><g clip-path="url(#_clipPath_ztrVnj8Yw3apVJpVhK20En5CvZzFW9dn)"><g style="isolation:isolate" id="Design"><defs><filter id="YyiE2YvYZ6xHkfOh5SptAqnlxoB5OWUJ" x="-200%" y="-200%" width="400%" height="400%"><feOffset xmlns="http://www.w3.org/2000/svg" in="SourceAlpha" result="offOut" dx="0" dy="1"/><feGaussianBlur xmlns="http://www.w3.org/2000/svg" in="offOut" result="blurOut" stdDeviation="0.5"/><feComponentTransfer xmlns="http://www.w3.org/2000/svg" in="blurOut" result="opacOut"><feFuncA xmlns="http://www.w3.org/2000/svg" type="table" tableValues="0 0.5"/></feComponentTransfer><feBlend xmlns="http://www.w3.org/2000/svg" in="SourceGraphic" in2="opacOut" mode="normal"/></filter></defs><g filter="url(#YyiE2YvYZ6xHkfOh5SptAqnlxoB5OWUJ)"><linearGradient id="_lgradient_38" x1="50%" y1="-1.769911504424776%" x2="50.000000000000014%" y2="100.00000000000004%"><stop offset="0%" stop-opacity="1" style="stop-color:rgb(77,208,225)"/><stop offset="22.608695652173914%" stop-opacity="1" style="stop-color:rgb(38,198,218)"/><stop offset="72.17391304347827%" stop-opacity="1" style="stop-color:rgb(0,188,212)"/><stop offset="100%" stop-opacity="1" style="stop-color:rgb(0,172,193)"/></linearGradient><path d=" M 2 24 C 2 11.858 11.858 2 24 2 C 36.142 2 46 11.858 46 24 C 46 36.142 36.142 46 24 46 C 11.858 46 2 36.142 2 24 Z " fill="url(#_lgradient_38)"/></g><g id="Group"><g id="Group"><path d=" M 24 21.759 C 28.967 21.759 33 24.599 33 28.097 C 33 32.995 28.967 36.971 24 36.971 C 19.033 36.971 15 32.995 15 28.097 C 15 24.599 19.033 21.759 24 21.759 Z  M 24 33.462 C 25.433 33.462 26.705 32.704 27.462 31.596 C 27.434 30.46 25.136 29.811 24 29.811 C 22.837 29.811 20.566 30.46 20.538 31.596 C 21.296 32.705 22.567 33.462 24 33.462 Z  M 24 25.268 C 23.053 25.268 22.269 26.052 22.269 26.999 C 22.269 27.945 23.053 28.729 24 28.729 C 24.947 28.729 25.731 27.945 25.731 26.999 C 25.731 26.052 24.947 25.268 24 25.268 Z " fill-rule="evenodd" fill="rgb(0,0,0)" fill-opacity="0.15"/><path d=" M 24 19.759 C 28.967 19.759 33 22.599 33 26.097 C 33 30.995 28.967 34.971 24 34.971 C 19.033 34.971 15 30.995 15 26.097 C 15 22.599 19.033 19.759 24 19.759 Z  M 24 31.462 C 25.433 31.462 26.705 30.704 27.462 29.596 C 27.434 28.46 25.136 27.811 24 27.811 C 22.837 27.811 20.566 28.46 20.538 29.596 C 21.296 30.705 22.567 31.462 24 31.462 Z  M 24 23.268 C 23.053 23.268 22.269 24.052 22.269 24.999 C 22.269 25.945 23.053 26.729 24 26.729 C 24.947 26.729 25.731 25.945 25.731 24.999 C 25.731 24.052 24.947 23.268 24 23.268 Z " fill-rule="evenodd" fill="rgb(255,255,255)"/><path d=" M 24 20.759 C 28.967 20.759 33 23.599 33 27.097 C 33 31.995 28.967 35.971 24 35.971 C 19.033 35.971 15 31.995 15 27.097 C 15 23.599 19.033 20.759 24 20.759 Z  M 24 32.462 C 25.433 32.462 26.705 31.704 27.462 30.596 C 27.434 29.46 25.136 28.811 24 28.811 C 22.837 28.811 20.566 29.46 20.538 30.596 C 21.296 31.705 22.567 32.462 24 32.462 M 24 24.268 C 23.053 24.268 22.269 25.052 22.269 25.999 C 22.269 26.945 23.053 27.729 24 27.729 C 24.947 27.729 25.731 26.945 25.731 25.999 C 25.731 25.052 24.947 24.268 24 24.268 M 24 32.462 Z " fill-rule="evenodd" fill="rgb(247,247,247)"/></g><g id="Group"><path d=" M 19.671 20.213 L 17.769 20.213 C 17.769 16.248 20.561 13.029 24 13.029 C 27.439 13.029 30.231 16.248 30.231 20.213 L 28.398 20.213 L 28.329 20.213 C 27.959 17.131 26.161 15.375 24 15.375 C 21.839 15.375 20.041 17.131 19.671 20.213 Z " fill="rgb(0,0,0)" fill-opacity="0.15"/><path d=" M 19.671 18.213 L 17.769 18.213 C 17.769 14.248 20.561 11.029 24 11.029 C 27.439 11.029 30.231 14.248 30.231 18.213 L 28.398 18.213 L 28.329 18.213 C 27.959 15.131 26.161 13.375 24 13.375 C 21.839 13.375 20.041 15.131 19.671 18.213 Z " fill="rgb(255,255,255)"/><path d=" M 19.671 19.213 L 17.769 19.213 C 17.769 15.248 20.561 12.029 24 12.029 C 27.439 12.029 30.231 15.248 30.231 19.213 L 28.398 19.213 L 28.329 19.213 C 27.959 16.131 26.161 14.375 24 14.375 C 21.839 14.375 20.041 16.131 19.671 19.213 Z " fill="rgb(247,247,247)"/></g></g></g></g></svg>