<?xml version="1.0" standalone="no"?><!-- Generator: Gravit.io --><svg xmlns="http://www.w3.org/2000/svg" xmlns:xlink="http://www.w3.org/1999/xlink" style="isolation:isolate" viewBox="0 0 256 256" width="256" height="256"><defs><clipPath id="_clipPath_ylJHV8vHDfEX5I8B7hJAiPFjY6tJlR4L"><rect width="256" height="256"/></clipPath></defs><g clip-path="url(#_clipPath_ylJHV8vHDfEX5I8B7hJAiPFjY6tJlR4L)"><g style="isolation:isolate" id="Icon"><path d=" M 3.013 129.5 C 3.003 129.999 3 130.499 3 131 C 3 199.989 59.011 256 128 256 C 196.989 256 253 199.989 253 131 C 253 130.499 252.997 129.999 252.987 129.5 C 252.186 197.8 196.488 253 128 253 C 59.512 253 3.814 197.8 3.013 129.5 Z " fill="rgb(0,0,0)" fill-opacity="0.15"/><linearGradient id="_lgradient_3" x1="50%" y1="-1.769911504424776%" x2="50.000000000000014%" y2="100.00000000000004%"><stop offset="0%" stop-opacity="1" style="stop-color:rgb(77,208,225)"/><stop offset="22.608695652173914%" stop-opacity="1" style="stop-color:rgb(38,198,218)"/><stop offset="72.17391304347827%" stop-opacity="1" style="stop-color:rgb(0,188,212)"/><stop offset="100%" stop-opacity="1" style="stop-color:rgb(0,172,193)"/></linearGradient><path d=" M 3 128 C 3 59.011 59.011 3 128 3 C 196.989 3 253 59.011 253 128 C 253 196.989 196.989 253 128 253 C 59.011 253 3 196.989 3 128 Z " fill="url(#_lgradient_3)"/><g id="Group"><path d=" M 118.015 142.659 C 118.754 137.833 122.986 134.063 128 134.063 L 128 134.063 C 133.014 134.063 137.246 137.833 137.985 142.659 C 138.057 142.168 138.096 141.668 138.096 141.159 C 138.096 135.636 133.523 131.063 128 131.063 C 122.477 131.063 117.904 135.636 117.904 141.159 C 117.904 141.668 117.943 142.168 118.015 142.659 Z  M 180.472 149.227 C 180.492 149.671 180.5 150.119 180.5 150.568 C 180.5 179.135 157.307 202.328 128.739 202.328 L 127.261 202.328 C 98.693 202.328 75.5 179.135 75.5 150.568 C 75.5 150.119 75.508 149.671 75.528 149.227 L 75.528 149.227 C 76.404 177.028 99.248 199.328 127.261 199.328 L 128.739 199.328 C 156.752 199.328 179.596 177.028 180.472 149.227 Z  M 108.383 168.786 L 108.383 168.786 C 110.963 163.521 122.005 160.565 128 160.565 C 133.857 160.565 145.011 163.523 147.614 168.79 C 147.812 168.523 148.005 168.252 148.192 167.978 C 148.034 161.351 134.626 157.565 128 157.565 C 121.215 157.565 107.966 161.351 107.808 167.978 C 107.994 168.251 108.186 168.52 108.383 168.786 Z " fill-rule="evenodd" fill="rgb(0,0,0)" fill-opacity="0.15"/><path d=" M 137.985 139.659 L 137.985 139.659 C 137.246 144.485 133.014 148.255 128 148.255 C 122.986 148.255 118.754 144.485 118.015 139.659 C 117.943 140.15 117.904 140.65 117.904 141.159 C 117.904 146.682 122.477 151.255 128 151.255 C 133.523 151.255 138.096 146.682 138.096 141.159 C 138.096 140.65 138.057 140.15 137.985 139.659 Z  M 147.614 165.79 C 143.145 171.81 136.005 175.861 128 175.861 L 128 175.861 C 119.993 175.861 112.854 171.811 108.383 165.786 C 108.022 166.473 107.826 167.206 107.808 167.978 C 112.226 174.446 119.64 178.861 128 178.861 C 136.36 178.861 143.777 174.443 148.192 167.978 C 148.174 167.208 147.977 166.477 147.614 165.79 Z  M 180.472 146.227 C 180.491 145.676 180.5 145.123 180.5 144.568 C 180.5 124.163 163.933 107.596 143.528 107.596 L 112.472 107.596 L 112.472 107.596 C 92.067 107.596 75.5 124.163 75.5 144.568 C 75.5 145.123 75.509 145.676 75.528 146.227 C 76.231 126.441 92.516 110.596 112.472 110.596 L 143.528 110.596 C 163.484 110.596 179.769 126.441 180.472 146.227 Z " fill-rule="evenodd" fill="rgb(255,255,255)"/><path d=" M 112.472 110.596 L 143.528 110.596 C 163.933 110.596 180.5 127.163 180.5 147.568 C 180.5 176.135 157.307 199.328 128.739 199.328 L 127.261 199.328 C 98.693 199.328 75.5 176.135 75.5 147.568 C 75.5 127.163 92.067 110.596 112.472 110.596 Z  M 128 178.861 C 136.36 178.861 143.777 174.443 148.192 167.978 C 148.034 161.351 134.626 157.565 128 157.565 C 121.215 157.565 107.966 161.351 107.808 167.978 C 112.226 174.446 119.64 178.861 128 178.861 M 128 131.063 C 122.477 131.063 117.904 135.636 117.904 141.159 C 117.904 146.682 122.477 151.255 128 151.255 C 133.523 151.255 138.096 146.682 138.096 141.159 C 138.096 135.636 133.523 131.063 128 131.063 M 128 178.861 Z " fill-rule="evenodd" fill="rgb(247,247,247)"/><g id="Group"><path d=" M 102.749 104.577 L 91.654 104.577 C 91.654 81.449 107.94 62.672 128 62.672 C 148.06 62.672 164.346 81.449 164.346 104.577 L 153.656 104.577 L 153.251 104.577 C 151.097 86.596 140.604 76.355 128 76.355 C 115.396 76.355 104.903 86.596 102.749 104.577 Z " fill="rgb(0,0,0)" fill-opacity="0.15"/><path d=" M 102.749 98.577 L 91.654 98.577 C 91.654 75.449 107.94 56.672 128 56.672 C 148.06 56.672 164.346 75.449 164.346 98.577 L 153.656 98.577 L 153.251 98.577 C 151.097 80.596 140.604 70.355 128 70.355 C 115.396 70.355 104.903 80.596 102.749 98.577 Z " fill="rgb(255,255,255)"/><path d=" M 102.749 101.577 L 91.654 101.577 C 91.654 78.449 107.94 59.672 128 59.672 C 148.06 59.672 164.346 78.449 164.346 101.577 L 153.656 101.577 L 153.251 101.577 C 151.097 83.596 140.604 73.355 128 73.355 C 115.396 73.355 104.903 83.596 102.749 101.577 Z " fill="rgb(247,247,247)"/></g></g></g></g></svg>