<?xml version="1.0" standalone="no"?><!-- Generator: Gravit.io --><svg xmlns="http://www.w3.org/2000/svg" xmlns:xlink="http://www.w3.org/1999/xlink" style="isolation:isolate" viewBox="0 0 48 48" width="48" height="48"><defs><clipPath id="_clipPath_y8GIcO4k4KuUMxDsglEcmRrY0nfrAaeS"><rect width="48" height="48"/></clipPath></defs><g clip-path="url(#_clipPath_y8GIcO4k4KuUMxDsglEcmRrY0nfrAaeS)"><g style="isolation:isolate" id="Design"><path d="M 18 3 L 30 3 C 38.831 3 46 10.169 46 19 L 46 31 C 46 39.831 38.831 47 30 47 L 18 47 C 9.169 47 2 39.831 2 31 L 2 19 C 2 10.169 9.169 3 18 3 Z" style="stroke:none;fill:#000000;stroke-miterlimit:10;opacity:0.15;"/><defs><linearGradient id="_lgradient_19" x1="0.5009654062751409" y1="0.17333876885446375" x2="0.5009654062751411" y2="1.0146311722326642"><stop offset="1.3043478260869565%" style="stop-color:#64B5F6"/><stop offset="100%" style="stop-color:#2196F3"/></linearGradient></defs><path d="M 18 2 L 30 2 C 38.831 2 46 9.169 46 18 L 46 30 C 46 38.831 38.831 46 30 46 L 18 46 C 9.169 46 2 38.831 2 30 L 2 18 C 2 9.169 9.169 2 18 2 Z" style="stroke:none;fill:url(#_lgradient_19);stroke-miterlimit:10;"/><g id="Group"><path d=" M 34.22 26.834 C 34.211 26.872 34.207 26.912 34.198 26.95 L 34.16 26.727 C 34.181 26.765 34.198 26.8 34.22 26.834 C 34.332 26.215 34.392 25.583 34.392 24.952 C 34.392 23.551 34.117 22.188 33.575 20.908 C 33.051 19.671 32.303 18.558 31.349 17.604 C 30.394 16.651 29.282 15.903 28.049 15.379 C 26.768 14.837 25.406 14.562 24.005 14.562 C 23.343 14.562 22.682 14.623 22.037 14.747 C 22.037 14.747 22.033 14.747 22.033 14.747 C 22.067 14.764 22.106 14.781 22.14 14.803 L 21.921 14.768 C 21.959 14.76 21.994 14.755 22.032 14.747 C 21.148 14.279 20.155 14.025 19.149 14.025 C 17.507 14.025 15.96 14.665 14.801 15.826 C 13.641 16.986 13 18.532 13 20.174 C 13 21.218 13.271 22.25 13.773 23.156 C 13.782 23.118 13.786 23.079 13.791 23.045 L 13.829 23.264 C 13.808 23.23 13.791 23.196 13.773 23.161 C 13.67 23.75 13.619 24.351 13.619 24.953 C 13.619 26.354 13.894 27.716 14.436 28.996 C 14.96 30.234 15.707 31.343 16.661 32.296 C 17.615 33.25 18.728 33.998 19.965 34.522 C 21.246 35.064 22.608 35.339 24.008 35.339 C 24.618 35.339 25.229 35.283 25.826 35.175 C 25.792 35.154 25.757 35.137 25.719 35.12 L 25.942 35.158 C 25.904 35.166 25.864 35.171 25.826 35.175 C 26.745 35.695 27.789 35.975 28.851 35.975 C 30.492 35.975 32.039 35.335 33.199 34.174 C 34.36 33.014 35 31.467 35 29.826 C 34.996 28.782 34.725 27.75 34.218 26.835 L 34.22 26.834 Z  M 24.045 31.315 C 20.354 31.315 18.704 29.502 18.704 28.139 C 18.704 27.444 19.219 26.954 19.928 26.954 C 21.509 26.954 21.097 29.222 24.045 29.222 C 25.553 29.222 26.386 28.401 26.386 27.563 C 26.386 27.061 26.137 26.502 25.145 26.257 L 21.862 25.436 C 19.219 24.774 18.738 23.343 18.738 21.999 C 18.738 19.21 21.363 18.162 23.829 18.162 C 26.102 18.162 28.779 19.416 28.779 21.093 C 28.779 21.81 28.157 22.227 27.447 22.227 C 26.098 22.227 26.347 20.362 23.632 20.362 C 22.282 20.362 21.539 20.972 21.539 21.844 C 21.539 22.716 22.604 22.996 23.528 23.206 L 25.961 23.747 C 28.621 24.34 29.295 25.895 29.295 27.356 C 29.295 29.621 27.555 31.314 24.045 31.314 L 24.045 31.315 Z " fill-rule="evenodd" fill="rgb(0,0,0)" fill-opacity="0.15"/><path d=" M 34.22 25.834 C 34.211 25.872 34.207 25.912 34.198 25.95 L 34.16 25.727 C 34.181 25.765 34.198 25.8 34.22 25.834 C 34.332 25.215 34.392 24.583 34.392 23.952 C 34.392 22.551 34.117 21.188 33.575 19.908 C 33.051 18.671 32.303 17.558 31.349 16.604 C 30.394 15.651 29.282 14.903 28.049 14.379 C 26.768 13.837 25.406 13.562 24.005 13.562 C 23.343 13.562 22.682 13.623 22.037 13.747 C 22.037 13.747 22.033 13.747 22.033 13.747 C 22.067 13.764 22.106 13.781 22.14 13.803 L 21.921 13.768 C 21.959 13.76 21.994 13.755 22.032 13.747 C 21.148 13.279 20.155 13.025 19.149 13.025 C 17.507 13.025 15.96 13.665 14.801 14.826 C 13.641 15.986 13 17.532 13 19.174 C 13 20.218 13.271 21.25 13.773 22.156 C 13.782 22.118 13.786 22.079 13.791 22.045 L 13.829 22.264 C 13.808 22.23 13.791 22.196 13.773 22.161 C 13.67 22.75 13.619 23.351 13.619 23.953 C 13.619 25.354 13.894 26.716 14.435 27.996 C 14.96 29.234 15.707 30.343 16.661 31.296 C 17.614 32.25 18.728 32.998 19.965 33.522 C 21.246 34.064 22.608 34.339 24.008 34.339 C 24.618 34.339 25.229 34.283 25.826 34.175 C 25.792 34.154 25.757 34.137 25.719 34.12 L 25.942 34.158 C 25.904 34.166 25.864 34.171 25.826 34.175 C 26.745 34.695 27.789 34.975 28.851 34.975 C 30.492 34.975 32.039 34.335 33.199 33.174 C 34.36 32.014 35 30.467 35 28.826 C 34.996 27.782 34.725 26.75 34.218 25.835 L 34.22 25.834 Z  M 24.045 30.315 C 20.353 30.315 18.703 28.502 18.703 27.139 C 18.703 26.444 19.219 25.954 19.928 25.954 C 21.509 25.954 21.097 28.222 24.045 28.222 C 25.553 28.222 26.386 27.401 26.386 26.563 C 26.386 26.061 26.137 25.502 25.145 25.257 L 21.862 24.436 C 19.219 23.774 18.738 22.343 18.738 20.999 C 18.738 18.21 21.363 17.162 23.829 17.162 C 26.102 17.162 28.779 18.416 28.779 20.093 C 28.779 20.81 28.157 21.227 27.447 21.227 C 26.098 21.227 26.347 19.362 23.631 19.362 C 22.282 19.362 21.539 19.972 21.539 20.844 C 21.539 21.716 22.604 21.996 23.528 22.206 L 25.961 22.747 C 28.621 23.34 29.295 24.895 29.295 26.356 C 29.295 28.621 27.555 30.314 24.045 30.314 L 24.045 30.315 Z " fill-rule="evenodd" fill="rgb(247,247,247)"/></g></g></g></svg>