<?xml version="1.0" standalone="no"?><!-- Generator: Gravit.io --><svg xmlns="http://www.w3.org/2000/svg" xmlns:xlink="http://www.w3.org/1999/xlink" style="isolation:isolate" viewBox="0 0 48 48" width="48" height="48"><defs><clipPath id="_clipPath_YqFQPQjUCtSMiFMovwcFC3wxPIRYCfWn"><rect width="48" height="48"/></clipPath></defs><g clip-path="url(#_clipPath_YqFQPQjUCtSMiFMovwcFC3wxPIRYCfWn)"><g style="isolation:isolate" id="Design"><path d="M 18 3 L 30 3 C 38.831 3 46 10.169 46 19 L 46 31 C 46 39.831 38.831 47 30 47 L 18 47 C 9.169 47 2 39.831 2 31 L 2 19 C 2 10.169 9.169 3 18 3 Z" style="stroke:none;fill:#000000;stroke-miterlimit:10;opacity:0.15;"/><defs><linearGradient id="_lgradient_20" x1="0.5021141649048628" y1="0.14270613107822405" x2="0.5021141649048628" y2="1.0097943834309344"><stop offset="0%" style="stop-color:#64B5F6"/><stop offset="98.26086956521739%" style="stop-color:#2196F3"/></linearGradient></defs><path d="M 18 2 L 30 2 C 38.831 2 46 9.169 46 18 L 46 30 C 46 38.831 38.831 46 30 46 L 18 46 C 9.169 46 2 38.831 2 30 L 2 18 C 2 9.169 9.169 2 18 2 Z" style="stroke:none;fill:url(#_lgradient_20);stroke-miterlimit:10;"/><g id="Group"><path d=" M 36.188 25 L 28.063 31.5 L 28.063 28.25 L 19.938 28.25 L 19.938 31.5 L 11.813 25 L 19.938 18.5 L 19.938 21.75 L 28.063 21.75 L 28.063 18.5 L 36.188 25 Z " fill-rule="evenodd" fill="rgb(0,0,0)" fill-opacity="0.15"/><path d=" M 36.188 23.3 L 28.063 29.8 L 28.063 26.55 L 19.938 26.55 L 19.938 29.8 L 11.813 23.3 L 19.938 16.8 L 19.938 20.05 L 28.063 20.05 L 28.063 16.8 L 36.188 23.3 Z " fill-rule="evenodd" fill="rgb(255,255,255)"/><path d=" M 36.188 24 L 28.063 30.5 L 28.063 27.25 L 19.938 27.25 L 19.938 30.5 L 11.813 24 L 19.938 17.5 L 19.938 20.75 L 28.063 20.75 L 28.063 17.5 L 36.188 24 Z " fill-rule="evenodd" fill="rgb(247,247,247)"/></g></g></g></svg>