<?xml version="1.0" standalone="no"?><!-- Generator: Gravit.io --><svg xmlns="http://www.w3.org/2000/svg" xmlns:xlink="http://www.w3.org/1999/xlink" style="isolation:isolate" viewBox="0 0 48 48" width="48" height="48"><defs><clipPath id="_clipPath_9cbsT47tzBzit1tMQrldnGBumqEgxPKt"><rect width="48" height="48"/></clipPath></defs><g clip-path="url(#_clipPath_9cbsT47tzBzit1tMQrldnGBumqEgxPKt)"><g style="isolation:isolate" id="Design"><path d="M 18 3 L 30 3 C 38.831 3 46 10.169 46 19 L 46 31 C 46 39.831 38.831 47 30 47 L 18 47 C 9.169 47 2 39.831 2 31 L 2 19 C 2 10.169 9.169 3 18 3 Z" style="stroke:none;fill:#000000;stroke-miterlimit:10;opacity:0.15;"/><defs><linearGradient id="_lgradient_18" x1="0.5002296801365835" y1="0.15917703914212789" x2="0.5002296801365835" y2="1"><stop offset="0%" style="stop-color:#26C6DA"/><stop offset="25.65217391304348%" style="stop-color:#00BCD4"/><stop offset="71.73913043478261%" style="stop-color:#00ACC1"/><stop offset="99.1304347826087%" style="stop-color:#0097A7"/></linearGradient></defs><path d="M 18 2 L 30 2 C 38.831 2 46 9.169 46 18 L 46 30 C 46 38.831 38.831 46 30 46 L 18 46 C 9.169 46 2 38.831 2 30 L 2 18 C 2 9.169 9.169 2 18 2 Z" style="stroke:none;fill:url(#_lgradient_18);stroke-miterlimit:10;"/><g id="Group"><path d=" M 24.025 14.194 C 22.923 14.183 21.829 14.34 20.768 14.619 C 15.822 15.893 12.609 20.572 12.684 25.491 L 9.855 25.491 L 14.099 31.168 L 18.342 25.491 L 15.513 25.491 C 15.504 23.431 15.837 21.379 17.265 19.841 C 19.756 17.023 24.698 15.87 28.266 17.943 C 29.451 19.432 32.08 17.796 30.7 16.269 C 28.735 14.8 26.505 14.199 24.025 14.194 Z  M 33.902 19.833 L 29.658 25.51 L 32.487 25.51 C 32.496 27.57 32.163 29.622 30.735 31.16 C 28.051 34.258 23.302 35.13 19.734 33.058 C 18.549 31.568 15.92 33.202 17.3 34.729 C 19.265 36.198 21.495 36.801 23.975 36.807 L 23.978 36.804 C 25.08 36.815 26.171 36.66 27.232 36.381 C 32.178 35.107 35.391 30.428 35.316 25.51 L 38.145 25.51 L 33.902 19.833 Z " fill="rgb(0,0,0)" fill-opacity="0.15"/><path d=" M 24.025 12.194 C 22.923 12.183 21.829 12.34 20.768 12.619 C 15.822 13.893 12.609 18.572 12.684 23.491 L 9.855 23.491 L 14.099 29.168 L 18.342 23.491 L 15.513 23.491 C 15.504 21.431 15.837 19.379 17.265 17.841 C 19.756 15.023 24.698 13.87 28.266 15.943 C 29.451 17.432 32.08 15.796 30.7 14.269 C 28.735 12.8 26.505 12.199 24.025 12.194 Z  M 33.902 17.833 L 29.658 23.51 L 32.487 23.51 C 32.496 25.57 32.163 27.622 30.735 29.16 C 28.051 32.258 23.302 33.13 19.734 31.058 C 18.549 29.568 15.92 31.202 17.3 32.729 C 19.265 34.198 21.495 34.801 23.975 34.807 L 23.978 34.804 C 25.08 34.815 26.171 34.66 27.232 34.381 C 32.178 33.107 35.391 28.428 35.316 23.51 L 38.145 23.51 L 33.902 17.833 Z " fill="rgb(255,255,255)"/><path d=" M 24.025 13.194 C 22.923 13.183 21.829 13.34 20.768 13.619 C 15.822 14.893 12.609 19.572 12.684 24.491 L 9.855 24.491 L 14.099 30.168 L 18.342 24.491 L 15.513 24.491 C 15.504 22.431 15.837 20.379 17.265 18.841 C 19.756 16.023 24.698 14.87 28.266 16.943 C 29.451 18.432 32.08 16.796 30.7 15.269 C 28.735 13.8 26.505 13.199 24.025 13.194 Z  M 33.902 18.833 L 29.658 24.51 L 32.487 24.51 C 32.496 26.57 32.163 28.622 30.735 30.16 C 28.051 33.258 23.302 34.13 19.734 32.058 C 18.549 30.568 15.92 32.202 17.3 33.729 C 19.265 35.198 21.495 35.801 23.975 35.807 L 23.978 35.804 C 25.08 35.815 26.171 35.66 27.232 35.381 C 32.178 34.107 35.391 29.428 35.316 24.51 L 38.145 24.51 L 33.902 18.833 Z " fill="rgb(247,247,247)"/></g></g></g></svg>