<?xml version="1.0" standalone="no"?><!-- Generator: Gravit.io --><svg xmlns="http://www.w3.org/2000/svg" xmlns:xlink="http://www.w3.org/1999/xlink" style="isolation:isolate" viewBox="0 0 48 48" width="48" height="48"><defs><clipPath id="_clipPath_1W8ff0kYJ4FtzdtSND888A7ZhHRmttJV"><rect width="48" height="48"/></clipPath></defs><g clip-path="url(#_clipPath_1W8ff0kYJ4FtzdtSND888A7ZhHRmttJV)"><g style="isolation:isolate" id="Design"><defs><filter id="APAg0p6s7UOhOiK2TUlV6Or63f3zea32" x="-200%" y="-200%" width="400%" height="400%"><feOffset xmlns="http://www.w3.org/2000/svg" in="SourceAlpha" result="offOut" dx="0" dy="1"/><feGaussianBlur xmlns="http://www.w3.org/2000/svg" in="offOut" result="blurOut" stdDeviation="0.5"/><feComponentTransfer xmlns="http://www.w3.org/2000/svg" in="blurOut" result="opacOut"><feFuncA xmlns="http://www.w3.org/2000/svg" type="table" tableValues="0 0.5"/></feComponentTransfer><feBlend xmlns="http://www.w3.org/2000/svg" in="SourceGraphic" in2="opacOut" mode="normal"/></filter></defs><g filter="url(#APAg0p6s7UOhOiK2TUlV6Or63f3zea32)"><linearGradient id="_lgradient_0" x1="50.02296801365836%" y1="15.917703914212789%" x2="50.02296801365836%" y2="100%"><stop offset="0%" stop-opacity="1" style="stop-color:rgb(38,198,218)"/><stop offset="25.65217391304348%" stop-opacity="1" style="stop-color:rgb(0,188,212)"/><stop offset="71.73913043478261%" stop-opacity="1" style="stop-color:rgb(0,172,193)"/><stop offset="99.1304347826087%" stop-opacity="1" style="stop-color:rgb(0,151,167)"/></linearGradient><path d=" M 2 24 C 2 11.858 11.858 2 24 2 C 36.142 2 46 11.858 46 24 C 46 36.142 36.142 46 24 46 C 11.858 46 2 36.142 2 24 Z " fill="url(#_lgradient_0)"/></g><g id="Group"><path d=" M 24.025 13.694 C 22.923 13.683 21.829 13.84 20.768 14.119 C 15.822 15.393 12.609 20.072 12.684 24.991 L 9.855 24.991 L 14.099 30.668 L 18.342 24.991 L 15.513 24.991 C 15.504 22.931 15.837 20.879 17.265 19.341 C 19.756 16.523 24.698 15.37 28.266 17.443 C 29.451 18.932 32.08 17.296 30.7 15.769 C 28.735 14.3 26.505 13.699 24.025 13.694 Z  M 33.902 19.333 L 29.658 25.01 L 32.487 25.01 C 32.496 27.07 32.163 29.122 30.735 30.66 C 28.051 33.758 23.302 34.63 19.734 32.558 C 18.549 31.068 15.92 32.702 17.3 34.229 C 19.265 35.698 21.495 36.301 23.975 36.307 L 23.978 36.304 C 25.08 36.315 26.171 36.16 27.232 35.881 C 32.178 34.607 35.391 29.928 35.316 25.01 L 38.145 25.01 L 33.902 19.333 Z " fill="rgb(0,0,0)" fill-opacity="0.15"/><path d=" M 24.025 11.694 C 22.923 11.683 21.829 11.84 20.768 12.119 C 15.822 13.393 12.609 18.072 12.684 22.991 L 9.855 22.991 L 14.098 28.668 L 18.342 22.991 L 15.513 22.991 C 15.504 20.931 15.837 18.879 17.265 17.341 C 19.756 14.523 24.698 13.37 28.266 15.443 C 29.451 16.932 32.08 15.296 30.7 13.769 C 28.735 12.3 26.505 11.699 24.025 11.694 Z  M 33.902 17.333 L 29.658 23.01 L 32.487 23.01 C 32.496 25.07 32.163 27.122 30.735 28.66 C 28.051 31.758 23.302 32.63 19.734 30.558 C 18.549 29.068 15.92 30.702 17.3 32.229 C 19.265 33.698 21.495 34.301 23.975 34.307 L 23.978 34.304 C 25.08 34.315 26.171 34.16 27.232 33.881 C 32.178 32.607 35.391 27.928 35.316 23.01 L 38.145 23.01 L 33.902 17.333 Z " fill="rgb(255,255,255)"/><path d=" M 24.025 12.694 C 22.923 12.683 21.829 12.84 20.768 13.119 C 15.822 14.393 12.609 19.072 12.684 23.991 L 9.855 23.991 L 14.098 29.668 L 18.342 23.991 L 15.513 23.991 C 15.504 21.931 15.837 19.879 17.265 18.341 C 19.756 15.523 24.698 14.37 28.266 16.443 C 29.451 17.932 32.08 16.296 30.7 14.769 C 28.735 13.3 26.505 12.699 24.025 12.694 Z  M 33.902 18.333 L 29.658 24.01 L 32.487 24.01 C 32.496 26.07 32.163 28.122 30.735 29.66 C 28.051 32.758 23.302 33.63 19.734 31.558 C 18.549 30.068 15.92 31.702 17.3 33.229 C 19.265 34.698 21.495 35.301 23.975 35.307 L 23.978 35.304 C 25.08 35.315 26.171 35.16 27.232 34.881 C 32.178 33.607 35.391 28.928 35.316 24.01 L 38.145 24.01 L 33.902 18.333 Z " fill="rgb(247,247,247)"/></g></g></g></svg>