<?xml version="1.0" standalone="no"?><!-- Generator: Gravit.io --><svg xmlns="http://www.w3.org/2000/svg" xmlns:xlink="http://www.w3.org/1999/xlink" style="isolation:isolate" viewBox="0 0 48 48" width="48" height="48"><defs><clipPath id="_clipPath_uGEKJf3UEDOT7DnENpjOi6TenBrs4kum"><rect width="48" height="48"/></clipPath></defs><g clip-path="url(#_clipPath_uGEKJf3UEDOT7DnENpjOi6TenBrs4kum)"><g style="isolation:isolate" id="Design"><path d="M 18 3 L 30 3 C 38.831 3 46 10.169 46 19 L 46 31 C 46 39.831 38.831 47 30 47 L 18 47 C 9.169 47 2 39.831 2 31 L 2 19 C 2 10.169 9.169 3 18 3 Z" style="stroke:none;fill:#000000;stroke-miterlimit:10;opacity:0.15;"/><defs><linearGradient id="_lgradient_12" x1="0.5" y1="0.1456958970233307" x2="0.5000000000000002" y2="1.0027056781132238"><stop offset="0%" style="stop-color:#EF5350"/><stop offset="99.1304347826087%" style="stop-color:#D32F2F"/></linearGradient></defs><path d="M 18 2 L 30 2 C 38.831 2 46 9.169 46 18 L 46 30 C 46 38.831 38.831 46 30 46 L 18 46 C 9.169 46 2 38.831 2 30 L 2 18 C 2 9.169 9.169 2 18 2 Z" style="stroke:none;fill:url(#_lgradient_12);stroke-miterlimit:10;"/><g id="Group"><path d=" M 32.803 14.535 C 32.335 14.536 31.862 14.636 31.483 14.831 C 30.929 15.116 30.371 15.72 30.124 16.303 C 29.861 16.923 29.824 18.016 30.045 18.596 C 30.139 18.842 30.3 19.264 30.404 19.534 C 30.638 20.144 30.723 21.485 30.574 22.239 C 30.407 23.088 29.887 24.068 29.278 24.684 C 27.449 26.533 24.683 26.565 22.867 24.759 C 22.24 24.136 22.151 23.987 19.322 18.821 C 18.362 17.067 17.5 15.598 17.321 15.408 C 16.759 14.799 15.977 14.582 15.261 14.578 C 13.722 14.553 12.655 15.785 12.402 17.107 C 12.215 18.166 12.129 17.984 17.101 27.048 C 20.239 32.769 21.731 35.407 21.976 35.666 C 22.842 36.585 24.076 36.812 25.231 36.267 C 25.535 36.123 25.879 35.865 26.098 35.616 C 26.528 35.129 35.423 18.973 35.568 18.417 C 35.719 17.834 35.681 17.007 35.478 16.434 C 35.225 15.722 34.526 14.991 33.837 14.717 C 33.528 14.595 33.167 14.534 32.804 14.535 L 32.803 14.535 Z " fill="rgb(183,28,28)"/><path d=" M 32.803 12.441 C 32.335 12.442 31.862 12.542 31.483 12.737 C 30.929 13.022 30.371 13.627 30.124 14.21 C 29.861 14.829 29.824 15.922 30.045 16.502 C 30.139 16.748 30.3 17.17 30.404 17.44 C 30.638 18.05 30.723 19.392 30.574 20.145 C 30.407 20.994 29.887 21.974 29.278 22.59 C 27.449 24.439 24.683 24.471 22.867 22.665 C 22.24 22.042 22.151 21.893 19.322 16.727 C 18.362 14.973 17.5 13.504 17.321 13.314 C 16.759 12.706 15.977 12.488 15.261 12.484 C 13.722 12.459 12.655 13.691 12.402 15.014 C 12.215 16.072 12.129 15.89 17.101 24.954 C 20.239 30.676 21.731 33.313 21.976 33.572 C 22.842 34.491 24.076 34.718 25.231 34.173 C 25.535 34.029 25.879 33.772 26.098 33.523 C 26.528 33.035 35.423 16.879 35.568 16.323 C 35.719 15.741 35.681 14.913 35.478 14.34 C 35.225 13.628 34.526 12.897 33.837 12.624 C 33.528 12.501 33.167 12.441 32.804 12.441 L 32.803 12.441 Z " fill="rgb(255,255,255)"/><path d=" M 32.803 13.441 C 32.335 13.442 31.862 13.542 31.483 13.737 C 30.929 14.022 30.371 14.627 30.124 15.21 C 29.861 15.829 29.824 16.922 30.045 17.502 C 30.139 17.748 30.3 18.17 30.404 18.44 C 30.638 19.05 30.723 20.392 30.574 21.145 C 30.407 21.994 29.887 22.974 29.278 23.59 C 27.449 25.439 24.683 25.471 22.867 23.665 C 22.24 23.042 22.151 22.893 19.322 17.727 C 18.362 15.973 17.5 14.504 17.321 14.314 C 16.759 13.706 15.977 13.488 15.261 13.484 C 13.722 13.459 12.655 14.691 12.402 16.014 C 12.215 17.072 12.129 16.89 17.101 25.954 C 20.239 31.676 21.731 34.313 21.976 34.572 C 22.842 35.491 24.076 35.718 25.231 35.173 C 25.535 35.029 25.879 34.772 26.098 34.523 C 26.528 34.035 35.423 17.879 35.568 17.323 C 35.719 16.741 35.681 15.913 35.478 15.34 C 35.225 14.628 34.526 13.897 33.837 13.624 C 33.528 13.501 33.167 13.441 32.804 13.441 L 32.803 13.441 Z " fill="rgb(247,247,247)"/></g></g></g></svg>