<?xml version="1.0" standalone="no"?><!-- Generator: Gravit.io --><svg xmlns="http://www.w3.org/2000/svg" xmlns:xlink="http://www.w3.org/1999/xlink" style="isolation:isolate" viewBox="0 0 48 48" width="48" height="48"><defs><clipPath id="_clipPath_JHcSISNE676zMshQIvHxON3zqhqfJuCj"><rect width="48" height="48"/></clipPath></defs><g clip-path="url(#_clipPath_JHcSISNE676zMshQIvHxON3zqhqfJuCj)"><g style="isolation:isolate" id="Design"><defs><filter id="wH9NX6JCCJDeyB5v8YoALFf4SFsEmjhe" x="-200%" y="-200%" width="400%" height="400%"><feOffset xmlns="http://www.w3.org/2000/svg" in="SourceAlpha" result="offOut" dx="0" dy="1"/><feGaussianBlur xmlns="http://www.w3.org/2000/svg" in="offOut" result="blurOut" stdDeviation="0.5"/><feComponentTransfer xmlns="http://www.w3.org/2000/svg" in="blurOut" result="opacOut"><feFuncA xmlns="http://www.w3.org/2000/svg" type="table" tableValues="0 0.5"/></feComponentTransfer><feBlend xmlns="http://www.w3.org/2000/svg" in="SourceGraphic" in2="opacOut" mode="normal"/></filter></defs><g filter="url(#wH9NX6JCCJDeyB5v8YoALFf4SFsEmjhe)"><path d=" M 2 24 C 2 11.858 11.858 2 24 2 C 36.142 2 46 11.858 46 24 C 46 36.142 36.142 46 24 46 C 11.858 46 2 36.142 2 24 Z " fill="rgb(229,57,53)"/></g><g id="Group"><path d=" M 32.803 14.035 C 32.335 14.036 31.862 14.136 31.483 14.331 C 30.929 14.616 30.371 15.22 30.124 15.803 C 29.861 16.423 29.824 17.516 30.045 18.096 C 30.139 18.342 30.3 18.764 30.404 19.034 C 30.638 19.644 30.723 20.985 30.574 21.739 C 30.407 22.588 29.887 23.568 29.278 24.184 C 27.449 26.033 24.683 26.065 22.867 24.259 C 22.24 23.636 22.151 23.487 19.322 18.321 C 18.362 16.567 17.5 15.098 17.321 14.908 C 16.759 14.299 15.977 14.082 15.261 14.078 C 13.722 14.053 12.655 15.285 12.402 16.607 C 12.215 17.666 12.129 17.484 17.101 26.548 C 20.239 32.269 21.731 34.907 21.976 35.166 C 22.842 36.085 24.076 36.312 25.231 35.767 C 25.535 35.623 25.879 35.365 26.098 35.116 C 26.528 34.629 35.423 18.473 35.568 17.917 C 35.719 17.334 35.681 16.507 35.478 15.934 C 35.225 15.222 34.526 14.491 33.837 14.217 C 33.528 14.095 33.167 14.034 32.804 14.035 L 32.803 14.035 Z " fill="rgb(198,40,40)"/><path d=" M 32.803 11.941 C 32.335 11.942 31.862 12.042 31.483 12.237 C 30.929 12.522 30.371 13.127 30.124 13.71 C 29.861 14.329 29.824 15.422 30.045 16.002 C 30.139 16.248 30.3 16.67 30.404 16.94 C 30.638 17.55 30.723 18.892 30.574 19.645 C 30.407 20.494 29.887 21.474 29.278 22.09 C 27.449 23.939 24.683 23.971 22.867 22.165 C 22.24 21.542 22.151 21.393 19.322 16.227 C 18.362 14.473 17.5 13.004 17.321 12.814 C 16.759 12.206 15.977 11.988 15.261 11.984 C 13.722 11.959 12.655 13.191 12.402 14.514 C 12.215 15.572 12.129 15.39 17.101 24.454 C 20.239 30.176 21.731 32.813 21.976 33.072 C 22.842 33.991 24.076 34.218 25.231 33.673 C 25.535 33.529 25.879 33.272 26.098 33.023 C 26.528 32.535 35.423 16.379 35.568 15.823 C 35.719 15.241 35.681 14.413 35.478 13.84 C 35.225 13.128 34.526 12.397 33.837 12.124 C 33.528 12.001 33.167 11.941 32.804 11.941 L 32.803 11.941 Z " fill="rgb(255,255,255)"/><path d=" M 32.803 12.941 C 32.335 12.942 31.862 13.042 31.483 13.237 C 30.929 13.522 30.371 14.127 30.124 14.71 C 29.861 15.329 29.824 16.422 30.045 17.002 C 30.139 17.248 30.3 17.67 30.404 17.94 C 30.638 18.55 30.723 19.892 30.574 20.645 C 30.407 21.494 29.887 22.474 29.278 23.09 C 27.449 24.939 24.683 24.971 22.867 23.165 C 22.24 22.542 22.151 22.393 19.322 17.227 C 18.362 15.473 17.5 14.004 17.321 13.814 C 16.759 13.206 15.977 12.988 15.261 12.984 C 13.722 12.959 12.655 14.191 12.402 15.514 C 12.215 16.572 12.129 16.39 17.101 25.454 C 20.239 31.176 21.731 33.813 21.976 34.072 C 22.842 34.991 24.076 35.218 25.231 34.673 C 25.535 34.529 25.879 34.272 26.098 34.023 C 26.528 33.535 35.423 17.379 35.568 16.823 C 35.719 16.241 35.681 15.413 35.478 14.84 C 35.225 14.128 34.526 13.397 33.837 13.124 C 33.528 13.001 33.167 12.941 32.804 12.941 L 32.803 12.941 Z " fill="rgb(247,247,247)"/></g></g></g></svg>