<?xml version="1.0" standalone="no"?><!-- Generator: Gravit.io --><svg xmlns="http://www.w3.org/2000/svg" xmlns:xlink="http://www.w3.org/1999/xlink" style="isolation:isolate" viewBox="0 0 48 48" width="48" height="48"><defs><clipPath id="_clipPath_RNa6IxRXZXcMey2YKYNV5jsxdR6rMZ6Q"><rect width="48" height="48"/></clipPath></defs><g clip-path="url(#_clipPath_RNa6IxRXZXcMey2YKYNV5jsxdR6rMZ6Q)"><g style="isolation:isolate" id="Design"><defs><filter id="FosITrHtcTLMwBXFvsPjTif1l9EHHyXs" x="-200%" y="-200%" width="400%" height="400%"><feOffset xmlns="http://www.w3.org/2000/svg" in="SourceAlpha" result="offOut" dx="0" dy="1"/><feGaussianBlur xmlns="http://www.w3.org/2000/svg" in="offOut" result="blurOut" stdDeviation="0.5"/><feComponentTransfer xmlns="http://www.w3.org/2000/svg" in="blurOut" result="opacOut"><feFuncA xmlns="http://www.w3.org/2000/svg" type="table" tableValues="0 0.5"/></feComponentTransfer><feBlend xmlns="http://www.w3.org/2000/svg" in="SourceGraphic" in2="opacOut" mode="normal"/></filter></defs><g filter="url(#FosITrHtcTLMwBXFvsPjTif1l9EHHyXs)"><path d=" M 2 24 C 2 11.858 11.858 2 24 2 C 36.142 2 46 11.858 46 24 C 46 36.142 36.142 46 24 46 C 11.858 46 2 36.142 2 24 Z " fill="rgb(229,57,53)"/></g><g id="Group"><path d=" M 32.803 13.535 C 32.335 13.536 31.862 13.636 31.483 13.831 C 30.929 14.116 30.371 14.72 30.124 15.303 C 29.861 15.923 29.824 17.016 30.045 17.596 C 30.139 17.842 30.3 18.264 30.404 18.534 C 30.638 19.144 30.723 20.485 30.574 21.239 C 30.407 22.088 29.887 23.068 29.278 23.684 C 27.449 25.533 24.683 25.565 22.867 23.759 C 22.24 23.136 22.151 22.987 19.322 17.821 C 18.362 16.067 17.5 14.598 17.321 14.408 C 16.759 13.799 15.977 13.582 15.261 13.578 C 13.722 13.553 12.655 14.785 12.402 16.107 C 12.215 17.166 12.129 16.984 17.101 26.048 C 20.239 31.769 21.731 34.407 21.976 34.666 C 22.842 35.585 24.076 35.812 25.231 35.267 C 25.535 35.123 25.879 34.865 26.098 34.616 C 26.528 34.129 35.423 17.973 35.568 17.417 C 35.719 16.834 35.681 16.007 35.478 15.434 C 35.225 14.722 34.526 13.991 33.837 13.717 C 33.528 13.595 33.167 13.534 32.804 13.535 L 32.803 13.535 Z " fill="rgb(198,40,40)"/><path d=" M 32.803 12.441 C 32.335 12.442 31.862 12.542 31.483 12.737 C 30.929 13.022 30.371 13.627 30.124 14.21 C 29.861 14.829 29.824 15.922 30.045 16.502 C 30.139 16.748 30.3 17.17 30.404 17.44 C 30.638 18.05 30.723 19.392 30.574 20.145 C 30.407 20.994 29.887 21.974 29.278 22.59 C 27.449 24.439 24.683 24.471 22.867 22.665 C 22.24 22.042 22.151 21.893 19.322 16.727 C 18.362 14.973 17.5 13.504 17.321 13.314 C 16.759 12.706 15.977 12.488 15.261 12.484 C 13.722 12.459 12.655 13.691 12.402 15.014 C 12.215 16.072 12.129 15.89 17.101 24.954 C 20.239 30.676 21.731 33.313 21.976 33.572 C 22.842 34.491 24.076 34.718 25.231 34.173 C 25.535 34.029 25.879 33.772 26.098 33.523 C 26.528 33.035 35.423 16.879 35.568 16.323 C 35.719 15.741 35.681 14.913 35.478 14.34 C 35.225 13.628 34.526 12.897 33.837 12.624 C 33.528 12.501 33.167 12.441 32.804 12.441 L 32.803 12.441 Z " fill="rgb(255,255,255)"/></g></g></g></svg>