<?xml version="1.0" standalone="no"?><!-- Generator: Gravit.io --><svg xmlns="http://www.w3.org/2000/svg" xmlns:xlink="http://www.w3.org/1999/xlink" style="isolation:isolate" viewBox="0 0 48 48" width="48" height="48"><defs><clipPath id="_clipPath_sPNCOW2n9F2AbitNgu7bkmuN4oZ9frbW"><rect width="48" height="48"/></clipPath></defs><g clip-path="url(#_clipPath_sPNCOW2n9F2AbitNgu7bkmuN4oZ9frbW)"><g style="isolation:isolate" id="Design"><defs><filter id="FvLPx3l359vmjGA5HpLv98H3i4rNUck8" x="-200%" y="-200%" width="400%" height="400%"><feOffset xmlns="http://www.w3.org/2000/svg" in="SourceAlpha" result="offOut" dx="0" dy="1"/><feGaussianBlur xmlns="http://www.w3.org/2000/svg" in="offOut" result="blurOut" stdDeviation="0.5"/><feComponentTransfer xmlns="http://www.w3.org/2000/svg" in="blurOut" result="opacOut"><feFuncA xmlns="http://www.w3.org/2000/svg" type="table" tableValues="0 0.5"/></feComponentTransfer><feBlend xmlns="http://www.w3.org/2000/svg" in="SourceGraphic" in2="opacOut" mode="normal"/></filter></defs><g filter="url(#FvLPx3l359vmjGA5HpLv98H3i4rNUck8)"><linearGradient id="_lgradient_4" x1="50%" y1="-1.339285714285715%" x2="49.999999999999964%" y2="101.33928571428574%"><stop offset="4.3478260869565215%" stop-opacity="1" style="stop-color:rgb(255,255,255)"/><stop offset="56.086956521739125%" stop-opacity="1" style="stop-color:rgb(238,238,238)"/><stop offset="98.69565217391305%" stop-opacity="1" style="stop-color:rgb(224,224,224)"/></linearGradient><path d=" M 2 24 C 2 11.858 11.858 2 24 2 C 36.142 2 46 11.858 46 24 C 46 36.142 36.142 46 24 46 C 11.858 46 2 36.142 2 24 Z " fill="url(#_lgradient_4)"/></g><mask id="_mask_IlIW0Ube5K1DrUYsNpA9d7xujP4ujBzM" x="-200%" y="-200%" width="400%" height="400%"><rect x="0" y="0" width="100%" height="100%" style="fill:white;"/><path d=" M 2 24 C 2 11.858 11.858 2 24 2 C 36.142 2 46 11.858 46 24 C 46 36.142 36.142 46 24 46 C 11.858 46 2 36.142 2 24 Z  M 4 24 C 4 18.7 6.1 13.6 9.9 9.9 C 13.6 6.1 18.7 4 24 4 C 29.3 4 34.4 6.1 38.1 9.9 C 41.9 13.6 44 18.7 44 24 C 44 29.3 41.9 34.4 38.1 38.1 C 34.4 41.9 29.3 44 24 44 C 18.7 44 13.6 41.9 9.9 38.1 C 6.1 34.4 4 29.3 4 24 Z " fill-rule="evenodd" fill="black" stroke="none"/></mask><path d=" M 2 24 C 2 11.858 11.858 2 24 2 C 36.142 2 46 11.858 46 24 C 46 36.142 36.142 46 24 46 C 11.858 46 2 36.142 2 24 Z  M 4 24 C 4 18.7 6.1 13.6 9.9 9.9 C 13.6 6.1 18.7 4 24 4 C 29.3 4 34.4 6.1 38.1 9.9 C 41.9 13.6 44 18.7 44 24 C 44 29.3 41.9 34.4 38.1 38.1 C 34.4 41.9 29.3 44 24 44 C 18.7 44 13.6 41.9 9.9 38.1 C 6.1 34.4 4 29.3 4 24 Z " fill-rule="evenodd" fill="rgb(255,255,255)" mask="url(#_mask_IlIW0Ube5K1DrUYsNpA9d7xujP4ujBzM)" vector-effect="non-scaling-stroke" stroke-width="0.2" stroke="rgb(245,245,245)" stroke-linejoin="miter" stroke-linecap="square" stroke-miterlimit="3"/><g id="Group vlc"><path d=" M 30.811 24.492 L 31.315 24.492 L 32.674 25.328 L 35.495 32.016 L 35.6 32.434 C 35.6 32.539 35.6 32.539 35.6 32.539 C 35.6 33.479 34.868 34.211 33.928 34.211 L 14.072 34.211 C 13.132 34.211 12.4 33.479 12.4 32.539 C 12.4 32.539 12.4 32.539 12.4 32.434 L 12.505 32.016 L 15.431 25.328 L 16.685 24.492 L 17.273 24.492 L 15.102 31.263 L 15.013 31.624 C 15.102 31.985 15.28 32.225 15.547 32.225 L 32.453 32.225 C 32.72 32.225 32.987 31.985 32.987 31.624 L 32.898 31.263 L 30.811 24.492 Z " fill="rgb(204,110,2)"/><path d=" M 30.811 23.492 L 31.315 23.492 L 32.674 24.328 L 35.495 31.016 L 35.6 31.434 C 35.6 31.539 35.6 31.539 35.6 31.539 C 35.6 32.479 34.868 33.211 33.928 33.211 L 14.072 33.211 C 13.132 33.211 12.4 32.479 12.4 31.539 C 12.4 31.539 12.4 31.539 12.4 31.434 L 12.505 31.016 L 15.431 24.328 L 16.685 23.492 L 17.273 23.492 L 15.102 30.263 L 15.013 30.624 C 15.102 30.985 15.28 31.225 15.547 31.225 L 32.453 31.225 C 32.72 31.225 32.987 30.985 32.987 30.624 L 32.898 30.263 L 30.811 23.492 Z " fill="rgb(255,136,0)"/><g id="Group"><path d=" M 28.682 22.797 L 29.006 23.885 C 24.762 26.442 20.007 24.621 18.957 24.009 L 18.19 26.586 C 18.071 26.986 18.223 27.417 18.567 27.656 C 20.07 28.698 22.021 29.118 23.964 29.099 C 25.906 29.081 27.855 28.621 29.385 27.687 C 29.761 27.458 29.935 27.006 29.81 26.586 L 28.682 22.797 L 28.682 22.797 Z  M 19.317 22.797 L 18.957 24.009 L 19.317 22.797 L 19.317 22.797 Z " fill-rule="evenodd" fill="rgb(255,136,0)"/><path d=" M 28.336 21.394 C 28.337 21.394 28.338 21.393 28.339 21.392 L 27.437 18.342 C 27.434 18.343 27.431 18.344 27.429 18.345 L 28.336 21.394 Z  M 19.662 21.511 C 19.662 21.513 19.663 21.514 19.663 21.516 C 20.533 22.022 24.319 23.478 27.85 21.677 C 28.014 21.586 28.176 21.492 28.336 21.394 L 27.437 18.375 C 25.121 19.291 23.174 19.526 20.596 18.375 L 19.662 21.511 Z  M 19.662 21.511 C 19.662 21.507 19.661 21.504 19.661 21.5 L 20.595 18.342 L 20.595 18.342 L 20.595 18.342 C 20.599 18.34 20.603 18.338 20.607 18.337 L 19.662 21.511 Z  M 21.632 15.052 C 21.618 15.029 21.605 15.001 21.592 14.973 L 22.366 12.355 C 22.439 12.108 22.621 11.908 22.859 11.812 C 23.245 11.657 23.635 11.592 24.017 11.597 L 24.017 11.597 L 24.017 11.597 C 24.4 11.601 24.775 11.674 25.131 11.797 C 25.389 11.886 25.588 12.094 25.665 12.355 L 26.44 14.973 C 26.337 15.05 26.224 15.133 26.103 15.222 C 24.863 15.848 22.705 15.791 21.632 15.052 Z " fill-rule="evenodd" fill="rgb(255,136,0)"/></g><g id="Group"><path d="M 17.272 33.404 L 17.428 33.404 C 17.578 33.404 17.7 33.525 17.7 33.675 L 17.7 35.132 C 17.7 35.282 17.578 35.404 17.428 35.404 L 17.272 35.404 C 17.122 35.404 17 35.282 17 35.132 L 17 33.675 C 17 33.525 17.122 33.404 17.272 33.404 Z" style="stroke:none;fill:#CC6E02;stroke-miterlimit:10;"/><path d="M 19.25 33.404 L 19.25 33.404 C 19.388 33.404 19.5 33.53 19.5 33.685 L 19.5 36.122 C 19.5 36.277 19.388 36.404 19.25 36.404 L 19.25 36.404 C 19.112 36.404 19 36.277 19 36.122 L 19 33.685 C 19 33.53 19.112 33.404 19.25 33.404 Z" style="stroke:none;fill:#CC6E02;stroke-miterlimit:10;"/><path d="M 29.23 33.404 L 29.27 33.404 C 29.397 33.404 29.5 33.507 29.5 33.633 L 29.5 35.174 C 29.5 35.301 29.397 35.404 29.27 35.404 L 29.23 35.404 C 29.103 35.404 29 35.301 29 35.174 L 29 33.633 C 29 33.507 29.103 33.404 29.23 33.404 Z" style="stroke:none;fill:#CC6E02;stroke-miterlimit:10;"/><path d="M 26.23 21.404 L 26.27 21.404 C 26.397 21.404 26.5 21.507 26.5 21.633 L 26.5 23.174 C 26.5 23.301 26.397 23.404 26.27 23.404 L 26.23 23.404 C 26.103 23.404 26 23.301 26 23.174 L 26 21.633 C 26 21.507 26.103 21.404 26.23 21.404 Z" style="stroke:none;fill:#FF8800;stroke-miterlimit:10;"/><path d="M 23.23 14.404 L 23.27 14.404 C 23.397 14.404 23.5 14.507 23.5 14.633 L 23.5 16.174 C 23.5 16.301 23.397 16.404 23.27 16.404 L 23.23 16.404 C 23.103 16.404 23 16.301 23 16.174 L 23 14.633 C 23 14.507 23.103 14.404 23.23 14.404 Z" style="stroke:none;fill:#FF8800;stroke-miterlimit:10;"/></g></g></g></g></svg>