<?xml version="1.0" standalone="no"?><!-- Generator: Gravit.io --><svg xmlns="http://www.w3.org/2000/svg" xmlns:xlink="http://www.w3.org/1999/xlink" style="isolation:isolate" viewBox="0 0 256 256" width="256" height="256"><defs><clipPath id="_clipPath_VesxCBbru04ZWqLWckBxJ0n9wgE5nXIE"><rect width="256" height="256"/></clipPath></defs><g clip-path="url(#_clipPath_VesxCBbru04ZWqLWckBxJ0n9wgE5nXIE)"><g style="isolation:isolate" id="Icon"><path d=" M 3.013 129.5 C 3.003 129.999 3 130.499 3 131 C 3 199.989 59.011 256 128 256 C 196.989 256 253 199.989 253 131 C 253 130.499 252.997 129.999 252.987 129.5 C 252.186 197.8 196.488 253 128 253 C 59.512 253 3.814 197.8 3.013 129.5 Z " fill="rgb(0,0,0)" fill-opacity="0.15"/><path d=" M 3 128 C 3 59.011 59.011 3 128 3 C 196.989 3 253 59.011 253 128 C 253 196.989 196.989 253 128 253 C 59.011 253 3 196.989 3 128 Z " fill="rgb(247,247,247)"/></g><g style="opacity:0.5;" id="Grid"><path d=" M 256 176.281 C 256 179.325 256 182.368 255.982 185.416 C 255.964 188.464 255.938 190.541 255.866 193.104 C 255.795 195.666 255.38 204.32 254.377 209.838 C 253.373 215.355 251.701 220.661 249.074 225.756 C 246.448 230.85 243.139 235.335 239.125 239.305 C 235.112 243.275 230.479 246.605 225.422 249.15 C 220.364 251.695 215.004 253.388 209.336 254.394 C 203.668 255.4 198.058 255.717 192.413 255.867 C 186.767 256.017 178.481 255.999 175.404 255.999 Q 175.404 255.999 116.071 255.999 Q 80.725 255.999 80.725 255.999 C 68.899 255.964 66.308 255.938 63.717 255.867 C 61.126 255.796 52.376 255.386 46.793 254.394 C 41.21 253.402 35.854 251.743 30.708 249.15 C 25.562 246.556 21.017 243.275 17.004 239.305 C 12.99 235.335 9.628 230.757 7.05 225.756 C 4.473 220.754 2.769 215.443 1.748 209.838 C 0.727 204.232 0.415 198.683 0.263 193.104 C 0.112 187.524 0.161 187.978 0.147 185.416 C 0.134 182.853 0.125 179.325 0.125 176.281 Q 0.125 176.281 0.125 141.323 L 0.125 114.677 Q 0.125 79.719 0.125 79.719 C 0.125 76.675 0.125 73.628 0.147 70.589 C 0.17 67.55 0.192 65.459 0.263 62.896 C 0.335 60.334 0.745 51.68 1.748 46.158 C 2.752 40.636 4.428 35.339 7.05 30.244 C 9.673 25.15 12.99 20.66 17.004 16.695 C 21.017 12.73 25.646 9.395 30.708 6.85 C 35.769 4.305 41.125 2.612 46.793 1.606 C 52.461 0.6 58.071 0.283 63.717 0.133 C 69.362 -0.017 77.648 0.001 80.725 0.001 Q 80.725 0.001 116.071 0.001 L 172.88 0.001 L 140.054 0.014 Q 175.404 0.001 175.404 0.001 C 187.226 0.036 189.817 0.062 192.413 0.133 C 195.008 0.204 203.753 0.614 209.336 1.606 C 214.92 2.599 220.275 4.257 225.422 6.85 C 230.568 9.444 235.112 12.721 239.125 16.695 C 243.139 20.669 246.501 25.238 249.074 30.244 C 251.648 35.251 253.36 40.552 254.377 46.158 C 255.394 51.764 255.715 57.313 255.866 62.896 C 256.018 68.48 255.969 68.022 255.982 70.589 C 255.996 73.156 256 76.675 256 79.719 Q 256 79.719 256 114.677 L 256 141.323 Q 256 176.281 256 176.281 Z " fill-rule="evenodd" fill="none" vector-effect="non-scaling-stroke" stroke-width="0.25" stroke="rgb(0,0,0)" stroke-linejoin="miter" stroke-linecap="square" stroke-miterlimit="3"/><path d=" M 69.774 128 C 69.774 95.814 95.892 69.683 128.062 69.683 C 160.233 69.683 186.351 95.814 186.351 128 C 186.351 160.186 160.233 186.317 128.062 186.317 C 95.892 186.317 69.774 160.186 69.774 128 Z " fill="none" vector-effect="non-scaling-stroke" stroke-width="0.32" stroke="rgb(0,0,0)" stroke-linejoin="miter" stroke-linecap="square" stroke-miterlimit="3"/><path d=" M 47.699 128 C 47.699 83.624 83.708 47.597 128.062 47.597 C 172.416 47.597 208.426 83.624 208.426 128 C 208.426 172.376 172.416 208.403 128.062 208.403 C 83.708 208.403 47.699 172.376 47.699 128 Z " fill="none" vector-effect="non-scaling-stroke" stroke-width="0.32" stroke="rgb(0,0,0)" stroke-linejoin="miter" stroke-linecap="square" stroke-miterlimit="3"/><path d=" M 3.015 128 C 3.015 59.011 59.026 3 128.015 3 C 197.005 3 253.015 59.011 253.015 128 C 253.015 196.989 197.005 253 128.015 253 C 59.026 253 3.015 196.989 3.015 128 Z " fill="none" vector-effect="non-scaling-stroke" stroke-width="0.32" stroke="rgb(0,0,0)" stroke-linejoin="miter" stroke-linecap="square" stroke-miterlimit="3"/><line x1="128" y1="0" x2="128" y2="256" vector-effect="non-scaling-stroke" stroke-width="0.25" stroke="rgb(0,0,0)" stroke-linejoin="miter" stroke-linecap="square" stroke-miterlimit="3"/><line x1="47.699" y1="0" x2="47.699" y2="256" vector-effect="non-scaling-stroke" stroke-width="0.25" stroke="rgb(0,0,0)" stroke-linejoin="miter" stroke-linecap="square" stroke-miterlimit="3"/><line x1="208.426" y1="0" x2="208.426" y2="256" vector-effect="non-scaling-stroke" stroke-width="0.25" stroke="rgb(0,0,0)" stroke-linejoin="miter" stroke-linecap="square" stroke-miterlimit="3"/><line x1="0.125" y1="128" x2="256" y2="128" vector-effect="non-scaling-stroke" stroke-width="0.25" stroke="rgb(0,0,0)" stroke-linejoin="miter" stroke-linecap="square" stroke-miterlimit="3"/><line x1="0.125" y1="208.403" x2="256" y2="208.403" vector-effect="non-scaling-stroke" stroke-width="0.25" stroke="rgb(0,0,0)" stroke-linejoin="miter" stroke-linecap="square" stroke-miterlimit="3"/><line x1="0.125" y1="47.597" x2="256" y2="47.597" vector-effect="non-scaling-stroke" stroke-width="0.25" stroke="rgb(0,0,0)" stroke-linejoin="miter" stroke-linecap="square" stroke-miterlimit="3"/><line x1="0.125" y1="0" x2="255.97" y2="255.97" vector-effect="non-scaling-stroke" stroke-width="0.25" stroke="rgb(0,0,0)" stroke-linejoin="miter" stroke-linecap="square" stroke-miterlimit="3"/><line x1="255.875" y1="0" x2="0.03" y2="255.97" vector-effect="non-scaling-stroke" stroke-width="0.25" stroke="rgb(0,0,0)" stroke-linejoin="miter" stroke-linecap="square" stroke-miterlimit="3"/></g><g style="isolation:isolate" id="Tutorial"><path d=" M 42 48 C 42 44.689 44.689 42 48 42 C 51.311 42 54 44.689 54 48 C 54 51.311 51.311 54 48 54 C 44.689 54 42 51.311 42 48 Z " fill="rgb(156,39,176)"/><path d=" M 122 128 C 122 124.689 124.689 122 128 122 C 131.311 122 134 124.689 134 128 C 134 131.311 131.311 134 128 134 C 124.689 134 122 131.311 122 128 Z " fill="rgb(156,39,176)"/><path d=" M 122 48 C 122 44.689 124.689 42 128 42 C 131.311 42 134 44.689 134 48 C 134 51.311 131.311 54 128 54 C 124.689 54 122 51.311 122 48 Z " fill="rgb(66,165,245)"/><path d=" M 122 8 C 122 4.689 124.689 2 128 2 C 131.311 2 134 4.689 134 8 C 134 11.311 131.311 14 128 14 C 124.689 14 122 11.311 122 8 Z " fill="rgb(66,165,245)"/><path d=" M 122 208 C 122 204.689 124.689 202 128 202 C 131.311 202 134 204.689 134 208 C 134 211.311 131.311 214 128 214 C 124.689 214 122 211.311 122 208 Z " fill="rgb(66,165,245)"/><path d=" M 122 248 C 122 244.689 124.689 242 128 242 C 131.311 242 134 244.689 134 248 C 134 251.311 131.311 254 128 254 C 124.689 254 122 251.311 122 248 Z " fill="rgb(66,165,245)"/><path d=" M 202 208 C 202 204.689 204.689 202 208 202 C 211.311 202 214 204.689 214 208 C 214 211.311 211.311 214 208 214 C 204.689 214 202 211.311 202 208 Z " fill="rgb(156,39,176)"/><path d=" M 42 208 C 42 204.689 44.689 202 48 202 C 51.311 202 54 204.689 54 208 C 54 211.311 51.311 214 48 214 C 44.689 214 42 211.311 42 208 Z " fill="rgb(156,39,176)"/><path d=" M 202 48 C 202 44.689 204.689 42 208 42 C 211.311 42 214 44.689 214 48 C 214 51.311 211.311 54 208 54 C 204.689 54 202 51.311 202 48 Z " fill="rgb(156,39,176)"/></g></g></svg>