<?xml version="1.0" standalone="no"?><!-- Generator: Gravit.io --><svg xmlns="http://www.w3.org/2000/svg" xmlns:xlink="http://www.w3.org/1999/xlink" style="isolation:isolate" viewBox="0 0 256 256" width="256" height="256"><defs><clipPath id="_clipPath_Kh9mFFjt4IHHZUI6xKGRIONZ9a4GjMhL"><rect width="256" height="256"/></clipPath></defs><g clip-path="url(#_clipPath_Kh9mFFjt4IHHZUI6xKGRIONZ9a4GjMhL)"><g style="isolation:isolate" id="Icon"><path d=" M 256 176.281 C 256 179.325 256 182.368 255.982 185.416 C 255.964 188.464 255.938 190.541 255.866 193.104 C 255.795 195.666 255.38 204.32 254.377 209.838 C 253.373 215.355 251.701 220.661 249.074 225.756 C 246.448 230.85 243.139 235.335 239.125 239.305 C 235.112 243.275 230.479 246.605 225.422 249.15 C 220.364 251.695 215.004 253.388 209.336 254.394 C 203.668 255.4 198.058 255.717 192.413 255.867 C 186.767 256.017 178.481 255.999 175.404 255.999 Q 175.404 255.999 116.071 255.999 Q 80.725 255.999 80.725 255.999 C 68.899 255.964 66.308 255.938 63.717 255.867 C 61.126 255.796 52.376 255.386 46.793 254.394 C 41.21 253.402 35.854 251.743 30.708 249.15 C 25.562 246.556 21.017 243.275 17.004 239.305 C 12.99 235.335 9.628 230.757 7.05 225.756 C 4.473 220.754 2.769 215.443 1.748 209.838 C 0.727 204.232 0.415 198.683 0.263 193.104 C 0.112 187.524 0.161 187.978 0.147 185.416 C 0.134 182.853 0.125 179.325 0.125 176.281 Q 0.125 176.281 0.125 141.323 L 0.125 114.677 Q 0.125 79.719 0.125 79.719 C 0.125 76.675 0.125 73.628 0.147 70.589 C 0.17 67.55 0.192 65.459 0.263 62.896 C 0.335 60.334 0.745 51.68 1.748 46.158 C 2.752 40.636 4.428 35.339 7.05 30.244 C 9.673 25.15 12.99 20.66 17.004 16.695 C 21.017 12.73 25.646 9.395 30.708 6.85 C 35.769 4.305 41.125 2.612 46.793 1.606 C 52.461 0.6 58.071 0.283 63.717 0.133 C 69.362 -0.017 77.648 0.001 80.725 0.001 Q 80.725 0.001 116.071 0.001 L 172.88 0.001 L 140.054 0.014 Q 175.404 0.001 175.404 0.001 C 187.226 0.036 189.817 0.062 192.413 0.133 C 195.008 0.204 203.753 0.614 209.336 1.606 C 214.92 2.599 220.275 4.257 225.422 6.85 C 230.568 9.444 235.112 12.721 239.125 16.695 C 243.139 20.669 246.501 25.238 249.074 30.244 C 251.648 35.251 253.36 40.552 254.377 46.158 C 255.394 51.764 255.715 57.313 255.866 62.896 C 256.018 68.48 255.969 68.022 255.982 70.589 C 255.996 73.156 256 76.675 256 79.719 Q 256 79.719 256 114.677 L 256 141.323 Q 256 176.281 256 176.281 Z " fill-rule="evenodd" fill="rgb(255,255,255)" vector-effect="non-scaling-stroke" stroke-width="0.25" stroke="rgb(0,0,0)" stroke-linejoin="miter" stroke-linecap="square" stroke-miterlimit="3"/><g id="Group"><g id="Group Eye"><g id="Group Left"><path d=" M 13.028 113.873 C 12.705 124.066 15.841 133.499 22.679 140.337 C 38.547 156.205 68.382 152.137 89.261 131.258 C 102.031 118.487 108.513 102.366 107.991 88.14 C 107.579 101.596 101.142 116.377 89.261 128.258 C 68.382 149.137 38.547 153.205 22.679 137.337 C 16.517 131.175 13.361 122.906 13.028 113.873 Z " fill="rgb(78,52,46)"/><path d=" M 13.053 112.289 C 12.381 97.964 18.864 81.654 31.759 68.759 C 52.638 47.88 82.472 43.811 98.34 59.679 C 105.309 66.649 108.433 76.312 107.967 86.73 C 107.56 77.857 104.408 69.747 98.34 63.679 C 82.472 47.811 52.638 51.88 31.759 72.759 C 20.05 84.467 13.628 98.992 13.053 112.289 Z " fill="rgb(109,76,65)"/><path d=" M 22.679 138.34 C 6.811 122.472 10.88 92.638 31.759 71.759 C 52.638 50.88 82.472 46.811 98.34 62.679 C 114.208 78.547 110.14 108.382 89.261 129.261 C 68.382 150.14 38.547 154.208 22.679 138.34 Z " fill="rgb(93,64,55)"/><path d=" M 61.222 70.58 C 57.996 75.837 56 83.162 56 91.255 C 56 107.297 63.841 120.322 73.5 120.322 C 83.159 120.322 91 107.297 91 91.255 C 91 89.469 90.903 87.721 90.707 86.029 C 84.538 82.092 82.516 74.081 75.495 71 C 70.731 68.909 65.999 69.692 61.222 70.58 Z " fill="rgb(255,255,255)" vector-effect="non-scaling-stroke" stroke-width="1" stroke="rgb(78,52,46)" stroke-linejoin="miter" stroke-linecap="square" stroke-miterlimit="3"/><path d=" M 61.37 94.995 C 61.37 84.153 66.805 75.351 73.5 75.351 C 80.195 75.351 85.63 84.153 85.63 94.995 C 85.63 105.838 80.195 114.64 73.5 114.64 C 66.805 114.64 61.37 105.838 61.37 94.995 Z " fill="rgb(0,191,214)"/><path d=" M 67.64 94.995 C 67.64 89.758 70.266 85.505 73.5 85.505 C 76.734 85.505 79.36 89.758 79.36 94.995 C 79.36 100.233 76.734 104.486 73.5 104.486 C 70.266 104.486 67.64 100.233 67.64 94.995 Z " fill="rgb(0,72,82)"/><path d=" M 69.954 84.743 C 69.954 81.573 71.543 79 73.5 79 C 75.457 79 77.046 81.573 77.046 84.743 C 77.046 87.912 75.457 90.486 73.5 90.486 C 71.543 90.486 69.954 87.912 69.954 84.743 Z " fill="rgb(0,191,214)"/><path d=" M 73.5 86.743 C 73.5 84.677 74.536 83 75.811 83 C 77.087 83 78.122 84.677 78.122 86.743 C 78.122 88.809 77.087 90.486 75.811 90.486 C 74.536 90.486 73.5 88.809 73.5 86.743 Z " fill="rgb(255,255,255)"/><path d=" M 73.302 110.33 C 70.806 110.331 69.368 109.673 67 108.351 C 69.063 110.98 70.673 112.549 73.5 112.549 C 76.327 112.549 77.937 110.98 80 108.351 C 77.368 109.668 75.798 110.329 73.302 110.33 Z " fill="rgb(255,255,255)"/><path d=" M 57 95.88 C 57 93.601 59.464 91.751 62.5 91.751 C 65.536 91.751 68 93.601 68 95.88 C 68 98.158 65.536 100.008 62.5 100.008 C 59.464 100.008 57 98.158 57 95.88 Z " fill="rgb(255,255,255)"/></g><g id="Group Right"><path d=" M 242.992 113.873 C 243.315 124.066 240.179 133.499 233.341 140.337 C 217.473 156.205 187.638 152.137 166.759 131.258 C 153.989 118.487 147.507 102.366 148.029 88.14 C 148.441 101.596 154.878 116.377 166.759 128.258 C 187.638 149.137 217.473 153.205 233.341 137.337 C 239.503 131.175 242.659 122.906 242.992 113.873 Z " fill="rgb(78,52,46)"/><path d=" M 242.967 112.289 C 243.639 97.964 237.156 81.654 224.261 68.759 C 203.382 47.88 173.548 43.811 157.68 59.679 C 150.711 66.649 147.587 76.312 148.053 86.73 C 148.46 77.857 151.612 69.747 157.68 63.679 C 173.548 47.811 203.382 51.88 224.261 72.759 C 235.97 84.467 242.392 98.992 242.967 112.289 Z " fill="rgb(109,76,65)"/><path d=" M 233.341 138.34 C 249.209 122.472 245.14 92.638 224.261 71.759 C 203.382 50.88 173.548 46.811 157.68 62.679 C 141.812 78.547 145.88 108.382 166.759 129.261 C 187.638 150.14 217.473 154.208 233.341 138.34 Z " fill="rgb(93,64,55)"/><path d=" M 194.798 70.58 C 198.024 75.837 200.02 83.162 200.02 91.255 C 200.02 107.297 192.179 120.322 182.52 120.322 C 172.861 120.322 165.02 107.297 165.02 91.255 C 165.02 89.469 165.117 87.721 165.313 86.029 C 171.482 82.092 173.504 74.081 180.525 71 C 185.289 68.909 190.021 69.692 194.798 70.58 Z " fill="rgb(255,255,255)" vector-effect="non-scaling-stroke" stroke-width="1" stroke="rgb(78,52,46)" stroke-linejoin="miter" stroke-linecap="square" stroke-miterlimit="3"/><path d=" M 194.65 94.995 C 194.65 84.153 189.215 75.351 182.52 75.351 C 175.825 75.351 170.39 84.153 170.39 94.995 C 170.39 105.838 175.825 114.64 182.52 114.64 C 189.215 114.64 194.65 105.838 194.65 94.995 Z " fill="rgb(0,191,214)"/><path d=" M 188.38 94.995 C 188.38 89.758 185.754 85.505 182.52 85.505 C 179.286 85.505 176.66 89.758 176.66 94.995 C 176.66 100.233 179.286 104.486 182.52 104.486 C 185.754 104.486 188.38 100.233 188.38 94.995 Z " fill="rgb(0,72,82)"/><path d=" M 186.066 84.743 C 186.066 81.573 184.477 79 182.52 79 C 180.563 79 178.974 81.573 178.974 84.743 C 178.974 87.912 180.563 90.486 182.52 90.486 C 184.477 90.486 186.066 87.912 186.066 84.743 Z " fill="rgb(0,191,214)"/><path d=" M 182.52 86.743 C 182.52 84.677 181.484 83 180.209 83 C 178.933 83 177.898 84.677 177.898 86.743 C 177.898 88.809 178.933 90.486 180.209 90.486 C 181.484 90.486 182.52 88.809 182.52 86.743 Z " fill="rgb(255,255,255)"/><path d=" M 182.718 110.33 C 185.214 110.331 186.652 109.673 189.02 108.351 C 186.957 110.98 185.347 112.549 182.52 112.549 C 179.693 112.549 178.083 110.98 176.02 108.351 C 178.652 109.668 180.222 110.329 182.718 110.33 Z " fill="rgb(255,255,255)"/><path d=" M 199.02 95.88 C 199.02 93.601 196.556 91.751 193.52 91.751 C 190.484 91.751 188.02 93.601 188.02 95.88 C 188.02 98.158 190.484 100.008 193.52 100.008 C 196.556 100.008 199.02 98.158 199.02 95.88 Z " fill="rgb(255,255,255)"/></g></g><g id="Group nose"><path d="M 121.758 130.602 L 134.242 130.602 C 137.254 130.602 139.699 133.047 139.699 136.059 L 139.699 146.544 C 139.699 149.555 137.254 152 134.242 152 L 121.758 152 C 118.746 152 116.301 149.555 116.301 146.544 L 116.301 136.059 C 116.301 133.047 118.746 130.602 121.758 130.602 Z" style="stroke:none;fill:#5D4037;stroke-miterlimit:10;"/><path d="M 121.758 124.602 L 134.242 124.602 C 137.254 124.602 139.699 127.047 139.699 130.059 L 139.699 140.544 C 139.699 143.555 137.254 146 134.242 146 L 121.758 146 C 118.746 146 116.301 143.555 116.301 140.544 L 116.301 130.059 C 116.301 127.047 118.746 124.602 121.758 124.602 Z" style="stroke:none;fill:#8D6E63;stroke-miterlimit:10;"/><path d="M 121.758 127.602 L 134.242 127.602 C 137.254 127.602 139.699 130.047 139.699 133.059 L 139.699 143.544 C 139.699 146.555 137.254 149 134.242 149 L 121.758 149 C 118.746 149 116.301 146.555 116.301 143.544 L 116.301 133.059 C 116.301 130.047 118.746 127.602 121.758 127.602 Z" style="stroke:none;fill:#6D4C41;stroke-miterlimit:10;"/></g><g id="Group lips"><path d=" M 95.5 205 C 95.5 196.169 110.063 189 128 189 C 145.937 189 160.5 196.169 160.5 205 C 160.5 213.831 145.937 221 128 221 C 110.063 221 95.5 213.831 95.5 205 Z " fill="rgb(229,115,115)"/><g id="Group"><linearGradient id="_lgradient_37" x1="50%" y1="0%" x2="49.999999999999986%" y2="99.99999999999983%"><stop offset="0%" stop-opacity="1" style="stop-color:rgb(238,238,238)"/><stop offset="40.43478260869565%" stop-opacity="1" style="stop-color:rgb(250,250,250)"/></linearGradient><path d=" M 106 193.227 C 111.488 190.74 118.718 189.17 126.68 189.011 C 126.891 189.525 127 190.09 127 190.68 L 127 199.32 C 127 201.903 124.903 204 122.32 204 L 110.68 204 C 108.097 204 106 201.903 106 199.32 L 106 193.227 Z " fill="url(#_lgradient_37)"/><linearGradient id="_lgradient_38" x1="50%" y1="0%" x2="49.999999999999986%" y2="99.99999999999983%"><stop offset="0%" stop-opacity="1" style="stop-color:rgb(238,238,238)"/><stop offset="40.43478260869565%" stop-opacity="1" style="stop-color:rgb(250,250,250)"/></linearGradient><path d=" M 129.32 189.011 C 137.282 189.17 144.512 190.74 150 193.227 L 150 199.32 C 150 201.903 147.903 204 145.32 204 L 133.68 204 C 131.097 204 129 201.903 129 199.32 L 129 190.68 C 129 190.09 129.109 189.525 129.32 189.011 Z " fill="url(#_lgradient_38)"/></g></g><rect x="127" y="164" width="2" height="20" transform="matrix(1,0,0,1,0,0)" fill="rgb(93,64,55)"/><g id="Group"><path d=" M 205.943 1.121 C 207.152 1.257 208.299 1.422 209.336 1.606 C 214.92 2.599 220.275 4.257 225.422 6.85 C 230.568 9.444 235.112 12.721 239.125 16.695 C 243.139 20.669 246.501 25.238 249.074 30.244 C 251.648 35.251 253.36 40.552 254.377 46.158 C 255.117 50.24 255.489 54.292 255.686 58.35 C 254.735 58.409 253.777 58.438 252.813 58.438 C 226.424 58.438 205 37.013 205 10.625 C 205 7.372 205.326 4.194 205.943 1.121 Z " fill="rgb(78,52,46)" vector-effect="non-scaling-stroke" stroke-width="0.25" stroke="rgb(0,0,0)" stroke-linejoin="miter" stroke-linecap="square" stroke-miterlimit="3"/><path d=" M 0.489 58.36 C 0.693 54.671 1.095 49.752 1.748 46.158 C 2.752 40.636 4.428 35.339 7.05 30.244 C 9.673 25.15 12.99 20.66 17.004 16.695 C 21.017 12.73 25.646 9.395 30.708 6.85 C 35.769 4.305 41.125 2.612 46.793 1.606 C 47.883 1.413 48.97 1.245 50.055 1.111 C 50.674 4.186 51 7.368 51 10.625 C 51 37.013 29.576 58.438 3.188 58.438 C 2.282 58.438 1.381 58.412 0.489 58.36 Z " fill="rgb(78,52,46)" vector-effect="non-scaling-stroke" stroke-width="0.25" stroke="rgb(0,0,0)" stroke-linejoin="miter" stroke-linecap="square" stroke-miterlimit="3"/></g><g id="Group"><g id="Group Left"><path d=" M 83 155.519 C 83 153.588 84.568 152.019 86.5 152.019 C 88.432 152.019 90 153.588 90 155.519 C 90 157.451 88.432 159.019 86.5 159.019 C 84.568 159.019 83 157.451 83 155.519 Z  M 76 173.019 C 76 171.088 77.568 169.519 79.5 169.519 C 81.432 169.519 83 171.088 83 173.019 C 83 174.951 81.432 176.519 79.5 176.519 C 77.568 176.519 76 174.951 76 173.019 Z  M 91 173.519 C 91 171.588 92.568 170.019 94.5 170.019 C 96.432 170.019 98 171.588 98 173.519 C 98 175.451 96.432 177.019 94.5 177.019 C 92.568 177.019 91 175.451 91 173.519 Z  M 76 162.519 C 76 160.588 77.568 159.019 79.5 159.019 C 81.432 159.019 83 160.588 83 162.519 C 83 164.451 81.432 166.019 79.5 166.019 C 77.568 166.019 76 164.451 76 162.519 Z  M 93 159.019 C 93 157.915 93.896 157.019 95 157.019 C 96.104 157.019 97 157.915 97 159.019 C 97 160.123 96.104 161.019 95 161.019 C 93.896 161.019 93 160.123 93 159.019 Z  M 88 167.019 C 88 165.915 88.896 165.019 90 165.019 C 91.104 165.019 92 165.915 92 167.019 C 92 168.123 91.104 169.019 90 169.019 C 88.896 169.019 88 168.123 88 167.019 Z  M 93 149.019 C 93 147.915 93.896 147.019 95 147.019 C 96.104 147.019 97 147.915 97 149.019 C 97 150.123 96.104 151.019 95 151.019 C 93.896 151.019 93 150.123 93 149.019 Z  M 68 166.019 C 68 164.915 68.896 164.019 70 164.019 C 71.104 164.019 72 164.915 72 166.019 C 72 167.123 71.104 168.019 70 168.019 C 68.896 168.019 68 167.123 68 166.019 Z " fill-rule="evenodd" fill="rgb(78,52,46)"/><path d=" M 83 154.519 C 83 152.588 84.568 151.019 86.5 151.019 C 88.432 151.019 90 152.588 90 154.519 C 90 156.451 88.432 158.019 86.5 158.019 C 84.568 158.019 83 156.451 83 154.519 Z  M 76 172.019 C 76 170.088 77.568 168.519 79.5 168.519 C 81.432 168.519 83 170.088 83 172.019 C 83 173.951 81.432 175.519 79.5 175.519 C 77.568 175.519 76 173.951 76 172.019 Z  M 91 172.519 C 91 170.588 92.568 169.019 94.5 169.019 C 96.432 169.019 98 170.588 98 172.519 C 98 174.451 96.432 176.019 94.5 176.019 C 92.568 176.019 91 174.451 91 172.519 Z  M 76 161.519 C 76 159.588 77.568 158.019 79.5 158.019 C 81.432 158.019 83 159.588 83 161.519 C 83 163.451 81.432 165.019 79.5 165.019 C 77.568 165.019 76 163.451 76 161.519 Z  M 93 158.019 C 93 156.915 93.896 156.019 95 156.019 C 96.104 156.019 97 156.915 97 158.019 C 97 159.123 96.104 160.019 95 160.019 C 93.896 160.019 93 159.123 93 158.019 Z  M 88 166.019 C 88 164.915 88.896 164.019 90 164.019 C 91.104 164.019 92 164.915 92 166.019 C 92 167.123 91.104 168.019 90 168.019 C 88.896 168.019 88 167.123 88 166.019 Z  M 93 148.019 C 93 146.915 93.896 146.019 95 146.019 C 96.104 146.019 97 146.915 97 148.019 C 97 149.123 96.104 150.019 95 150.019 C 93.896 150.019 93 149.123 93 148.019 Z  M 68 165.019 C 68 163.915 68.896 163.019 70 163.019 C 71.104 163.019 72 163.915 72 165.019 C 72 166.123 71.104 167.019 70 167.019 C 68.896 167.019 68 166.123 68 165.019 Z " fill-rule="evenodd" fill="rgb(109,76,65)"/></g><g id="Group Right"><path d=" M 173 155.519 C 173 153.588 171.432 152.019 169.5 152.019 C 167.568 152.019 166 153.588 166 155.519 C 166 157.451 167.568 159.019 169.5 159.019 C 171.432 159.019 173 157.451 173 155.519 Z  M 180 173.019 C 180 171.088 178.432 169.519 176.5 169.519 C 174.568 169.519 173 171.088 173 173.019 C 173 174.951 174.568 176.519 176.5 176.519 C 178.432 176.519 180 174.951 180 173.019 Z  M 165 173.519 C 165 171.588 163.432 170.019 161.5 170.019 C 159.568 170.019 158 171.588 158 173.519 C 158 175.451 159.568 177.019 161.5 177.019 C 163.432 177.019 165 175.451 165 173.519 Z  M 180 162.519 C 180 160.588 178.432 159.019 176.5 159.019 C 174.568 159.019 173 160.588 173 162.519 C 173 164.451 174.568 166.019 176.5 166.019 C 178.432 166.019 180 164.451 180 162.519 Z  M 163 159.019 C 163 157.915 162.104 157.019 161 157.019 C 159.896 157.019 159 157.915 159 159.019 C 159 160.123 159.896 161.019 161 161.019 C 162.104 161.019 163 160.123 163 159.019 Z  M 168 167.019 C 168 165.915 167.104 165.019 166 165.019 C 164.896 165.019 164 165.915 164 167.019 C 164 168.123 164.896 169.019 166 169.019 C 167.104 169.019 168 168.123 168 167.019 Z  M 163 149.019 C 163 147.915 162.104 147.019 161 147.019 C 159.896 147.019 159 147.915 159 149.019 C 159 150.123 159.896 151.019 161 151.019 C 162.104 151.019 163 150.123 163 149.019 Z  M 188 166.019 C 188 164.915 187.104 164.019 186 164.019 C 184.896 164.019 184 164.915 184 166.019 C 184 167.123 184.896 168.019 186 168.019 C 187.104 168.019 188 167.123 188 166.019 Z " fill-rule="evenodd" fill="rgb(78,52,46)"/><path d=" M 173 154.519 C 173 152.588 171.432 151.019 169.5 151.019 C 167.568 151.019 166 152.588 166 154.519 C 166 156.451 167.568 158.019 169.5 158.019 C 171.432 158.019 173 156.451 173 154.519 Z  M 180 172.019 C 180 170.088 178.432 168.519 176.5 168.519 C 174.568 168.519 173 170.088 173 172.019 C 173 173.951 174.568 175.519 176.5 175.519 C 178.432 175.519 180 173.951 180 172.019 Z  M 165 172.519 C 165 170.588 163.432 169.019 161.5 169.019 C 159.568 169.019 158 170.588 158 172.519 C 158 174.451 159.568 176.019 161.5 176.019 C 163.432 176.019 165 174.451 165 172.519 Z  M 180 161.519 C 180 159.588 178.432 158.019 176.5 158.019 C 174.568 158.019 173 159.588 173 161.519 C 173 163.451 174.568 165.019 176.5 165.019 C 178.432 165.019 180 163.451 180 161.519 Z  M 163 158.019 C 163 156.915 162.104 156.019 161 156.019 C 159.896 156.019 159 156.915 159 158.019 C 159 159.123 159.896 160.019 161 160.019 C 162.104 160.019 163 159.123 163 158.019 Z  M 168 166.019 C 168 164.915 167.104 164.019 166 164.019 C 164.896 164.019 164 164.915 164 166.019 C 164 167.123 164.896 168.019 166 168.019 C 167.104 168.019 168 167.123 168 166.019 Z  M 163 148.019 C 163 146.915 162.104 146.019 161 146.019 C 159.896 146.019 159 146.915 159 148.019 C 159 149.123 159.896 150.019 161 150.019 C 162.104 150.019 163 149.123 163 148.019 Z  M 188 165.019 C 188 163.915 187.104 163.019 186 163.019 C 184.896 163.019 184 163.915 184 165.019 C 184 166.123 184.896 167.019 186 167.019 C 187.104 167.019 188 166.123 188 165.019 Z " fill-rule="evenodd" fill="rgb(109,76,65)"/></g></g></g></g></g></svg>